<svg width="2240" height="45" viewBox="0 0 2240 45" fill="none" xmlns="http://www.w3.org/2000/svg">
<path d="M0.0390625 1.51994C1.03906 1.55994 2.37906 1.59993 4.05906 1.63993C5.77906 1.67993 7.47906 1.69993 9.15906 1.69993C11.0791 1.69993 12.9391 1.67993 14.7391 1.63993C16.5391 1.59993 17.8191 1.57993 18.5791 1.57993C24.1391 1.57993 28.2991 2.67993 31.0591 4.87993C33.8191 7.07993 35.1991 9.91993 35.1991 13.3999C35.1991 14.8399 34.9191 16.3599 34.3591 17.9599C33.7991 19.5199 32.8391 20.9799 31.4791 22.3399C30.1591 23.6599 28.3391 24.7399 26.0191 25.5799C23.6991 26.4199 20.7791 26.8399 17.2591 26.8399H11.1391V25.6399H16.6591C19.0191 25.6399 20.7991 25.0999 21.9991 24.0199C23.2391 22.9399 24.0791 21.5199 24.5191 19.7599C24.9991 17.9999 25.2391 16.0999 25.2391 14.0599C25.2391 10.2599 24.6791 7.41993 23.5591 5.53993C22.4391 3.65993 20.5191 2.71993 17.7991 2.71993C16.2391 2.71993 15.2191 3.05993 14.7391 3.73993C14.2991 4.41993 14.0791 5.79993 14.0791 7.87993V37.2799C14.0791 38.8399 14.2391 39.9999 14.5591 40.7599C14.8791 41.5199 15.4991 42.0199 16.4191 42.2599C17.3391 42.4999 18.6991 42.6399 20.4991 42.6799V43.9999C19.2591 43.9599 17.6591 43.9199 15.6991 43.8799C13.7391 43.8399 11.6791 43.8199 9.51906 43.8199C7.79906 43.8199 6.11906 43.8399 4.47906 43.8799C2.83906 43.9199 1.35906 43.9599 0.0390625 43.9999V42.7999C1.31906 42.7199 2.27906 42.5599 2.91906 42.3199C3.55906 42.0799 3.97906 41.5999 4.17906 40.8799C4.41906 40.1599 4.53906 39.0799 4.53906 37.6399V7.87993C4.53906 6.39993 4.41906 5.31993 4.17906 4.63993C3.97906 3.91993 3.53906 3.43993 2.85906 3.19993C2.21906 2.91993 1.27906 2.75993 0.0390625 2.71993V1.51994Z" fill="#562870"/>
<path d="M60.2566 0.679932C64.4966 0.679932 68.1966 1.53993 71.3566 3.25993C74.5566 4.97993 77.0366 7.45993 78.7966 10.6999C80.5566 13.8999 81.4366 17.7999 81.4366 22.3999C81.4366 26.8799 80.5366 30.7999 78.7366 34.1599C76.9366 37.5199 74.4166 40.1399 71.1766 42.0199C67.9766 43.8999 64.3166 44.8399 60.1966 44.8399C55.9566 44.8399 52.2366 43.9799 49.0366 42.2599C45.8766 40.5399 43.4166 38.0599 41.6566 34.8199C39.8966 31.5799 39.0166 27.6799 39.0166 23.1199C39.0166 18.6399 39.9166 14.7199 41.7166 11.3599C43.5566 7.99993 46.0566 5.37993 49.2166 3.49994C52.4166 1.61993 56.0966 0.679932 60.2566 0.679932ZM60.0166 1.75993C57.7766 1.75993 55.8166 2.65993 54.1366 4.45993C52.4966 6.25993 51.2166 8.73993 50.2966 11.8999C49.4166 15.0599 48.9766 18.7199 48.9766 22.8799C48.9766 27.1199 49.4766 30.8199 50.4766 33.9799C51.5166 37.0999 52.8966 39.5199 54.6166 41.2399C56.3766 42.9199 58.3166 43.7599 60.4366 43.7599C62.6766 43.7599 64.6166 42.8599 66.2566 41.0599C67.9366 39.2599 69.2166 36.7799 70.0966 33.6199C71.0166 30.4199 71.4766 26.7599 71.4766 22.6399C71.4766 18.3599 70.9566 14.6599 69.9166 11.5399C68.9166 8.41994 67.5366 6.01994 65.7766 4.33994C64.0566 2.61993 62.1366 1.75993 60.0166 1.75993Z" fill="#562870"/>
<path d="M101.055 0.739935C103.415 0.739935 105.235 0.999935 106.515 1.51994C107.795 1.99993 108.895 2.51993 109.815 3.07993C110.295 3.35993 110.675 3.57993 110.955 3.73993C111.275 3.85993 111.575 3.91993 111.855 3.91993C112.255 3.91993 112.535 3.69993 112.695 3.25993C112.895 2.81993 113.055 2.15993 113.175 1.27993H114.555C114.515 2.03993 114.455 2.95993 114.375 4.03993C114.335 5.07993 114.295 6.45993 114.255 8.17994C114.255 9.89993 114.255 12.1599 114.255 14.9599H112.875C112.715 12.8799 112.235 10.8599 111.435 8.89993C110.635 6.93993 109.495 5.33993 108.015 4.09993C106.575 2.81993 104.795 2.17993 102.675 2.17993C100.755 2.17993 99.1747 2.71993 97.9347 3.79993C96.6947 4.87993 96.0747 6.37994 96.0747 8.29993C96.0747 9.89994 96.4747 11.2799 97.2747 12.4399C98.0747 13.5599 99.2347 14.6599 100.755 15.7399C102.315 16.8199 104.195 18.1199 106.395 19.6399C108.315 20.8799 110.035 22.1199 111.555 23.3599C113.075 24.5999 114.295 25.9999 115.215 27.5599C116.135 29.1199 116.595 30.9799 116.595 33.1399C116.595 35.7799 115.895 37.9599 114.495 39.6799C113.135 41.3999 111.335 42.6999 109.095 43.5799C106.855 44.4199 104.395 44.8399 101.715 44.8399C99.2347 44.8399 97.2547 44.5999 95.7747 44.1199C94.2947 43.6399 93.0547 43.1399 92.0547 42.6199C91.1747 42.0599 90.4947 41.7799 90.0147 41.7799C89.6147 41.7799 89.3147 41.9999 89.1147 42.4399C88.9547 42.8799 88.8147 43.5399 88.6947 44.4199H87.3147C87.3947 43.4599 87.4347 42.3399 87.4347 41.0599C87.4747 39.7799 87.4947 38.1199 87.4947 36.0799C87.5347 33.9999 87.5547 31.3799 87.5547 28.2199H88.9347C89.0947 30.8599 89.5347 33.3399 90.2547 35.6599C91.0147 37.9399 92.1547 39.7799 93.6747 41.1799C95.2347 42.5799 97.2947 43.2799 99.8547 43.2799C101.255 43.2799 102.495 43.0399 103.575 42.5599C104.695 42.0399 105.595 41.2799 106.275 40.2799C106.955 39.2799 107.295 38.0399 107.295 36.5599C107.295 34.8799 106.895 33.4199 106.095 32.1799C105.335 30.9399 104.275 29.7799 102.915 28.6999C101.595 27.6199 100.055 26.5199 98.2947 25.3999C96.4147 24.1599 94.6547 22.9199 93.0147 21.6799C91.3747 20.4399 90.0547 19.0199 89.0547 17.4199C88.0947 15.8199 87.6147 13.9199 87.6147 11.7199C87.6147 9.19993 88.2347 7.13993 89.4747 5.53993C90.7547 3.89993 92.4147 2.69993 94.4547 1.93993C96.5347 1.13993 98.7347 0.739935 101.055 0.739935Z" fill="#562870"/>
<path d="M139.634 1.51994V2.71993C138.354 2.75993 137.374 2.91993 136.694 3.19993C136.054 3.43993 135.634 3.91993 135.434 4.63993C135.234 5.31993 135.134 6.39993 135.134 7.87993V37.6399C135.134 39.0799 135.234 40.1599 135.434 40.8799C135.674 41.5999 136.114 42.0799 136.754 42.3199C137.394 42.5599 138.354 42.7199 139.634 42.7999V43.9999C138.554 43.9199 137.194 43.8799 135.554 43.8799C133.914 43.8399 132.254 43.8199 130.574 43.8199C128.614 43.8199 126.794 43.8399 125.114 43.8799C123.474 43.8799 122.134 43.9199 121.094 43.9999V42.7999C122.374 42.7199 123.334 42.5599 123.974 42.3199C124.614 42.0799 125.034 41.5999 125.234 40.8799C125.474 40.1599 125.594 39.0799 125.594 37.6399V7.87993C125.594 6.39993 125.474 5.31993 125.234 4.63993C125.034 3.91993 124.594 3.43993 123.914 3.19993C123.274 2.91993 122.334 2.75993 121.094 2.71993V1.51994C122.134 1.55994 123.474 1.59993 125.114 1.63993C126.794 1.67993 128.614 1.69993 130.574 1.69993C132.254 1.69993 133.914 1.67993 135.554 1.63993C137.194 1.59993 138.554 1.55994 139.634 1.51994Z" fill="#562870"/>
<path d="M180.132 1.51994C179.972 3.55994 179.852 5.51994 179.772 7.39993C179.732 9.27993 179.712 10.7199 179.712 11.7199C179.712 12.5999 179.732 13.4399 179.772 14.2399C179.812 15.0399 179.852 15.7199 179.892 16.2799H178.512C177.872 12.9199 177.052 10.2599 176.052 8.29993C175.092 6.33993 173.932 4.95993 172.572 4.15993C171.212 3.31993 169.612 2.89993 167.772 2.89993H166.392V37.1599C166.392 38.7599 166.552 39.9599 166.872 40.7599C167.232 41.5599 167.872 42.0999 168.792 42.3799C169.712 42.6199 171.052 42.7599 172.812 42.7999V43.9999C171.572 43.9599 169.912 43.9199 167.832 43.8799C165.792 43.8399 163.652 43.8199 161.412 43.8199C159.212 43.8199 157.132 43.8399 155.172 43.8799C153.212 43.9199 151.632 43.9599 150.432 43.9999V42.7999C152.232 42.7599 153.592 42.6199 154.512 42.3799C155.432 42.0999 156.052 41.5599 156.372 40.7599C156.692 39.9599 156.852 38.7599 156.852 37.1599V2.89993H155.532C153.692 2.89993 152.092 3.31993 150.732 4.15993C149.372 4.95993 148.212 6.33993 147.252 8.29993C146.292 10.2199 145.452 12.8799 144.732 16.2799H143.352C143.432 15.7199 143.472 15.0399 143.472 14.2399C143.512 13.4399 143.532 12.5999 143.532 11.7199C143.532 10.7199 143.492 9.27993 143.412 7.39993C143.372 5.51994 143.272 3.55994 143.112 1.51994C144.952 1.55994 146.952 1.59993 149.112 1.63993C151.312 1.67993 153.512 1.69993 155.712 1.69993C157.912 1.69993 159.892 1.69993 161.652 1.69993C163.452 1.69993 165.432 1.69993 167.592 1.69993C169.792 1.69993 171.992 1.67993 174.192 1.63993C176.392 1.59993 178.372 1.55994 180.132 1.51994Z" fill="#562870"/>
<path d="M202.27 1.51994V2.71993C200.99 2.75993 200.01 2.91993 199.33 3.19993C198.69 3.43993 198.27 3.91993 198.07 4.63993C197.87 5.31993 197.77 6.39993 197.77 7.87993V37.6399C197.77 39.0799 197.87 40.1599 198.07 40.8799C198.31 41.5999 198.75 42.0799 199.39 42.3199C200.03 42.5599 200.99 42.7199 202.27 42.7999V43.9999C201.19 43.9199 199.83 43.8799 198.19 43.8799C196.55 43.8399 194.89 43.8199 193.21 43.8199C191.25 43.8199 189.43 43.8399 187.75 43.8799C186.11 43.8799 184.77 43.9199 183.73 43.9999V42.7999C185.01 42.7199 185.97 42.5599 186.61 42.3199C187.25 42.0799 187.67 41.5999 187.87 40.8799C188.11 40.1599 188.23 39.0799 188.23 37.6399V7.87993C188.23 6.39993 188.11 5.31993 187.87 4.63993C187.67 3.91993 187.23 3.43993 186.55 3.19993C185.91 2.91993 184.97 2.75993 183.73 2.71993V1.51994C184.77 1.55994 186.11 1.59993 187.75 1.63993C189.43 1.67993 191.25 1.69993 193.21 1.69993C194.89 1.69993 196.55 1.67993 198.19 1.63993C199.83 1.59993 201.19 1.55994 202.27 1.51994Z" fill="#562870"/>
<path d="M244.929 1.51994V2.71993C244.049 3.03994 243.109 3.73993 242.109 4.81993C241.149 5.89993 240.249 7.57993 239.409 9.85994L226.749 44.1199C226.429 44.0799 226.089 44.0599 225.729 44.0599C225.369 44.0599 225.009 44.0599 224.649 44.0599C224.329 44.0599 223.989 44.0599 223.629 44.0599C223.269 44.0599 222.929 44.0799 222.609 44.1199L207.309 6.55993C206.749 5.11993 206.129 4.13993 205.449 3.61993C204.769 3.05993 204.129 2.75993 203.529 2.71993V1.51994C204.729 1.55994 206.129 1.59993 207.729 1.63993C209.369 1.67993 211.009 1.69993 212.649 1.69993C214.489 1.69993 216.209 1.67993 217.809 1.63993C219.449 1.59993 220.769 1.55994 221.769 1.51994V2.71993C220.489 2.75993 219.489 2.91993 218.769 3.19993C218.049 3.43993 217.649 3.91993 217.569 4.63993C217.489 5.31993 217.729 6.35993 218.289 7.75993L229.209 35.5399L227.949 37.0399L236.229 14.7199C237.309 11.7199 237.869 9.35993 237.909 7.63993C237.949 5.91993 237.529 4.67993 236.649 3.91993C235.769 3.15993 234.509 2.75993 232.869 2.71993V1.51994C234.229 1.55994 235.509 1.59993 236.709 1.63993C237.909 1.67993 239.129 1.69993 240.369 1.69993C241.249 1.69993 242.069 1.67993 242.829 1.63993C243.629 1.59993 244.329 1.55994 244.929 1.51994Z" fill="#562870"/>
<path d="M278.467 1.51994C278.307 3.27993 278.187 4.97993 278.107 6.61993C278.067 8.25993 278.047 9.51993 278.047 10.3999C278.047 11.1999 278.067 11.9599 278.107 12.6799C278.147 13.3999 278.187 13.9999 278.227 14.4799H276.847C276.447 11.5599 275.827 9.25993 274.987 7.57993C274.147 5.85993 273.047 4.65993 271.687 3.97993C270.367 3.25993 268.807 2.89993 267.007 2.89993H264.547C263.387 2.89993 262.507 2.99993 261.907 3.19993C261.307 3.39993 260.907 3.79993 260.707 4.39993C260.507 4.99993 260.407 5.91993 260.407 7.15993V38.3599C260.407 39.5999 260.507 40.5199 260.707 41.1199C260.907 41.7199 261.307 42.1199 261.907 42.3199C262.507 42.5199 263.387 42.6199 264.547 42.6199H267.487C269.287 42.6199 270.867 42.2399 272.227 41.4799C273.627 40.6799 274.807 39.3399 275.767 37.4599C276.767 35.5799 277.527 33.0399 278.047 29.8399H279.427C279.307 31.1199 279.247 32.7999 279.247 34.8799C279.247 35.7999 279.267 37.0999 279.307 38.7799C279.347 40.4599 279.467 42.1999 279.667 43.9999C277.627 43.9199 275.327 43.8799 272.767 43.8799C270.207 43.8399 267.927 43.8199 265.927 43.8199C264.927 43.8199 263.647 43.8199 262.087 43.8199C260.527 43.8199 258.847 43.8399 257.047 43.8799C255.247 43.8799 253.427 43.8999 251.587 43.9399C249.747 43.9399 248.007 43.9599 246.367 43.9999V42.7999C247.647 42.7199 248.607 42.5599 249.247 42.3199C249.887 42.0799 250.307 41.5999 250.507 40.8799C250.747 40.1599 250.867 39.0799 250.867 37.6399V7.87993C250.867 6.39993 250.747 5.31993 250.507 4.63993C250.307 3.91993 249.867 3.43993 249.187 3.19993C248.547 2.91993 247.607 2.75993 246.367 2.71993V1.51994C248.007 1.55994 249.747 1.59993 251.587 1.63993C253.427 1.63993 255.247 1.65993 257.047 1.69993C258.847 1.69993 260.527 1.69993 262.087 1.69993C263.647 1.69993 264.927 1.69993 265.927 1.69993C267.767 1.69993 269.847 1.69993 272.167 1.69993C274.527 1.65993 276.627 1.59993 278.467 1.51994ZM269.107 22.0399C269.107 22.0399 269.107 22.2399 269.107 22.6399C269.107 23.0399 269.107 23.2399 269.107 23.2399H258.607C258.607 23.2399 258.607 23.0399 258.607 22.6399C258.607 22.2399 258.607 22.0399 258.607 22.0399H269.107ZM270.847 14.1199C270.687 16.3999 270.607 18.1399 270.607 19.3399C270.647 20.5399 270.667 21.6399 270.667 22.6399C270.667 23.6399 270.687 24.7399 270.727 25.9399C270.767 27.1399 270.867 28.8799 271.027 31.1599H269.647C269.447 29.7599 269.067 28.4599 268.507 27.2599C267.987 26.0599 267.227 25.0999 266.227 24.3799C265.227 23.6199 263.927 23.2399 262.327 23.2399V22.0399C263.527 22.0399 264.547 21.7999 265.387 21.3199C266.227 20.7999 266.907 20.1399 267.427 19.3399C267.987 18.4999 268.427 17.6199 268.747 16.6999C269.067 15.7799 269.307 14.9199 269.467 14.1199H270.847Z" fill="#562870"/>
<path d="M348.186 0.679932C350.826 0.679932 352.986 1.07993 354.666 1.87993C356.386 2.63993 357.906 3.53993 359.226 4.57994C360.026 5.17993 360.626 5.25993 361.026 4.81993C361.466 4.33993 361.766 3.23993 361.926 1.51994H363.306C363.226 3.07993 363.166 4.97993 363.126 7.21993C363.086 9.41993 363.066 12.3599 363.066 16.0399H361.686C361.486 14.1999 361.226 12.6399 360.906 11.3599C360.586 10.0399 360.146 8.87993 359.586 7.87993C359.026 6.87993 358.226 5.97993 357.186 5.17993C356.186 4.17993 355.026 3.43993 353.706 2.95993C352.386 2.47993 351.006 2.23993 349.566 2.23993C347.406 2.23993 345.566 2.81993 344.046 3.97993C342.526 5.09993 341.286 6.63993 340.326 8.59993C339.406 10.5599 338.726 12.7799 338.286 15.2599C337.846 17.6999 337.626 20.2399 337.626 22.8799C337.626 25.5599 337.846 28.1399 338.286 30.6199C338.766 33.0599 339.486 35.2399 340.446 37.1599C341.446 39.0799 342.726 40.5999 344.286 41.7199C345.846 42.8399 347.686 43.3999 349.806 43.3999C351.126 43.3999 352.446 43.1599 353.766 42.6799C355.126 42.1599 356.286 41.4199 357.246 40.4599C358.806 39.2599 359.866 37.7799 360.426 36.0199C360.986 34.2199 361.406 31.8399 361.686 28.8799H363.066C363.066 32.6799 363.086 35.7599 363.126 38.1199C363.166 40.4399 363.226 42.3999 363.306 43.9999H361.926C361.766 42.2799 361.486 41.1999 361.086 40.7599C360.726 40.3199 360.106 40.3799 359.226 40.9399C357.746 41.9799 356.166 42.8999 354.486 43.6999C352.846 44.4599 350.726 44.8399 348.126 44.8399C343.886 44.8399 340.166 43.9799 336.966 42.2599C333.806 40.5399 331.346 38.0599 329.586 34.8199C327.826 31.5799 326.946 27.6799 326.946 23.1199C326.946 18.6399 327.846 14.7199 329.646 11.3599C331.486 7.99993 333.986 5.37993 337.146 3.49994C340.346 1.61993 344.026 0.679932 348.186 0.679932Z" fill="#562870"/>
<path d="M394.151 43.9999V42.7999C395.431 42.7199 396.391 42.5599 397.031 42.3199C397.671 42.0799 398.091 41.5999 398.291 40.8799C398.531 40.1599 398.651 39.0799 398.651 37.6399V7.87993C398.651 6.39993 398.531 5.31993 398.291 4.63993C398.091 3.91993 397.651 3.43993 396.971 3.19993C396.331 2.91993 395.391 2.75993 394.151 2.71993V1.51994C395.231 1.55994 396.631 1.59993 398.351 1.63993C400.111 1.67993 401.851 1.69993 403.571 1.69993C405.411 1.69993 407.131 1.67993 408.731 1.63993C410.371 1.59993 411.691 1.55994 412.691 1.51994V2.71993C411.411 2.75993 410.431 2.91993 409.751 3.19993C409.111 3.43993 408.691 3.91993 408.491 4.63993C408.291 5.31993 408.191 6.39993 408.191 7.87993V37.6399C408.191 39.0799 408.291 40.1599 408.491 40.8799C408.731 41.5999 409.171 42.0799 409.811 42.3199C410.451 42.5599 411.411 42.7199 412.691 42.7999V43.9999C411.691 43.9199 410.371 43.8799 408.731 43.8799C407.131 43.8399 405.411 43.8199 403.571 43.8199C401.851 43.8199 400.111 43.8399 398.351 43.8799C396.631 43.8799 395.231 43.9199 394.151 43.9999ZM368.711 43.9999V42.7999C369.991 42.7199 370.951 42.5599 371.591 42.3199C372.231 42.0799 372.651 41.5999 372.851 40.8799C373.091 40.1599 373.211 39.0799 373.211 37.6399V7.87993C373.211 6.39993 373.091 5.31993 372.851 4.63993C372.651 3.91993 372.211 3.43993 371.531 3.19993C370.891 2.91993 369.951 2.75993 368.711 2.71993V1.51994C369.751 1.55994 371.091 1.59993 372.731 1.63993C374.411 1.67993 376.231 1.69993 378.191 1.69993C379.871 1.69993 381.531 1.67993 383.171 1.63993C384.811 1.59993 386.171 1.55994 387.251 1.51994V2.71993C385.971 2.75993 384.991 2.91993 384.311 3.19993C383.671 3.43993 383.251 3.91993 383.051 4.63993C382.851 5.31993 382.751 6.39993 382.751 7.87993V37.6399C382.751 39.0799 382.851 40.1599 383.051 40.8799C383.291 41.5999 383.731 42.0799 384.371 42.3199C385.011 42.5599 385.971 42.7199 387.251 42.7999V43.9999C386.171 43.9199 384.811 43.8799 383.171 43.8799C381.531 43.8399 379.871 43.8199 378.191 43.8199C376.231 43.8199 374.411 43.8399 372.731 43.8799C371.091 43.8799 369.751 43.9199 368.711 43.9999ZM378.851 23.2399V22.0399H402.551V23.2399H378.851Z" fill="#562870"/>
<path d="M436.739 1.39993L451.319 38.9599C451.879 40.3999 452.499 41.3999 453.179 41.9599C453.899 42.4799 454.539 42.7599 455.099 42.7999V43.9999C453.899 43.9199 452.479 43.8799 450.839 43.8799C449.239 43.8399 447.619 43.8199 445.979 43.8199C444.139 43.8199 442.399 43.8399 440.759 43.8799C439.119 43.8799 437.819 43.9199 436.859 43.9999V42.7999C438.899 42.7199 440.179 42.3799 440.699 41.7799C441.259 41.1399 441.139 39.7999 440.339 37.7599L430.139 9.85994L431.219 8.29993L422.099 32.0599C421.219 34.2599 420.679 36.0599 420.479 37.4599C420.319 38.8599 420.419 39.9399 420.779 40.6999C421.179 41.4599 421.799 41.9999 422.639 42.3199C423.519 42.5999 424.559 42.7599 425.759 42.7999V43.9999C424.439 43.9199 423.179 43.8799 421.979 43.8799C420.779 43.8399 419.559 43.8199 418.319 43.8199C417.439 43.8199 416.599 43.8399 415.799 43.8799C415.039 43.8799 414.359 43.9199 413.759 43.9999V42.7999C414.599 42.6399 415.459 42.0999 416.339 41.1799C417.219 40.2599 418.079 38.6999 418.919 36.4999L432.599 1.39993C433.239 1.43993 433.919 1.45993 434.639 1.45993C435.399 1.45993 436.099 1.43993 436.739 1.39993ZM440.939 26.7199V27.9199H423.059L423.659 26.7199H440.939Z" fill="#562870"/>
<path d="M474.447 1.51994V2.71993C473.087 2.75993 472.047 2.91993 471.327 3.19993C470.647 3.43993 470.187 3.91993 469.947 4.63993C469.707 5.31993 469.587 6.39993 469.587 7.87993V38.3599C469.587 39.5999 469.667 40.5199 469.827 41.1199C470.027 41.7199 470.387 42.1199 470.907 42.3199C471.467 42.5199 472.287 42.6199 473.367 42.6199H476.307C477.667 42.6199 478.947 42.2999 480.147 41.6599C481.347 41.0199 482.427 40.1199 483.387 38.9599C484.347 37.7599 485.147 36.3399 485.787 34.6999C486.427 33.0599 486.907 31.2399 487.227 29.2399H488.607C488.487 30.5999 488.427 32.3599 488.427 34.5199C488.427 35.4399 488.447 36.7799 488.487 38.5399C488.527 40.2999 488.647 42.1199 488.847 43.9999C486.807 43.9199 484.507 43.8799 481.947 43.8799C479.387 43.8399 477.107 43.8199 475.107 43.8199C474.107 43.8199 472.827 43.8199 471.267 43.8199C469.707 43.8199 468.027 43.8399 466.227 43.8799C464.427 43.8799 462.607 43.8999 460.767 43.9399C458.927 43.9399 457.187 43.9599 455.547 43.9999V42.7999C456.827 42.7199 457.787 42.5599 458.427 42.3199C459.067 42.0799 459.487 41.5999 459.687 40.8799C459.927 40.1599 460.047 39.0799 460.047 37.6399V7.87993C460.047 6.39993 459.927 5.31993 459.687 4.63993C459.487 3.91993 459.047 3.43993 458.367 3.19993C457.727 2.91993 456.787 2.75993 455.547 2.71993V1.51994C456.547 1.55994 457.887 1.59993 459.567 1.63993C461.287 1.67993 463.107 1.69993 465.027 1.69993C466.787 1.69993 468.507 1.67993 470.187 1.63993C471.907 1.59993 473.327 1.55994 474.447 1.51994Z" fill="#562870"/>
<path d="M511.127 1.51994V2.71993C509.767 2.75993 508.727 2.91993 508.007 3.19993C507.327 3.43993 506.867 3.91993 506.627 4.63993C506.387 5.31993 506.267 6.39993 506.267 7.87993V38.3599C506.267 39.5999 506.347 40.5199 506.507 41.1199C506.707 41.7199 507.067 42.1199 507.587 42.3199C508.147 42.5199 508.967 42.6199 510.047 42.6199H512.987C514.347 42.6199 515.627 42.2999 516.827 41.6599C518.027 41.0199 519.107 40.1199 520.067 38.9599C521.027 37.7599 521.827 36.3399 522.467 34.6999C523.107 33.0599 523.587 31.2399 523.907 29.2399H525.287C525.167 30.5999 525.107 32.3599 525.107 34.5199C525.107 35.4399 525.127 36.7799 525.167 38.5399C525.207 40.2999 525.327 42.1199 525.527 43.9999C523.487 43.9199 521.187 43.8799 518.627 43.8799C516.067 43.8399 513.787 43.8199 511.787 43.8199C510.787 43.8199 509.507 43.8199 507.947 43.8199C506.387 43.8199 504.707 43.8399 502.907 43.8799C501.107 43.8799 499.287 43.8999 497.447 43.9399C495.607 43.9399 493.867 43.9599 492.227 43.9999V42.7999C493.507 42.7199 494.467 42.5599 495.107 42.3199C495.747 42.0799 496.167 41.5999 496.367 40.8799C496.607 40.1599 496.727 39.0799 496.727 37.6399V7.87993C496.727 6.39993 496.607 5.31993 496.367 4.63993C496.167 3.91993 495.727 3.43993 495.047 3.19993C494.407 2.91993 493.467 2.75993 492.227 2.71993V1.51994C493.227 1.55994 494.567 1.59993 496.247 1.63993C497.967 1.67993 499.787 1.69993 501.707 1.69993C503.467 1.69993 505.187 1.67993 506.867 1.63993C508.587 1.59993 510.007 1.55994 511.127 1.51994Z" fill="#562870"/>
<path d="M561.006 1.51994C560.846 3.27993 560.726 4.97993 560.646 6.61993C560.606 8.25993 560.586 9.51993 560.586 10.3999C560.586 11.1999 560.606 11.9599 560.646 12.6799C560.686 13.3999 560.726 13.9999 560.766 14.4799H559.386C558.986 11.5599 558.366 9.25993 557.526 7.57993C556.686 5.85993 555.586 4.65993 554.226 3.97993C552.906 3.25993 551.346 2.89993 549.546 2.89993H547.086C545.926 2.89993 545.046 2.99993 544.446 3.19993C543.846 3.39993 543.446 3.79993 543.246 4.39993C543.046 4.99993 542.946 5.91993 542.946 7.15993V38.3599C542.946 39.5999 543.046 40.5199 543.246 41.1199C543.446 41.7199 543.846 42.1199 544.446 42.3199C545.046 42.5199 545.926 42.6199 547.086 42.6199H550.026C551.826 42.6199 553.406 42.2399 554.766 41.4799C556.166 40.6799 557.346 39.3399 558.306 37.4599C559.306 35.5799 560.066 33.0399 560.586 29.8399H561.966C561.846 31.1199 561.786 32.7999 561.786 34.8799C561.786 35.7999 561.806 37.0999 561.846 38.7799C561.886 40.4599 562.006 42.1999 562.206 43.9999C560.166 43.9199 557.866 43.8799 555.306 43.8799C552.746 43.8399 550.466 43.8199 548.466 43.8199C547.466 43.8199 546.186 43.8199 544.626 43.8199C543.066 43.8199 541.386 43.8399 539.586 43.8799C537.786 43.8799 535.966 43.8999 534.126 43.9399C532.286 43.9399 530.546 43.9599 528.906 43.9999V42.7999C530.186 42.7199 531.146 42.5599 531.786 42.3199C532.426 42.0799 532.846 41.5999 533.046 40.8799C533.286 40.1599 533.406 39.0799 533.406 37.6399V7.87993C533.406 6.39993 533.286 5.31993 533.046 4.63993C532.846 3.91993 532.406 3.43993 531.726 3.19993C531.086 2.91993 530.146 2.75993 528.906 2.71993V1.51994C530.546 1.55994 532.286 1.59993 534.126 1.63993C535.966 1.63993 537.786 1.65993 539.586 1.69993C541.386 1.69993 543.066 1.69993 544.626 1.69993C546.186 1.69993 547.466 1.69993 548.466 1.69993C550.306 1.69993 552.386 1.69993 554.706 1.69993C557.066 1.65993 559.166 1.59993 561.006 1.51994ZM551.646 22.0399C551.646 22.0399 551.646 22.2399 551.646 22.6399C551.646 23.0399 551.646 23.2399 551.646 23.2399H541.146C541.146 23.2399 541.146 23.0399 541.146 22.6399C541.146 22.2399 541.146 22.0399 541.146 22.0399H551.646ZM553.386 14.1199C553.226 16.3999 553.146 18.1399 553.146 19.3399C553.186 20.5399 553.206 21.6399 553.206 22.6399C553.206 23.6399 553.226 24.7399 553.266 25.9399C553.306 27.1399 553.406 28.8799 553.566 31.1599H552.186C551.986 29.7599 551.606 28.4599 551.046 27.2599C550.526 26.0599 549.766 25.0999 548.766 24.3799C547.766 23.6199 546.466 23.2399 544.866 23.2399V22.0399C546.066 22.0399 547.086 21.7999 547.926 21.3199C548.766 20.7999 549.446 20.1399 549.966 19.3399C550.526 18.4999 550.966 17.6199 551.286 16.6999C551.606 15.7799 551.846 14.9199 552.006 14.1199H553.386Z" fill="#562870"/>
<path d="M606.474 1.51994V2.71993C605.194 2.87993 604.234 3.21993 603.594 3.73993C602.954 4.21993 602.514 4.99993 602.274 6.07993C602.074 7.15993 601.974 8.67993 601.974 10.6399V44.1199C601.494 44.0799 600.994 44.0599 600.474 44.0599C599.994 44.0599 599.474 44.0799 598.914 44.1199L572.874 11.1199V34.1599C572.874 36.3599 572.994 38.0599 573.234 39.2599C573.474 40.4199 573.994 41.2599 574.794 41.7799C575.634 42.2599 576.934 42.5999 578.694 42.7999V43.9999C577.934 43.9199 576.934 43.8799 575.694 43.8799C574.454 43.8399 573.294 43.8199 572.214 43.8199C571.294 43.8199 570.354 43.8399 569.394 43.8799C568.434 43.8799 567.634 43.9199 566.994 43.9999V42.7999C568.274 42.5999 569.234 42.2599 569.874 41.7799C570.514 41.2999 570.934 40.5199 571.134 39.4399C571.374 38.3199 571.494 36.7999 571.494 34.8799V7.87993C571.494 6.39993 571.374 5.31993 571.134 4.63993C570.934 3.91993 570.494 3.43993 569.814 3.19993C569.174 2.91993 568.234 2.75993 566.994 2.71993V1.51994C567.634 1.55994 568.434 1.59993 569.394 1.63993C570.354 1.67993 571.294 1.69993 572.214 1.69993C573.174 1.69993 574.094 1.67993 574.974 1.63993C575.854 1.59993 576.654 1.55994 577.374 1.51994L600.594 30.1399V11.3599C600.594 9.15993 600.474 7.47993 600.234 6.31993C599.994 5.11993 599.454 4.25993 598.614 3.73993C597.814 3.21993 596.534 2.87993 594.774 2.71993V1.51994C595.534 1.55994 596.534 1.59993 597.774 1.63993C599.014 1.67993 600.174 1.69993 601.254 1.69993C602.214 1.69993 603.154 1.67993 604.074 1.63993C605.034 1.59993 605.834 1.55994 606.474 1.51994Z" fill="#562870"/>
<path d="M632.084 0.679932C634.804 0.679932 637.024 1.05993 638.744 1.81993C640.464 2.57993 642.004 3.49993 643.364 4.57994C643.844 4.93994 644.244 5.11993 644.564 5.11993C645.324 5.11993 645.824 3.91994 646.064 1.51994H647.444C647.364 3.07993 647.304 4.97993 647.264 7.21993C647.224 9.41993 647.204 12.3599 647.204 16.0399H645.824C645.544 13.6399 645.104 11.5599 644.504 9.79993C643.944 7.99993 642.884 6.45993 641.324 5.17993C640.364 4.25993 639.164 3.53993 637.724 3.01993C636.324 2.49993 634.904 2.23993 633.464 2.23993C631.264 2.23993 629.384 2.81993 627.824 3.97993C626.264 5.09993 624.984 6.63993 623.984 8.59993C622.984 10.5599 622.244 12.7799 621.764 15.2599C621.284 17.6999 621.044 20.2399 621.044 22.8799C621.044 30.0799 622.024 35.3399 623.984 38.6599C625.984 41.9799 628.844 43.6399 632.564 43.6399C633.524 43.6399 634.364 43.5199 635.084 43.2799C635.804 43.0399 636.384 42.7599 636.824 42.4399C637.384 42.0399 637.764 41.6199 637.964 41.1799C638.164 40.6999 638.264 40.0799 638.264 39.3199V33.4399C638.264 31.5999 638.104 30.2399 637.784 29.3599C637.504 28.4399 636.924 27.8199 636.044 27.4999C635.164 27.1799 633.884 26.9999 632.204 26.9599V25.7599C633.044 25.7999 634.044 25.8399 635.204 25.8799C636.404 25.8799 637.644 25.8999 638.924 25.9399C640.204 25.9399 641.384 25.9399 642.464 25.9399C644.144 25.9399 645.684 25.9199 647.084 25.8799C648.484 25.8399 649.624 25.7999 650.504 25.7599V26.9599C649.744 26.9999 649.164 27.1399 648.764 27.3799C648.404 27.6199 648.144 28.0999 647.984 28.8199C647.864 29.5399 647.804 30.6399 647.804 32.1199V43.9999H646.604C646.564 43.3199 646.404 42.5799 646.124 41.7799C645.884 40.9799 645.464 40.5799 644.864 40.5799C644.584 40.5799 644.204 40.6599 643.724 40.8199C643.284 40.9399 642.584 41.2799 641.624 41.8399C640.144 42.6799 638.584 43.3999 636.944 43.9999C635.304 44.5599 633.584 44.8399 631.784 44.8399C627.144 44.8399 623.224 43.9799 620.024 42.2599C616.824 40.5399 614.404 38.0799 612.764 34.8799C611.164 31.6399 610.364 27.7599 610.364 23.2399C610.364 18.6799 611.284 14.7199 613.124 11.3599C615.004 7.99993 617.564 5.37993 620.804 3.49994C624.084 1.61993 627.844 0.679932 632.084 0.679932Z" fill="#562870"/>
<path d="M672.485 1.51994V2.71993C671.205 2.75993 670.225 2.91993 669.545 3.19993C668.905 3.43993 668.485 3.91993 668.285 4.63993C668.085 5.31993 667.985 6.39993 667.985 7.87993V37.6399C667.985 39.0799 668.085 40.1599 668.285 40.8799C668.525 41.5999 668.965 42.0799 669.605 42.3199C670.245 42.5599 671.205 42.7199 672.485 42.7999V43.9999C671.405 43.9199 670.045 43.8799 668.405 43.8799C666.765 43.8399 665.105 43.8199 663.425 43.8199C661.465 43.8199 659.645 43.8399 657.965 43.8799C656.325 43.8799 654.985 43.9199 653.945 43.9999V42.7999C655.225 42.7199 656.185 42.5599 656.825 42.3199C657.465 42.0799 657.885 41.5999 658.085 40.8799C658.325 40.1599 658.445 39.0799 658.445 37.6399V7.87993C658.445 6.39993 658.325 5.31993 658.085 4.63993C657.885 3.91993 657.445 3.43993 656.765 3.19993C656.125 2.91993 655.185 2.75993 653.945 2.71993V1.51994C654.985 1.55994 656.325 1.59993 657.965 1.63993C659.645 1.67993 661.465 1.69993 663.425 1.69993C665.105 1.69993 666.765 1.67993 668.405 1.63993C670.045 1.59993 671.405 1.55994 672.485 1.51994Z" fill="#562870"/>
<path d="M716.044 1.51994V2.71993C714.764 2.87993 713.804 3.21993 713.164 3.73993C712.524 4.21993 712.084 4.99993 711.844 6.07993C711.644 7.15993 711.544 8.67993 711.544 10.6399V44.1199C711.064 44.0799 710.564 44.0599 710.044 44.0599C709.564 44.0599 709.044 44.0799 708.484 44.1199L682.444 11.1199V34.1599C682.444 36.3599 682.564 38.0599 682.804 39.2599C683.044 40.4199 683.564 41.2599 684.364 41.7799C685.204 42.2599 686.504 42.5999 688.264 42.7999V43.9999C687.504 43.9199 686.504 43.8799 685.264 43.8799C684.024 43.8399 682.864 43.8199 681.784 43.8199C680.864 43.8199 679.924 43.8399 678.964 43.8799C678.004 43.8799 677.204 43.9199 676.564 43.9999V42.7999C677.844 42.5999 678.804 42.2599 679.444 41.7799C680.084 41.2999 680.504 40.5199 680.704 39.4399C680.944 38.3199 681.064 36.7999 681.064 34.8799V7.87993C681.064 6.39993 680.944 5.31993 680.704 4.63993C680.504 3.91993 680.064 3.43993 679.384 3.19993C678.744 2.91993 677.804 2.75993 676.564 2.71993V1.51994C677.204 1.55994 678.004 1.59993 678.964 1.63993C679.924 1.67993 680.864 1.69993 681.784 1.69993C682.744 1.69993 683.664 1.67993 684.544 1.63993C685.424 1.59993 686.224 1.55994 686.944 1.51994L710.164 30.1399V11.3599C710.164 9.15993 710.044 7.47993 709.804 6.31993C709.564 5.11993 709.024 4.25993 708.184 3.73993C707.384 3.21993 706.104 2.87993 704.344 2.71993V1.51994C705.104 1.55994 706.104 1.59993 707.344 1.63993C708.584 1.67993 709.744 1.69993 710.824 1.69993C711.784 1.69993 712.724 1.67993 713.644 1.63993C714.604 1.59993 715.404 1.55994 716.044 1.51994Z" fill="#562870"/>
<path d="M741.655 0.679932C744.375 0.679932 746.595 1.05993 748.315 1.81993C750.035 2.57993 751.575 3.49993 752.935 4.57994C753.415 4.93994 753.815 5.11993 754.135 5.11993C754.895 5.11993 755.395 3.91994 755.635 1.51994H757.015C756.935 3.07993 756.875 4.97993 756.835 7.21993C756.795 9.41993 756.775 12.3599 756.775 16.0399H755.395C755.115 13.6399 754.675 11.5599 754.075 9.79993C753.515 7.99993 752.455 6.45993 750.895 5.17993C749.935 4.25993 748.735 3.53993 747.295 3.01993C745.895 2.49993 744.475 2.23993 743.035 2.23993C740.835 2.23993 738.955 2.81993 737.395 3.97993C735.835 5.09993 734.555 6.63993 733.555 8.59993C732.555 10.5599 731.815 12.7799 731.335 15.2599C730.855 17.6999 730.615 20.2399 730.615 22.8799C730.615 30.0799 731.595 35.3399 733.555 38.6599C735.555 41.9799 738.415 43.6399 742.135 43.6399C743.095 43.6399 743.935 43.5199 744.655 43.2799C745.375 43.0399 745.955 42.7599 746.395 42.4399C746.955 42.0399 747.335 41.6199 747.535 41.1799C747.735 40.6999 747.835 40.0799 747.835 39.3199V33.4399C747.835 31.5999 747.675 30.2399 747.355 29.3599C747.075 28.4399 746.495 27.8199 745.615 27.4999C744.735 27.1799 743.455 26.9999 741.775 26.9599V25.7599C742.615 25.7999 743.615 25.8399 744.775 25.8799C745.975 25.8799 747.215 25.8999 748.495 25.9399C749.775 25.9399 750.955 25.9399 752.035 25.9399C753.715 25.9399 755.255 25.9199 756.655 25.8799C758.055 25.8399 759.195 25.7999 760.075 25.7599V26.9599C759.315 26.9999 758.735 27.1399 758.335 27.3799C757.975 27.6199 757.715 28.0999 757.555 28.8199C757.435 29.5399 757.375 30.6399 757.375 32.1199V43.9999H756.175C756.135 43.3199 755.975 42.5799 755.695 41.7799C755.455 40.9799 755.035 40.5799 754.435 40.5799C754.155 40.5799 753.775 40.6599 753.295 40.8199C752.855 40.9399 752.155 41.2799 751.195 41.8399C749.715 42.6799 748.155 43.3999 746.515 43.9999C744.875 44.5599 743.155 44.8399 741.355 44.8399C736.715 44.8399 732.795 43.9799 729.595 42.2599C726.395 40.5399 723.975 38.0799 722.335 34.8799C720.735 31.6399 719.935 27.7599 719.935 23.2399C719.935 18.6799 720.855 14.7199 722.695 11.3599C724.575 7.99993 727.135 5.37993 730.375 3.49994C733.655 1.61993 737.415 0.679932 741.655 0.679932Z" fill="#562870"/>
<path d="M824.067 1.51994C831.947 1.51994 837.807 3.31993 841.647 6.91993C845.487 10.4799 847.407 15.5999 847.407 22.2799C847.407 26.6399 846.467 30.4599 844.587 33.7399C842.707 36.9799 839.967 39.4999 836.367 41.2999C832.807 43.0999 828.527 43.9999 823.527 43.9999C822.887 43.9999 822.047 43.9799 821.007 43.9399C819.967 43.8999 818.887 43.8799 817.767 43.8799C816.647 43.8399 815.647 43.8199 814.767 43.8199C813.007 43.8199 811.267 43.8399 809.547 43.8799C807.867 43.8799 806.527 43.9199 805.527 43.9999V42.7999C806.807 42.7199 807.767 42.5599 808.407 42.3199C809.047 42.0799 809.467 41.5999 809.667 40.8799C809.907 40.1599 810.027 39.0799 810.027 37.6399V7.87993C810.027 6.39993 809.907 5.31993 809.667 4.63993C809.467 3.91993 809.027 3.43993 808.347 3.19993C807.707 2.91993 806.767 2.75993 805.527 2.71993V1.51994C806.527 1.55994 807.867 1.61993 809.547 1.69993C811.267 1.73993 812.967 1.73993 814.647 1.69993C816.087 1.65993 817.707 1.61993 819.507 1.57993C821.347 1.53993 822.867 1.51994 824.067 1.51994ZM824.007 2.59993C822.167 2.59993 820.967 2.93993 820.407 3.61993C819.847 4.29993 819.567 5.67993 819.567 7.75993V37.7599C819.567 39.8399 819.847 41.2199 820.407 41.8999C821.007 42.5799 822.227 42.9199 824.067 42.9199C827.427 42.9199 830.067 42.1399 831.987 40.5799C833.947 38.9799 835.347 36.6599 836.187 33.6199C837.027 30.5799 837.447 26.8799 837.447 22.5199C837.447 18.0399 836.987 14.3399 836.067 11.4199C835.187 8.45993 833.767 6.25993 831.807 4.81993C829.847 3.33993 827.247 2.59993 824.007 2.59993Z" fill="#562870"/>
<path d="M883.682 1.51994C883.522 3.27993 883.402 4.97993 883.322 6.61993C883.282 8.25993 883.262 9.51993 883.262 10.3999C883.262 11.1999 883.282 11.9599 883.322 12.6799C883.362 13.3999 883.402 13.9999 883.442 14.4799H882.062C881.662 11.5599 881.042 9.25993 880.202 7.57993C879.362 5.85993 878.262 4.65993 876.902 3.97993C875.582 3.25993 874.022 2.89993 872.222 2.89993H869.762C868.602 2.89993 867.722 2.99993 867.122 3.19993C866.522 3.39993 866.122 3.79993 865.922 4.39993C865.722 4.99993 865.622 5.91993 865.622 7.15993V38.3599C865.622 39.5999 865.722 40.5199 865.922 41.1199C866.122 41.7199 866.522 42.1199 867.122 42.3199C867.722 42.5199 868.602 42.6199 869.762 42.6199H872.702C874.502 42.6199 876.082 42.2399 877.442 41.4799C878.842 40.6799 880.022 39.3399 880.982 37.4599C881.982 35.5799 882.742 33.0399 883.262 29.8399H884.642C884.522 31.1199 884.462 32.7999 884.462 34.8799C884.462 35.7999 884.482 37.0999 884.522 38.7799C884.562 40.4599 884.682 42.1999 884.882 43.9999C882.842 43.9199 880.542 43.8799 877.982 43.8799C875.422 43.8399 873.142 43.8199 871.142 43.8199C870.142 43.8199 868.862 43.8199 867.302 43.8199C865.742 43.8199 864.062 43.8399 862.262 43.8799C860.462 43.8799 858.642 43.8999 856.802 43.9399C854.962 43.9399 853.222 43.9599 851.582 43.9999V42.7999C852.862 42.7199 853.822 42.5599 854.462 42.3199C855.102 42.0799 855.522 41.5999 855.722 40.8799C855.962 40.1599 856.082 39.0799 856.082 37.6399V7.87993C856.082 6.39993 855.962 5.31993 855.722 4.63993C855.522 3.91993 855.082 3.43993 854.402 3.19993C853.762 2.91993 852.822 2.75993 851.582 2.71993V1.51994C853.222 1.55994 854.962 1.59993 856.802 1.63993C858.642 1.63993 860.462 1.65993 862.262 1.69993C864.062 1.69993 865.742 1.69993 867.302 1.69993C868.862 1.69993 870.142 1.69993 871.142 1.69993C872.982 1.69993 875.062 1.69993 877.382 1.69993C879.742 1.65993 881.842 1.59993 883.682 1.51994ZM874.322 22.0399C874.322 22.0399 874.322 22.2399 874.322 22.6399C874.322 23.0399 874.322 23.2399 874.322 23.2399H863.822C863.822 23.2399 863.822 23.0399 863.822 22.6399C863.822 22.2399 863.822 22.0399 863.822 22.0399H874.322ZM876.062 14.1199C875.902 16.3999 875.822 18.1399 875.822 19.3399C875.862 20.5399 875.882 21.6399 875.882 22.6399C875.882 23.6399 875.902 24.7399 875.942 25.9399C875.982 27.1399 876.082 28.8799 876.242 31.1599H874.862C874.662 29.7599 874.282 28.4599 873.722 27.2599C873.202 26.0599 872.442 25.0999 871.442 24.3799C870.442 23.6199 869.142 23.2399 867.542 23.2399V22.0399C868.742 22.0399 869.762 21.7999 870.602 21.3199C871.442 20.7999 872.122 20.1399 872.642 19.3399C873.202 18.4999 873.642 17.6199 873.962 16.6999C874.282 15.7799 874.522 14.9199 874.682 14.1199H876.062Z" fill="#562870"/>
<path d="M926.089 1.51994C925.929 3.55994 925.809 5.51994 925.729 7.39993C925.689 9.27993 925.669 10.7199 925.669 11.7199C925.669 12.5999 925.689 13.4399 925.729 14.2399C925.769 15.0399 925.809 15.7199 925.849 16.2799H924.469C923.829 12.9199 923.009 10.2599 922.009 8.29993C921.049 6.33993 919.889 4.95993 918.529 4.15993C917.169 3.31993 915.569 2.89993 913.729 2.89993H912.349V37.1599C912.349 38.7599 912.509 39.9599 912.829 40.7599C913.189 41.5599 913.829 42.0999 914.749 42.3799C915.669 42.6199 917.009 42.7599 918.769 42.7999V43.9999C917.529 43.9599 915.869 43.9199 913.789 43.8799C911.749 43.8399 909.609 43.8199 907.369 43.8199C905.169 43.8199 903.089 43.8399 901.129 43.8799C899.169 43.9199 897.589 43.9599 896.389 43.9999V42.7999C898.189 42.7599 899.549 42.6199 900.469 42.3799C901.389 42.0999 902.009 41.5599 902.329 40.7599C902.649 39.9599 902.809 38.7599 902.809 37.1599V2.89993H901.489C899.649 2.89993 898.049 3.31993 896.689 4.15993C895.329 4.95993 894.169 6.33993 893.209 8.29993C892.249 10.2199 891.409 12.8799 890.689 16.2799H889.309C889.389 15.7199 889.429 15.0399 889.429 14.2399C889.469 13.4399 889.489 12.5999 889.489 11.7199C889.489 10.7199 889.449 9.27993 889.369 7.39993C889.329 5.51994 889.229 3.55994 889.069 1.51994C890.909 1.55994 892.909 1.59993 895.069 1.63993C897.269 1.67993 899.469 1.69993 901.669 1.69993C903.869 1.69993 905.849 1.69993 907.609 1.69993C909.409 1.69993 911.389 1.69993 913.549 1.69993C915.749 1.69993 917.949 1.67993 920.149 1.63993C922.349 1.59993 924.329 1.55994 926.089 1.51994Z" fill="#562870"/>
<path d="M946.271 1.39993L960.85 38.9599C961.41 40.3999 962.031 41.3999 962.711 41.9599C963.431 42.4799 964.07 42.7599 964.63 42.7999V43.9999C963.43 43.9199 962.01 43.8799 960.37 43.8799C958.77 43.8399 957.15 43.8199 955.51 43.8199C953.67 43.8199 951.93 43.8399 950.29 43.8799C948.65 43.8799 947.351 43.9199 946.391 43.9999V42.7999C948.431 42.7199 949.71 42.3799 950.23 41.7799C950.79 41.1399 950.67 39.7999 949.87 37.7599L939.67 9.85994L940.75 8.29993L931.63 32.0599C930.75 34.2599 930.21 36.0599 930.01 37.4599C929.85 38.8599 929.95 39.9399 930.31 40.6999C930.71 41.4599 931.33 41.9999 932.17 42.3199C933.05 42.5999 934.09 42.7599 935.29 42.7999V43.9999C933.97 43.9199 932.71 43.8799 931.51 43.8799C930.31 43.8399 929.09 43.8199 927.85 43.8199C926.97 43.8199 926.131 43.8399 925.331 43.8799C924.571 43.8799 923.89 43.9199 923.29 43.9999V42.7999C924.13 42.6399 924.99 42.0999 925.87 41.1799C926.75 40.2599 927.611 38.6999 928.451 36.4999L942.13 1.39993C942.77 1.43993 943.45 1.45993 944.17 1.45993C944.93 1.45993 945.631 1.43993 946.271 1.39993ZM950.471 26.7199V27.9199H932.591L933.19 26.7199H950.471Z" fill="#562870"/>
<path d="M983.618 1.51994V2.71993C982.338 2.75993 981.358 2.91993 980.678 3.19993C980.038 3.43993 979.618 3.91993 979.418 4.63993C979.218 5.31993 979.118 6.39993 979.118 7.87993V37.6399C979.118 39.0799 979.218 40.1599 979.418 40.8799C979.658 41.5999 980.098 42.0799 980.738 42.3199C981.378 42.5599 982.338 42.7199 983.618 42.7999V43.9999C982.538 43.9199 981.178 43.8799 979.538 43.8799C977.898 43.8399 976.238 43.8199 974.558 43.8199C972.598 43.8199 970.778 43.8399 969.098 43.8799C967.458 43.8799 966.118 43.9199 965.078 43.9999V42.7999C966.358 42.7199 967.318 42.5599 967.958 42.3199C968.598 42.0799 969.018 41.5999 969.218 40.8799C969.458 40.1599 969.578 39.0799 969.578 37.6399V7.87993C969.578 6.39993 969.458 5.31993 969.218 4.63993C969.018 3.91993 968.578 3.43993 967.898 3.19993C967.258 2.91993 966.318 2.75993 965.078 2.71993V1.51994C966.118 1.55994 967.458 1.59993 969.098 1.63993C970.778 1.67993 972.598 1.69993 974.558 1.69993C976.238 1.69993 977.898 1.67993 979.538 1.63993C981.178 1.59993 982.538 1.55994 983.618 1.51994Z" fill="#562870"/>
<path d="M1006.54 1.51994V2.71993C1005.18 2.75993 1004.14 2.91993 1003.42 3.19993C1002.74 3.43993 1002.28 3.91993 1002.04 4.63993C1001.8 5.31993 1001.68 6.39993 1001.68 7.87993V38.3599C1001.68 39.5999 1001.76 40.5199 1001.92 41.1199C1002.12 41.7199 1002.48 42.1199 1003 42.3199C1003.56 42.5199 1004.38 42.6199 1005.46 42.6199H1008.4C1009.76 42.6199 1011.04 42.2999 1012.24 41.6599C1013.44 41.0199 1014.52 40.1199 1015.48 38.9599C1016.44 37.7599 1017.24 36.3399 1017.88 34.6999C1018.52 33.0599 1019 31.2399 1019.32 29.2399H1020.7C1020.58 30.5999 1020.52 32.3599 1020.52 34.5199C1020.52 35.4399 1020.54 36.7799 1020.58 38.5399C1020.62 40.2999 1020.74 42.1199 1020.94 43.9999C1018.9 43.9199 1016.6 43.8799 1014.04 43.8799C1011.48 43.8399 1009.2 43.8199 1007.2 43.8199C1006.2 43.8199 1004.92 43.8199 1003.36 43.8199C1001.8 43.8199 1000.12 43.8399 998.317 43.8799C996.517 43.8799 994.697 43.8999 992.857 43.9399C991.017 43.9399 989.277 43.9599 987.637 43.9999V42.7999C988.917 42.7199 989.877 42.5599 990.517 42.3199C991.157 42.0799 991.577 41.5999 991.777 40.8799C992.017 40.1599 992.137 39.0799 992.137 37.6399V7.87993C992.137 6.39993 992.017 5.31993 991.777 4.63993C991.577 3.91993 991.137 3.43993 990.457 3.19993C989.817 2.91993 988.877 2.75993 987.637 2.71993V1.51994C988.637 1.55994 989.977 1.59993 991.657 1.63993C993.377 1.67993 995.197 1.69993 997.117 1.69993C998.877 1.69993 1000.6 1.67993 1002.28 1.63993C1004 1.59993 1005.42 1.55994 1006.54 1.51994Z" fill="#562870"/>
<path d="M1056.42 1.51994C1056.26 3.27993 1056.14 4.97993 1056.06 6.61993C1056.02 8.25993 1056 9.51993 1056 10.3999C1056 11.1999 1056.02 11.9599 1056.06 12.6799C1056.1 13.3999 1056.14 13.9999 1056.18 14.4799H1054.8C1054.4 11.5599 1053.78 9.25993 1052.94 7.57993C1052.1 5.85993 1051 4.65993 1049.64 3.97993C1048.32 3.25993 1046.76 2.89993 1044.96 2.89993H1042.5C1041.34 2.89993 1040.46 2.99993 1039.86 3.19993C1039.26 3.39993 1038.86 3.79993 1038.66 4.39993C1038.46 4.99993 1038.36 5.91993 1038.36 7.15993V38.3599C1038.36 39.5999 1038.46 40.5199 1038.66 41.1199C1038.86 41.7199 1039.26 42.1199 1039.86 42.3199C1040.46 42.5199 1041.34 42.6199 1042.5 42.6199H1045.44C1047.24 42.6199 1048.82 42.2399 1050.18 41.4799C1051.58 40.6799 1052.76 39.3399 1053.72 37.4599C1054.72 35.5799 1055.48 33.0399 1056 29.8399H1057.38C1057.26 31.1199 1057.2 32.7999 1057.2 34.8799C1057.2 35.7999 1057.22 37.0999 1057.26 38.7799C1057.3 40.4599 1057.42 42.1999 1057.62 43.9999C1055.58 43.9199 1053.28 43.8799 1050.72 43.8799C1048.16 43.8399 1045.88 43.8199 1043.88 43.8199C1042.88 43.8199 1041.6 43.8199 1040.04 43.8199C1038.48 43.8199 1036.8 43.8399 1035 43.8799C1033.2 43.8799 1031.38 43.8999 1029.54 43.9399C1027.7 43.9399 1025.96 43.9599 1024.32 43.9999V42.7999C1025.6 42.7199 1026.56 42.5599 1027.2 42.3199C1027.84 42.0799 1028.26 41.5999 1028.46 40.8799C1028.7 40.1599 1028.82 39.0799 1028.82 37.6399V7.87993C1028.82 6.39993 1028.7 5.31993 1028.46 4.63993C1028.26 3.91993 1027.82 3.43993 1027.14 3.19993C1026.5 2.91993 1025.56 2.75993 1024.32 2.71993V1.51994C1025.96 1.55994 1027.7 1.59993 1029.54 1.63993C1031.38 1.63993 1033.2 1.65993 1035 1.69993C1036.8 1.69993 1038.48 1.69993 1040.04 1.69993C1041.6 1.69993 1042.88 1.69993 1043.88 1.69993C1045.72 1.69993 1047.8 1.69993 1050.12 1.69993C1052.48 1.65993 1054.58 1.59993 1056.42 1.51994ZM1047.06 22.0399C1047.06 22.0399 1047.06 22.2399 1047.06 22.6399C1047.06 23.0399 1047.06 23.2399 1047.06 23.2399H1036.56C1036.56 23.2399 1036.56 23.0399 1036.56 22.6399C1036.56 22.2399 1036.56 22.0399 1036.56 22.0399H1047.06ZM1048.8 14.1199C1048.64 16.3999 1048.56 18.1399 1048.56 19.3399C1048.6 20.5399 1048.62 21.6399 1048.62 22.6399C1048.62 23.6399 1048.64 24.7399 1048.68 25.9399C1048.72 27.1399 1048.82 28.8799 1048.98 31.1599H1047.6C1047.4 29.7599 1047.02 28.4599 1046.46 27.2599C1045.94 26.0599 1045.18 25.0999 1044.18 24.3799C1043.18 23.6199 1041.88 23.2399 1040.28 23.2399V22.0399C1041.48 22.0399 1042.5 21.7999 1043.34 21.3199C1044.18 20.7999 1044.86 20.1399 1045.38 19.3399C1045.94 18.4999 1046.38 17.6199 1046.7 16.6999C1047.02 15.7799 1047.26 14.9199 1047.42 14.1199H1048.8Z" fill="#562870"/>
<path d="M1080.88 1.51994C1088.76 1.51994 1094.62 3.31993 1098.46 6.91993C1102.3 10.4799 1104.22 15.5999 1104.22 22.2799C1104.22 26.6399 1103.28 30.4599 1101.4 33.7399C1099.52 36.9799 1096.78 39.4999 1093.18 41.2999C1089.62 43.0999 1085.34 43.9999 1080.34 43.9999C1079.7 43.9999 1078.86 43.9799 1077.82 43.9399C1076.78 43.8999 1075.7 43.8799 1074.58 43.8799C1073.46 43.8399 1072.46 43.8199 1071.58 43.8199C1069.82 43.8199 1068.08 43.8399 1066.36 43.8799C1064.68 43.8799 1063.34 43.9199 1062.34 43.9999V42.7999C1063.62 42.7199 1064.58 42.5599 1065.22 42.3199C1065.86 42.0799 1066.28 41.5999 1066.48 40.8799C1066.72 40.1599 1066.84 39.0799 1066.84 37.6399V7.87993C1066.84 6.39993 1066.72 5.31993 1066.48 4.63993C1066.28 3.91993 1065.84 3.43993 1065.16 3.19993C1064.52 2.91993 1063.58 2.75993 1062.34 2.71993V1.51994C1063.34 1.55994 1064.68 1.61993 1066.36 1.69993C1068.08 1.73993 1069.78 1.73993 1071.46 1.69993C1072.9 1.65993 1074.52 1.61993 1076.32 1.57993C1078.16 1.53993 1079.68 1.51994 1080.88 1.51994ZM1080.82 2.59993C1078.98 2.59993 1077.78 2.93993 1077.22 3.61993C1076.66 4.29993 1076.38 5.67993 1076.38 7.75993V37.7599C1076.38 39.8399 1076.66 41.2199 1077.22 41.8999C1077.82 42.5799 1079.04 42.9199 1080.88 42.9199C1084.24 42.9199 1086.88 42.1399 1088.8 40.5799C1090.76 38.9799 1092.16 36.6599 1093 33.6199C1093.84 30.5799 1094.26 26.8799 1094.26 22.5199C1094.26 18.0399 1093.8 14.3399 1092.88 11.4199C1092 8.45993 1090.58 6.25993 1088.62 4.81993C1086.66 3.33993 1084.06 2.59993 1080.82 2.59993Z" fill="#562870"/>
<path d="M1183.04 1.51994C1182.88 3.31993 1182.76 5.05993 1182.68 6.73993C1182.64 8.41993 1182.62 9.71993 1182.62 10.6399C1182.62 11.5199 1182.64 12.3599 1182.68 13.1599C1182.72 13.9599 1182.76 14.6399 1182.8 15.1999H1181.42C1180.9 12.0799 1180.18 9.63993 1179.26 7.87993C1178.34 6.07993 1177.2 4.79993 1175.84 4.03993C1174.52 3.27993 1172.94 2.89993 1171.1 2.89993H1169.12C1167.96 2.89993 1167.08 2.99993 1166.48 3.19993C1165.88 3.39993 1165.48 3.79993 1165.28 4.39993C1165.08 4.99993 1164.98 5.91993 1164.98 7.15993V37.2799C1164.98 38.8399 1165.14 39.9999 1165.46 40.7599C1165.78 41.5199 1166.4 42.0199 1167.32 42.2599C1168.24 42.4999 1169.6 42.6399 1171.4 42.6799V43.9999C1170.16 43.9599 1168.56 43.9199 1166.6 43.8799C1164.64 43.8399 1162.58 43.8199 1160.42 43.8199C1158.7 43.8199 1157.02 43.8399 1155.38 43.8799C1153.74 43.9199 1152.26 43.9599 1150.94 43.9999V42.7999C1152.22 42.7199 1153.18 42.5599 1153.82 42.3199C1154.46 42.0799 1154.88 41.5999 1155.08 40.8799C1155.32 40.1599 1155.44 39.0799 1155.44 37.6399V7.87993C1155.44 6.39993 1155.32 5.31993 1155.08 4.63993C1154.88 3.91993 1154.44 3.43993 1153.76 3.19993C1153.12 2.91993 1152.18 2.75993 1150.94 2.71993V1.51994C1152.58 1.55994 1154.32 1.59993 1156.16 1.63993C1158 1.63993 1159.82 1.65993 1161.62 1.69993C1163.42 1.69993 1165.1 1.69993 1166.66 1.69993C1168.22 1.69993 1169.5 1.69993 1170.5 1.69993C1172.34 1.69993 1174.42 1.69993 1176.74 1.69993C1179.1 1.65993 1181.2 1.59993 1183.04 1.51994ZM1174.1 22.2799C1174.1 22.2799 1174.1 22.4799 1174.1 22.8799C1174.1 23.2799 1174.1 23.4799 1174.1 23.4799H1163.18C1163.18 23.4799 1163.18 23.2799 1163.18 22.8799C1163.18 22.4799 1163.18 22.2799 1163.18 22.2799H1174.1ZM1175.6 14.3599C1175.44 16.6399 1175.36 18.3799 1175.36 19.5799C1175.4 20.7799 1175.42 21.8799 1175.42 22.8799C1175.42 23.8799 1175.44 24.9799 1175.48 26.1799C1175.52 27.3799 1175.62 29.1199 1175.78 31.3999H1174.4C1174.16 29.9999 1173.78 28.6999 1173.26 27.4999C1172.74 26.2999 1171.98 25.3399 1170.98 24.6199C1169.98 23.8599 1168.68 23.4799 1167.08 23.4799V22.2799C1168.28 22.2799 1169.28 22.0399 1170.08 21.5599C1170.92 21.0399 1171.62 20.3799 1172.18 19.5799C1172.74 18.7399 1173.18 17.8599 1173.5 16.9399C1173.82 16.0199 1174.06 15.1599 1174.22 14.3599H1175.6Z" fill="#562870"/>
<path d="M1205.35 1.51994V2.71993C1203.99 2.75993 1202.95 2.91993 1202.23 3.19993C1201.55 3.43993 1201.09 3.91993 1200.85 4.63993C1200.61 5.31993 1200.49 6.39993 1200.49 7.87993V38.3599C1200.49 39.5999 1200.57 40.5199 1200.73 41.1199C1200.93 41.7199 1201.29 42.1199 1201.81 42.3199C1202.37 42.5199 1203.19 42.6199 1204.27 42.6199H1207.21C1208.57 42.6199 1209.85 42.2999 1211.05 41.6599C1212.25 41.0199 1213.33 40.1199 1214.29 38.9599C1215.25 37.7599 1216.05 36.3399 1216.69 34.6999C1217.33 33.0599 1217.81 31.2399 1218.13 29.2399H1219.51C1219.39 30.5999 1219.33 32.3599 1219.33 34.5199C1219.33 35.4399 1219.35 36.7799 1219.39 38.5399C1219.43 40.2999 1219.55 42.1199 1219.75 43.9999C1217.71 43.9199 1215.41 43.8799 1212.85 43.8799C1210.29 43.8399 1208.01 43.8199 1206.01 43.8199C1205.01 43.8199 1203.73 43.8199 1202.17 43.8199C1200.61 43.8199 1198.93 43.8399 1197.13 43.8799C1195.33 43.8799 1193.51 43.8999 1191.67 43.9399C1189.83 43.9399 1188.09 43.9599 1186.45 43.9999V42.7999C1187.73 42.7199 1188.69 42.5599 1189.33 42.3199C1189.97 42.0799 1190.39 41.5999 1190.59 40.8799C1190.83 40.1599 1190.95 39.0799 1190.95 37.6399V7.87993C1190.95 6.39993 1190.83 5.31993 1190.59 4.63993C1190.39 3.91993 1189.95 3.43993 1189.27 3.19993C1188.63 2.91993 1187.69 2.75993 1186.45 2.71993V1.51994C1187.45 1.55994 1188.79 1.59993 1190.47 1.63993C1192.19 1.67993 1194.01 1.69993 1195.93 1.69993C1197.69 1.69993 1199.41 1.67993 1201.09 1.63993C1202.81 1.59993 1204.23 1.55994 1205.35 1.51994Z" fill="#562870"/>
<path d="M1255.22 1.51994C1255.06 3.27993 1254.94 4.97993 1254.86 6.61993C1254.82 8.25993 1254.8 9.51993 1254.8 10.3999C1254.8 11.1999 1254.82 11.9599 1254.86 12.6799C1254.9 13.3999 1254.94 13.9999 1254.98 14.4799H1253.6C1253.2 11.5599 1252.58 9.25993 1251.74 7.57993C1250.9 5.85993 1249.8 4.65993 1248.44 3.97993C1247.12 3.25993 1245.57 2.89993 1243.77 2.89993H1241.3C1240.14 2.89993 1239.26 2.99993 1238.66 3.19993C1238.06 3.39993 1237.66 3.79993 1237.46 4.39993C1237.26 4.99993 1237.16 5.91993 1237.16 7.15993V38.3599C1237.16 39.5999 1237.26 40.5199 1237.46 41.1199C1237.66 41.7199 1238.06 42.1199 1238.66 42.3199C1239.26 42.5199 1240.14 42.6199 1241.3 42.6199H1244.24C1246.04 42.6199 1247.62 42.2399 1248.98 41.4799C1250.38 40.6799 1251.57 39.3399 1252.53 37.4599C1253.53 35.5799 1254.28 33.0399 1254.8 29.8399H1256.18C1256.06 31.1199 1256.01 32.7999 1256.01 34.8799C1256.01 35.7999 1256.02 37.0999 1256.06 38.7799C1256.1 40.4599 1256.22 42.1999 1256.42 43.9999C1254.38 43.9199 1252.08 43.8799 1249.52 43.8799C1246.96 43.8399 1244.68 43.8199 1242.68 43.8199C1241.68 43.8199 1240.4 43.8199 1238.84 43.8199C1237.28 43.8199 1235.6 43.8399 1233.8 43.8799C1232 43.8799 1230.18 43.8999 1228.34 43.9399C1226.5 43.9399 1224.77 43.9599 1223.12 43.9999V42.7999C1224.4 42.7199 1225.37 42.5599 1226.01 42.3199C1226.65 42.0799 1227.07 41.5999 1227.27 40.8799C1227.51 40.1599 1227.62 39.0799 1227.62 37.6399V7.87993C1227.62 6.39993 1227.51 5.31993 1227.27 4.63993C1227.07 3.91993 1226.62 3.43993 1225.94 3.19993C1225.3 2.91993 1224.37 2.75993 1223.12 2.71993V1.51994C1224.77 1.55994 1226.5 1.59993 1228.34 1.63993C1230.18 1.63993 1232 1.65993 1233.8 1.69993C1235.6 1.69993 1237.28 1.69993 1238.84 1.69993C1240.4 1.69993 1241.68 1.69993 1242.68 1.69993C1244.52 1.69993 1246.6 1.69993 1248.92 1.69993C1251.28 1.65993 1253.38 1.59993 1255.22 1.51994ZM1245.86 22.0399C1245.86 22.0399 1245.86 22.2399 1245.86 22.6399C1245.86 23.0399 1245.86 23.2399 1245.86 23.2399H1235.36C1235.36 23.2399 1235.36 23.0399 1235.36 22.6399C1235.36 22.2399 1235.36 22.0399 1235.36 22.0399H1245.86ZM1247.6 14.1199C1247.44 16.3999 1247.36 18.1399 1247.36 19.3399C1247.4 20.5399 1247.42 21.6399 1247.42 22.6399C1247.42 23.6399 1247.44 24.7399 1247.48 25.9399C1247.52 27.1399 1247.62 28.8799 1247.78 31.1599H1246.4C1246.2 29.7599 1245.83 28.4599 1245.27 27.2599C1244.75 26.0599 1243.98 25.0999 1242.98 24.3799C1241.98 23.6199 1240.68 23.2399 1239.08 23.2399V22.0399C1240.28 22.0399 1241.31 21.7999 1242.15 21.3199C1242.99 20.7999 1243.66 20.1399 1244.18 19.3399C1244.74 18.4999 1245.19 17.6199 1245.51 16.6999C1245.83 15.7799 1246.06 14.9199 1246.22 14.1199H1247.6Z" fill="#562870"/>
<path d="M1277.05 1.45993V2.71993C1275.25 2.71993 1274.09 2.89993 1273.57 3.25993C1273.09 3.57993 1273.13 4.15993 1273.69 4.99993L1297.45 39.7399C1298.25 40.8599 1298.89 41.6199 1299.37 42.0199C1299.85 42.4199 1300.49 42.6599 1301.29 42.7399V43.9999C1300.49 43.9599 1299.33 43.9199 1297.81 43.8799C1296.29 43.7999 1294.71 43.7599 1293.07 43.7599C1291.27 43.7599 1289.43 43.7999 1287.55 43.8799C1285.71 43.9199 1284.33 43.9599 1283.41 43.9999V42.7399C1285.25 42.7399 1286.43 42.6199 1286.95 42.3799C1287.51 42.0999 1287.51 41.5399 1286.95 40.6999L1263.13 5.71993C1262.37 4.55993 1261.75 3.77993 1261.27 3.37993C1260.79 2.97993 1260.13 2.75993 1259.29 2.71993V1.45993C1260.13 1.49993 1261.35 1.55993 1262.95 1.63993C1264.59 1.67993 1266.23 1.69993 1267.87 1.69993C1269.67 1.69993 1271.39 1.67993 1273.03 1.63993C1274.71 1.55993 1276.05 1.49993 1277.05 1.45993ZM1277.59 22.6399C1277.59 22.6399 1277.63 22.7799 1277.71 23.0599C1277.79 23.2999 1277.87 23.5599 1277.95 23.8399C1278.03 24.0799 1278.07 24.1999 1278.07 24.1999L1272.07 32.4199C1270.47 34.5799 1269.57 36.4199 1269.37 37.9399C1269.17 39.4199 1269.51 40.5799 1270.39 41.4199C1271.31 42.2199 1272.65 42.6799 1274.41 42.7999V43.9999C1273.85 43.9599 1273.13 43.9399 1272.25 43.9399C1271.41 43.8999 1270.51 43.8799 1269.55 43.8799C1268.63 43.8399 1267.75 43.8199 1266.91 43.8199C1266.11 43.8199 1265.45 43.8199 1264.93 43.8199C1263.81 43.8199 1262.77 43.8399 1261.81 43.8799C1260.85 43.8799 1260.05 43.9199 1259.41 43.9999V42.7999C1260.81 42.3199 1262.23 41.4799 1263.67 40.2799C1265.11 39.0399 1266.59 37.4399 1268.11 35.4799L1277.59 22.6399ZM1298.59 1.51994V2.71993C1297.27 3.07993 1295.95 3.83993 1294.63 4.99993C1293.35 6.15993 1292.15 7.49993 1291.03 9.01994L1281.31 21.9799C1281.31 21.9799 1281.23 21.7199 1281.07 21.1999C1280.95 20.6799 1280.89 20.4199 1280.89 20.4199L1287.07 12.0799C1288.59 10.1599 1289.49 8.51993 1289.77 7.15993C1290.09 5.79993 1289.87 4.73993 1289.11 3.97993C1288.35 3.21993 1287.15 2.79993 1285.51 2.71993V1.51994C1286.27 1.55994 1287.11 1.59993 1288.03 1.63993C1288.95 1.63993 1289.85 1.65993 1290.73 1.69993C1291.65 1.69993 1292.43 1.69993 1293.07 1.69993C1294.23 1.69993 1295.29 1.67993 1296.25 1.63993C1297.21 1.59993 1297.99 1.55994 1298.59 1.51994Z" fill="#562870"/>
<path d="M1321.18 1.51994V2.71993C1319.9 2.75993 1318.92 2.91993 1318.24 3.19993C1317.6 3.43993 1317.18 3.91993 1316.98 4.63993C1316.78 5.31993 1316.68 6.39993 1316.68 7.87993V37.6399C1316.68 39.0799 1316.78 40.1599 1316.98 40.8799C1317.22 41.5999 1317.66 42.0799 1318.3 42.3199C1318.94 42.5599 1319.9 42.7199 1321.18 42.7999V43.9999C1320.1 43.9199 1318.74 43.8799 1317.1 43.8799C1315.46 43.8399 1313.8 43.8199 1312.12 43.8199C1310.16 43.8199 1308.34 43.8399 1306.66 43.8799C1305.02 43.8799 1303.68 43.9199 1302.64 43.9999V42.7999C1303.92 42.7199 1304.88 42.5599 1305.52 42.3199C1306.16 42.0799 1306.58 41.5999 1306.78 40.8799C1307.02 40.1599 1307.14 39.0799 1307.14 37.6399V7.87993C1307.14 6.39993 1307.02 5.31993 1306.78 4.63993C1306.58 3.91993 1306.14 3.43993 1305.46 3.19993C1304.82 2.91993 1303.88 2.75993 1302.64 2.71993V1.51994C1303.68 1.55994 1305.02 1.59993 1306.66 1.63993C1308.34 1.67993 1310.16 1.69993 1312.12 1.69993C1313.8 1.69993 1315.46 1.67993 1317.1 1.63993C1318.74 1.59993 1320.1 1.55994 1321.18 1.51994Z" fill="#562870"/>
<path d="M1325.2 1.51994C1326.24 1.55994 1327.6 1.59993 1329.28 1.63993C1330.96 1.67993 1332.64 1.69993 1334.32 1.69993C1336.24 1.69993 1338.1 1.67993 1339.9 1.63993C1341.7 1.59993 1342.98 1.57993 1343.74 1.57993C1348.7 1.57993 1352.4 2.45993 1354.84 4.21993C1357.32 5.97993 1358.56 8.23993 1358.56 10.9999C1358.56 12.3999 1358.14 13.8199 1357.3 15.2599C1356.46 16.6999 1355.16 17.9799 1353.4 19.0999C1351.64 20.2199 1349.36 21.0399 1346.56 21.5599V21.6799C1350.32 21.9599 1353.3 22.6399 1355.5 23.7199C1357.7 24.7999 1359.28 26.0999 1360.24 27.6199C1361.2 29.1399 1361.68 30.7199 1361.68 32.3599C1361.68 34.8799 1361.02 36.9999 1359.7 38.7199C1358.38 40.4399 1356.48 41.7599 1354 42.6799C1351.52 43.5599 1348.56 43.9999 1345.12 43.9999C1344.16 43.9999 1342.78 43.9799 1340.98 43.9399C1339.18 43.8599 1337 43.8199 1334.44 43.8199C1332.68 43.8199 1330.96 43.8399 1329.28 43.8799C1327.6 43.8799 1326.24 43.9199 1325.2 43.9999V42.7999C1326.48 42.7199 1327.44 42.5599 1328.08 42.3199C1328.72 42.0799 1329.14 41.5999 1329.34 40.8799C1329.58 40.1599 1329.7 39.0799 1329.7 37.6399V7.87993C1329.7 6.39993 1329.58 5.31993 1329.34 4.63993C1329.14 3.91993 1328.7 3.43993 1328.02 3.19993C1327.38 2.91993 1326.44 2.75993 1325.2 2.71993V1.51994ZM1342.96 2.71993C1341.4 2.71993 1340.38 3.05993 1339.9 3.73993C1339.46 4.41993 1339.24 5.79993 1339.24 7.87993V37.6399C1339.24 39.0399 1339.34 40.0999 1339.54 40.8199C1339.78 41.5399 1340.18 42.0199 1340.74 42.2599C1341.34 42.4999 1342.22 42.6199 1343.38 42.6199C1346.26 42.6199 1348.36 41.7199 1349.68 39.9199C1351.04 38.0799 1351.72 35.4799 1351.72 32.1199C1351.72 29.0399 1350.94 26.6599 1349.38 24.9799C1347.86 23.2999 1345.32 22.4599 1341.76 22.4599H1336.66C1336.66 22.4599 1336.66 22.2999 1336.66 21.9799C1336.66 21.6199 1336.66 21.4399 1336.66 21.4399H1341.82C1343.7 21.4399 1345.14 20.9999 1346.14 20.1199C1347.14 19.1999 1347.84 17.9999 1348.24 16.5199C1348.64 14.9999 1348.84 13.3799 1348.84 11.6599C1348.84 8.69993 1348.38 6.47993 1347.46 4.99993C1346.54 3.47993 1345.04 2.71993 1342.96 2.71993Z" fill="#562870"/>
<path d="M1383.87 1.51994V2.71993C1382.59 2.75993 1381.61 2.91993 1380.93 3.19993C1380.29 3.43993 1379.87 3.91993 1379.67 4.63993C1379.47 5.31993 1379.37 6.39993 1379.37 7.87993V37.6399C1379.37 39.0799 1379.47 40.1599 1379.67 40.8799C1379.91 41.5999 1380.35 42.0799 1380.99 42.3199C1381.63 42.5599 1382.59 42.7199 1383.87 42.7999V43.9999C1382.79 43.9199 1381.43 43.8799 1379.79 43.8799C1378.15 43.8399 1376.49 43.8199 1374.81 43.8199C1372.85 43.8199 1371.03 43.8399 1369.35 43.8799C1367.71 43.8799 1366.37 43.9199 1365.33 43.9999V42.7999C1366.61 42.7199 1367.57 42.5599 1368.21 42.3199C1368.85 42.0799 1369.27 41.5999 1369.47 40.8799C1369.71 40.1599 1369.83 39.0799 1369.83 37.6399V7.87993C1369.83 6.39993 1369.71 5.31993 1369.47 4.63993C1369.27 3.91993 1368.83 3.43993 1368.15 3.19993C1367.51 2.91993 1366.57 2.75993 1365.33 2.71993V1.51994C1366.37 1.55994 1367.71 1.59993 1369.35 1.63993C1371.03 1.67993 1372.85 1.69993 1374.81 1.69993C1376.49 1.69993 1378.15 1.67993 1379.79 1.63993C1381.43 1.59993 1382.79 1.55994 1383.87 1.51994Z" fill="#562870"/>
<path d="M1406.79 1.51994V2.71993C1405.43 2.75993 1404.39 2.91993 1403.67 3.19993C1402.99 3.43993 1402.53 3.91993 1402.29 4.63993C1402.05 5.31993 1401.93 6.39993 1401.93 7.87993V38.3599C1401.93 39.5999 1402.01 40.5199 1402.17 41.1199C1402.37 41.7199 1402.73 42.1199 1403.25 42.3199C1403.81 42.5199 1404.63 42.6199 1405.71 42.6199H1408.65C1410.01 42.6199 1411.29 42.2999 1412.49 41.6599C1413.69 41.0199 1414.77 40.1199 1415.73 38.9599C1416.69 37.7599 1417.49 36.3399 1418.13 34.6999C1418.77 33.0599 1419.25 31.2399 1419.57 29.2399H1420.95C1420.83 30.5999 1420.77 32.3599 1420.77 34.5199C1420.77 35.4399 1420.79 36.7799 1420.83 38.5399C1420.87 40.2999 1420.99 42.1199 1421.19 43.9999C1419.15 43.9199 1416.85 43.8799 1414.29 43.8799C1411.73 43.8399 1409.45 43.8199 1407.45 43.8199C1406.45 43.8199 1405.17 43.8199 1403.61 43.8199C1402.05 43.8199 1400.37 43.8399 1398.57 43.8799C1396.77 43.8799 1394.95 43.8999 1393.11 43.9399C1391.27 43.9399 1389.53 43.9599 1387.89 43.9999V42.7999C1389.17 42.7199 1390.13 42.5599 1390.77 42.3199C1391.41 42.0799 1391.83 41.5999 1392.03 40.8799C1392.27 40.1599 1392.39 39.0799 1392.39 37.6399V7.87993C1392.39 6.39993 1392.27 5.31993 1392.03 4.63993C1391.83 3.91993 1391.39 3.43993 1390.71 3.19993C1390.07 2.91993 1389.13 2.75993 1387.89 2.71993V1.51994C1388.89 1.55994 1390.23 1.59993 1391.91 1.63993C1393.63 1.67993 1395.45 1.69993 1397.37 1.69993C1399.13 1.69993 1400.85 1.67993 1402.53 1.63993C1404.25 1.59993 1405.67 1.55994 1406.79 1.51994Z" fill="#562870"/>
<path d="M1443.11 1.51994V2.71993C1441.83 2.75993 1440.85 2.91993 1440.17 3.19993C1439.53 3.43993 1439.11 3.91993 1438.91 4.63993C1438.71 5.31993 1438.61 6.39993 1438.61 7.87993V37.6399C1438.61 39.0799 1438.71 40.1599 1438.91 40.8799C1439.15 41.5999 1439.59 42.0799 1440.23 42.3199C1440.87 42.5599 1441.83 42.7199 1443.11 42.7999V43.9999C1442.03 43.9199 1440.67 43.8799 1439.03 43.8799C1437.39 43.8399 1435.73 43.8199 1434.05 43.8199C1432.09 43.8199 1430.27 43.8399 1428.59 43.8799C1426.95 43.8799 1425.61 43.9199 1424.57 43.9999V42.7999C1425.85 42.7199 1426.81 42.5599 1427.45 42.3199C1428.09 42.0799 1428.51 41.5999 1428.71 40.8799C1428.95 40.1599 1429.07 39.0799 1429.07 37.6399V7.87993C1429.07 6.39993 1428.95 5.31993 1428.71 4.63993C1428.51 3.91993 1428.07 3.43993 1427.39 3.19993C1426.75 2.91993 1425.81 2.75993 1424.57 2.71993V1.51994C1425.61 1.55994 1426.95 1.59993 1428.59 1.63993C1430.27 1.67993 1432.09 1.69993 1434.05 1.69993C1435.73 1.69993 1437.39 1.67993 1439.03 1.63993C1440.67 1.59993 1442.03 1.55994 1443.11 1.51994Z" fill="#562870"/>
<path d="M1483.61 1.51994C1483.45 3.55994 1483.33 5.51994 1483.25 7.39993C1483.21 9.27993 1483.19 10.7199 1483.19 11.7199C1483.19 12.5999 1483.21 13.4399 1483.25 14.2399C1483.29 15.0399 1483.33 15.7199 1483.37 16.2799H1481.99C1481.35 12.9199 1480.53 10.2599 1479.53 8.29993C1478.57 6.33993 1477.41 4.95993 1476.05 4.15993C1474.69 3.31993 1473.09 2.89993 1471.25 2.89993H1469.87V37.1599C1469.87 38.7599 1470.03 39.9599 1470.35 40.7599C1470.71 41.5599 1471.35 42.0999 1472.27 42.3799C1473.19 42.6199 1474.53 42.7599 1476.29 42.7999V43.9999C1475.05 43.9599 1473.39 43.9199 1471.31 43.8799C1469.27 43.8399 1467.13 43.8199 1464.89 43.8199C1462.69 43.8199 1460.61 43.8399 1458.65 43.8799C1456.69 43.9199 1455.11 43.9599 1453.91 43.9999V42.7999C1455.71 42.7599 1457.07 42.6199 1457.99 42.3799C1458.91 42.0999 1459.53 41.5599 1459.85 40.7599C1460.17 39.9599 1460.33 38.7599 1460.33 37.1599V2.89993H1459.01C1457.17 2.89993 1455.57 3.31993 1454.21 4.15993C1452.85 4.95993 1451.69 6.33993 1450.73 8.29993C1449.77 10.2199 1448.93 12.8799 1448.21 16.2799H1446.83C1446.91 15.7199 1446.95 15.0399 1446.95 14.2399C1446.99 13.4399 1447.01 12.5999 1447.01 11.7199C1447.01 10.7199 1446.97 9.27993 1446.89 7.39993C1446.85 5.51994 1446.75 3.55994 1446.59 1.51994C1448.43 1.55994 1450.43 1.59993 1452.59 1.63993C1454.79 1.67993 1456.99 1.69993 1459.19 1.69993C1461.39 1.69993 1463.37 1.69993 1465.13 1.69993C1466.93 1.69993 1468.91 1.69993 1471.07 1.69993C1473.27 1.69993 1475.47 1.67993 1477.67 1.63993C1479.87 1.59993 1481.85 1.55994 1483.61 1.51994Z" fill="#562870"/>
<path d="M1522.19 1.45993V2.65993C1521.31 3.01994 1520.41 3.73993 1519.49 4.81993C1518.57 5.85993 1517.55 7.45993 1516.43 9.61993L1505.09 32.0599H1502.27L1488.23 6.07993C1487.51 4.71993 1486.85 3.81993 1486.25 3.37993C1485.69 2.93993 1485.19 2.71993 1484.75 2.71993V1.45993C1485.83 1.57993 1486.93 1.65993 1488.05 1.69993C1489.21 1.73993 1490.47 1.75993 1491.83 1.75993C1493.59 1.75993 1495.49 1.73993 1497.53 1.69993C1499.57 1.61993 1501.43 1.53993 1503.11 1.45993V2.71993C1502.11 2.71993 1501.21 2.79993 1500.41 2.95993C1499.61 3.11993 1499.05 3.41993 1498.73 3.85993C1498.41 4.25993 1498.49 4.91993 1498.97 5.83993L1508.45 24.0799L1506.59 26.4799L1512.77 14.0599C1514.25 11.1799 1515.03 8.91993 1515.11 7.27993C1515.23 5.63993 1514.83 4.47993 1513.91 3.79993C1513.03 3.07993 1511.77 2.69993 1510.13 2.65993V1.45993C1511.49 1.49993 1512.77 1.53993 1513.97 1.57993C1515.17 1.61993 1516.39 1.63993 1517.63 1.63993C1518.51 1.63993 1519.33 1.61993 1520.09 1.57993C1520.89 1.53993 1521.59 1.49993 1522.19 1.45993ZM1509.35 22.5799V37.6399C1509.35 39.0799 1509.45 40.1599 1509.65 40.8799C1509.89 41.5999 1510.33 42.0799 1510.97 42.3199C1511.61 42.5599 1512.57 42.7199 1513.85 42.7999V43.9999C1512.77 43.9199 1511.37 43.8799 1509.65 43.8799C1507.97 43.8399 1506.29 43.8199 1504.61 43.8199C1502.73 43.8199 1500.95 43.8399 1499.27 43.8799C1497.59 43.8799 1496.27 43.9199 1495.31 43.9999V42.7999C1496.59 42.7199 1497.55 42.5599 1498.19 42.3199C1498.83 42.0799 1499.25 41.5999 1499.45 40.8799C1499.69 40.1599 1499.81 39.0799 1499.81 37.6399V25.3399L1505.03 29.0599L1509.35 22.5799Z" fill="#562870"/>
<path d="M1583.54 1.39993L1598.12 38.9599C1598.68 40.3999 1599.3 41.3999 1599.98 41.9599C1600.7 42.4799 1601.34 42.7599 1601.9 42.7999V43.9999C1600.7 43.9199 1599.28 43.8799 1597.64 43.8799C1596.04 43.8399 1594.42 43.8199 1592.78 43.8199C1590.94 43.8199 1589.2 43.8399 1587.56 43.8799C1585.92 43.8799 1584.62 43.9199 1583.66 43.9999V42.7999C1585.7 42.7199 1586.98 42.3799 1587.5 41.7799C1588.06 41.1399 1587.94 39.7999 1587.14 37.7599L1576.94 9.85994L1578.02 8.29993L1568.9 32.0599C1568.02 34.2599 1567.48 36.0599 1567.28 37.4599C1567.12 38.8599 1567.22 39.9399 1567.58 40.6999C1567.98 41.4599 1568.6 41.9999 1569.44 42.3199C1570.32 42.5999 1571.36 42.7599 1572.56 42.7999V43.9999C1571.24 43.9199 1569.98 43.8799 1568.78 43.8799C1567.58 43.8399 1566.36 43.8199 1565.12 43.8199C1564.24 43.8199 1563.4 43.8399 1562.6 43.8799C1561.84 43.8799 1561.16 43.9199 1560.56 43.9999V42.7999C1561.4 42.6399 1562.26 42.0999 1563.14 41.1799C1564.02 40.2599 1564.88 38.6999 1565.72 36.4999L1579.4 1.39993C1580.04 1.43993 1580.72 1.45993 1581.44 1.45993C1582.2 1.45993 1582.9 1.43993 1583.54 1.39993ZM1587.74 26.7199V27.9199H1569.86L1570.46 26.7199H1587.74Z" fill="#562870"/>
<path d="M1624.71 0.679932C1627.35 0.679932 1629.51 1.07993 1631.19 1.87993C1632.91 2.63993 1634.43 3.53993 1635.75 4.57994C1636.55 5.17993 1637.15 5.25993 1637.55 4.81993C1637.99 4.33993 1638.29 3.23993 1638.45 1.51994H1639.83C1639.75 3.07993 1639.69 4.97993 1639.65 7.21993C1639.61 9.41993 1639.59 12.3599 1639.59 16.0399H1638.21C1638.01 14.1999 1637.75 12.6399 1637.43 11.3599C1637.11 10.0399 1636.67 8.87993 1636.11 7.87993C1635.55 6.87993 1634.75 5.97993 1633.71 5.17993C1632.71 4.17993 1631.55 3.43993 1630.23 2.95993C1628.91 2.47993 1627.53 2.23993 1626.09 2.23993C1623.93 2.23993 1622.09 2.81993 1620.57 3.97993C1619.05 5.09993 1617.81 6.63993 1616.85 8.59993C1615.93 10.5599 1615.25 12.7799 1614.81 15.2599C1614.37 17.6999 1614.15 20.2399 1614.15 22.8799C1614.15 25.5599 1614.37 28.1399 1614.81 30.6199C1615.29 33.0599 1616.01 35.2399 1616.97 37.1599C1617.97 39.0799 1619.25 40.5999 1620.81 41.7199C1622.37 42.8399 1624.21 43.3999 1626.33 43.3999C1627.65 43.3999 1628.97 43.1599 1630.29 42.6799C1631.65 42.1599 1632.81 41.4199 1633.77 40.4599C1635.33 39.2599 1636.39 37.7799 1636.95 36.0199C1637.51 34.2199 1637.93 31.8399 1638.21 28.8799H1639.59C1639.59 32.6799 1639.61 35.7599 1639.65 38.1199C1639.69 40.4399 1639.75 42.3999 1639.83 43.9999H1638.45C1638.29 42.2799 1638.01 41.1999 1637.61 40.7599C1637.25 40.3199 1636.63 40.3799 1635.75 40.9399C1634.27 41.9799 1632.69 42.8999 1631.01 43.6999C1629.37 44.4599 1627.25 44.8399 1624.65 44.8399C1620.41 44.8399 1616.69 43.9799 1613.49 42.2599C1610.33 40.5399 1607.87 38.0599 1606.11 34.8199C1604.35 31.5799 1603.47 27.6799 1603.47 23.1199C1603.47 18.6399 1604.37 14.7199 1606.17 11.3599C1608.01 7.99993 1610.51 5.37993 1613.67 3.49994C1616.87 1.61993 1620.55 0.679932 1624.71 0.679932Z" fill="#562870"/>
<path d="M1681.71 1.51994C1681.55 3.55994 1681.43 5.51994 1681.35 7.39993C1681.31 9.27993 1681.29 10.7199 1681.29 11.7199C1681.29 12.5999 1681.31 13.4399 1681.35 14.2399C1681.39 15.0399 1681.43 15.7199 1681.47 16.2799H1680.09C1679.45 12.9199 1678.63 10.2599 1677.63 8.29993C1676.67 6.33993 1675.51 4.95993 1674.15 4.15993C1672.79 3.31993 1671.19 2.89993 1669.35 2.89993H1667.97V37.1599C1667.97 38.7599 1668.13 39.9599 1668.45 40.7599C1668.81 41.5599 1669.45 42.0999 1670.37 42.3799C1671.29 42.6199 1672.63 42.7599 1674.39 42.7999V43.9999C1673.15 43.9599 1671.49 43.9199 1669.41 43.8799C1667.37 43.8399 1665.23 43.8199 1662.99 43.8199C1660.79 43.8199 1658.71 43.8399 1656.75 43.8799C1654.79 43.9199 1653.21 43.9599 1652.01 43.9999V42.7999C1653.81 42.7599 1655.17 42.6199 1656.09 42.3799C1657.01 42.0999 1657.63 41.5599 1657.95 40.7599C1658.27 39.9599 1658.43 38.7599 1658.43 37.1599V2.89993H1657.11C1655.27 2.89993 1653.67 3.31993 1652.31 4.15993C1650.95 4.95993 1649.79 6.33993 1648.83 8.29993C1647.87 10.2199 1647.03 12.8799 1646.31 16.2799H1644.93C1645.01 15.7199 1645.05 15.0399 1645.05 14.2399C1645.09 13.4399 1645.11 12.5999 1645.11 11.7199C1645.11 10.7199 1645.07 9.27993 1644.99 7.39993C1644.95 5.51994 1644.85 3.55994 1644.69 1.51994C1646.53 1.55994 1648.53 1.59993 1650.69 1.63993C1652.89 1.67993 1655.09 1.69993 1657.29 1.69993C1659.49 1.69993 1661.47 1.69993 1663.23 1.69993C1665.03 1.69993 1667.01 1.69993 1669.17 1.69993C1671.37 1.69993 1673.57 1.67993 1675.77 1.63993C1677.97 1.59993 1679.95 1.55994 1681.71 1.51994Z" fill="#562870"/>
<path d="M1703.85 1.51994V2.71993C1702.57 2.75993 1701.59 2.91993 1700.91 3.19993C1700.27 3.43993 1699.85 3.91993 1699.65 4.63993C1699.45 5.31993 1699.35 6.39993 1699.35 7.87993V37.6399C1699.35 39.0799 1699.45 40.1599 1699.65 40.8799C1699.89 41.5999 1700.33 42.0799 1700.97 42.3199C1701.61 42.5599 1702.57 42.7199 1703.85 42.7999V43.9999C1702.77 43.9199 1701.41 43.8799 1699.77 43.8799C1698.13 43.8399 1696.47 43.8199 1694.79 43.8199C1692.83 43.8199 1691.01 43.8399 1689.33 43.8799C1687.69 43.8799 1686.35 43.9199 1685.31 43.9999V42.7999C1686.59 42.7199 1687.55 42.5599 1688.19 42.3199C1688.83 42.0799 1689.25 41.5999 1689.45 40.8799C1689.69 40.1599 1689.81 39.0799 1689.81 37.6399V7.87993C1689.81 6.39993 1689.69 5.31993 1689.45 4.63993C1689.25 3.91993 1688.81 3.43993 1688.13 3.19993C1687.49 2.91993 1686.55 2.75993 1685.31 2.71993V1.51994C1686.35 1.55994 1687.69 1.59993 1689.33 1.63993C1691.01 1.67993 1692.83 1.69993 1694.79 1.69993C1696.47 1.69993 1698.13 1.67993 1699.77 1.63993C1701.41 1.59993 1702.77 1.55994 1703.85 1.51994Z" fill="#562870"/>
<path d="M1746.51 1.51994V2.71993C1745.63 3.03994 1744.69 3.73993 1743.69 4.81993C1742.73 5.89993 1741.83 7.57993 1740.99 9.85994L1728.33 44.1199C1728.01 44.0799 1727.67 44.0599 1727.31 44.0599C1726.95 44.0599 1726.59 44.0599 1726.23 44.0599C1725.91 44.0599 1725.57 44.0599 1725.21 44.0599C1724.85 44.0599 1724.51 44.0799 1724.19 44.1199L1708.89 6.55993C1708.33 5.11993 1707.71 4.13993 1707.03 3.61993C1706.35 3.05993 1705.71 2.75993 1705.11 2.71993V1.51994C1706.31 1.55994 1707.71 1.59993 1709.31 1.63993C1710.95 1.67993 1712.59 1.69993 1714.23 1.69993C1716.07 1.69993 1717.79 1.67993 1719.39 1.63993C1721.03 1.59993 1722.35 1.55994 1723.35 1.51994V2.71993C1722.07 2.75993 1721.07 2.91993 1720.35 3.19993C1719.63 3.43993 1719.23 3.91993 1719.15 4.63993C1719.07 5.31993 1719.31 6.35993 1719.87 7.75993L1730.79 35.5399L1729.53 37.0399L1737.81 14.7199C1738.89 11.7199 1739.45 9.35993 1739.49 7.63993C1739.53 5.91993 1739.11 4.67993 1738.23 3.91993C1737.35 3.15993 1736.09 2.75993 1734.45 2.71993V1.51994C1735.81 1.55994 1737.09 1.59993 1738.29 1.63993C1739.49 1.67993 1740.71 1.69993 1741.95 1.69993C1742.83 1.69993 1743.65 1.67993 1744.41 1.63993C1745.21 1.59993 1745.91 1.55994 1746.51 1.51994Z" fill="#562870"/>
<path d="M1780.05 1.51994C1779.89 3.27993 1779.77 4.97993 1779.69 6.61993C1779.65 8.25993 1779.63 9.51993 1779.63 10.3999C1779.63 11.1999 1779.65 11.9599 1779.69 12.6799C1779.73 13.3999 1779.77 13.9999 1779.81 14.4799H1778.43C1778.03 11.5599 1777.41 9.25993 1776.57 7.57993C1775.73 5.85993 1774.63 4.65993 1773.27 3.97993C1771.95 3.25993 1770.39 2.89993 1768.59 2.89993H1766.13C1764.97 2.89993 1764.09 2.99993 1763.49 3.19993C1762.89 3.39993 1762.49 3.79993 1762.29 4.39993C1762.09 4.99993 1761.99 5.91993 1761.99 7.15993V38.3599C1761.99 39.5999 1762.09 40.5199 1762.29 41.1199C1762.49 41.7199 1762.89 42.1199 1763.49 42.3199C1764.09 42.5199 1764.97 42.6199 1766.13 42.6199H1769.07C1770.87 42.6199 1772.45 42.2399 1773.81 41.4799C1775.21 40.6799 1776.39 39.3399 1777.35 37.4599C1778.35 35.5799 1779.11 33.0399 1779.63 29.8399H1781.01C1780.89 31.1199 1780.83 32.7999 1780.83 34.8799C1780.83 35.7999 1780.85 37.0999 1780.89 38.7799C1780.93 40.4599 1781.05 42.1999 1781.25 43.9999C1779.21 43.9199 1776.91 43.8799 1774.35 43.8799C1771.79 43.8399 1769.51 43.8199 1767.51 43.8199C1766.51 43.8199 1765.23 43.8199 1763.67 43.8199C1762.11 43.8199 1760.43 43.8399 1758.63 43.8799C1756.83 43.8799 1755.01 43.8999 1753.17 43.9399C1751.33 43.9399 1749.59 43.9599 1747.95 43.9999V42.7999C1749.23 42.7199 1750.19 42.5599 1750.83 42.3199C1751.47 42.0799 1751.89 41.5999 1752.09 40.8799C1752.33 40.1599 1752.45 39.0799 1752.45 37.6399V7.87993C1752.45 6.39993 1752.33 5.31993 1752.09 4.63993C1751.89 3.91993 1751.45 3.43993 1750.77 3.19993C1750.13 2.91993 1749.19 2.75993 1747.95 2.71993V1.51994C1749.59 1.55994 1751.33 1.59993 1753.17 1.63993C1755.01 1.63993 1756.83 1.65993 1758.63 1.69993C1760.43 1.69993 1762.11 1.69993 1763.67 1.69993C1765.23 1.69993 1766.51 1.69993 1767.51 1.69993C1769.35 1.69993 1771.43 1.69993 1773.75 1.69993C1776.11 1.65993 1778.21 1.59993 1780.05 1.51994ZM1770.69 22.0399C1770.69 22.0399 1770.69 22.2399 1770.69 22.6399C1770.69 23.0399 1770.69 23.2399 1770.69 23.2399H1760.19C1760.19 23.2399 1760.19 23.0399 1760.19 22.6399C1760.19 22.2399 1760.19 22.0399 1760.19 22.0399H1770.69ZM1772.43 14.1199C1772.27 16.3999 1772.19 18.1399 1772.19 19.3399C1772.23 20.5399 1772.25 21.6399 1772.25 22.6399C1772.25 23.6399 1772.27 24.7399 1772.31 25.9399C1772.35 27.1399 1772.45 28.8799 1772.61 31.1599H1771.23C1771.03 29.7599 1770.65 28.4599 1770.09 27.2599C1769.57 26.0599 1768.81 25.0999 1767.81 24.3799C1766.81 23.6199 1765.51 23.2399 1763.91 23.2399V22.0399C1765.11 22.0399 1766.13 21.7999 1766.97 21.3199C1767.81 20.7999 1768.49 20.1399 1769.01 19.3399C1769.57 18.4999 1770.01 17.6199 1770.33 16.6999C1770.65 15.7799 1770.89 14.9199 1771.05 14.1199H1772.43Z" fill="#562870"/>
<path d="M1827.99 1.51994C1828.99 1.55994 1830.33 1.59993 1832.01 1.63993C1833.73 1.67993 1835.43 1.69993 1837.11 1.69993C1839.03 1.69993 1840.89 1.67993 1842.69 1.63993C1844.49 1.59993 1845.77 1.57993 1846.53 1.57993C1850.25 1.57993 1853.33 1.99993 1855.77 2.83993C1858.25 3.63993 1860.09 4.81993 1861.29 6.37993C1862.53 7.93993 1863.15 9.81993 1863.15 12.0199C1863.15 13.3799 1862.87 14.7599 1862.31 16.1599C1861.75 17.5199 1860.79 18.7999 1859.43 19.9999C1858.11 21.1599 1856.29 22.0999 1853.97 22.8199C1851.65 23.4999 1848.73 23.8399 1845.21 23.8399H1839.45V22.6399H1844.61C1846.97 22.6399 1848.75 22.1999 1849.95 21.3199C1851.19 20.3999 1852.03 19.1999 1852.47 17.7199C1852.95 16.1999 1853.19 14.5199 1853.19 12.6799C1853.19 9.51994 1852.63 7.07993 1851.51 5.35993C1850.39 3.59993 1848.47 2.71993 1845.75 2.71993C1844.19 2.71993 1843.17 3.05993 1842.69 3.73993C1842.25 4.41993 1842.03 5.79993 1842.03 7.87993V37.6399C1842.03 39.0799 1842.13 40.1599 1842.33 40.8799C1842.57 41.5999 1843.01 42.0799 1843.65 42.3199C1844.29 42.5599 1845.25 42.7199 1846.53 42.7999V43.9999C1845.45 43.9199 1844.09 43.8799 1842.45 43.8799C1840.81 43.8399 1839.15 43.8199 1837.47 43.8199C1835.55 43.8199 1833.73 43.8399 1832.01 43.8799C1830.33 43.8799 1828.99 43.9199 1827.99 43.9999V42.7999C1829.27 42.7199 1830.23 42.5599 1830.87 42.3199C1831.51 42.0799 1831.93 41.5999 1832.13 40.8799C1832.37 40.1599 1832.49 39.0799 1832.49 37.6399V7.87993C1832.49 6.39993 1832.37 5.31993 1832.13 4.63993C1831.93 3.91993 1831.49 3.43993 1830.81 3.19993C1830.17 2.91993 1829.23 2.75993 1827.99 2.71993V1.51994ZM1839.33 22.8199C1841.05 22.8599 1842.53 22.9399 1843.77 23.0599C1845.05 23.1799 1846.17 23.2999 1847.13 23.4199C1848.09 23.4999 1848.95 23.5599 1849.71 23.5999C1853.35 23.9199 1856.03 24.6999 1857.75 25.9399C1859.51 27.1799 1860.65 29.0399 1861.17 31.5199L1862.55 37.6999C1862.91 39.2999 1863.29 40.4199 1863.69 41.0599C1864.09 41.6999 1864.67 42.0199 1865.43 42.0199C1865.95 41.9799 1866.37 41.8599 1866.69 41.6599C1867.05 41.4199 1867.43 41.0799 1867.83 40.6399L1868.67 41.3599C1867.59 42.5999 1866.43 43.4799 1865.19 43.9999C1863.95 44.5599 1862.45 44.8399 1860.69 44.8399C1858.53 44.8399 1856.75 44.3799 1855.35 43.4599C1853.95 42.5399 1853.03 40.8399 1852.59 38.3599L1851.51 32.3599C1851.23 30.6799 1850.89 29.2199 1850.49 27.9799C1850.09 26.6999 1849.53 25.6999 1848.81 24.9799C1848.13 24.2199 1847.17 23.8399 1845.93 23.8399H1839.45L1839.33 22.8199Z" fill="#562870"/>
<path d="M1901.63 1.51994C1901.47 3.27993 1901.35 4.97993 1901.27 6.61993C1901.23 8.25993 1901.21 9.51993 1901.21 10.3999C1901.21 11.1999 1901.23 11.9599 1901.27 12.6799C1901.31 13.3999 1901.35 13.9999 1901.39 14.4799H1900.01C1899.61 11.5599 1898.99 9.25993 1898.15 7.57993C1897.31 5.85993 1896.21 4.65993 1894.85 3.97993C1893.53 3.25993 1891.97 2.89993 1890.17 2.89993H1887.71C1886.55 2.89993 1885.67 2.99993 1885.07 3.19993C1884.47 3.39993 1884.07 3.79993 1883.87 4.39993C1883.67 4.99993 1883.57 5.91993 1883.57 7.15993V38.3599C1883.57 39.5999 1883.67 40.5199 1883.87 41.1199C1884.07 41.7199 1884.47 42.1199 1885.07 42.3199C1885.67 42.5199 1886.55 42.6199 1887.71 42.6199H1890.65C1892.45 42.6199 1894.03 42.2399 1895.39 41.4799C1896.79 40.6799 1897.97 39.3399 1898.93 37.4599C1899.93 35.5799 1900.69 33.0399 1901.21 29.8399H1902.59C1902.47 31.1199 1902.41 32.7999 1902.41 34.8799C1902.41 35.7999 1902.43 37.0999 1902.47 38.7799C1902.51 40.4599 1902.63 42.1999 1902.83 43.9999C1900.79 43.9199 1898.49 43.8799 1895.93 43.8799C1893.37 43.8399 1891.09 43.8199 1889.09 43.8199C1888.09 43.8199 1886.81 43.8199 1885.25 43.8199C1883.69 43.8199 1882.01 43.8399 1880.21 43.8799C1878.41 43.8799 1876.59 43.8999 1874.75 43.9399C1872.91 43.9399 1871.17 43.9599 1869.53 43.9999V42.7999C1870.81 42.7199 1871.77 42.5599 1872.41 42.3199C1873.05 42.0799 1873.47 41.5999 1873.67 40.8799C1873.91 40.1599 1874.03 39.0799 1874.03 37.6399V7.87993C1874.03 6.39993 1873.91 5.31993 1873.67 4.63993C1873.47 3.91993 1873.03 3.43993 1872.35 3.19993C1871.71 2.91993 1870.77 2.75993 1869.53 2.71993V1.51994C1871.17 1.55994 1872.91 1.59993 1874.75 1.63993C1876.59 1.63993 1878.41 1.65993 1880.21 1.69993C1882.01 1.69993 1883.69 1.69993 1885.25 1.69993C1886.81 1.69993 1888.09 1.69993 1889.09 1.69993C1890.93 1.69993 1893.01 1.69993 1895.33 1.69993C1897.69 1.65993 1899.79 1.59993 1901.63 1.51994ZM1892.27 22.0399C1892.27 22.0399 1892.27 22.2399 1892.27 22.6399C1892.27 23.0399 1892.27 23.2399 1892.27 23.2399H1881.77C1881.77 23.2399 1881.77 23.0399 1881.77 22.6399C1881.77 22.2399 1881.77 22.0399 1881.77 22.0399H1892.27ZM1894.01 14.1199C1893.85 16.3999 1893.77 18.1399 1893.77 19.3399C1893.81 20.5399 1893.83 21.6399 1893.83 22.6399C1893.83 23.6399 1893.85 24.7399 1893.89 25.9399C1893.93 27.1399 1894.03 28.8799 1894.19 31.1599H1892.81C1892.61 29.7599 1892.23 28.4599 1891.67 27.2599C1891.15 26.0599 1890.39 25.0999 1889.39 24.3799C1888.39 23.6199 1887.09 23.2399 1885.49 23.2399V22.0399C1886.69 22.0399 1887.71 21.7999 1888.55 21.3199C1889.39 20.7999 1890.07 20.1399 1890.59 19.3399C1891.15 18.4999 1891.59 17.6199 1891.91 16.6999C1892.23 15.7799 1892.47 14.9199 1892.63 14.1199H1894.01Z" fill="#562870"/>
<path d="M1922.56 0.739935C1924.92 0.739935 1926.74 0.999935 1928.02 1.51994C1929.3 1.99993 1930.4 2.51993 1931.32 3.07993C1931.8 3.35993 1932.18 3.57993 1932.46 3.73993C1932.78 3.85993 1933.08 3.91993 1933.36 3.91993C1933.76 3.91993 1934.04 3.69993 1934.2 3.25993C1934.4 2.81993 1934.56 2.15993 1934.68 1.27993H1936.06C1936.02 2.03993 1935.96 2.95993 1935.88 4.03993C1935.84 5.07993 1935.8 6.45993 1935.76 8.17994C1935.76 9.89993 1935.76 12.1599 1935.76 14.9599H1934.38C1934.22 12.8799 1933.74 10.8599 1932.94 8.89993C1932.14 6.93993 1931 5.33993 1929.52 4.09993C1928.08 2.81993 1926.3 2.17993 1924.18 2.17993C1922.26 2.17993 1920.68 2.71993 1919.44 3.79993C1918.2 4.87993 1917.58 6.37994 1917.58 8.29993C1917.58 9.89994 1917.98 11.2799 1918.78 12.4399C1919.58 13.5599 1920.74 14.6599 1922.26 15.7399C1923.82 16.8199 1925.7 18.1199 1927.9 19.6399C1929.82 20.8799 1931.54 22.1199 1933.06 23.3599C1934.58 24.5999 1935.8 25.9999 1936.72 27.5599C1937.64 29.1199 1938.1 30.9799 1938.1 33.1399C1938.1 35.7799 1937.4 37.9599 1936 39.6799C1934.64 41.3999 1932.84 42.6999 1930.6 43.5799C1928.36 44.4199 1925.9 44.8399 1923.22 44.8399C1920.74 44.8399 1918.76 44.5999 1917.28 44.1199C1915.8 43.6399 1914.56 43.1399 1913.56 42.6199C1912.68 42.0599 1912 41.7799 1911.52 41.7799C1911.12 41.7799 1910.82 41.9999 1910.62 42.4399C1910.46 42.8799 1910.32 43.5399 1910.2 44.4199H1908.82C1908.9 43.4599 1908.94 42.3399 1908.94 41.0599C1908.98 39.7799 1909 38.1199 1909 36.0799C1909.04 33.9999 1909.06 31.3799 1909.06 28.2199H1910.44C1910.6 30.8599 1911.04 33.3399 1911.76 35.6599C1912.52 37.9399 1913.66 39.7799 1915.18 41.1799C1916.74 42.5799 1918.8 43.2799 1921.36 43.2799C1922.76 43.2799 1924 43.0399 1925.08 42.5599C1926.2 42.0399 1927.1 41.2799 1927.78 40.2799C1928.46 39.2799 1928.8 38.0399 1928.8 36.5599C1928.8 34.8799 1928.4 33.4199 1927.6 32.1799C1926.84 30.9399 1925.78 29.7799 1924.42 28.6999C1923.1 27.6199 1921.56 26.5199 1919.8 25.3999C1917.92 24.1599 1916.16 22.9199 1914.52 21.6799C1912.88 20.4399 1911.56 19.0199 1910.56 17.4199C1909.6 15.8199 1909.12 13.9199 1909.12 11.7199C1909.12 9.19993 1909.74 7.13993 1910.98 5.53993C1912.26 3.89993 1913.92 2.69993 1915.96 1.93993C1918.04 1.13993 1920.24 0.739935 1922.56 0.739935Z" fill="#562870"/>
<path d="M1942.6 1.51994C1943.6 1.55994 1944.94 1.59993 1946.62 1.63993C1948.34 1.67993 1950.04 1.69993 1951.72 1.69993C1953.64 1.69993 1955.5 1.67993 1957.3 1.63993C1959.1 1.59993 1960.38 1.57993 1961.14 1.57993C1966.7 1.57993 1970.86 2.67993 1973.62 4.87993C1976.38 7.07993 1977.76 9.91993 1977.76 13.3999C1977.76 14.8399 1977.48 16.3599 1976.92 17.9599C1976.36 19.5199 1975.4 20.9799 1974.04 22.3399C1972.72 23.6599 1970.9 24.7399 1968.58 25.5799C1966.26 26.4199 1963.34 26.8399 1959.82 26.8399H1953.7V25.6399H1959.22C1961.58 25.6399 1963.36 25.0999 1964.56 24.0199C1965.8 22.9399 1966.64 21.5199 1967.08 19.7599C1967.56 17.9999 1967.8 16.0999 1967.8 14.0599C1967.8 10.2599 1967.24 7.41993 1966.12 5.53993C1965 3.65993 1963.08 2.71993 1960.36 2.71993C1958.8 2.71993 1957.78 3.05993 1957.3 3.73993C1956.86 4.41993 1956.64 5.79993 1956.64 7.87993V37.2799C1956.64 38.8399 1956.8 39.9999 1957.12 40.7599C1957.44 41.5199 1958.06 42.0199 1958.98 42.2599C1959.9 42.4999 1961.26 42.6399 1963.06 42.6799V43.9999C1961.82 43.9599 1960.22 43.9199 1958.26 43.8799C1956.3 43.8399 1954.24 43.8199 1952.08 43.8199C1950.36 43.8199 1948.68 43.8399 1947.04 43.8799C1945.4 43.9199 1943.92 43.9599 1942.6 43.9999V42.7999C1943.88 42.7199 1944.84 42.5599 1945.48 42.3199C1946.12 42.0799 1946.54 41.5999 1946.74 40.8799C1946.98 40.1599 1947.1 39.0799 1947.1 37.6399V7.87993C1947.1 6.39993 1946.98 5.31993 1946.74 4.63993C1946.54 3.91993 1946.1 3.43993 1945.42 3.19993C1944.78 2.91993 1943.84 2.75993 1942.6 2.71993V1.51994Z" fill="#562870"/>
<path d="M2002.82 0.679932C2007.06 0.679932 2010.76 1.53993 2013.92 3.25993C2017.12 4.97993 2019.6 7.45993 2021.36 10.6999C2023.12 13.8999 2024 17.7999 2024 22.3999C2024 26.8799 2023.1 30.7999 2021.3 34.1599C2019.5 37.5199 2016.98 40.1399 2013.74 42.0199C2010.54 43.8999 2006.88 44.8399 2002.76 44.8399C1998.52 44.8399 1994.8 43.9799 1991.6 42.2599C1988.44 40.5399 1985.98 38.0599 1984.22 34.8199C1982.46 31.5799 1981.58 27.6799 1981.58 23.1199C1981.58 18.6399 1982.48 14.7199 1984.28 11.3599C1986.12 7.99993 1988.62 5.37993 1991.78 3.49994C1994.98 1.61993 1998.66 0.679932 2002.82 0.679932ZM2002.58 1.75993C2000.34 1.75993 1998.38 2.65993 1996.7 4.45993C1995.06 6.25993 1993.78 8.73993 1992.86 11.8999C1991.98 15.0599 1991.54 18.7199 1991.54 22.8799C1991.54 27.1199 1992.04 30.8199 1993.04 33.9799C1994.08 37.0999 1995.46 39.5199 1997.18 41.2399C1998.94 42.9199 2000.88 43.7599 2003 43.7599C2005.24 43.7599 2007.18 42.8599 2008.82 41.0599C2010.5 39.2599 2011.78 36.7799 2012.66 33.6199C2013.58 30.4199 2014.04 26.7599 2014.04 22.6399C2014.04 18.3599 2013.52 14.6599 2012.48 11.5399C2011.48 8.41994 2010.1 6.01994 2008.34 4.33994C2006.62 2.61993 2004.7 1.75993 2002.58 1.75993Z" fill="#562870"/>
<path d="M2067.68 1.51994V2.71993C2066.4 2.87993 2065.44 3.21993 2064.8 3.73993C2064.16 4.21993 2063.72 4.99993 2063.48 6.07993C2063.28 7.15993 2063.18 8.67993 2063.18 10.6399V44.1199C2062.7 44.0799 2062.2 44.0599 2061.68 44.0599C2061.2 44.0599 2060.68 44.0799 2060.12 44.1199L2034.08 11.1199V34.1599C2034.08 36.3599 2034.2 38.0599 2034.44 39.2599C2034.68 40.4199 2035.2 41.2599 2036 41.7799C2036.84 42.2599 2038.14 42.5999 2039.9 42.7999V43.9999C2039.14 43.9199 2038.14 43.8799 2036.9 43.8799C2035.66 43.8399 2034.5 43.8199 2033.42 43.8199C2032.5 43.8199 2031.56 43.8399 2030.6 43.8799C2029.64 43.8799 2028.84 43.9199 2028.2 43.9999V42.7999C2029.48 42.5999 2030.44 42.2599 2031.08 41.7799C2031.72 41.2999 2032.14 40.5199 2032.34 39.4399C2032.58 38.3199 2032.7 36.7999 2032.7 34.8799V7.87993C2032.7 6.39993 2032.58 5.31993 2032.34 4.63993C2032.14 3.91993 2031.7 3.43993 2031.02 3.19993C2030.38 2.91993 2029.44 2.75993 2028.2 2.71993V1.51994C2028.84 1.55994 2029.64 1.59993 2030.6 1.63993C2031.56 1.67993 2032.5 1.69993 2033.42 1.69993C2034.38 1.69993 2035.3 1.67993 2036.18 1.63993C2037.06 1.59993 2037.86 1.55994 2038.58 1.51994L2061.8 30.1399V11.3599C2061.8 9.15993 2061.68 7.47993 2061.44 6.31993C2061.2 5.11993 2060.66 4.25993 2059.82 3.73993C2059.02 3.21993 2057.74 2.87993 2055.98 2.71993V1.51994C2056.74 1.55994 2057.74 1.59993 2058.98 1.63993C2060.22 1.67993 2061.38 1.69993 2062.46 1.69993C2063.42 1.69993 2064.36 1.67993 2065.28 1.63993C2066.24 1.59993 2067.04 1.55994 2067.68 1.51994Z" fill="#562870"/>
<path d="M2086.45 0.739935C2088.81 0.739935 2090.63 0.999935 2091.91 1.51994C2093.19 1.99993 2094.29 2.51993 2095.21 3.07993C2095.69 3.35993 2096.07 3.57993 2096.35 3.73993C2096.67 3.85993 2096.97 3.91993 2097.25 3.91993C2097.65 3.91993 2097.93 3.69993 2098.09 3.25993C2098.29 2.81993 2098.45 2.15993 2098.57 1.27993H2099.95C2099.91 2.03993 2099.85 2.95993 2099.77 4.03993C2099.73 5.07993 2099.69 6.45993 2099.65 8.17994C2099.65 9.89993 2099.65 12.1599 2099.65 14.9599H2098.27C2098.11 12.8799 2097.63 10.8599 2096.83 8.89993C2096.03 6.93993 2094.89 5.33993 2093.41 4.09993C2091.97 2.81993 2090.19 2.17993 2088.07 2.17993C2086.15 2.17993 2084.57 2.71993 2083.33 3.79993C2082.09 4.87993 2081.47 6.37994 2081.47 8.29993C2081.47 9.89994 2081.87 11.2799 2082.67 12.4399C2083.47 13.5599 2084.63 14.6599 2086.15 15.7399C2087.71 16.8199 2089.59 18.1199 2091.79 19.6399C2093.71 20.8799 2095.43 22.1199 2096.95 23.3599C2098.47 24.5999 2099.69 25.9999 2100.61 27.5599C2101.53 29.1199 2101.99 30.9799 2101.99 33.1399C2101.99 35.7799 2101.29 37.9599 2099.89 39.6799C2098.53 41.3999 2096.73 42.6999 2094.49 43.5799C2092.25 44.4199 2089.79 44.8399 2087.11 44.8399C2084.63 44.8399 2082.65 44.5999 2081.17 44.1199C2079.69 43.6399 2078.45 43.1399 2077.45 42.6199C2076.57 42.0599 2075.89 41.7799 2075.41 41.7799C2075.01 41.7799 2074.71 41.9999 2074.51 42.4399C2074.35 42.8799 2074.21 43.5399 2074.09 44.4199H2072.71C2072.79 43.4599 2072.83 42.3399 2072.83 41.0599C2072.87 39.7799 2072.89 38.1199 2072.89 36.0799C2072.93 33.9999 2072.95 31.3799 2072.95 28.2199H2074.33C2074.49 30.8599 2074.93 33.3399 2075.65 35.6599C2076.41 37.9399 2077.55 39.7799 2079.07 41.1799C2080.63 42.5799 2082.69 43.2799 2085.25 43.2799C2086.65 43.2799 2087.89 43.0399 2088.97 42.5599C2090.09 42.0399 2090.99 41.2799 2091.67 40.2799C2092.35 39.2799 2092.69 38.0399 2092.69 36.5599C2092.69 34.8799 2092.29 33.4199 2091.49 32.1799C2090.73 30.9399 2089.67 29.7799 2088.31 28.6999C2086.99 27.6199 2085.45 26.5199 2083.69 25.3999C2081.81 24.1599 2080.05 22.9199 2078.41 21.6799C2076.77 20.4399 2075.45 19.0199 2074.45 17.4199C2073.49 15.8199 2073.01 13.9199 2073.01 11.7199C2073.01 9.19993 2073.63 7.13993 2074.87 5.53993C2076.15 3.89993 2077.81 2.69993 2079.85 1.93993C2081.93 1.13993 2084.13 0.739935 2086.45 0.739935Z" fill="#562870"/>
<path d="M2125.02 1.51994V2.71993C2123.74 2.75993 2122.76 2.91993 2122.08 3.19993C2121.44 3.43993 2121.02 3.91993 2120.82 4.63993C2120.62 5.31993 2120.52 6.39993 2120.52 7.87993V37.6399C2120.52 39.0799 2120.62 40.1599 2120.82 40.8799C2121.06 41.5999 2121.5 42.0799 2122.14 42.3199C2122.78 42.5599 2123.74 42.7199 2125.02 42.7999V43.9999C2123.94 43.9199 2122.58 43.8799 2120.94 43.8799C2119.3 43.8399 2117.64 43.8199 2115.96 43.8199C2114 43.8199 2112.18 43.8399 2110.5 43.8799C2108.86 43.8799 2107.52 43.9199 2106.48 43.9999V42.7999C2107.76 42.7199 2108.72 42.5599 2109.36 42.3199C2110 42.0799 2110.42 41.5999 2110.62 40.8799C2110.86 40.1599 2110.98 39.0799 2110.98 37.6399V7.87993C2110.98 6.39993 2110.86 5.31993 2110.62 4.63993C2110.42 3.91993 2109.98 3.43993 2109.3 3.19993C2108.66 2.91993 2107.72 2.75993 2106.48 2.71993V1.51994C2107.52 1.55994 2108.86 1.59993 2110.5 1.63993C2112.18 1.67993 2114 1.69993 2115.96 1.69993C2117.64 1.69993 2119.3 1.67993 2120.94 1.63993C2122.58 1.59993 2123.94 1.55994 2125.02 1.51994Z" fill="#562870"/>
<path d="M2129.04 1.51994C2130.08 1.55994 2131.44 1.59993 2133.12 1.63993C2134.8 1.67993 2136.48 1.69993 2138.16 1.69993C2140.08 1.69993 2141.94 1.67993 2143.74 1.63993C2145.54 1.59993 2146.82 1.57993 2147.58 1.57993C2152.54 1.57993 2156.24 2.45993 2158.68 4.21993C2161.16 5.97993 2162.4 8.23993 2162.4 10.9999C2162.4 12.3999 2161.98 13.8199 2161.14 15.2599C2160.3 16.6999 2159 17.9799 2157.24 19.0999C2155.48 20.2199 2153.2 21.0399 2150.4 21.5599V21.6799C2154.16 21.9599 2157.14 22.6399 2159.34 23.7199C2161.54 24.7999 2163.12 26.0999 2164.08 27.6199C2165.04 29.1399 2165.52 30.7199 2165.52 32.3599C2165.52 34.8799 2164.86 36.9999 2163.54 38.7199C2162.22 40.4399 2160.32 41.7599 2157.84 42.6799C2155.36 43.5599 2152.4 43.9999 2148.96 43.9999C2148 43.9999 2146.62 43.9799 2144.82 43.9399C2143.02 43.8599 2140.84 43.8199 2138.28 43.8199C2136.52 43.8199 2134.8 43.8399 2133.12 43.8799C2131.44 43.8799 2130.08 43.9199 2129.04 43.9999V42.7999C2130.32 42.7199 2131.28 42.5599 2131.92 42.3199C2132.56 42.0799 2132.98 41.5999 2133.18 40.8799C2133.42 40.1599 2133.54 39.0799 2133.54 37.6399V7.87993C2133.54 6.39993 2133.42 5.31993 2133.18 4.63993C2132.98 3.91993 2132.54 3.43993 2131.86 3.19993C2131.22 2.91993 2130.28 2.75993 2129.04 2.71993V1.51994ZM2146.8 2.71993C2145.24 2.71993 2144.22 3.05993 2143.74 3.73993C2143.3 4.41993 2143.08 5.79993 2143.08 7.87993V37.6399C2143.08 39.0399 2143.18 40.0999 2143.38 40.8199C2143.62 41.5399 2144.02 42.0199 2144.58 42.2599C2145.18 42.4999 2146.06 42.6199 2147.22 42.6199C2150.1 42.6199 2152.2 41.7199 2153.52 39.9199C2154.88 38.0799 2155.56 35.4799 2155.56 32.1199C2155.56 29.0399 2154.78 26.6599 2153.22 24.9799C2151.7 23.2999 2149.16 22.4599 2145.6 22.4599H2140.5C2140.5 22.4599 2140.5 22.2999 2140.5 21.9799C2140.5 21.6199 2140.5 21.4399 2140.5 21.4399H2145.66C2147.54 21.4399 2148.98 20.9999 2149.98 20.1199C2150.98 19.1999 2151.68 17.9999 2152.08 16.5199C2152.48 14.9999 2152.68 13.3799 2152.68 11.6599C2152.68 8.69993 2152.22 6.47993 2151.3 4.99993C2150.38 3.47993 2148.88 2.71993 2146.8 2.71993Z" fill="#562870"/>
<path d="M2188.08 1.51994V2.71993C2186.72 2.75993 2185.68 2.91993 2184.96 3.19993C2184.28 3.43993 2183.82 3.91993 2183.58 4.63993C2183.34 5.31993 2183.22 6.39993 2183.22 7.87993V38.3599C2183.22 39.5999 2183.3 40.5199 2183.46 41.1199C2183.66 41.7199 2184.02 42.1199 2184.54 42.3199C2185.1 42.5199 2185.92 42.6199 2187 42.6199H2189.94C2191.3 42.6199 2192.58 42.2999 2193.78 41.6599C2194.98 41.0199 2196.06 40.1199 2197.02 38.9599C2197.98 37.7599 2198.78 36.3399 2199.42 34.6999C2200.06 33.0599 2200.54 31.2399 2200.86 29.2399H2202.24C2202.12 30.5999 2202.06 32.3599 2202.06 34.5199C2202.06 35.4399 2202.08 36.7799 2202.12 38.5399C2202.16 40.2999 2202.28 42.1199 2202.48 43.9999C2200.44 43.9199 2198.14 43.8799 2195.58 43.8799C2193.02 43.8399 2190.74 43.8199 2188.74 43.8199C2187.74 43.8199 2186.46 43.8199 2184.9 43.8199C2183.34 43.8199 2181.66 43.8399 2179.86 43.8799C2178.06 43.8799 2176.24 43.8999 2174.4 43.9399C2172.56 43.9399 2170.82 43.9599 2169.18 43.9999V42.7999C2170.46 42.7199 2171.42 42.5599 2172.06 42.3199C2172.7 42.0799 2173.12 41.5999 2173.32 40.8799C2173.56 40.1599 2173.68 39.0799 2173.68 37.6399V7.87993C2173.68 6.39993 2173.56 5.31993 2173.32 4.63993C2173.12 3.91993 2172.68 3.43993 2172 3.19993C2171.36 2.91993 2170.42 2.75993 2169.18 2.71993V1.51994C2170.18 1.55994 2171.52 1.59993 2173.2 1.63993C2174.92 1.67993 2176.74 1.69993 2178.66 1.69993C2180.42 1.69993 2182.14 1.67993 2183.82 1.63993C2185.54 1.59993 2186.96 1.55994 2188.08 1.51994Z" fill="#562870"/>
<path d="M2237.96 1.51994C2237.8 3.27993 2237.68 4.97993 2237.6 6.61993C2237.56 8.25993 2237.54 9.51993 2237.54 10.3999C2237.54 11.1999 2237.56 11.9599 2237.6 12.6799C2237.64 13.3999 2237.68 13.9999 2237.72 14.4799H2236.34C2235.94 11.5599 2235.32 9.25993 2234.48 7.57993C2233.64 5.85993 2232.54 4.65993 2231.18 3.97993C2229.86 3.25993 2228.3 2.89993 2226.5 2.89993H2224.04C2222.88 2.89993 2222 2.99993 2221.4 3.19993C2220.8 3.39993 2220.4 3.79993 2220.2 4.39993C2220 4.99993 2219.9 5.91993 2219.9 7.15993V38.3599C2219.9 39.5999 2220 40.5199 2220.2 41.1199C2220.4 41.7199 2220.8 42.1199 2221.4 42.3199C2222 42.5199 2222.88 42.6199 2224.04 42.6199H2226.98C2228.78 42.6199 2230.36 42.2399 2231.72 41.4799C2233.12 40.6799 2234.3 39.3399 2235.26 37.4599C2236.26 35.5799 2237.02 33.0399 2237.54 29.8399H2238.92C2238.8 31.1199 2238.74 32.7999 2238.74 34.8799C2238.74 35.7999 2238.76 37.0999 2238.8 38.7799C2238.84 40.4599 2238.96 42.1999 2239.16 43.9999C2237.12 43.9199 2234.82 43.8799 2232.26 43.8799C2229.7 43.8399 2227.42 43.8199 2225.42 43.8199C2224.42 43.8199 2223.14 43.8199 2221.58 43.8199C2220.02 43.8199 2218.34 43.8399 2216.54 43.8799C2214.74 43.8799 2212.92 43.8999 2211.08 43.9399C2209.24 43.9399 2207.5 43.9599 2205.86 43.9999V42.7999C2207.14 42.7199 2208.1 42.5599 2208.74 42.3199C2209.38 42.0799 2209.8 41.5999 2210 40.8799C2210.24 40.1599 2210.36 39.0799 2210.36 37.6399V7.87993C2210.36 6.39993 2210.24 5.31993 2210 4.63993C2209.8 3.91993 2209.36 3.43993 2208.68 3.19993C2208.04 2.91993 2207.1 2.75993 2205.86 2.71993V1.51994C2207.5 1.55994 2209.24 1.59993 2211.08 1.63993C2212.92 1.63993 2214.74 1.65993 2216.54 1.69993C2218.34 1.69993 2220.02 1.69993 2221.58 1.69993C2223.14 1.69993 2224.42 1.69993 2225.42 1.69993C2227.26 1.69993 2229.34 1.69993 2231.66 1.69993C2234.02 1.65993 2236.12 1.59993 2237.96 1.51994ZM2228.6 22.0399C2228.6 22.0399 2228.6 22.2399 2228.6 22.6399C2228.6 23.0399 2228.6 23.2399 2228.6 23.2399H2218.1C2218.1 23.2399 2218.1 23.0399 2218.1 22.6399C2218.1 22.2399 2218.1 22.0399 2218.1 22.0399H2228.6ZM2230.34 14.1199C2230.18 16.3999 2230.1 18.1399 2230.1 19.3399C2230.14 20.5399 2230.16 21.6399 2230.16 22.6399C2230.16 23.6399 2230.18 24.7399 2230.22 25.9399C2230.26 27.1399 2230.36 28.8799 2230.52 31.1599H2229.14C2228.94 29.7599 2228.56 28.4599 2228 27.2599C2227.48 26.0599 2226.72 25.0999 2225.72 24.3799C2224.72 23.6199 2223.42 23.2399 2221.82 23.2399V22.0399C2223.02 22.0399 2224.04 21.7999 2224.88 21.3199C2225.72 20.7999 2226.4 20.1399 2226.92 19.3399C2227.48 18.4999 2227.92 17.6199 2228.24 16.6999C2228.56 15.7799 2228.8 14.9199 2228.96 14.1199H2230.34Z" fill="#562870"/>
</svg>
