<svg width="2240" height="45" viewBox="0 0 2240 45" fill="none" xmlns="http://www.w3.org/2000/svg">
<path d="M0 0.855982C1.00039 0.896743 2.34092 0.937502 4.02158 0.978262C5.74226 1.01902 7.44292 1.0394 9.12358 1.0394C11.0443 1.0394 12.9051 1.01902 14.7058 0.978262C16.5065 0.937502 17.787 0.917121 18.5473 0.917121C24.1095 0.917121 28.2711 2.03805 31.0322 4.27989C33.7933 6.52174 35.1738 9.41576 35.1738 12.962C35.1738 14.4293 34.8937 15.9783 34.3335 17.6087C33.7733 19.1984 32.8129 20.6861 31.4524 22.072C30.1318 23.4171 28.3111 24.5177 25.9902 25.3736C23.6693 26.2296 20.7481 26.6576 17.2268 26.6576H11.1044V25.4348H16.6265C18.9875 25.4348 20.7682 24.8845 21.9686 23.784C23.2091 22.6834 24.0494 21.2364 24.4896 19.4429C24.9698 17.6495 25.2099 15.7133 25.2099 13.6345C25.2099 9.76223 24.6497 6.86821 23.5292 4.95245C22.4088 3.03669 20.488 2.07881 17.767 2.07881C16.2064 2.07881 15.186 2.42527 14.7058 3.11821C14.2656 3.81114 14.0455 5.21739 14.0455 7.33696V37.2962C14.0455 38.8859 14.2056 40.0679 14.5257 40.8424C14.8458 41.6169 15.4661 42.1264 16.3864 42.3709C17.3068 42.6155 18.6673 42.7582 20.468 42.7989V44.144C19.2275 44.1033 17.6269 44.0625 15.6662 44.0217C13.7054 43.981 11.6446 43.9606 9.48372 43.9606C7.76305 43.9606 6.08239 43.981 4.44174 44.0217C2.8011 44.0625 1.32052 44.1033 0 44.144V42.9212C1.2805 42.8397 2.24088 42.6766 2.88113 42.4321C3.52138 42.1875 3.94155 41.6984 4.14163 40.9647C4.38172 40.231 4.50177 39.1304 4.50177 37.663V7.33696C4.50177 5.82881 4.38172 4.72826 4.14163 4.03533C3.94155 3.30163 3.50137 2.8125 2.82111 2.56794C2.18086 2.28261 1.24049 2.11957 0 2.07881V0.855982Z" fill="#EBD8F6"/>
<path d="M60.2412 0C64.4828 0 68.1843 0.876359 71.3455 2.62908C74.5468 4.38179 77.0277 6.90897 78.7884 10.2106C80.5491 13.4715 81.4295 17.4457 81.4295 22.1332C81.4295 26.6984 80.5291 30.6929 78.7284 34.1169C76.9277 37.5408 74.4067 40.2106 71.1654 42.1264C67.9642 44.0421 64.3027 45 60.1811 45C55.9395 45 52.218 44.1236 49.0167 42.3709C45.8555 40.6182 43.3945 38.091 41.6338 34.7894C39.8732 31.4878 38.9928 27.5136 38.9928 22.8669C38.9928 18.3016 39.8932 14.3071 41.6939 10.8832C43.5346 7.45924 46.0356 4.78941 49.1968 2.87364C52.3981 0.957882 56.0795 0 60.2412 0ZM60.0011 1.10054C57.7602 1.10054 55.7994 2.01766 54.1187 3.8519C52.4781 5.68614 51.1976 8.21332 50.2772 11.4334C49.3969 14.6535 48.9567 18.3832 48.9567 22.6223C48.9567 26.9429 49.4569 30.7133 50.4573 33.9334C51.4977 37.1128 52.8783 39.5788 54.5989 41.3315C56.3596 43.0435 58.3004 43.8995 60.4212 43.8995C62.6621 43.8995 64.6029 42.9823 66.2435 41.1481C67.9242 39.3139 69.2047 36.7867 70.085 33.5666C71.0054 30.3057 71.4656 26.5761 71.4656 22.3777C71.4656 18.0163 70.9454 14.2459 69.9049 11.0666C68.9046 7.88723 67.524 5.44158 65.7633 3.72962C64.0426 1.9769 62.1219 1.10054 60.0011 1.10054Z" fill="#EBD8F6"/>
<path d="M101.055 0.0611446C103.416 0.0611446 105.237 0.326091 106.517 0.855982C107.798 1.34511 108.898 1.875 109.819 2.44565C110.299 2.73098 110.679 2.95517 110.959 3.11821C111.279 3.24049 111.579 3.30163 111.86 3.30163C112.26 3.30163 112.54 3.07745 112.7 2.62908C112.9 2.18071 113.06 1.50815 113.18 0.611415H114.561C114.521 1.38587 114.461 2.32337 114.381 3.42392C114.341 4.4837 114.301 5.88995 114.26 7.64267C114.26 9.39538 114.26 11.6984 114.26 14.5516H112.88C112.72 12.4321 112.24 10.3736 111.439 8.37636C110.639 6.37908 109.499 4.74864 108.018 3.48506C106.577 2.18071 104.797 1.52853 102.676 1.52853C100.755 1.52853 99.1746 2.07881 97.9341 3.17935C96.6936 4.27989 96.0733 5.80843 96.0733 7.76495C96.0733 9.39538 96.4735 10.8016 97.2738 11.9837C98.0741 13.125 99.2346 14.2459 100.755 15.3465C102.316 16.447 104.197 17.7717 106.397 19.3207C108.318 20.5842 110.039 21.8478 111.559 23.1114C113.08 24.375 114.301 25.8016 115.221 27.3913C116.141 28.981 116.601 30.8764 116.601 33.0774C116.601 35.7677 115.901 37.9891 114.501 39.7419C113.14 41.4946 111.339 42.8193 109.098 43.716C106.858 44.572 104.397 45 101.716 45C99.2346 45 97.2538 44.7554 95.7732 44.2663C94.2926 43.7772 93.0522 43.2677 92.0518 42.7378C91.1714 42.1671 90.4912 41.8818 90.011 41.8818C89.6108 41.8818 89.3107 42.106 89.1106 42.5544C88.9505 43.0027 88.8105 43.6753 88.6904 44.572H87.3099C87.3899 43.5938 87.43 42.4525 87.43 41.1481C87.47 39.8438 87.49 38.1522 87.49 36.0734C87.53 33.9538 87.55 31.284 87.55 28.0639H88.9305C89.0906 30.7541 89.5308 33.2813 90.2511 35.6454C91.0114 37.9688 92.1518 39.8438 93.6724 41.2704C95.233 42.697 97.2938 43.4103 99.8548 43.4103C101.255 43.4103 102.496 43.1658 103.576 42.6766C104.697 42.1467 105.597 41.3723 106.277 40.3533C106.958 39.3342 107.298 38.0707 107.298 36.5625C107.298 34.8505 106.898 33.3628 106.097 32.0992C105.337 30.8356 104.277 29.6535 102.916 28.553C101.596 27.4524 100.055 26.3315 98.2942 25.1902C96.4135 23.9266 94.6528 22.663 93.0121 21.3995C91.3715 20.1359 90.051 18.6889 89.0506 17.0584C88.0902 15.428 87.61 13.4919 87.61 11.25C87.61 8.68207 88.2303 6.58288 89.4708 4.95245C90.7513 3.28125 92.4119 2.05843 94.4527 1.28397C96.5335 0.468753 98.7344 0.0611446 101.055 0.0611446Z" fill="#EBD8F6"/>
<path d="M139.65 0.855982V2.07881C138.369 2.11957 137.389 2.28261 136.708 2.56794C136.068 2.8125 135.648 3.30163 135.448 4.03533C135.248 4.72826 135.148 5.82881 135.148 7.33696V37.663C135.148 39.1304 135.248 40.231 135.448 40.9647C135.688 41.6984 136.128 42.1875 136.768 42.4321C137.409 42.6766 138.369 42.8397 139.65 42.9212V44.144C138.569 44.0625 137.209 44.0217 135.568 44.0217C133.927 43.981 132.267 43.9606 130.586 43.9606C128.625 43.9606 126.804 43.981 125.124 44.0217C123.483 44.0217 122.143 44.0625 121.102 44.144V42.9212C122.383 42.8397 123.343 42.6766 123.983 42.4321C124.624 42.1875 125.044 41.6984 125.244 40.9647C125.484 40.231 125.604 39.1304 125.604 37.663V7.33696C125.604 5.82881 125.484 4.72826 125.244 4.03533C125.044 3.30163 124.604 2.8125 123.923 2.56794C123.283 2.28261 122.343 2.11957 121.102 2.07881V0.855982C122.143 0.896743 123.483 0.937502 125.124 0.978262C126.804 1.01902 128.625 1.0394 130.586 1.0394C132.267 1.0394 133.927 1.01902 135.568 0.978262C137.209 0.937502 138.569 0.896743 139.65 0.855982Z" fill="#EBD8F6"/>
<path d="M180.164 0.855982C180.004 2.93479 179.884 4.93207 179.804 6.84783C179.764 8.76359 179.744 10.231 179.744 11.25C179.744 12.1467 179.764 13.0027 179.804 13.8179C179.844 14.6332 179.884 15.3261 179.924 15.8967H178.543C177.903 12.4728 177.083 9.76223 176.082 7.76495C175.122 5.76766 173.962 4.36141 172.601 3.5462C171.241 2.69022 169.64 2.26223 167.799 2.26223H166.419V37.1739C166.419 38.8044 166.579 40.0272 166.899 40.8424C167.259 41.6576 167.899 42.2079 168.82 42.4932C169.74 42.7378 171.08 42.8804 172.841 42.9212V44.144C171.601 44.1033 169.94 44.0625 167.859 44.0217C165.818 43.981 163.678 43.9606 161.437 43.9606C159.236 43.9606 157.155 43.981 155.194 44.0217C153.233 44.0625 151.653 44.1033 150.452 44.144V42.9212C152.253 42.8804 153.614 42.7378 154.534 42.4932C155.454 42.2079 156.075 41.6576 156.395 40.8424C156.715 40.0272 156.875 38.8044 156.875 37.1739V2.26223H155.554C153.714 2.26223 152.113 2.69022 150.752 3.5462C149.392 4.36141 148.231 5.76766 147.271 7.76495C146.311 9.72147 145.47 12.4321 144.75 15.8967H143.37C143.45 15.3261 143.49 14.6332 143.49 13.8179C143.53 13.0027 143.55 12.1467 143.55 11.25C143.55 10.231 143.51 8.76359 143.43 6.84783C143.39 4.93207 143.29 2.93479 143.129 0.855982C144.97 0.896743 146.971 0.937502 149.132 0.978262C151.333 1.01902 153.534 1.0394 155.734 1.0394C157.935 1.0394 159.916 1.0394 161.677 1.0394C163.477 1.0394 165.458 1.0394 167.619 1.0394C169.82 1.0394 172.021 1.01902 174.222 0.978262C176.423 0.937502 178.403 0.896743 180.164 0.855982Z" fill="#EBD8F6"/>
<path d="M202.311 0.855982V2.07881C201.03 2.11957 200.05 2.28261 199.37 2.56794C198.729 2.8125 198.309 3.30163 198.109 4.03533C197.909 4.72826 197.809 5.82881 197.809 7.33696V37.663C197.809 39.1304 197.909 40.231 198.109 40.9647C198.349 41.6984 198.789 42.1875 199.43 42.4321C200.07 42.6766 201.03 42.8397 202.311 42.9212V44.144C201.23 44.0625 199.87 44.0217 198.229 44.0217C196.589 43.981 194.928 43.9606 193.247 43.9606C191.287 43.9606 189.466 43.981 187.785 44.0217C186.144 44.0217 184.804 44.0625 183.764 44.144V42.9212C185.044 42.8397 186.004 42.6766 186.645 42.4321C187.285 42.1875 187.705 41.6984 187.905 40.9647C188.145 40.231 188.265 39.1304 188.265 37.663V7.33696C188.265 5.82881 188.145 4.72826 187.905 4.03533C187.705 3.30163 187.265 2.8125 186.585 2.56794C185.944 2.28261 185.004 2.11957 183.764 2.07881V0.855982C184.804 0.896743 186.144 0.937502 187.785 0.978262C189.466 1.01902 191.287 1.0394 193.247 1.0394C194.928 1.0394 196.589 1.01902 198.229 0.978262C199.87 0.937502 201.23 0.896743 202.311 0.855982Z" fill="#EBD8F6"/>
<path d="M244.986 0.855982V2.07881C244.106 2.40489 243.165 3.11821 242.165 4.21875C241.205 5.31929 240.304 7.03125 239.464 9.35462L226.799 44.2663C226.479 44.2256 226.139 44.2052 225.779 44.2052C225.419 44.2052 225.058 44.2052 224.698 44.2052C224.378 44.2052 224.038 44.2052 223.678 44.2052C223.318 44.2052 222.978 44.2256 222.657 44.2663L207.351 5.99185C206.791 4.52446 206.171 3.52582 205.491 2.99592C204.81 2.42527 204.17 2.11957 203.57 2.07881V0.855982C204.77 0.896743 206.171 0.937502 207.772 0.978262C209.412 1.01902 211.053 1.0394 212.694 1.0394C214.534 1.0394 216.255 1.01902 217.856 0.978262C219.496 0.937502 220.817 0.896743 221.817 0.855982V2.07881C220.537 2.11957 219.536 2.28261 218.816 2.56794C218.096 2.8125 217.695 3.30163 217.615 4.03533C217.535 4.72826 217.776 5.78804 218.336 7.21468L229.26 35.5231L228 37.0516L236.283 14.3071C237.363 11.25 237.923 8.84511 237.963 7.09239C238.003 5.33968 237.583 4.07609 236.703 3.30163C235.823 2.52718 234.562 2.11957 232.921 2.07881V0.855982C234.282 0.896743 235.563 0.937502 236.763 0.978262C237.963 1.01902 239.184 1.0394 240.424 1.0394C241.305 1.0394 242.125 1.01902 242.885 0.978262C243.686 0.937502 244.386 0.896743 244.986 0.855982Z" fill="#EBD8F6"/>
<path d="M278.537 0.855982C278.377 2.64946 278.257 4.3818 278.177 6.05299C278.137 7.72419 278.117 9.00815 278.117 9.90489C278.117 10.7201 278.137 11.4946 278.177 12.2283C278.217 12.962 278.257 13.5734 278.297 14.0625H276.917C276.517 11.087 275.896 8.74321 275.056 7.03125C274.216 5.27853 273.115 4.05571 271.755 3.36277C270.434 2.62908 268.874 2.26223 267.073 2.26223H264.612C263.452 2.26223 262.571 2.36413 261.971 2.56794C261.371 2.77174 260.971 3.17935 260.771 3.79076C260.57 4.40217 260.47 5.33967 260.47 6.60326V38.3967C260.47 39.6603 260.57 40.5978 260.771 41.2092C260.971 41.8207 261.371 42.2283 261.971 42.4321C262.571 42.6359 263.452 42.7378 264.612 42.7378H267.553C269.354 42.7378 270.934 42.3505 272.295 41.5761C273.696 40.7609 274.876 39.3954 275.836 37.4796C276.837 35.5639 277.597 32.9755 278.117 29.7147H279.498C279.378 31.019 279.318 32.731 279.318 34.8505C279.318 35.788 279.338 37.1128 279.378 38.8247C279.418 40.5367 279.538 42.3098 279.738 44.144C277.697 44.0625 275.396 44.0217 272.835 44.0217C270.274 43.981 267.993 43.9606 265.993 43.9606C264.992 43.9606 263.712 43.9606 262.151 43.9606C260.59 43.9606 258.91 43.981 257.109 44.0217C255.308 44.0217 253.488 44.0421 251.647 44.0829C249.806 44.0829 248.066 44.1033 246.425 44.144V42.9212C247.705 42.8397 248.666 42.6766 249.306 42.4321C249.946 42.1875 250.366 41.6984 250.567 40.9647C250.807 40.231 250.927 39.1304 250.927 37.663V7.33696C250.927 5.82881 250.807 4.72826 250.567 4.03533C250.366 3.30163 249.926 2.8125 249.246 2.56794C248.606 2.28261 247.665 2.11957 246.425 2.07881V0.855982C248.066 0.896743 249.806 0.937502 251.647 0.978262C253.488 0.978262 255.308 0.998642 257.109 1.0394C258.91 1.0394 260.59 1.0394 262.151 1.0394C263.712 1.0394 264.992 1.0394 265.993 1.0394C267.833 1.0394 269.914 1.0394 272.235 1.0394C274.596 0.998642 276.697 0.937503 278.537 0.855982ZM269.174 21.7663C269.174 21.7663 269.174 21.9701 269.174 22.3777C269.174 22.7853 269.174 22.9891 269.174 22.9891H258.67C258.67 22.9891 258.67 22.7853 258.67 22.3777C258.67 21.9701 258.67 21.7663 258.67 21.7663H269.174ZM270.914 13.6957C270.754 16.019 270.674 17.7921 270.674 19.0149C270.714 20.2378 270.734 21.3587 270.734 22.3777C270.734 23.3967 270.754 24.5177 270.794 25.7405C270.834 26.9633 270.935 28.7364 271.095 31.0598H269.714C269.514 29.6332 269.134 28.3084 268.574 27.0856C268.053 25.8628 267.293 24.8845 266.293 24.1508C265.292 23.3764 263.992 22.9891 262.391 22.9891V21.7663C263.592 21.7663 264.612 21.5217 265.452 21.0326C266.293 20.5027 266.973 19.8302 267.493 19.0149C268.053 18.159 268.494 17.2622 268.814 16.3247C269.134 15.3872 269.374 14.5109 269.534 13.6957H270.914Z" fill="#EBD8F6"/>
<path d="M348.284 0C350.925 0 353.086 0.40761 354.766 1.22283C356.487 1.99729 358.008 2.9144 359.328 3.97419C360.129 4.5856 360.729 4.66712 361.129 4.21875C361.569 3.72962 361.869 2.6087 362.029 0.855982H363.41C363.33 2.44566 363.27 4.38179 363.23 6.6644C363.19 8.90625 363.17 11.9022 363.17 15.6522H361.789C361.589 13.7772 361.329 12.1875 361.009 10.8832C360.689 9.53804 360.249 8.35598 359.688 7.33696C359.128 6.31794 358.328 5.40082 357.287 4.5856C356.287 3.56658 355.127 2.8125 353.806 2.32337C352.486 1.83424 351.105 1.58968 349.664 1.58968C347.504 1.58968 345.663 2.18071 344.142 3.36277C342.622 4.50408 341.381 6.07337 340.421 8.07065C339.5 10.0679 338.82 12.3302 338.38 14.8573C337.94 17.3438 337.72 19.9321 337.72 22.6223C337.72 25.3533 337.94 27.9823 338.38 30.5095C338.86 32.9959 339.58 35.2174 340.541 37.1739C341.541 39.1304 342.822 40.6794 344.382 41.8207C345.943 42.962 347.784 43.5326 349.905 43.5326C351.225 43.5326 352.546 43.288 353.866 42.7989C355.227 42.269 356.387 41.5149 357.347 40.5367C358.908 39.3139 359.969 37.8057 360.529 36.0122C361.089 34.178 361.509 31.7527 361.789 28.7364H363.17C363.17 32.6087 363.19 35.7473 363.23 38.1522C363.27 40.5163 363.33 42.5136 363.41 44.144H362.029C361.869 42.3913 361.589 41.2908 361.189 40.8424C360.829 40.394 360.209 40.4552 359.328 41.0258C357.848 42.0856 356.267 43.0231 354.586 43.8383C352.946 44.6128 350.825 45 348.224 45C343.982 45 340.261 44.1236 337.06 42.3709C333.898 40.6182 331.437 38.091 329.677 34.7894C327.916 31.4878 327.036 27.5136 327.036 22.8669C327.036 18.3016 327.936 14.3071 329.737 10.8832C331.577 7.45924 334.078 4.78941 337.24 2.87364C340.441 0.957882 344.122 0 348.284 0Z" fill="#EBD8F6"/>
<path d="M394.267 44.144V42.9212C395.547 42.8397 396.508 42.6766 397.148 42.4321C397.788 42.1875 398.208 41.6984 398.408 40.9647C398.648 40.231 398.768 39.1304 398.768 37.663V7.33696C398.768 5.82881 398.648 4.72826 398.408 4.03533C398.208 3.30163 397.768 2.8125 397.088 2.56794C396.448 2.28261 395.507 2.11957 394.267 2.07881V0.855982C395.347 0.896743 396.748 0.937502 398.468 0.978262C400.229 1.01902 401.97 1.0394 403.69 1.0394C405.531 1.0394 407.252 1.01902 408.852 0.978262C410.493 0.937502 411.814 0.896743 412.814 0.855982V2.07881C411.533 2.11957 410.553 2.28261 409.873 2.56794C409.233 2.8125 408.812 3.30163 408.612 4.03533C408.412 4.72826 408.312 5.82881 408.312 7.33696V37.663C408.312 39.1304 408.412 40.231 408.612 40.9647C408.852 41.6984 409.293 42.1875 409.933 42.4321C410.573 42.6766 411.533 42.8397 412.814 42.9212V44.144C411.814 44.0625 410.493 44.0217 408.852 44.0217C407.252 43.981 405.531 43.9606 403.69 43.9606C401.97 43.9606 400.229 43.981 398.468 44.0217C396.748 44.0217 395.347 44.0625 394.267 44.144ZM368.817 44.144V42.9212C370.097 42.8397 371.058 42.6766 371.698 42.4321C372.338 42.1875 372.758 41.6984 372.958 40.9647C373.198 40.231 373.318 39.1304 373.318 37.663V7.33696C373.318 5.82881 373.198 4.72826 372.958 4.03533C372.758 3.30163 372.318 2.8125 371.638 2.56794C370.998 2.28261 370.057 2.11957 368.817 2.07881V0.855982C369.857 0.896743 371.198 0.937502 372.838 0.978262C374.519 1.01902 376.34 1.0394 378.3 1.0394C379.981 1.0394 381.642 1.01902 383.282 0.978262C384.923 0.937502 386.284 0.896743 387.364 0.855982V2.07881C386.083 2.11957 385.103 2.28261 384.423 2.56794C383.783 2.8125 383.362 3.30163 383.162 4.03533C382.962 4.72826 382.862 5.82881 382.862 7.33696V37.663C382.862 39.1304 382.962 40.231 383.162 40.9647C383.402 41.6984 383.843 42.1875 384.483 42.4321C385.123 42.6766 386.083 42.8397 387.364 42.9212V44.144C386.284 44.0625 384.923 44.0217 383.282 44.0217C381.642 43.981 379.981 43.9606 378.3 43.9606C376.34 43.9606 374.519 43.981 372.838 44.0217C371.198 44.0217 369.857 44.0625 368.817 44.144ZM378.961 22.9891V21.7663H402.67V22.9891H378.961Z" fill="#EBD8F6"/>
<path d="M436.872 0.733697L451.457 39.0082C452.018 40.4755 452.638 41.4946 453.318 42.0652C454.038 42.5951 454.679 42.8804 455.239 42.9212V44.144C454.038 44.0625 452.618 44.0217 450.977 44.0217C449.377 43.981 447.756 43.9606 446.115 43.9606C444.275 43.9606 442.534 43.981 440.893 44.0217C439.253 44.0217 437.952 44.0625 436.992 44.144V42.9212C439.033 42.8397 440.313 42.4932 440.833 41.8818C441.393 41.2296 441.273 39.8641 440.473 37.7853L430.269 9.35462L431.35 7.76495L422.226 31.9769C421.346 34.2188 420.805 36.053 420.605 37.4796C420.445 38.9063 420.545 40.0068 420.905 40.7813C421.306 41.5557 421.926 42.106 422.766 42.4321C423.646 42.7174 424.687 42.8804 425.887 42.9212V44.144C424.567 44.0625 423.306 44.0217 422.106 44.0217C420.905 43.981 419.685 43.9606 418.444 43.9606C417.564 43.9606 416.724 43.981 415.923 44.0217C415.163 44.0217 414.483 44.0625 413.883 44.144V42.9212C414.723 42.7582 415.583 42.2079 416.464 41.2704C417.344 40.3329 418.204 38.7432 419.045 36.5014L432.73 0.733697C433.37 0.774457 434.051 0.794838 434.771 0.794838C435.531 0.794838 436.231 0.774457 436.872 0.733697ZM441.073 26.5353V27.7582H423.186L423.787 26.5353H441.073Z" fill="#EBD8F6"/>
<path d="M474.594 0.855982V2.07881C473.234 2.11957 472.193 2.28261 471.473 2.56794C470.793 2.8125 470.332 3.30163 470.092 4.03533C469.852 4.72826 469.732 5.82881 469.732 7.33696V38.3967C469.732 39.6603 469.812 40.5978 469.972 41.2092C470.172 41.8207 470.533 42.2283 471.053 42.4321C471.613 42.6359 472.433 42.7378 473.514 42.7378H476.455C477.815 42.7378 479.096 42.4117 480.296 41.7595C481.497 41.1073 482.577 40.1902 483.538 39.0082C484.498 37.7853 485.298 36.3383 485.939 34.6671C486.579 32.9959 487.059 31.1413 487.379 29.1033H488.76C488.64 30.4891 488.58 32.2826 488.58 34.4837C488.58 35.4212 488.6 36.7867 488.64 38.5802C488.68 40.3736 488.8 42.2283 489 44.144C486.959 44.0625 484.658 44.0217 482.097 44.0217C479.536 43.981 477.255 43.9606 475.254 43.9606C474.254 43.9606 472.974 43.9606 471.413 43.9606C469.852 43.9606 468.172 43.981 466.371 44.0217C464.57 44.0217 462.75 44.0421 460.909 44.0829C459.068 44.0829 457.327 44.1033 455.687 44.144V42.9212C456.967 42.8397 457.928 42.6766 458.568 42.4321C459.208 42.1875 459.628 41.6984 459.828 40.9647C460.068 40.231 460.189 39.1304 460.189 37.663V7.33696C460.189 5.82881 460.068 4.72826 459.828 4.03533C459.628 3.30163 459.188 2.8125 458.508 2.56794C457.868 2.28261 456.927 2.11957 455.687 2.07881V0.855982C456.687 0.896743 458.028 0.937502 459.708 0.978262C461.429 1.01902 463.25 1.0394 465.17 1.0394C466.931 1.0394 468.652 1.01902 470.332 0.978262C472.053 0.937502 473.474 0.896743 474.594 0.855982Z" fill="#EBD8F6"/>
<path d="M511.288 0.855982V2.07881C509.928 2.11957 508.887 2.28261 508.167 2.56794C507.487 2.8125 507.027 3.30163 506.786 4.03533C506.546 4.72826 506.426 5.82881 506.426 7.33696V38.3967C506.426 39.6603 506.506 40.5978 506.666 41.2092C506.867 41.8207 507.227 42.2283 507.747 42.4321C508.307 42.6359 509.127 42.7378 510.208 42.7378H513.149C514.51 42.7378 515.79 42.4117 516.991 41.7595C518.191 41.1073 519.271 40.1902 520.232 39.0082C521.192 37.7853 521.993 36.3383 522.633 34.6671C523.273 32.9959 523.753 31.1413 524.073 29.1033H525.454C525.334 30.4891 525.274 32.2826 525.274 34.4837C525.274 35.4212 525.294 36.7867 525.334 38.5802C525.374 40.3736 525.494 42.2283 525.694 44.144C523.653 44.0625 521.352 44.0217 518.791 44.0217C516.23 43.981 513.949 43.9606 511.948 43.9606C510.948 43.9606 509.668 43.9606 508.107 43.9606C506.546 43.9606 504.866 43.981 503.065 44.0217C501.264 44.0217 499.444 44.0421 497.603 44.0829C495.762 44.0829 494.021 44.1033 492.381 44.144V42.9212C493.661 42.8397 494.622 42.6766 495.262 42.4321C495.902 42.1875 496.322 41.6984 496.522 40.9647C496.763 40.231 496.883 39.1304 496.883 37.663V7.33696C496.883 5.82881 496.763 4.72826 496.522 4.03533C496.322 3.30163 495.882 2.8125 495.202 2.56794C494.562 2.28261 493.621 2.11957 492.381 2.07881V0.855982C493.381 0.896743 494.722 0.937502 496.402 0.978262C498.123 1.01902 499.944 1.0394 501.865 1.0394C503.625 1.0394 505.346 1.01902 507.027 0.978262C508.747 0.937502 510.168 0.896743 511.288 0.855982Z" fill="#EBD8F6"/>
<path d="M561.188 0.855982C561.028 2.64946 560.907 4.3818 560.827 6.05299C560.787 7.72419 560.767 9.00815 560.767 9.90489C560.767 10.7201 560.787 11.4946 560.827 12.2283C560.867 12.962 560.907 13.5734 560.947 14.0625H559.567C559.167 11.087 558.546 8.74321 557.706 7.03125C556.866 5.27853 555.765 4.05571 554.405 3.36277C553.084 2.62908 551.524 2.26223 549.723 2.26223H547.262C546.102 2.26223 545.221 2.36413 544.621 2.56794C544.021 2.77174 543.621 3.17935 543.421 3.79076C543.221 4.40217 543.12 5.33967 543.12 6.60326V38.3967C543.12 39.6603 543.221 40.5978 543.421 41.2092C543.621 41.8207 544.021 42.2283 544.621 42.4321C545.221 42.6359 546.102 42.7378 547.262 42.7378H550.203C552.004 42.7378 553.585 42.3505 554.945 41.5761C556.346 40.7609 557.526 39.3954 558.486 37.4796C559.487 35.5639 560.247 32.9755 560.767 29.7147H562.148C562.028 31.019 561.968 32.731 561.968 34.8505C561.968 35.788 561.988 37.1128 562.028 38.8247C562.068 40.5367 562.188 42.3098 562.388 44.144C560.347 44.0625 558.046 44.0217 555.485 44.0217C552.924 43.981 550.643 43.9606 548.643 43.9606C547.642 43.9606 546.362 43.9606 544.801 43.9606C543.241 43.9606 541.56 43.981 539.759 44.0217C537.958 44.0217 536.138 44.0421 534.297 44.0829C532.456 44.0829 530.716 44.1033 529.075 44.144V42.9212C530.355 42.8397 531.316 42.6766 531.956 42.4321C532.596 42.1875 533.016 41.6984 533.217 40.9647C533.457 40.231 533.577 39.1304 533.577 37.663V7.33696C533.577 5.82881 533.457 4.72826 533.217 4.03533C533.016 3.30163 532.576 2.8125 531.896 2.56794C531.256 2.28261 530.315 2.11957 529.075 2.07881V0.855982C530.716 0.896743 532.456 0.937502 534.297 0.978262C536.138 0.978262 537.958 0.998642 539.759 1.0394C541.56 1.0394 543.241 1.0394 544.801 1.0394C546.362 1.0394 547.642 1.0394 548.643 1.0394C550.483 1.0394 552.564 1.0394 554.885 1.0394C557.246 0.998642 559.347 0.937503 561.188 0.855982ZM551.824 21.7663C551.824 21.7663 551.824 21.9701 551.824 22.3777C551.824 22.7853 551.824 22.9891 551.824 22.9891H541.32C541.32 22.9891 541.32 22.7853 541.32 22.3777C541.32 21.9701 541.32 21.7663 541.32 21.7663H551.824ZM553.565 13.6957C553.405 16.019 553.324 17.7921 553.324 19.0149C553.365 20.2378 553.385 21.3587 553.385 22.3777C553.385 23.3967 553.405 24.5177 553.445 25.7405C553.485 26.9633 553.585 28.7364 553.745 31.0598H552.364C552.164 29.6332 551.784 28.3084 551.224 27.0856C550.703 25.8628 549.943 24.8845 548.943 24.1508C547.942 23.3764 546.642 22.9891 545.041 22.9891V21.7663C546.242 21.7663 547.262 21.5217 548.102 21.0326C548.943 20.5027 549.623 19.8302 550.143 19.0149C550.703 18.159 551.144 17.2622 551.464 16.3247C551.784 15.3872 552.024 14.5109 552.184 13.6957H553.565Z" fill="#EBD8F6"/>
<path d="M606.673 0.855982V2.07881C605.392 2.24185 604.432 2.58832 603.792 3.11821C603.151 3.60734 602.711 4.40218 602.471 5.50272C602.271 6.60326 602.171 8.15218 602.171 10.1495V44.2663C601.691 44.2256 601.191 44.2052 600.67 44.2052C600.19 44.2052 599.67 44.2256 599.11 44.2663L573.06 10.6386V34.1169C573.06 36.3587 573.18 38.091 573.42 39.3139C573.66 40.4959 574.18 41.3519 574.98 41.8818C575.821 42.3709 577.121 42.7174 578.882 42.9212V44.144C578.122 44.0625 577.121 44.0217 575.881 44.0217C574.64 43.981 573.48 43.9606 572.399 43.9606C571.479 43.9606 570.539 43.981 569.578 44.0217C568.618 44.0217 567.817 44.0625 567.177 44.144V42.9212C568.458 42.7174 569.418 42.3709 570.058 41.8818C570.699 41.3927 571.119 40.5978 571.319 39.4973C571.559 38.356 571.679 36.8071 571.679 34.8505V7.33696C571.679 5.82881 571.559 4.72826 571.319 4.03533C571.119 3.30163 570.679 2.8125 569.998 2.56794C569.358 2.28261 568.418 2.11957 567.177 2.07881V0.855982C567.817 0.896743 568.618 0.937502 569.578 0.978262C570.539 1.01902 571.479 1.0394 572.399 1.0394C573.36 1.0394 574.28 1.01902 575.16 0.978262C576.041 0.937502 576.841 0.896743 577.561 0.855982L600.79 30.0204V10.8832C600.79 8.6413 600.67 6.92935 600.43 5.74729C600.19 4.52446 599.65 3.6481 598.81 3.11821C598.009 2.58832 596.729 2.24185 594.968 2.07881V0.855982C595.728 0.896743 596.729 0.937502 597.969 0.978262C599.21 1.01902 600.37 1.0394 601.451 1.0394C602.411 1.0394 603.351 1.01902 604.272 0.978262C605.232 0.937502 606.033 0.896743 606.673 0.855982Z" fill="#EBD8F6"/>
<path d="M632.293 0C635.014 0 637.235 0.387229 638.956 1.16169C640.677 1.93614 642.217 2.87364 643.578 3.97419C644.058 4.34104 644.458 4.52446 644.778 4.52446C645.539 4.52446 646.039 3.30163 646.279 0.855982H647.659C647.579 2.44566 647.519 4.38179 647.479 6.6644C647.439 8.90625 647.419 11.9022 647.419 15.6522H646.039C645.759 13.2065 645.319 11.087 644.718 9.29348C644.158 7.45924 643.098 5.88995 641.537 4.5856C640.577 3.6481 639.376 2.9144 637.936 2.38451C636.535 1.85462 635.115 1.58968 633.674 1.58968C631.473 1.58968 629.592 2.18071 628.032 3.36277C626.471 4.50408 625.191 6.07337 624.19 8.07065C623.19 10.0679 622.45 12.3302 621.969 14.8573C621.489 17.3438 621.249 19.9321 621.249 22.6223C621.249 29.9592 622.23 35.3193 624.19 38.7024C626.191 42.0856 629.052 43.7772 632.774 43.7772C633.734 43.7772 634.574 43.6549 635.295 43.4103C636.015 43.1658 636.595 42.8804 637.035 42.5544C637.596 42.1467 637.976 41.7188 638.176 41.2704C638.376 40.7813 638.476 40.1495 638.476 39.375V33.3832C638.476 31.5082 638.316 30.1223 637.996 29.2255C637.716 28.288 637.135 27.6563 636.255 27.3302C635.375 27.0041 634.094 26.8207 632.413 26.7799V25.5571C633.254 25.5978 634.254 25.6386 635.415 25.6793C636.615 25.6793 637.856 25.6997 639.136 25.7405C640.417 25.7405 641.597 25.7405 642.678 25.7405C644.358 25.7405 645.899 25.7201 647.299 25.6793C648.7 25.6386 649.84 25.5978 650.721 25.5571V26.7799C649.96 26.8207 649.38 26.9633 648.98 27.2079C648.62 27.4524 648.36 27.9416 648.2 28.6753C648.08 29.409 648.02 30.5299 648.02 32.038V44.144H646.819C646.779 43.4511 646.619 42.697 646.339 41.8818C646.099 41.0666 645.679 40.659 645.078 40.659C644.798 40.659 644.418 40.7405 643.938 40.9035C643.498 41.0258 642.798 41.3723 641.837 41.9429C640.357 42.7989 638.796 43.5326 637.155 44.144C635.515 44.7147 633.794 45 631.993 45C627.352 45 623.43 44.1236 620.229 42.3709C617.027 40.6182 614.606 38.1114 612.966 34.8505C611.365 31.5489 610.565 27.5951 610.565 22.9891C610.565 18.3424 611.485 14.3071 613.326 10.8832C615.207 7.45924 617.768 4.78941 621.009 2.87364C624.29 0.957882 628.052 0 632.293 0Z" fill="#EBD8F6"/>
<path d="M672.71 0.855982V2.07881C671.43 2.11957 670.45 2.28261 669.769 2.56794C669.129 2.8125 668.709 3.30163 668.509 4.03533C668.309 4.72826 668.209 5.82881 668.209 7.33696V37.663C668.209 39.1304 668.309 40.231 668.509 40.9647C668.749 41.6984 669.189 42.1875 669.829 42.4321C670.47 42.6766 671.43 42.8397 672.71 42.9212V44.144C671.63 44.0625 670.269 44.0217 668.629 44.0217C666.988 43.981 665.328 43.9606 663.647 43.9606C661.686 43.9606 659.865 43.981 658.185 44.0217C656.544 44.0217 655.204 44.0625 654.163 44.144V42.9212C655.444 42.8397 656.404 42.6766 657.044 42.4321C657.684 42.1875 658.105 41.6984 658.305 40.9647C658.545 40.231 658.665 39.1304 658.665 37.663V7.33696C658.665 5.82881 658.545 4.72826 658.305 4.03533C658.105 3.30163 657.664 2.8125 656.984 2.56794C656.344 2.28261 655.404 2.11957 654.163 2.07881V0.855982C655.204 0.896743 656.544 0.937502 658.185 0.978262C659.865 1.01902 661.686 1.0394 663.647 1.0394C665.328 1.0394 666.988 1.01902 668.629 0.978262C670.269 0.937502 671.63 0.896743 672.71 0.855982Z" fill="#EBD8F6"/>
<path d="M716.286 0.855982V2.07881C715.006 2.24185 714.045 2.58832 713.405 3.11821C712.765 3.60734 712.325 4.40218 712.084 5.50272C711.884 6.60326 711.784 8.15218 711.784 10.1495V44.2663C711.304 44.2256 710.804 44.2052 710.284 44.2052C709.804 44.2052 709.283 44.2256 708.723 44.2663L682.673 10.6386V34.1169C682.673 36.3587 682.793 38.091 683.033 39.3139C683.273 40.4959 683.793 41.3519 684.594 41.8818C685.434 42.3709 686.734 42.7174 688.495 42.9212V44.144C687.735 44.0625 686.734 44.0217 685.494 44.0217C684.254 43.981 683.093 43.9606 682.013 43.9606C681.092 43.9606 680.152 43.981 679.192 44.0217C678.231 44.0217 677.431 44.0625 676.791 44.144V42.9212C678.071 42.7174 679.031 42.3709 679.672 41.8818C680.312 41.3927 680.732 40.5978 680.932 39.4973C681.172 38.356 681.292 36.8071 681.292 34.8505V7.33696C681.292 5.82881 681.172 4.72826 680.932 4.03533C680.732 3.30163 680.292 2.8125 679.612 2.56794C678.971 2.28261 678.031 2.11957 676.791 2.07881V0.855982C677.431 0.896743 678.231 0.937502 679.192 0.978262C680.152 1.01902 681.092 1.0394 682.013 1.0394C682.973 1.0394 683.893 1.01902 684.774 0.978262C685.654 0.937502 686.454 0.896743 687.175 0.855982L710.404 30.0204V10.8832C710.404 8.6413 710.284 6.92935 710.044 5.74729C709.804 4.52446 709.263 3.6481 708.423 3.11821C707.623 2.58832 706.342 2.24185 704.582 2.07881V0.855982C705.342 0.896743 706.342 0.937502 707.583 0.978262C708.823 1.01902 709.984 1.0394 711.064 1.0394C712.024 1.0394 712.965 1.01902 713.885 0.978262C714.846 0.937502 715.646 0.896743 716.286 0.855982Z" fill="#EBD8F6"/>
<path d="M741.907 0C744.628 0 746.849 0.387229 748.569 1.16169C750.29 1.93614 751.831 2.87364 753.191 3.97419C753.671 4.34104 754.072 4.52446 754.392 4.52446C755.152 4.52446 755.652 3.30163 755.892 0.855982H757.273C757.193 2.44566 757.133 4.38179 757.093 6.6644C757.053 8.90625 757.033 11.9022 757.033 15.6522H755.652C755.372 13.2065 754.932 11.087 754.332 9.29348C753.771 7.45924 752.711 5.88995 751.15 4.5856C750.19 3.6481 748.99 2.9144 747.549 2.38451C746.148 1.85462 744.728 1.58968 743.287 1.58968C741.086 1.58968 739.206 2.18071 737.645 3.36277C736.084 4.50408 734.804 6.07337 733.804 8.07065C732.803 10.0679 732.063 12.3302 731.583 14.8573C731.103 17.3438 730.862 19.9321 730.862 22.6223C730.862 29.9592 731.843 35.3193 733.804 38.7024C735.804 42.0856 738.666 43.7772 742.387 43.7772C743.347 43.7772 744.188 43.6549 744.908 43.4103C745.628 43.1658 746.208 42.8804 746.649 42.5544C747.209 42.1467 747.589 41.7188 747.789 41.2704C747.989 40.7813 748.089 40.1495 748.089 39.375V33.3832C748.089 31.5082 747.929 30.1223 747.609 29.2255C747.329 28.288 746.749 27.6563 745.868 27.3302C744.988 27.0041 743.707 26.8207 742.027 26.7799V25.5571C742.867 25.5978 743.868 25.6386 745.028 25.6793C746.228 25.6793 747.469 25.6997 748.749 25.7405C750.03 25.7405 751.21 25.7405 752.291 25.7405C753.972 25.7405 755.512 25.7201 756.913 25.6793C758.313 25.6386 759.454 25.5978 760.334 25.5571V26.7799C759.574 26.8207 758.993 26.9633 758.593 27.2079C758.233 27.4524 757.973 27.9416 757.813 28.6753C757.693 29.409 757.633 30.5299 757.633 32.038V44.144H756.433C756.392 43.4511 756.232 42.697 755.952 41.8818C755.712 41.0666 755.292 40.659 754.692 40.659C754.412 40.659 754.032 40.7405 753.551 40.9035C753.111 41.0258 752.411 41.3723 751.451 41.9429C749.97 42.7989 748.409 43.5326 746.769 44.144C745.128 44.7147 743.407 45 741.607 45C736.965 45 733.043 44.1236 729.842 42.3709C726.641 40.6182 724.22 38.1114 722.579 34.8505C720.979 31.5489 720.178 27.5951 720.178 22.9891C720.178 18.3424 721.099 14.3071 722.939 10.8832C724.82 7.45924 727.381 4.78941 730.622 2.87364C733.904 0.957882 737.665 0 741.907 0Z" fill="#EBD8F6"/>
<path d="M824.352 0.855982C832.235 0.855982 838.097 2.69022 841.939 6.3587C845.78 9.98641 847.701 15.2038 847.701 22.0109C847.701 26.4538 846.761 30.3465 844.88 33.6889C842.999 36.9905 840.258 39.5584 836.657 41.3927C833.095 43.2269 828.814 44.144 823.812 44.144C823.171 44.144 822.331 44.1236 821.291 44.0829C820.25 44.0421 819.17 44.0217 818.05 44.0217C816.929 43.981 815.929 43.9606 815.048 43.9606C813.288 43.9606 811.547 43.981 809.826 44.0217C808.146 44.0217 806.805 44.0625 805.805 44.144V42.9212C807.085 42.8397 808.046 42.6766 808.686 42.4321C809.326 42.1875 809.746 41.6984 809.946 40.9647C810.186 40.231 810.306 39.1304 810.306 37.663V7.33696C810.306 5.82881 810.186 4.72826 809.946 4.03533C809.746 3.30163 809.306 2.8125 808.626 2.56794C807.986 2.28261 807.045 2.11957 805.805 2.07881V0.855982C806.805 0.896743 808.146 0.957882 809.826 1.0394C811.547 1.08016 813.248 1.08016 814.928 1.0394C816.369 0.998642 817.989 0.957881 819.79 0.917121C821.631 0.876361 823.152 0.855982 824.352 0.855982ZM824.292 1.95652C822.451 1.95652 821.251 2.30299 820.691 2.99592C820.13 3.68886 819.85 5.09511 819.85 7.21468V37.7853C819.85 39.9049 820.13 41.3111 820.691 42.0041C821.291 42.697 822.511 43.0435 824.352 43.0435C827.713 43.0435 830.354 42.2486 832.275 40.659C834.236 39.0285 835.636 36.6644 836.477 33.5666C837.317 30.4688 837.737 26.6984 837.737 22.2554C837.737 17.6902 837.277 13.9198 836.357 10.9443C835.476 7.92799 834.056 5.68614 832.095 4.21875C830.134 2.7106 827.533 1.95652 824.292 1.95652Z" fill="#EBD8F6"/>
<path d="M883.99 0.855982C883.83 2.64946 883.71 4.3818 883.63 6.05299C883.59 7.72419 883.57 9.00815 883.57 9.90489C883.57 10.7201 883.59 11.4946 883.63 12.2283C883.67 12.962 883.71 13.5734 883.75 14.0625H882.369C881.969 11.087 881.349 8.74321 880.509 7.03125C879.668 5.27853 878.568 4.05571 877.207 3.36277C875.887 2.62908 874.326 2.26223 872.526 2.26223H870.065C868.904 2.26223 868.024 2.36413 867.424 2.56794C866.823 2.77174 866.423 3.17935 866.223 3.79076C866.023 4.40217 865.923 5.33967 865.923 6.60326V38.3967C865.923 39.6603 866.023 40.5978 866.223 41.2092C866.423 41.8207 866.823 42.2283 867.424 42.4321C868.024 42.6359 868.904 42.7378 870.065 42.7378H873.006C874.806 42.7378 876.387 42.3505 877.748 41.5761C879.148 40.7609 880.329 39.3954 881.289 37.4796C882.289 35.5639 883.05 32.9755 883.57 29.7147H884.95C884.83 31.019 884.77 32.731 884.77 34.8505C884.77 35.788 884.79 37.1128 884.83 38.8247C884.87 40.5367 884.991 42.3098 885.191 44.144C883.15 44.0625 880.849 44.0217 878.288 44.0217C875.727 43.981 873.446 43.9606 871.445 43.9606C870.445 43.9606 869.164 43.9606 867.604 43.9606C866.043 43.9606 864.362 43.981 862.562 44.0217C860.761 44.0217 858.94 44.0421 857.1 44.0829C855.259 44.0829 853.518 44.1033 851.877 44.144V42.9212C853.158 42.8397 854.118 42.6766 854.759 42.4321C855.399 42.1875 855.819 41.6984 856.019 40.9647C856.259 40.231 856.379 39.1304 856.379 37.663V7.33696C856.379 5.82881 856.259 4.72826 856.019 4.03533C855.819 3.30163 855.379 2.8125 854.699 2.56794C854.058 2.28261 853.118 2.11957 851.877 2.07881V0.855982C853.518 0.896743 855.259 0.937502 857.1 0.978262C858.94 0.978262 860.761 0.998642 862.562 1.0394C864.362 1.0394 866.043 1.0394 867.604 1.0394C869.164 1.0394 870.445 1.0394 871.445 1.0394C873.286 1.0394 875.367 1.0394 877.688 1.0394C880.049 0.998642 882.149 0.937503 883.99 0.855982ZM874.626 21.7663C874.626 21.7663 874.626 21.9701 874.626 22.3777C874.626 22.7853 874.626 22.9891 874.626 22.9891H864.122C864.122 22.9891 864.122 22.7853 864.122 22.3777C864.122 21.9701 864.122 21.7663 864.122 21.7663H874.626ZM876.367 13.6957C876.207 16.019 876.127 17.7921 876.127 19.0149C876.167 20.2378 876.187 21.3587 876.187 22.3777C876.187 23.3967 876.207 24.5177 876.247 25.7405C876.287 26.9633 876.387 28.7364 876.547 31.0598H875.167C874.967 29.6332 874.586 28.3084 874.026 27.0856C873.506 25.8628 872.746 24.8845 871.745 24.1508C870.745 23.3764 869.444 22.9891 867.844 22.9891V21.7663C869.044 21.7663 870.065 21.5217 870.905 21.0326C871.745 20.5027 872.426 19.8302 872.946 19.0149C873.506 18.159 873.946 17.2622 874.266 16.3247C874.586 15.3872 874.826 14.5109 874.987 13.6957H876.367Z" fill="#EBD8F6"/>
<path d="M926.414 0.855982C926.254 2.93479 926.134 4.93207 926.054 6.84783C926.014 8.76359 925.994 10.231 925.994 11.25C925.994 12.1467 926.014 13.0027 926.054 13.8179C926.094 14.6332 926.134 15.3261 926.174 15.8967H924.793C924.153 12.4728 923.333 9.76223 922.332 7.76495C921.372 5.76766 920.212 4.36141 918.851 3.5462C917.491 2.69022 915.89 2.26223 914.049 2.26223H912.669V37.1739C912.669 38.8044 912.829 40.0272 913.149 40.8424C913.509 41.6576 914.149 42.2079 915.07 42.4932C915.99 42.7378 917.331 42.8804 919.091 42.9212V44.144C917.851 44.1033 916.19 44.0625 914.109 44.0217C912.068 43.981 909.928 43.9606 907.687 43.9606C905.486 43.9606 903.405 43.981 901.444 44.0217C899.484 44.0625 897.903 44.1033 896.702 44.144V42.9212C898.503 42.8804 899.864 42.7378 900.784 42.4932C901.704 42.2079 902.325 41.6576 902.645 40.8424C902.965 40.0272 903.125 38.8044 903.125 37.1739V2.26223H901.804C899.964 2.26223 898.363 2.69022 897.003 3.5462C895.642 4.36141 894.482 5.76766 893.521 7.76495C892.561 9.72147 891.72 12.4321 891 15.8967H889.62C889.7 15.3261 889.74 14.6332 889.74 13.8179C889.78 13.0027 889.8 12.1467 889.8 11.25C889.8 10.231 889.76 8.76359 889.68 6.84783C889.64 4.93207 889.54 2.93479 889.38 0.855982C891.22 0.896743 893.221 0.937502 895.382 0.978262C897.583 1.01902 899.784 1.0394 901.984 1.0394C904.185 1.0394 906.166 1.0394 907.927 1.0394C909.728 1.0394 911.708 1.0394 913.869 1.0394C916.07 1.0394 918.271 1.01902 920.472 0.978262C922.673 0.937502 924.653 0.896743 926.414 0.855982Z" fill="#EBD8F6"/>
<path d="M946.603 0.733697L961.189 39.0082C961.749 40.4755 962.369 41.4946 963.05 42.0652C963.77 42.5951 964.41 42.8804 964.97 42.9212V44.144C963.77 44.0625 962.349 44.0217 960.709 44.0217C959.108 43.981 957.487 43.9606 955.847 43.9606C954.006 43.9606 952.265 43.981 950.625 44.0217C948.984 44.0217 947.684 44.0625 946.723 44.144V42.9212C948.764 42.8397 950.044 42.4932 950.565 41.8818C951.125 41.2296 951.005 39.8641 950.205 37.7853L940 9.35462L941.081 7.76495L931.957 31.9769C931.077 34.2188 930.537 36.053 930.337 37.4796C930.177 38.9063 930.277 40.0068 930.637 40.7813C931.037 41.5557 931.657 42.106 932.498 42.4321C933.378 42.7174 934.418 42.8804 935.619 42.9212V44.144C934.298 44.0625 933.038 44.0217 931.837 44.0217C930.637 43.981 929.416 43.9606 928.176 43.9606C927.295 43.9606 926.455 43.981 925.655 44.0217C924.895 44.0217 924.214 44.0625 923.614 44.144V42.9212C924.454 42.7582 925.315 42.2079 926.195 41.2704C927.075 40.3329 927.936 38.7432 928.776 36.5014L942.461 0.733697C943.102 0.774457 943.782 0.794838 944.502 0.794838C945.263 0.794838 945.963 0.774457 946.603 0.733697ZM950.805 26.5353V27.7582H932.918L933.518 26.5353H950.805Z" fill="#EBD8F6"/>
<path d="M983.965 0.855982V2.07881C982.685 2.11957 981.705 2.28261 981.024 2.56794C980.384 2.8125 979.964 3.30163 979.764 4.03533C979.564 4.72826 979.464 5.82881 979.464 7.33696V37.663C979.464 39.1304 979.564 40.231 979.764 40.9647C980.004 41.6984 980.444 42.1875 981.084 42.4321C981.725 42.6766 982.685 42.8397 983.965 42.9212V44.144C982.885 44.0625 981.524 44.0217 979.884 44.0217C978.243 43.981 976.583 43.9606 974.902 43.9606C972.941 43.9606 971.12 43.981 969.44 44.0217C967.799 44.0217 966.459 44.0625 965.418 44.144V42.9212C966.699 42.8397 967.659 42.6766 968.299 42.4321C968.94 42.1875 969.36 41.6984 969.56 40.9647C969.8 40.231 969.92 39.1304 969.92 37.663V7.33696C969.92 5.82881 969.8 4.72826 969.56 4.03533C969.36 3.30163 968.92 2.8125 968.239 2.56794C967.599 2.28261 966.659 2.11957 965.418 2.07881V0.855982C966.459 0.896743 967.799 0.937502 969.44 0.978262C971.12 1.01902 972.941 1.0394 974.902 1.0394C976.583 1.0394 978.243 1.01902 979.884 0.978262C981.524 0.937502 982.885 0.896743 983.965 0.855982Z" fill="#EBD8F6"/>
<path d="M1006.89 0.855982V2.07881C1005.53 2.11957 1004.49 2.28261 1003.77 2.56794C1003.09 2.8125 1002.63 3.30163 1002.39 4.03533C1002.15 4.72826 1002.03 5.82881 1002.03 7.33696V38.3967C1002.03 39.6603 1002.11 40.5978 1002.27 41.2092C1002.47 41.8207 1002.83 42.2283 1003.35 42.4321C1003.91 42.6359 1004.73 42.7378 1005.81 42.7378H1008.75C1010.11 42.7378 1011.39 42.4117 1012.6 41.7595C1013.8 41.1073 1014.88 40.1902 1015.84 39.0082C1016.8 37.7853 1017.6 36.3383 1018.24 34.6671C1018.88 32.9959 1019.36 31.1413 1019.68 29.1033H1021.06C1020.94 30.4891 1020.88 32.2826 1020.88 34.4837C1020.88 35.4212 1020.9 36.7867 1020.94 38.5802C1020.98 40.3736 1021.1 42.2283 1021.3 44.144C1019.26 44.0625 1016.96 44.0217 1014.4 44.0217C1011.83 43.981 1009.55 43.9606 1007.55 43.9606C1006.55 43.9606 1005.27 43.9606 1003.71 43.9606C1002.15 43.9606 1000.47 43.981 998.67 44.0217C996.869 44.0217 995.048 44.0421 993.208 44.0829C991.367 44.0829 989.626 44.1033 987.986 44.144V42.9212C989.266 42.8397 990.226 42.6766 990.867 42.4321C991.507 42.1875 991.927 41.6984 992.127 40.9647C992.367 40.231 992.487 39.1304 992.487 37.663V7.33696C992.487 5.82881 992.367 4.72826 992.127 4.03533C991.927 3.30163 991.487 2.8125 990.807 2.56794C990.166 2.28261 989.226 2.11957 987.986 2.07881V0.855982C988.986 0.896743 990.327 0.937502 992.007 0.978262C993.728 1.01902 995.549 1.0394 997.469 1.0394C999.23 1.0394 1000.95 1.01902 1002.63 0.978262C1004.35 0.937502 1005.77 0.896743 1006.89 0.855982Z" fill="#EBD8F6"/>
<path d="M1056.79 0.855982C1056.63 2.64946 1056.51 4.3818 1056.43 6.05299C1056.39 7.72419 1056.37 9.00815 1056.37 9.90489C1056.37 10.7201 1056.39 11.4946 1056.43 12.2283C1056.47 12.962 1056.51 13.5734 1056.55 14.0625H1055.17C1054.77 11.087 1054.15 8.74321 1053.31 7.03125C1052.47 5.27853 1051.37 4.05571 1050.01 3.36277C1048.69 2.62908 1047.13 2.26223 1045.33 2.26223H1042.87C1041.71 2.26223 1040.83 2.36413 1040.23 2.56794C1039.63 2.77174 1039.23 3.17935 1039.03 3.79076C1038.83 4.40217 1038.73 5.33967 1038.73 6.60326V38.3967C1038.73 39.6603 1038.83 40.5978 1039.03 41.2092C1039.23 41.8207 1039.63 42.2283 1040.23 42.4321C1040.83 42.6359 1041.71 42.7378 1042.87 42.7378H1045.81C1047.61 42.7378 1049.19 42.3505 1050.55 41.5761C1051.95 40.7609 1053.13 39.3954 1054.09 37.4796C1055.09 35.5639 1055.85 32.9755 1056.37 29.7147H1057.75C1057.63 31.019 1057.57 32.731 1057.57 34.8505C1057.57 35.788 1057.59 37.1128 1057.63 38.8247C1057.67 40.5367 1057.79 42.3098 1057.99 44.144C1055.95 44.0625 1053.65 44.0217 1051.09 44.0217C1048.53 43.981 1046.25 43.9606 1044.25 43.9606C1043.25 43.9606 1041.97 43.9606 1040.41 43.9606C1038.85 43.9606 1037.16 43.981 1035.36 44.0217C1033.56 44.0217 1031.74 44.0421 1029.9 44.0829C1028.06 44.0829 1026.32 44.1033 1024.68 44.144V42.9212C1025.96 42.8397 1026.92 42.6766 1027.56 42.4321C1028.2 42.1875 1028.62 41.6984 1028.82 40.9647C1029.06 40.231 1029.18 39.1304 1029.18 37.663V7.33696C1029.18 5.82881 1029.06 4.72826 1028.82 4.03533C1028.62 3.30163 1028.18 2.8125 1027.5 2.56794C1026.86 2.28261 1025.92 2.11957 1024.68 2.07881V0.855982C1026.32 0.896743 1028.06 0.937502 1029.9 0.978262C1031.74 0.978262 1033.56 0.998642 1035.36 1.0394C1037.16 1.0394 1038.85 1.0394 1040.41 1.0394C1041.97 1.0394 1043.25 1.0394 1044.25 1.0394C1046.09 1.0394 1048.17 1.0394 1050.49 1.0394C1052.85 0.998642 1054.95 0.937503 1056.79 0.855982ZM1047.43 21.7663C1047.43 21.7663 1047.43 21.9701 1047.43 22.3777C1047.43 22.7853 1047.43 22.9891 1047.43 22.9891H1036.92C1036.92 22.9891 1036.92 22.7853 1036.92 22.3777C1036.92 21.9701 1036.92 21.7663 1036.92 21.7663H1047.43ZM1049.17 13.6957C1049.01 16.019 1048.93 17.7921 1048.93 19.0149C1048.97 20.2378 1048.99 21.3587 1048.99 22.3777C1048.99 23.3967 1049.01 24.5177 1049.05 25.7405C1049.09 26.9633 1049.19 28.7364 1049.35 31.0598H1047.97C1047.77 29.6332 1047.39 28.3084 1046.83 27.0856C1046.31 25.8628 1045.55 24.8845 1044.55 24.1508C1043.55 23.3764 1042.25 22.9891 1040.65 22.9891V21.7663C1041.85 21.7663 1042.87 21.5217 1043.71 21.0326C1044.55 20.5027 1045.23 19.8302 1045.75 19.0149C1046.31 18.159 1046.75 17.2622 1047.07 16.3247C1047.39 15.3872 1047.63 14.5109 1047.79 13.6957H1049.17Z" fill="#EBD8F6"/>
<path d="M1081.27 0.855982C1089.15 0.855982 1095.01 2.69022 1098.86 6.3587C1102.7 9.98641 1104.62 15.2038 1104.62 22.0109C1104.62 26.4538 1103.68 30.3465 1101.8 33.6889C1099.92 36.9905 1097.18 39.5584 1093.57 41.3927C1090.01 43.2269 1085.73 44.144 1080.73 44.144C1080.09 44.144 1079.25 44.1236 1078.21 44.0829C1077.17 44.0421 1076.09 44.0217 1074.97 44.0217C1073.85 43.981 1072.85 43.9606 1071.97 43.9606C1070.2 43.9606 1068.46 43.981 1066.74 44.0217C1065.06 44.0217 1063.72 44.0625 1062.72 44.144V42.9212C1064 42.8397 1064.96 42.6766 1065.6 42.4321C1066.24 42.1875 1066.66 41.6984 1066.86 40.9647C1067.1 40.231 1067.22 39.1304 1067.22 37.663V7.33696C1067.22 5.82881 1067.1 4.72826 1066.86 4.03533C1066.66 3.30163 1066.22 2.8125 1065.54 2.56794C1064.9 2.28261 1063.96 2.11957 1062.72 2.07881V0.855982C1063.72 0.896743 1065.06 0.957882 1066.74 1.0394C1068.46 1.08016 1070.16 1.08016 1071.85 1.0394C1073.29 0.998642 1074.91 0.957881 1076.71 0.917121C1078.55 0.876361 1080.07 0.855982 1081.27 0.855982ZM1081.21 1.95652C1079.37 1.95652 1078.17 2.30299 1077.61 2.99592C1077.05 3.68886 1076.77 5.09511 1076.77 7.21468V37.7853C1076.77 39.9049 1077.05 41.3111 1077.61 42.0041C1078.21 42.697 1079.43 43.0435 1081.27 43.0435C1084.63 43.0435 1087.27 42.2486 1089.19 40.659C1091.15 39.0285 1092.55 36.6644 1093.39 33.5666C1094.23 30.4688 1094.65 26.6984 1094.65 22.2554C1094.65 17.6902 1094.19 13.9198 1093.27 10.9443C1092.39 7.92799 1090.97 5.68614 1089.01 4.21875C1087.05 2.7106 1084.45 1.95652 1081.21 1.95652Z" fill="#EBD8F6"/>
<path d="M1183.46 0.855982C1183.3 2.69022 1183.18 4.46332 1183.1 6.17527C1183.06 7.88723 1183.04 9.21196 1183.04 10.1495C1183.04 11.0462 1183.06 11.9022 1183.1 12.7174C1183.14 13.5326 1183.18 14.2255 1183.22 14.7962H1181.84C1181.32 11.6168 1180.6 9.13044 1179.68 7.33696C1178.76 5.50272 1177.62 4.19837 1176.26 3.42392C1174.94 2.64946 1173.36 2.26223 1171.52 2.26223H1169.54C1168.38 2.26223 1167.5 2.36413 1166.9 2.56794C1166.3 2.77174 1165.9 3.17935 1165.7 3.79076C1165.5 4.40217 1165.4 5.33967 1165.4 6.60326V37.2962C1165.4 38.8859 1165.56 40.0679 1165.88 40.8424C1166.2 41.6169 1166.82 42.1264 1167.74 42.3709C1168.66 42.6155 1170.02 42.7582 1171.82 42.7989V44.144C1170.58 44.1033 1168.98 44.0625 1167.02 44.0217C1165.06 43.981 1163 43.9606 1160.83 43.9606C1159.11 43.9606 1157.43 43.981 1155.79 44.0217C1154.15 44.0625 1152.67 44.1033 1151.35 44.144V42.9212C1152.63 42.8397 1153.59 42.6766 1154.23 42.4321C1154.87 42.1875 1155.29 41.6984 1155.49 40.9647C1155.73 40.231 1155.85 39.1304 1155.85 37.663V7.33696C1155.85 5.82881 1155.73 4.72826 1155.49 4.03533C1155.29 3.30163 1154.85 2.8125 1154.17 2.56794C1153.53 2.28261 1152.59 2.11957 1151.35 2.07881V0.855982C1152.99 0.896743 1154.73 0.937502 1156.57 0.978262C1158.41 0.978262 1160.23 0.998642 1162.03 1.0394C1163.84 1.0394 1165.52 1.0394 1167.08 1.0394C1168.64 1.0394 1169.92 1.0394 1170.92 1.0394C1172.76 1.0394 1174.84 1.0394 1177.16 1.0394C1179.52 0.998642 1181.62 0.937503 1183.46 0.855982ZM1174.52 22.0109C1174.52 22.0109 1174.52 22.2147 1174.52 22.6223C1174.52 23.0299 1174.52 23.2337 1174.52 23.2337H1163.6C1163.6 23.2337 1163.6 23.0299 1163.6 22.6223C1163.6 22.2147 1163.6 22.0109 1163.6 22.0109H1174.52ZM1176.02 13.9402C1175.86 16.2636 1175.78 18.0367 1175.78 19.2595C1175.82 20.4823 1175.84 21.6033 1175.84 22.6223C1175.84 23.6413 1175.86 24.7622 1175.9 25.9851C1175.94 27.2079 1176.04 28.981 1176.2 31.3043H1174.82C1174.58 29.8777 1174.2 28.553 1173.68 27.3302C1173.16 26.1073 1172.4 25.1291 1171.4 24.3954C1170.4 23.6209 1169.1 23.2337 1167.5 23.2337V22.0109C1168.7 22.0109 1169.7 21.7663 1170.5 21.2772C1171.34 20.7473 1172.04 20.0747 1172.6 19.2595C1173.16 18.4035 1173.6 17.5068 1173.92 16.5693C1174.24 15.6318 1174.48 14.7554 1174.64 13.9402H1176.02Z" fill="#EBD8F6"/>
<path d="M1205.78 0.855982V2.07881C1204.42 2.11957 1203.38 2.28261 1202.66 2.56794C1201.98 2.8125 1201.52 3.30163 1201.28 4.03533C1201.04 4.72826 1200.92 5.82881 1200.92 7.33696V38.3967C1200.92 39.6603 1201 40.5978 1201.16 41.2092C1201.36 41.8207 1201.72 42.2283 1202.24 42.4321C1202.8 42.6359 1203.62 42.7378 1204.7 42.7378H1207.64C1209 42.7378 1210.28 42.4117 1211.48 41.7595C1212.68 41.1073 1213.76 40.1902 1214.72 39.0082C1215.68 37.7853 1216.48 36.3383 1217.12 34.6671C1217.76 32.9959 1218.24 31.1413 1218.56 29.1033H1219.95C1219.83 30.4891 1219.77 32.2826 1219.77 34.4837C1219.77 35.4212 1219.79 36.7867 1219.83 38.5802C1219.87 40.3736 1219.99 42.2283 1220.19 44.144C1218.14 44.0625 1215.84 44.0217 1213.28 44.0217C1210.72 43.981 1208.44 43.9606 1206.44 43.9606C1205.44 43.9606 1204.16 43.9606 1202.6 43.9606C1201.04 43.9606 1199.36 43.981 1197.56 44.0217C1195.76 44.0217 1193.94 44.0421 1192.09 44.0829C1190.25 44.0829 1188.51 44.1033 1186.87 44.144V42.9212C1188.15 42.8397 1189.11 42.6766 1189.75 42.4321C1190.39 42.1875 1190.81 41.6984 1191.01 40.9647C1191.25 40.231 1191.37 39.1304 1191.37 37.663V7.33696C1191.37 5.82881 1191.25 4.72826 1191.01 4.03533C1190.81 3.30163 1190.37 2.8125 1189.69 2.56794C1189.05 2.28261 1188.11 2.11957 1186.87 2.07881V0.855982C1187.87 0.896743 1189.21 0.937502 1190.89 0.978262C1192.61 1.01902 1194.44 1.0394 1196.36 1.0394C1198.12 1.0394 1199.84 1.01902 1201.52 0.978262C1203.24 0.937502 1204.66 0.896743 1205.78 0.855982Z" fill="#EBD8F6"/>
<path d="M1255.68 0.855982C1255.52 2.64946 1255.4 4.3818 1255.32 6.05299C1255.28 7.72419 1255.26 9.00815 1255.26 9.90489C1255.26 10.7201 1255.28 11.4946 1255.32 12.2283C1255.36 12.962 1255.4 13.5734 1255.44 14.0625H1254.06C1253.66 11.087 1253.04 8.74321 1252.2 7.03125C1251.36 5.27853 1250.26 4.05571 1248.9 3.36277C1247.58 2.62908 1246.02 2.26223 1244.21 2.26223H1241.75C1240.59 2.26223 1239.71 2.36413 1239.11 2.56794C1238.51 2.77174 1238.11 3.17935 1237.91 3.79076C1237.71 4.40217 1237.61 5.33967 1237.61 6.60326V38.3967C1237.61 39.6603 1237.71 40.5978 1237.91 41.2092C1238.11 41.8207 1238.51 42.2283 1239.11 42.4321C1239.71 42.6359 1240.59 42.7378 1241.75 42.7378H1244.69C1246.5 42.7378 1248.08 42.3505 1249.44 41.5761C1250.84 40.7609 1252.02 39.3954 1252.98 37.4796C1253.98 35.5639 1254.74 32.9755 1255.26 29.7147H1256.64C1256.52 31.019 1256.46 32.731 1256.46 34.8505C1256.46 35.788 1256.48 37.1128 1256.52 38.8247C1256.56 40.5367 1256.68 42.3098 1256.88 44.144C1254.84 44.0625 1252.54 44.0217 1249.98 44.0217C1247.42 43.981 1245.13 43.9606 1243.13 43.9606C1242.13 43.9606 1240.85 43.9606 1239.29 43.9606C1237.73 43.9606 1236.05 43.981 1234.25 44.0217C1232.45 44.0217 1230.63 44.0421 1228.79 44.0829C1226.95 44.0829 1225.21 44.1033 1223.57 44.144V42.9212C1224.85 42.8397 1225.81 42.6766 1226.45 42.4321C1227.09 42.1875 1227.51 41.6984 1227.71 40.9647C1227.95 40.231 1228.07 39.1304 1228.07 37.663V7.33696C1228.07 5.82881 1227.95 4.72826 1227.71 4.03533C1227.51 3.30163 1227.07 2.8125 1226.39 2.56794C1225.75 2.28261 1224.81 2.11957 1223.57 2.07881V0.855982C1225.21 0.896743 1226.95 0.937502 1228.79 0.978262C1230.63 0.978262 1232.45 0.998642 1234.25 1.0394C1236.05 1.0394 1237.73 1.0394 1239.29 1.0394C1240.85 1.0394 1242.13 1.0394 1243.13 1.0394C1244.97 1.0394 1247.06 1.0394 1249.38 1.0394C1251.74 0.998642 1253.84 0.937503 1255.68 0.855982ZM1246.32 21.7663C1246.32 21.7663 1246.32 21.9701 1246.32 22.3777C1246.32 22.7853 1246.32 22.9891 1246.32 22.9891H1235.81C1235.81 22.9891 1235.81 22.7853 1235.81 22.3777C1235.81 21.9701 1235.81 21.7663 1235.81 21.7663H1246.32ZM1248.06 13.6957C1247.9 16.019 1247.82 17.7921 1247.82 19.0149C1247.86 20.2378 1247.88 21.3587 1247.88 22.3777C1247.88 23.3967 1247.9 24.5177 1247.94 25.7405C1247.98 26.9633 1248.08 28.7364 1248.24 31.0598H1246.86C1246.66 29.6332 1246.28 28.3084 1245.72 27.0856C1245.19 25.8628 1244.43 24.8845 1243.43 24.1508C1242.43 23.3764 1241.13 22.9891 1239.53 22.9891V21.7663C1240.73 21.7663 1241.75 21.5217 1242.59 21.0326C1243.43 20.5027 1244.11 19.8302 1244.63 19.0149C1245.19 18.159 1245.64 17.2622 1245.96 16.3247C1246.28 15.3872 1246.52 14.5109 1246.68 13.6957H1248.06Z" fill="#EBD8F6"/>
<path d="M1277.51 0.794838V2.07881C1275.71 2.07881 1274.55 2.26223 1274.03 2.62908C1273.55 2.95517 1273.59 3.5462 1274.15 4.40218L1297.92 39.803C1298.72 40.9443 1299.36 41.7188 1299.84 42.1264C1300.32 42.534 1300.96 42.7785 1301.76 42.8601V44.144C1300.96 44.1033 1299.8 44.0625 1298.28 44.0217C1296.76 43.9402 1295.18 43.8995 1293.54 43.8995C1291.74 43.8995 1289.9 43.9402 1288.02 44.0217C1286.18 44.0625 1284.8 44.1033 1283.88 44.144V42.8601C1285.72 42.8601 1286.9 42.7378 1287.42 42.4932C1287.98 42.2079 1287.98 41.6372 1287.42 40.7813L1263.59 5.13587C1262.83 3.95381 1262.21 3.15897 1261.73 2.75136C1261.25 2.34375 1260.59 2.11957 1259.75 2.07881V0.794838C1260.59 0.8356 1261.81 0.896741 1263.41 0.978262C1265.05 1.01902 1266.69 1.0394 1268.33 1.0394C1270.13 1.0394 1271.85 1.01902 1273.49 0.978262C1275.17 0.896741 1276.51 0.8356 1277.51 0.794838ZM1278.06 22.3777C1278.06 22.3777 1278.1 22.5204 1278.18 22.8057C1278.26 23.0503 1278.34 23.3152 1278.42 23.6005C1278.5 23.8451 1278.54 23.9674 1278.54 23.9674L1272.53 32.3438C1270.93 34.5448 1270.03 36.4198 1269.83 37.9688C1269.63 39.4769 1269.97 40.659 1270.85 41.5149C1271.77 42.3302 1273.11 42.7989 1274.87 42.9212V44.144C1274.31 44.1033 1273.59 44.0829 1272.71 44.0829C1271.87 44.0421 1270.97 44.0217 1270.01 44.0217C1269.09 43.981 1268.21 43.9606 1267.37 43.9606C1266.57 43.9606 1265.91 43.9606 1265.39 43.9606C1264.27 43.9606 1263.23 43.981 1262.27 44.0217C1261.31 44.0217 1260.51 44.0625 1259.87 44.144V42.9212C1261.27 42.4321 1262.69 41.5761 1264.13 40.3533C1265.57 39.0897 1267.05 37.4592 1268.57 35.462L1278.06 22.3777ZM1299.06 0.855982V2.07881C1297.74 2.44566 1296.42 3.22011 1295.1 4.40218C1293.82 5.58424 1292.62 6.94973 1291.5 8.49865L1281.78 21.7052C1281.78 21.7052 1281.7 21.4402 1281.54 20.9103C1281.42 20.3804 1281.36 20.1155 1281.36 20.1155L1287.54 11.6168C1289.06 9.66033 1289.96 7.98913 1290.24 6.60326C1290.56 5.21739 1290.34 4.13723 1289.58 3.36277C1288.82 2.58831 1287.62 2.16033 1285.98 2.07881V0.855982C1286.74 0.896743 1287.58 0.937502 1288.5 0.978262C1289.42 0.978262 1290.32 0.998642 1291.2 1.0394C1292.12 1.0394 1292.9 1.0394 1293.54 1.0394C1294.7 1.0394 1295.76 1.01902 1296.72 0.978262C1297.68 0.937502 1298.46 0.896743 1299.06 0.855982Z" fill="#EBD8F6"/>
<path d="M1321.66 0.855982V2.07881C1320.38 2.11957 1319.4 2.28261 1318.72 2.56794C1318.08 2.8125 1317.65 3.30163 1317.45 4.03533C1317.25 4.72826 1317.15 5.82881 1317.15 7.33696V37.663C1317.15 39.1304 1317.25 40.231 1317.45 40.9647C1317.7 41.6984 1318.14 42.1875 1318.78 42.4321C1319.42 42.6766 1320.38 42.8397 1321.66 42.9212V44.144C1320.58 44.0625 1319.22 44.0217 1317.57 44.0217C1315.93 43.981 1314.27 43.9606 1312.59 43.9606C1310.63 43.9606 1308.81 43.981 1307.13 44.0217C1305.49 44.0217 1304.15 44.0625 1303.11 44.144V42.9212C1304.39 42.8397 1305.35 42.6766 1305.99 42.4321C1306.63 42.1875 1307.05 41.6984 1307.25 40.9647C1307.49 40.231 1307.61 39.1304 1307.61 37.663V7.33696C1307.61 5.82881 1307.49 4.72826 1307.25 4.03533C1307.05 3.30163 1306.61 2.8125 1305.93 2.56794C1305.29 2.28261 1304.35 2.11957 1303.11 2.07881V0.855982C1304.15 0.896743 1305.49 0.937502 1307.13 0.978262C1308.81 1.01902 1310.63 1.0394 1312.59 1.0394C1314.27 1.0394 1315.93 1.01902 1317.57 0.978262C1319.22 0.937502 1320.58 0.896743 1321.66 0.855982Z" fill="#EBD8F6"/>
<path d="M1325.68 0.855982C1326.72 0.896743 1328.08 0.937502 1329.76 0.978262C1331.44 1.01902 1333.12 1.0394 1334.8 1.0394C1336.72 1.0394 1338.58 1.01902 1340.38 0.978262C1342.18 0.937502 1343.46 0.917121 1344.22 0.917121C1349.19 0.917121 1352.89 1.81386 1355.33 3.60734C1357.81 5.40082 1359.05 7.70381 1359.05 10.5163C1359.05 11.9429 1358.63 13.3899 1357.79 14.8573C1356.95 16.3247 1355.65 17.6291 1353.89 18.7704C1352.13 19.9117 1349.85 20.7473 1347.05 21.2772V21.3995C1350.81 21.6848 1353.79 22.3777 1355.99 23.4783C1358.19 24.5788 1359.77 25.9035 1360.73 27.4524C1361.69 29.0014 1362.17 30.6114 1362.17 32.2826C1362.17 34.8505 1361.51 37.0109 1360.19 38.7636C1358.87 40.5163 1356.97 41.8614 1354.49 42.7989C1352.01 43.6957 1349.05 44.144 1345.6 44.144C1344.64 44.144 1343.26 44.1236 1341.46 44.0829C1339.66 44.0014 1337.48 43.9606 1334.92 43.9606C1333.16 43.9606 1331.44 43.981 1329.76 44.0217C1328.08 44.0217 1326.72 44.0625 1325.68 44.144V42.9212C1326.96 42.8397 1327.92 42.6766 1328.56 42.4321C1329.2 42.1875 1329.62 41.6984 1329.82 40.9647C1330.06 40.231 1330.18 39.1304 1330.18 37.663V7.33696C1330.18 5.82881 1330.06 4.72826 1329.82 4.03533C1329.62 3.30163 1329.18 2.8125 1328.5 2.56794C1327.86 2.28261 1326.92 2.11957 1325.68 2.07881V0.855982ZM1343.44 2.07881C1341.88 2.07881 1340.86 2.42527 1340.38 3.11821C1339.94 3.81114 1339.72 5.21739 1339.72 7.33696V37.663C1339.72 39.0897 1339.82 40.1698 1340.02 40.9035C1340.26 41.6372 1340.66 42.1264 1341.22 42.3709C1341.82 42.6155 1342.7 42.7378 1343.86 42.7378C1346.74 42.7378 1348.85 41.8207 1350.17 39.9864C1351.53 38.1114 1352.21 35.462 1352.21 32.038C1352.21 28.8995 1351.43 26.4742 1349.87 24.7622C1348.35 23.0503 1345.8 22.1943 1342.24 22.1943H1337.14C1337.14 22.1943 1337.14 22.0313 1337.14 21.7052C1337.14 21.3383 1337.14 21.1549 1337.14 21.1549H1342.3C1344.18 21.1549 1345.62 20.7065 1346.62 19.8098C1347.63 18.8723 1348.33 17.6495 1348.73 16.1413C1349.13 14.5924 1349.33 12.9416 1349.33 11.1889C1349.33 8.17255 1348.87 5.91033 1347.95 4.40218C1347.03 2.85326 1345.52 2.07881 1343.44 2.07881Z" fill="#EBD8F6"/>
<path d="M1384.38 0.855982V2.07881C1383.1 2.11957 1382.12 2.28261 1381.44 2.56794C1380.8 2.8125 1380.37 3.30163 1380.17 4.03533C1379.97 4.72826 1379.87 5.82881 1379.87 7.33696V37.663C1379.87 39.1304 1379.97 40.231 1380.17 40.9647C1380.41 41.6984 1380.86 42.1875 1381.5 42.4321C1382.14 42.6766 1383.1 42.8397 1384.38 42.9212V44.144C1383.3 44.0625 1381.94 44.0217 1380.29 44.0217C1378.65 43.981 1376.99 43.9606 1375.31 43.9606C1373.35 43.9606 1371.53 43.981 1369.85 44.0217C1368.21 44.0217 1366.87 44.0625 1365.83 44.144V42.9212C1367.11 42.8397 1368.07 42.6766 1368.71 42.4321C1369.35 42.1875 1369.77 41.6984 1369.97 40.9647C1370.21 40.231 1370.33 39.1304 1370.33 37.663V7.33696C1370.33 5.82881 1370.21 4.72826 1369.97 4.03533C1369.77 3.30163 1369.33 2.8125 1368.65 2.56794C1368.01 2.28261 1367.07 2.11957 1365.83 2.07881V0.855982C1366.87 0.896743 1368.21 0.937502 1369.85 0.978262C1371.53 1.01902 1373.35 1.0394 1375.31 1.0394C1376.99 1.0394 1378.65 1.01902 1380.29 0.978262C1381.94 0.937502 1383.3 0.896743 1384.38 0.855982Z" fill="#EBD8F6"/>
<path d="M1407.3 0.855982V2.07881C1405.94 2.11957 1404.9 2.28261 1404.18 2.56794C1403.5 2.8125 1403.04 3.30163 1402.8 4.03533C1402.56 4.72826 1402.44 5.82881 1402.44 7.33696V38.3967C1402.44 39.6603 1402.52 40.5978 1402.68 41.2092C1402.88 41.8207 1403.24 42.2283 1403.76 42.4321C1404.32 42.6359 1405.14 42.7378 1406.22 42.7378H1409.16C1410.53 42.7378 1411.81 42.4117 1413.01 41.7595C1414.21 41.1073 1415.29 40.1902 1416.25 39.0082C1417.21 37.7853 1418.01 36.3383 1418.65 34.6671C1419.29 32.9959 1419.77 31.1413 1420.09 29.1033H1421.47C1421.35 30.4891 1421.29 32.2826 1421.29 34.4837C1421.29 35.4212 1421.31 36.7867 1421.35 38.5802C1421.39 40.3736 1421.51 42.2283 1421.71 44.144C1419.67 44.0625 1417.37 44.0217 1414.81 44.0217C1412.25 43.981 1409.97 43.9606 1407.96 43.9606C1406.96 43.9606 1405.68 43.9606 1404.12 43.9606C1402.56 43.9606 1400.88 43.981 1399.08 44.0217C1397.28 44.0217 1395.46 44.0421 1393.62 44.0829C1391.78 44.0829 1390.04 44.1033 1388.4 44.144V42.9212C1389.68 42.8397 1390.64 42.6766 1391.28 42.4321C1391.92 42.1875 1392.34 41.6984 1392.54 40.9647C1392.78 40.231 1392.9 39.1304 1392.9 37.663V7.33696C1392.9 5.82881 1392.78 4.72826 1392.54 4.03533C1392.34 3.30163 1391.9 2.8125 1391.22 2.56794C1390.58 2.28261 1389.64 2.11957 1388.4 2.07881V0.855982C1389.4 0.896743 1390.74 0.937502 1392.42 0.978262C1394.14 1.01902 1395.96 1.0394 1397.88 1.0394C1399.64 1.0394 1401.36 1.01902 1403.04 0.978262C1404.76 0.937502 1406.18 0.896743 1407.3 0.855982Z" fill="#EBD8F6"/>
<path d="M1443.64 0.855982V2.07881C1442.36 2.11957 1441.38 2.28261 1440.7 2.56794C1440.06 2.8125 1439.64 3.30163 1439.44 4.03533C1439.24 4.72826 1439.14 5.82881 1439.14 7.33696V37.663C1439.14 39.1304 1439.24 40.231 1439.44 40.9647C1439.68 41.6984 1440.12 42.1875 1440.76 42.4321C1441.4 42.6766 1442.36 42.8397 1443.64 42.9212V44.144C1442.56 44.0625 1441.2 44.0217 1439.56 44.0217C1437.92 43.981 1436.26 43.9606 1434.57 43.9606C1432.61 43.9606 1430.79 43.981 1429.11 44.0217C1427.47 44.0217 1426.13 44.0625 1425.09 44.144V42.9212C1426.37 42.8397 1427.33 42.6766 1427.97 42.4321C1428.61 42.1875 1429.03 41.6984 1429.23 40.9647C1429.47 40.231 1429.59 39.1304 1429.59 37.663V7.33696C1429.59 5.82881 1429.47 4.72826 1429.23 4.03533C1429.03 3.30163 1428.59 2.8125 1427.91 2.56794C1427.27 2.28261 1426.33 2.11957 1425.09 2.07881V0.855982C1426.13 0.896743 1427.47 0.937502 1429.11 0.978262C1430.79 1.01902 1432.61 1.0394 1434.57 1.0394C1436.26 1.0394 1437.92 1.01902 1439.56 0.978262C1441.2 0.937502 1442.56 0.896743 1443.64 0.855982Z" fill="#EBD8F6"/>
<path d="M1484.15 0.855982C1483.99 2.93479 1483.87 4.93207 1483.79 6.84783C1483.75 8.76359 1483.73 10.231 1483.73 11.25C1483.73 12.1467 1483.75 13.0027 1483.79 13.8179C1483.83 14.6332 1483.87 15.3261 1483.91 15.8967H1482.53C1481.89 12.4728 1481.07 9.76223 1480.07 7.76495C1479.11 5.76766 1477.95 4.36141 1476.59 3.5462C1475.23 2.69022 1473.63 2.26223 1471.79 2.26223H1470.41V37.1739C1470.41 38.8044 1470.57 40.0272 1470.89 40.8424C1471.25 41.6576 1471.89 42.2079 1472.81 42.4932C1473.73 42.7378 1475.07 42.8804 1476.83 42.9212V44.144C1475.59 44.1033 1473.93 44.0625 1471.85 44.0217C1469.81 43.981 1467.67 43.9606 1465.43 43.9606C1463.22 43.9606 1461.14 43.981 1459.18 44.0217C1457.22 44.0625 1455.64 44.1033 1454.44 44.144V42.9212C1456.24 42.8804 1457.6 42.7378 1458.52 42.4932C1459.44 42.2079 1460.06 41.6576 1460.38 40.8424C1460.7 40.0272 1460.86 38.8044 1460.86 37.1739V2.26223H1459.54C1457.7 2.26223 1456.1 2.69022 1454.74 3.5462C1453.38 4.36141 1452.22 5.76766 1451.26 7.76495C1450.3 9.72147 1449.46 12.4321 1448.74 15.8967H1447.36C1447.44 15.3261 1447.48 14.6332 1447.48 13.8179C1447.52 13.0027 1447.54 12.1467 1447.54 11.25C1447.54 10.231 1447.5 8.76359 1447.42 6.84783C1447.38 4.93207 1447.28 2.93479 1447.12 0.855982C1448.96 0.896743 1450.96 0.937502 1453.12 0.978262C1455.32 1.01902 1457.52 1.0394 1459.72 1.0394C1461.92 1.0394 1463.9 1.0394 1465.67 1.0394C1467.47 1.0394 1469.45 1.0394 1471.61 1.0394C1473.81 1.0394 1476.01 1.01902 1478.21 0.978262C1480.41 0.937502 1482.39 0.896743 1484.15 0.855982Z" fill="#EBD8F6"/>
<path d="M1522.75 0.794838V2.01767C1521.87 2.38451 1520.97 3.11821 1520.04 4.21875C1519.12 5.27853 1518.1 6.90897 1516.98 9.11006L1505.64 31.9769H1502.82L1488.77 5.50272C1488.05 4.11685 1487.39 3.19973 1486.79 2.75136C1486.23 2.30299 1485.73 2.07881 1485.29 2.07881V0.794838C1486.37 0.917121 1487.47 0.998642 1488.59 1.0394C1489.75 1.08016 1491.01 1.10054 1492.37 1.10054C1494.13 1.10054 1496.04 1.08016 1498.08 1.0394C1500.12 0.957882 1501.98 0.876361 1503.66 0.794838V2.07881C1502.66 2.07881 1501.76 2.16033 1500.96 2.32337C1500.16 2.48642 1499.6 2.79212 1499.28 3.24049C1498.96 3.6481 1499.04 4.32065 1499.52 5.25815L1509 23.8451L1507.14 26.2908L1513.32 13.6345C1514.8 10.6997 1515.58 8.39674 1515.66 6.72554C1515.78 5.05435 1515.38 3.87228 1514.46 3.17935C1513.58 2.44565 1512.32 2.05843 1510.68 2.01767V0.794838C1512.04 0.8356 1513.32 0.876361 1514.52 0.917121C1515.72 0.957881 1516.94 0.978262 1518.18 0.978262C1519.06 0.978262 1519.88 0.957881 1520.65 0.917121C1521.45 0.876361 1522.15 0.8356 1522.75 0.794838ZM1509.9 22.3166V37.663C1509.9 39.1304 1510 40.231 1510.2 40.9647C1510.44 41.6984 1510.88 42.1875 1511.52 42.4321C1512.16 42.6766 1513.12 42.8397 1514.4 42.9212V44.144C1513.32 44.0625 1511.92 44.0217 1510.2 44.0217C1508.52 43.981 1506.84 43.9606 1505.16 43.9606C1503.28 43.9606 1501.5 43.981 1499.82 44.0217C1498.14 44.0217 1496.82 44.0625 1495.86 44.144V42.9212C1497.14 42.8397 1498.1 42.6766 1498.74 42.4321C1499.38 42.1875 1499.8 41.6984 1500 40.9647C1500.24 40.231 1500.36 39.1304 1500.36 37.663V25.1291L1505.58 28.9198L1509.9 22.3166Z" fill="#EBD8F6"/>
<path d="M1584.12 0.733697L1598.7 39.0082C1599.26 40.4755 1599.89 41.4946 1600.57 42.0652C1601.29 42.5951 1601.93 42.8804 1602.49 42.9212V44.144C1601.29 44.0625 1599.87 44.0217 1598.22 44.0217C1596.62 43.981 1595 43.9606 1593.36 43.9606C1591.52 43.9606 1589.78 43.981 1588.14 44.0217C1586.5 44.0217 1585.2 44.0625 1584.24 44.144V42.9212C1586.28 42.8397 1587.56 42.4932 1588.08 41.8818C1588.64 41.2296 1588.52 39.8641 1587.72 37.7853L1577.52 9.35462L1578.6 7.76495L1569.47 31.9769C1568.59 34.2188 1568.05 36.053 1567.85 37.4796C1567.69 38.9063 1567.79 40.0068 1568.15 40.7813C1568.55 41.5557 1569.17 42.106 1570.01 42.4321C1570.89 42.7174 1571.93 42.8804 1573.13 42.9212V44.144C1571.81 44.0625 1570.55 44.0217 1569.35 44.0217C1568.15 43.981 1566.93 43.9606 1565.69 43.9606C1564.81 43.9606 1563.97 43.981 1563.17 44.0217C1562.41 44.0217 1561.73 44.0625 1561.13 44.144V42.9212C1561.97 42.7582 1562.83 42.2079 1563.71 41.2704C1564.59 40.3329 1565.45 38.7432 1566.29 36.5014L1579.98 0.733697C1580.62 0.774457 1581.3 0.794838 1582.02 0.794838C1582.78 0.794838 1583.48 0.774457 1584.12 0.733697ZM1588.32 26.5353V27.7582H1570.43L1571.03 26.5353H1588.32Z" fill="#EBD8F6"/>
<path d="M1625.31 0C1627.95 0 1630.11 0.40761 1631.79 1.22283C1633.51 1.99729 1635.03 2.9144 1636.35 3.97419C1637.15 4.5856 1637.75 4.66712 1638.15 4.21875C1638.59 3.72962 1638.89 2.6087 1639.05 0.855982H1640.43C1640.35 2.44566 1640.29 4.38179 1640.25 6.6644C1640.21 8.90625 1640.19 11.9022 1640.19 15.6522H1638.81C1638.61 13.7772 1638.35 12.1875 1638.03 10.8832C1637.71 9.53804 1637.27 8.35598 1636.71 7.33696C1636.15 6.31794 1635.35 5.40082 1634.31 4.5856C1633.31 3.56658 1632.15 2.8125 1630.83 2.32337C1629.51 1.83424 1628.13 1.58968 1626.69 1.58968C1624.53 1.58968 1622.69 2.18071 1621.17 3.36277C1619.65 4.50408 1618.41 6.07337 1617.45 8.07065C1616.53 10.0679 1615.85 12.3302 1615.4 14.8573C1614.96 17.3438 1614.74 19.9321 1614.74 22.6223C1614.74 25.3533 1614.96 27.9823 1615.4 30.5095C1615.89 32.9959 1616.61 35.2174 1617.57 37.1739C1618.57 39.1304 1619.85 40.6794 1621.41 41.8207C1622.97 42.962 1624.81 43.5326 1626.93 43.5326C1628.25 43.5326 1629.57 43.288 1630.89 42.7989C1632.25 42.269 1633.41 41.5149 1634.37 40.5367C1635.93 39.3139 1636.99 37.8057 1637.55 36.0122C1638.11 34.178 1638.53 31.7527 1638.81 28.7364H1640.19C1640.19 32.6087 1640.21 35.7473 1640.25 38.1522C1640.29 40.5163 1640.35 42.5136 1640.43 44.144H1639.05C1638.89 42.3913 1638.61 41.2908 1638.21 40.8424C1637.85 40.394 1637.23 40.4552 1636.35 41.0258C1634.87 42.0856 1633.29 43.0231 1631.61 43.8383C1629.97 44.6128 1627.85 45 1625.25 45C1621.01 45 1617.29 44.1236 1614.08 42.3709C1610.92 40.6182 1608.46 38.091 1606.7 34.7894C1604.94 31.4878 1604.06 27.5136 1604.06 22.8669C1604.06 18.3016 1604.96 14.3071 1606.76 10.8832C1608.6 7.45924 1611.1 4.78941 1614.26 2.87364C1617.47 0.957882 1621.15 0 1625.31 0Z" fill="#EBD8F6"/>
<path d="M1682.34 0.855982C1682.18 2.93479 1682.06 4.93207 1681.98 6.84783C1681.94 8.76359 1681.92 10.231 1681.92 11.25C1681.92 12.1467 1681.94 13.0027 1681.98 13.8179C1682.02 14.6332 1682.06 15.3261 1682.1 15.8967H1680.72C1680.07 12.4728 1679.25 9.76223 1678.25 7.76495C1677.29 5.76766 1676.13 4.36141 1674.77 3.5462C1673.41 2.69022 1671.81 2.26223 1669.97 2.26223H1668.59V37.1739C1668.59 38.8044 1668.75 40.0272 1669.07 40.8424C1669.43 41.6576 1670.07 42.2079 1670.99 42.4932C1671.91 42.7378 1673.25 42.8804 1675.01 42.9212V44.144C1673.77 44.1033 1672.11 44.0625 1670.03 44.0217C1667.99 43.981 1665.85 43.9606 1663.61 43.9606C1661.41 43.9606 1659.33 43.981 1657.37 44.0217C1655.41 44.0625 1653.82 44.1033 1652.62 44.144V42.9212C1654.42 42.8804 1655.79 42.7378 1656.71 42.4932C1657.63 42.2079 1658.25 41.6576 1658.57 40.8424C1658.89 40.0272 1659.05 38.8044 1659.05 37.1739V2.26223H1657.73C1655.89 2.26223 1654.28 2.69022 1652.92 3.5462C1651.56 4.36141 1650.4 5.76766 1649.44 7.76495C1648.48 9.72147 1647.64 12.4321 1646.92 15.8967H1645.54C1645.62 15.3261 1645.66 14.6332 1645.66 13.8179C1645.7 13.0027 1645.72 12.1467 1645.72 11.25C1645.72 10.231 1645.68 8.76359 1645.6 6.84783C1645.56 4.93207 1645.46 2.93479 1645.3 0.855982C1647.14 0.896743 1649.14 0.937502 1651.3 0.978262C1653.5 1.01902 1655.71 1.0394 1657.91 1.0394C1660.11 1.0394 1662.09 1.0394 1663.85 1.0394C1665.65 1.0394 1667.63 1.0394 1669.79 1.0394C1671.99 1.0394 1674.19 1.01902 1676.39 0.978262C1678.59 0.937502 1680.58 0.896743 1682.34 0.855982Z" fill="#EBD8F6"/>
<path d="M1704.48 0.855982V2.07881C1703.2 2.11957 1702.22 2.28261 1701.54 2.56794C1700.9 2.8125 1700.48 3.30163 1700.28 4.03533C1700.08 4.72826 1699.98 5.82881 1699.98 7.33696V37.663C1699.98 39.1304 1700.08 40.231 1700.28 40.9647C1700.52 41.6984 1700.96 42.1875 1701.6 42.4321C1702.24 42.6766 1703.2 42.8397 1704.48 42.9212V44.144C1703.4 44.0625 1702.04 44.0217 1700.4 44.0217C1698.76 43.981 1697.1 43.9606 1695.42 43.9606C1693.46 43.9606 1691.64 43.981 1689.96 44.0217C1688.32 44.0217 1686.98 44.0625 1685.94 44.144V42.9212C1687.22 42.8397 1688.18 42.6766 1688.82 42.4321C1689.46 42.1875 1689.88 41.6984 1690.08 40.9647C1690.32 40.231 1690.44 39.1304 1690.44 37.663V7.33696C1690.44 5.82881 1690.32 4.72826 1690.08 4.03533C1689.88 3.30163 1689.44 2.8125 1688.76 2.56794C1688.12 2.28261 1687.18 2.11957 1685.94 2.07881V0.855982C1686.98 0.896743 1688.32 0.937502 1689.96 0.978262C1691.64 1.01902 1693.46 1.0394 1695.42 1.0394C1697.1 1.0394 1698.76 1.01902 1700.4 0.978262C1702.04 0.937502 1703.4 0.896743 1704.48 0.855982Z" fill="#EBD8F6"/>
<path d="M1747.16 0.855982V2.07881C1746.28 2.40489 1745.34 3.11821 1744.34 4.21875C1743.38 5.31929 1742.48 7.03125 1741.64 9.35462L1728.97 44.2663C1728.65 44.2256 1728.31 44.2052 1727.95 44.2052C1727.59 44.2052 1727.23 44.2052 1726.87 44.2052C1726.55 44.2052 1726.21 44.2052 1725.85 44.2052C1725.49 44.2052 1725.15 44.2256 1724.83 44.2663L1709.52 5.99185C1708.96 4.52446 1708.34 3.52582 1707.66 2.99592C1706.98 2.42527 1706.34 2.11957 1705.74 2.07881V0.855982C1706.94 0.896743 1708.34 0.937502 1709.94 0.978262C1711.58 1.01902 1713.22 1.0394 1714.87 1.0394C1716.71 1.0394 1718.43 1.01902 1720.03 0.978262C1721.67 0.937502 1722.99 0.896743 1723.99 0.855982V2.07881C1722.71 2.11957 1721.71 2.28261 1720.99 2.56794C1720.27 2.8125 1719.87 3.30163 1719.79 4.03533C1719.71 4.72826 1719.95 5.78804 1720.51 7.21468L1731.43 35.5231L1730.17 37.0516L1738.45 14.3071C1739.53 11.25 1740.1 8.84511 1740.14 7.09239C1740.18 5.33968 1739.76 4.07609 1738.87 3.30163C1737.99 2.52718 1736.73 2.11957 1735.09 2.07881V0.855982C1736.45 0.896743 1737.73 0.937502 1738.93 0.978262C1740.14 1.01902 1741.36 1.0394 1742.6 1.0394C1743.48 1.0394 1744.3 1.01902 1745.06 0.978262C1745.86 0.937502 1746.56 0.896743 1747.16 0.855982Z" fill="#EBD8F6"/>
<path d="M1780.71 0.855982C1780.55 2.64946 1780.43 4.3818 1780.35 6.05299C1780.31 7.72419 1780.29 9.00815 1780.29 9.90489C1780.29 10.7201 1780.31 11.4946 1780.35 12.2283C1780.39 12.962 1780.43 13.5734 1780.47 14.0625H1779.09C1778.69 11.087 1778.07 8.74321 1777.23 7.03125C1776.39 5.27853 1775.29 4.05571 1773.93 3.36277C1772.61 2.62908 1771.05 2.26223 1769.24 2.26223H1766.78C1765.62 2.26223 1764.74 2.36413 1764.14 2.56794C1763.54 2.77174 1763.14 3.17935 1762.94 3.79076C1762.74 4.40217 1762.64 5.33967 1762.64 6.60326V38.3967C1762.64 39.6603 1762.74 40.5978 1762.94 41.2092C1763.14 41.8207 1763.54 42.2283 1764.14 42.4321C1764.74 42.6359 1765.62 42.7378 1766.78 42.7378H1769.73C1771.53 42.7378 1773.11 42.3505 1774.47 41.5761C1775.87 40.7609 1777.05 39.3954 1778.01 37.4796C1779.01 35.5639 1779.77 32.9755 1780.29 29.7147H1781.67C1781.55 31.019 1781.49 32.731 1781.49 34.8505C1781.49 35.788 1781.51 37.1128 1781.55 38.8247C1781.59 40.5367 1781.71 42.3098 1781.91 44.144C1779.87 44.0625 1777.57 44.0217 1775.01 44.0217C1772.45 43.981 1770.17 43.9606 1768.16 43.9606C1767.16 43.9606 1765.88 43.9606 1764.32 43.9606C1762.76 43.9606 1761.08 43.981 1759.28 44.0217C1757.48 44.0217 1755.66 44.0421 1753.82 44.0829C1751.98 44.0829 1750.24 44.1033 1748.6 44.144V42.9212C1749.88 42.8397 1750.84 42.6766 1751.48 42.4321C1752.12 42.1875 1752.54 41.6984 1752.74 40.9647C1752.98 40.231 1753.1 39.1304 1753.1 37.663V7.33696C1753.1 5.82881 1752.98 4.72826 1752.74 4.03533C1752.54 3.30163 1752.1 2.8125 1751.42 2.56794C1750.78 2.28261 1749.84 2.11957 1748.6 2.07881V0.855982C1750.24 0.896743 1751.98 0.937502 1753.82 0.978262C1755.66 0.978262 1757.48 0.998642 1759.28 1.0394C1761.08 1.0394 1762.76 1.0394 1764.32 1.0394C1765.88 1.0394 1767.16 1.0394 1768.16 1.0394C1770.01 1.0394 1772.09 1.0394 1774.41 1.0394C1776.77 0.998642 1778.87 0.937503 1780.71 0.855982ZM1771.35 21.7663C1771.35 21.7663 1771.35 21.9701 1771.35 22.3777C1771.35 22.7853 1771.35 22.9891 1771.35 22.9891H1760.84C1760.84 22.9891 1760.84 22.7853 1760.84 22.3777C1760.84 21.9701 1760.84 21.7663 1760.84 21.7663H1771.35ZM1773.09 13.6957C1772.93 16.019 1772.85 17.7921 1772.85 19.0149C1772.89 20.2378 1772.91 21.3587 1772.91 22.3777C1772.91 23.3967 1772.93 24.5177 1772.97 25.7405C1773.01 26.9633 1773.11 28.7364 1773.27 31.0598H1771.89C1771.69 29.6332 1771.31 28.3084 1770.75 27.0856C1770.23 25.8628 1769.46 24.8845 1768.46 24.1508C1767.46 23.3764 1766.16 22.9891 1764.56 22.9891V21.7663C1765.76 21.7663 1766.78 21.5217 1767.62 21.0326C1768.46 20.5027 1769.14 19.8302 1769.66 19.0149C1770.23 18.159 1770.67 17.2622 1770.99 16.3247C1771.31 15.3872 1771.55 14.5109 1771.71 13.6957H1773.09Z" fill="#EBD8F6"/>
<path d="M1828.67 0.855982C1829.67 0.896743 1831.01 0.937502 1832.69 0.978262C1834.41 1.01902 1836.11 1.0394 1837.79 1.0394C1839.71 1.0394 1841.57 1.01902 1843.37 0.978262C1845.17 0.937502 1846.45 0.917121 1847.21 0.917121C1850.94 0.917121 1854.02 1.34511 1856.46 2.20109C1858.94 3.01631 1860.78 4.21875 1861.98 5.80842C1863.22 7.3981 1863.84 9.31386 1863.84 11.5557C1863.84 12.9416 1863.56 14.3478 1863 15.7745C1862.44 17.1603 1861.48 18.4647 1860.12 19.6875C1858.8 20.8696 1856.98 21.8274 1854.66 22.5611C1852.34 23.2541 1849.42 23.6005 1845.89 23.6005H1840.13V22.3777H1845.29C1847.65 22.3777 1849.44 21.9294 1850.64 21.0326C1851.88 20.0951 1852.72 18.8723 1853.16 17.3641C1853.64 15.8152 1853.88 14.1033 1853.88 12.2283C1853.88 9.00816 1853.32 6.52174 1852.2 4.76902C1851.08 2.97555 1849.16 2.07881 1846.43 2.07881C1844.87 2.07881 1843.85 2.42527 1843.37 3.11821C1842.93 3.81114 1842.71 5.21739 1842.71 7.33696V37.663C1842.71 39.1304 1842.81 40.231 1843.01 40.9647C1843.25 41.6984 1843.69 42.1875 1844.33 42.4321C1844.97 42.6766 1845.93 42.8397 1847.21 42.9212V44.144C1846.13 44.0625 1844.77 44.0217 1843.13 44.0217C1841.49 43.981 1839.83 43.9606 1838.15 43.9606C1836.23 43.9606 1834.41 43.981 1832.69 44.0217C1831.01 44.0217 1829.67 44.0625 1828.67 44.144V42.9212C1829.95 42.8397 1830.91 42.6766 1831.55 42.4321C1832.19 42.1875 1832.61 41.6984 1832.81 40.9647C1833.05 40.231 1833.17 39.1304 1833.17 37.663V7.33696C1833.17 5.82881 1833.05 4.72826 1832.81 4.03533C1832.61 3.30163 1832.17 2.8125 1831.49 2.56794C1830.85 2.28261 1829.91 2.11957 1828.67 2.07881V0.855982ZM1840.01 22.5611C1841.73 22.6019 1843.21 22.6834 1844.45 22.8057C1845.73 22.928 1846.85 23.0503 1847.81 23.1726C1848.78 23.2541 1849.64 23.3152 1850.4 23.356C1854.04 23.6821 1856.72 24.4769 1858.44 25.7405C1860.2 27.0041 1861.34 28.8995 1861.86 31.4266L1863.24 37.7242C1863.6 39.3546 1863.98 40.4959 1864.38 41.1481C1864.78 41.8003 1865.36 42.1264 1866.12 42.1264C1866.64 42.0856 1867.06 41.9633 1867.38 41.7595C1867.74 41.5149 1868.12 41.1685 1868.52 40.7201L1869.36 41.4538C1868.28 42.7174 1867.12 43.6141 1865.88 44.144C1864.64 44.7147 1863.14 45 1861.38 45C1859.22 45 1857.44 44.5313 1856.04 43.5938C1854.64 42.6563 1853.72 40.9239 1853.28 38.3967L1852.2 32.2826C1851.92 30.5707 1851.58 29.0829 1851.18 27.8193C1850.78 26.5149 1850.22 25.4959 1849.5 24.7622C1848.82 23.9878 1847.85 23.6005 1846.61 23.6005H1840.13L1840.01 22.5611Z" fill="#EBD8F6"/>
<path d="M1902.34 0.855982C1902.18 2.64946 1902.06 4.3818 1901.98 6.05299C1901.94 7.72419 1901.92 9.00815 1901.92 9.90489C1901.92 10.7201 1901.94 11.4946 1901.98 12.2283C1902.02 12.962 1902.06 13.5734 1902.1 14.0625H1900.72C1900.32 11.087 1899.7 8.74321 1898.86 7.03125C1898.02 5.27853 1896.92 4.05571 1895.56 3.36277C1894.24 2.62908 1892.68 2.26223 1890.87 2.26223H1888.41C1887.25 2.26223 1886.37 2.36413 1885.77 2.56794C1885.17 2.77174 1884.77 3.17935 1884.57 3.79076C1884.37 4.40217 1884.27 5.33967 1884.27 6.60326V38.3967C1884.27 39.6603 1884.37 40.5978 1884.57 41.2092C1884.77 41.8207 1885.17 42.2283 1885.77 42.4321C1886.37 42.6359 1887.25 42.7378 1888.41 42.7378H1891.35C1893.16 42.7378 1894.74 42.3505 1896.1 41.5761C1897.5 40.7609 1898.68 39.3954 1899.64 37.4796C1900.64 35.5639 1901.4 32.9755 1901.92 29.7147H1903.3C1903.18 31.019 1903.12 32.731 1903.12 34.8505C1903.12 35.788 1903.14 37.1128 1903.18 38.8247C1903.22 40.5367 1903.34 42.3098 1903.54 44.144C1901.5 44.0625 1899.2 44.0217 1896.64 44.0217C1894.08 43.981 1891.79 43.9606 1889.79 43.9606C1888.79 43.9606 1887.51 43.9606 1885.95 43.9606C1884.39 43.9606 1882.71 43.981 1880.91 44.0217C1879.11 44.0217 1877.29 44.0421 1875.45 44.0829C1873.61 44.0829 1871.87 44.1033 1870.23 44.144V42.9212C1871.51 42.8397 1872.47 42.6766 1873.11 42.4321C1873.75 42.1875 1874.17 41.6984 1874.37 40.9647C1874.61 40.231 1874.73 39.1304 1874.73 37.663V7.33696C1874.73 5.82881 1874.61 4.72826 1874.37 4.03533C1874.17 3.30163 1873.73 2.8125 1873.05 2.56794C1872.41 2.28261 1871.47 2.11957 1870.23 2.07881V0.855982C1871.87 0.896743 1873.61 0.937502 1875.45 0.978262C1877.29 0.978262 1879.11 0.998642 1880.91 1.0394C1882.71 1.0394 1884.39 1.0394 1885.95 1.0394C1887.51 1.0394 1888.79 1.0394 1889.79 1.0394C1891.63 1.0394 1893.72 1.0394 1896.04 1.0394C1898.4 0.998642 1900.5 0.937503 1902.34 0.855982ZM1892.98 21.7663C1892.98 21.7663 1892.98 21.9701 1892.98 22.3777C1892.98 22.7853 1892.98 22.9891 1892.98 22.9891H1882.47C1882.47 22.9891 1882.47 22.7853 1882.47 22.3777C1882.47 21.9701 1882.47 21.7663 1882.47 21.7663H1892.98ZM1894.72 13.6957C1894.56 16.019 1894.48 17.7921 1894.48 19.0149C1894.52 20.2378 1894.54 21.3587 1894.54 22.3777C1894.54 23.3967 1894.56 24.5177 1894.6 25.7405C1894.64 26.9633 1894.74 28.7364 1894.9 31.0598H1893.52C1893.32 29.6332 1892.94 28.3084 1892.38 27.0856C1891.86 25.8628 1891.09 24.8845 1890.09 24.1508C1889.09 23.3764 1887.79 22.9891 1886.19 22.9891V21.7663C1887.39 21.7663 1888.41 21.5217 1889.25 21.0326C1890.09 20.5027 1890.77 19.8302 1891.29 19.0149C1891.85 18.159 1892.3 17.2622 1892.62 16.3247C1892.94 15.3872 1893.18 14.5109 1893.34 13.6957H1894.72Z" fill="#EBD8F6"/>
<path d="M1923.27 0.0611446C1925.64 0.0611446 1927.46 0.326091 1928.74 0.855982C1930.02 1.34511 1931.12 1.875 1932.04 2.44565C1932.52 2.73098 1932.9 2.95517 1933.18 3.11821C1933.5 3.24049 1933.8 3.30163 1934.08 3.30163C1934.48 3.30163 1934.76 3.07745 1934.92 2.62908C1935.12 2.18071 1935.28 1.50815 1935.4 0.611415H1936.78C1936.74 1.38587 1936.68 2.32337 1936.6 3.42392C1936.56 4.4837 1936.52 5.88995 1936.48 7.64267C1936.48 9.39538 1936.48 11.6984 1936.48 14.5516H1935.1C1934.94 12.4321 1934.46 10.3736 1933.66 8.37636C1932.86 6.37908 1931.72 4.74864 1930.24 3.48506C1928.8 2.18071 1927.02 1.52853 1924.9 1.52853C1922.97 1.52853 1921.39 2.07881 1920.15 3.17935C1918.91 4.27989 1918.29 5.80843 1918.29 7.76495C1918.29 9.39538 1918.69 10.8016 1919.49 11.9837C1920.29 13.125 1921.45 14.2459 1922.97 15.3465C1924.54 16.447 1926.42 17.7717 1928.62 19.3207C1930.54 20.5842 1932.26 21.8478 1933.78 23.1114C1935.3 24.375 1936.52 25.8016 1937.44 27.3913C1938.36 28.981 1938.82 30.8764 1938.82 33.0774C1938.82 35.7677 1938.12 37.9891 1936.72 39.7419C1935.36 41.4946 1933.56 42.8193 1931.32 43.716C1929.08 44.572 1926.62 45 1923.93 45C1921.45 45 1919.47 44.7554 1917.99 44.2663C1916.51 43.7772 1915.27 43.2677 1914.27 42.7378C1913.39 42.1671 1912.71 41.8818 1912.23 41.8818C1911.83 41.8818 1911.53 42.106 1911.33 42.5544C1911.17 43.0027 1911.03 43.6753 1910.91 44.572H1909.53C1909.61 43.5938 1909.65 42.4525 1909.65 41.1481C1909.69 39.8438 1909.71 38.1522 1909.71 36.0734C1909.75 33.9538 1909.77 31.284 1909.77 28.0639H1911.15C1911.31 30.7541 1911.75 33.2813 1912.47 35.6454C1913.23 37.9688 1914.37 39.8438 1915.89 41.2704C1917.45 42.697 1919.51 43.4103 1922.07 43.4103C1923.47 43.4103 1924.72 43.1658 1925.8 42.6766C1926.92 42.1467 1927.82 41.3723 1928.5 40.3533C1929.18 39.3342 1929.52 38.0707 1929.52 36.5625C1929.52 34.8505 1929.12 33.3628 1928.32 32.0992C1927.56 30.8356 1926.5 29.6535 1925.14 28.553C1923.81 27.4524 1922.27 26.3315 1920.51 25.1902C1918.63 23.9266 1916.87 22.663 1915.23 21.3995C1913.59 20.1359 1912.27 18.6889 1911.27 17.0584C1910.31 15.428 1909.83 13.4919 1909.83 11.25C1909.83 8.68207 1910.45 6.58288 1911.69 4.95245C1912.97 3.28125 1914.63 2.05843 1916.67 1.28397C1918.75 0.468753 1920.95 0.0611446 1923.27 0.0611446Z" fill="#EBD8F6"/>
<path d="M1943.32 0.855982C1944.32 0.896743 1945.66 0.937502 1947.34 0.978262C1949.06 1.01902 1950.76 1.0394 1952.45 1.0394C1954.37 1.0394 1956.23 1.01902 1958.03 0.978262C1959.83 0.937502 1961.11 0.917121 1961.87 0.917121C1967.43 0.917121 1971.59 2.03805 1974.35 4.27989C1977.11 6.52174 1978.5 9.41576 1978.5 12.962C1978.5 14.4293 1978.22 15.9783 1977.66 17.6087C1977.09 19.1984 1976.13 20.6861 1974.77 22.072C1973.45 23.4171 1971.63 24.5177 1969.31 25.3736C1966.99 26.2296 1964.07 26.6576 1960.55 26.6576H1954.43V25.4348H1959.95C1962.31 25.4348 1964.09 24.8845 1965.29 23.784C1966.53 22.6834 1967.37 21.2364 1967.81 19.4429C1968.29 17.6495 1968.53 15.7133 1968.53 13.6345C1968.53 9.76223 1967.97 6.86821 1966.85 4.95245C1965.73 3.03669 1963.81 2.07881 1961.09 2.07881C1959.53 2.07881 1958.51 2.42527 1958.03 3.11821C1957.59 3.81114 1957.37 5.21739 1957.37 7.33696V37.2962C1957.37 38.8859 1957.53 40.0679 1957.85 40.8424C1958.17 41.6169 1958.79 42.1264 1959.71 42.3709C1960.63 42.6155 1961.99 42.7582 1963.79 42.7989V44.144C1962.55 44.1033 1960.95 44.0625 1958.99 44.0217C1957.03 43.981 1954.97 43.9606 1952.81 43.9606C1951.08 43.9606 1949.4 43.981 1947.76 44.0217C1946.12 44.0625 1944.64 44.1033 1943.32 44.144V42.9212C1944.6 42.8397 1945.56 42.6766 1946.2 42.4321C1946.84 42.1875 1947.26 41.6984 1947.46 40.9647C1947.7 40.231 1947.82 39.1304 1947.82 37.663V7.33696C1947.82 5.82881 1947.7 4.72826 1947.46 4.03533C1947.26 3.30163 1946.82 2.8125 1946.14 2.56794C1945.5 2.28261 1944.56 2.11957 1943.32 2.07881V0.855982Z" fill="#EBD8F6"/>
<path d="M2003.56 0C2007.8 0 2011.51 0.876359 2014.67 2.62908C2017.87 4.38179 2020.35 6.90897 2022.11 10.2106C2023.87 13.4715 2024.75 17.4457 2024.75 22.1332C2024.75 26.6984 2023.85 30.6929 2022.05 34.1169C2020.25 37.5408 2017.73 40.2106 2014.49 42.1264C2011.29 44.0421 2007.62 45 2003.5 45C1999.26 45 1995.54 44.1236 1992.34 42.3709C1989.18 40.6182 1986.72 38.091 1984.96 34.7894C1983.19 31.4878 1982.31 27.5136 1982.31 22.8669C1982.31 18.3016 1983.21 14.3071 1985.02 10.8832C1986.86 7.45924 1989.36 4.78941 1992.52 2.87364C1995.72 0.957882 1999.4 0 2003.56 0ZM2003.32 1.10054C2001.08 1.10054 1999.12 2.01766 1997.44 3.8519C1995.8 5.68614 1994.52 8.21332 1993.6 11.4334C1992.72 14.6535 1992.28 18.3832 1992.28 22.6223C1992.28 26.9429 1992.78 30.7133 1993.78 33.9334C1994.82 37.1128 1996.2 39.5788 1997.92 41.3315C1999.68 43.0435 2001.62 43.8995 2003.74 43.8995C2005.98 43.8995 2007.92 42.9823 2009.57 41.1481C2011.25 39.3139 2012.53 36.7867 2013.41 33.5666C2014.33 30.3057 2014.79 26.5761 2014.79 22.3777C2014.79 18.0163 2014.27 14.2459 2013.23 11.0666C2012.23 7.88723 2010.85 5.44158 2009.08 3.72962C2007.36 1.9769 2005.44 1.10054 2003.32 1.10054Z" fill="#EBD8F6"/>
<path d="M2068.46 0.855982V2.07881C2067.18 2.24185 2066.22 2.58832 2065.58 3.11821C2064.94 3.60734 2064.5 4.40218 2064.26 5.50272C2064.06 6.60326 2063.96 8.15218 2063.96 10.1495V44.2663C2063.48 44.2256 2062.98 44.2052 2062.46 44.2052C2061.98 44.2052 2061.45 44.2256 2060.89 44.2663L2034.84 10.6386V34.1169C2034.84 36.3587 2034.96 38.091 2035.2 39.3139C2035.44 40.4959 2035.96 41.3519 2036.77 41.8818C2037.61 42.3709 2038.91 42.7174 2040.67 42.9212V44.144C2039.91 44.0625 2038.91 44.0217 2037.67 44.0217C2036.43 43.981 2035.26 43.9606 2034.18 43.9606C2033.26 43.9606 2032.32 43.981 2031.36 44.0217C2030.4 44.0217 2029.6 44.0625 2028.96 44.144V42.9212C2030.24 42.7174 2031.2 42.3709 2031.84 41.8818C2032.48 41.3927 2032.9 40.5978 2033.1 39.4973C2033.34 38.356 2033.46 36.8071 2033.46 34.8505V7.33696C2033.46 5.82881 2033.34 4.72826 2033.1 4.03533C2032.9 3.30163 2032.46 2.8125 2031.78 2.56794C2031.14 2.28261 2030.2 2.11957 2028.96 2.07881V0.855982C2029.6 0.896743 2030.4 0.937502 2031.36 0.978262C2032.32 1.01902 2033.26 1.0394 2034.18 1.0394C2035.14 1.0394 2036.06 1.01902 2036.95 0.978262C2037.83 0.937502 2038.63 0.896743 2039.35 0.855982L2062.58 30.0204V10.8832C2062.58 8.6413 2062.46 6.92935 2062.22 5.74729C2061.98 4.52446 2061.43 3.6481 2060.59 3.11821C2059.79 2.58832 2058.51 2.24185 2056.75 2.07881V0.855982C2057.51 0.896743 2058.51 0.937502 2059.75 0.978262C2060.99 1.01902 2062.16 1.0394 2063.24 1.0394C2064.2 1.0394 2065.14 1.01902 2066.06 0.978262C2067.02 0.937502 2067.82 0.896743 2068.46 0.855982Z" fill="#EBD8F6"/>
<path d="M2087.23 0.0611446C2089.59 0.0611446 2091.41 0.326091 2092.69 0.855982C2093.97 1.34511 2095.07 1.875 2095.99 2.44565C2096.47 2.73098 2096.85 2.95517 2097.13 3.11821C2097.45 3.24049 2097.75 3.30163 2098.03 3.30163C2098.43 3.30163 2098.71 3.07745 2098.87 2.62908C2099.07 2.18071 2099.23 1.50815 2099.35 0.611415H2100.73C2100.69 1.38587 2100.63 2.32337 2100.55 3.42392C2100.51 4.4837 2100.47 5.88995 2100.43 7.64267C2100.43 9.39538 2100.43 11.6984 2100.43 14.5516H2099.05C2098.89 12.4321 2098.41 10.3736 2097.61 8.37636C2096.81 6.37908 2095.67 4.74864 2094.19 3.48506C2092.75 2.18071 2090.97 1.52853 2088.85 1.52853C2086.93 1.52853 2085.34 2.07881 2084.1 3.17935C2082.86 4.27989 2082.24 5.80843 2082.24 7.76495C2082.24 9.39538 2082.64 10.8016 2083.44 11.9837C2084.24 13.125 2085.41 14.2459 2086.93 15.3465C2088.49 16.447 2090.37 17.7717 2092.57 19.3207C2094.49 20.5842 2096.21 21.8478 2097.73 23.1114C2099.25 24.375 2100.47 25.8016 2101.39 27.3913C2102.31 28.981 2102.77 30.8764 2102.77 33.0774C2102.77 35.7677 2102.07 37.9891 2100.67 39.7419C2099.31 41.4946 2097.51 42.8193 2095.27 43.716C2093.03 44.572 2090.57 45 2087.89 45C2085.4 45 2083.42 44.7554 2081.94 44.2663C2080.46 43.7772 2079.22 43.2677 2078.22 42.7378C2077.34 42.1671 2076.66 41.8818 2076.18 41.8818C2075.78 41.8818 2075.48 42.106 2075.28 42.5544C2075.12 43.0027 2074.98 43.6753 2074.86 44.572H2073.48C2073.56 43.5938 2073.6 42.4525 2073.6 41.1481C2073.64 39.8438 2073.66 38.1522 2073.66 36.0734C2073.7 33.9538 2073.72 31.284 2073.72 28.0639H2075.1C2075.26 30.7541 2075.7 33.2813 2076.42 35.6454C2077.18 37.9688 2078.32 39.8438 2079.84 41.2704C2081.4 42.697 2083.46 43.4103 2086.03 43.4103C2087.43 43.4103 2088.67 43.1658 2089.75 42.6766C2090.87 42.1467 2091.77 41.3723 2092.45 40.3533C2093.13 39.3342 2093.47 38.0707 2093.47 36.5625C2093.47 34.8505 2093.07 33.3628 2092.27 32.0992C2091.51 30.8356 2090.45 29.6535 2089.09 28.553C2087.77 27.4524 2086.23 26.3315 2084.46 25.1902C2082.58 23.9266 2080.82 22.663 2079.18 21.3995C2077.54 20.1359 2076.22 18.6889 2075.22 17.0584C2074.26 15.428 2073.78 13.4919 2073.78 11.25C2073.78 8.68207 2074.4 6.58288 2075.64 4.95245C2076.92 3.28125 2078.58 2.05843 2080.62 1.28397C2082.7 0.468753 2084.9 0.0611446 2087.23 0.0611446Z" fill="#EBD8F6"/>
<path d="M2125.82 0.855982V2.07881C2124.54 2.11957 2123.56 2.28261 2122.88 2.56794C2122.24 2.8125 2121.82 3.30163 2121.62 4.03533C2121.42 4.72826 2121.32 5.82881 2121.32 7.33696V37.663C2121.32 39.1304 2121.42 40.231 2121.62 40.9647C2121.86 41.6984 2122.3 42.1875 2122.94 42.4321C2123.58 42.6766 2124.54 42.8397 2125.82 42.9212V44.144C2124.74 44.0625 2123.38 44.0217 2121.74 44.0217C2120.1 43.981 2118.44 43.9606 2116.76 43.9606C2114.8 43.9606 2112.97 43.981 2111.29 44.0217C2109.65 44.0217 2108.31 44.0625 2107.27 44.144V42.9212C2108.55 42.8397 2109.51 42.6766 2110.15 42.4321C2110.79 42.1875 2111.21 41.6984 2111.41 40.9647C2111.65 40.231 2111.77 39.1304 2111.77 37.663V7.33696C2111.77 5.82881 2111.65 4.72826 2111.41 4.03533C2111.21 3.30163 2110.77 2.8125 2110.09 2.56794C2109.45 2.28261 2108.51 2.11957 2107.27 2.07881V0.855982C2108.31 0.896743 2109.65 0.937502 2111.29 0.978262C2112.97 1.01902 2114.8 1.0394 2116.76 1.0394C2118.44 1.0394 2120.1 1.01902 2121.74 0.978262C2123.38 0.937502 2124.74 0.896743 2125.82 0.855982Z" fill="#EBD8F6"/>
<path d="M2129.84 0.855982C2130.88 0.896743 2132.24 0.937502 2133.92 0.978262C2135.6 1.01902 2137.28 1.0394 2138.96 1.0394C2140.88 1.0394 2142.75 1.01902 2144.55 0.978262C2146.35 0.937502 2147.63 0.917121 2148.39 0.917121C2153.35 0.917121 2157.05 1.81386 2159.49 3.60734C2161.97 5.40082 2163.21 7.70381 2163.21 10.5163C2163.21 11.9429 2162.79 13.3899 2161.95 14.8573C2161.11 16.3247 2159.81 17.6291 2158.05 18.7704C2156.29 19.9117 2154.01 20.7473 2151.21 21.2772V21.3995C2154.97 21.6848 2157.95 22.3777 2160.15 23.4783C2162.35 24.5788 2163.93 25.9035 2164.89 27.4524C2165.85 29.0014 2166.33 30.6114 2166.33 32.2826C2166.33 34.8505 2165.67 37.0109 2164.35 38.7636C2163.03 40.5163 2161.13 41.8614 2158.65 42.7989C2156.17 43.6957 2153.21 44.144 2149.77 44.144C2148.81 44.144 2147.43 44.1236 2145.63 44.0829C2143.83 44.0014 2141.64 43.9606 2139.08 43.9606C2137.32 43.9606 2135.6 43.981 2133.92 44.0217C2132.24 44.0217 2130.88 44.0625 2129.84 44.144V42.9212C2131.12 42.8397 2132.08 42.6766 2132.72 42.4321C2133.36 42.1875 2133.78 41.6984 2133.98 40.9647C2134.22 40.231 2134.34 39.1304 2134.34 37.663V7.33696C2134.34 5.82881 2134.22 4.72826 2133.98 4.03533C2133.78 3.30163 2133.34 2.8125 2132.66 2.56794C2132.02 2.28261 2131.08 2.11957 2129.84 2.07881V0.855982ZM2147.61 2.07881C2146.05 2.07881 2145.03 2.42527 2144.55 3.11821C2144.11 3.81114 2143.89 5.21739 2143.89 7.33696V37.663C2143.89 39.0897 2143.99 40.1698 2144.19 40.9035C2144.43 41.6372 2144.83 42.1264 2145.39 42.3709C2145.99 42.6155 2146.87 42.7378 2148.03 42.7378C2150.91 42.7378 2153.01 41.8207 2154.33 39.9864C2155.69 38.1114 2156.37 35.462 2156.37 32.038C2156.37 28.8995 2155.59 26.4742 2154.03 24.7622C2152.51 23.0503 2149.97 22.1943 2146.41 22.1943H2141.3C2141.3 22.1943 2141.3 22.0313 2141.3 21.7052C2141.3 21.3383 2141.3 21.1549 2141.3 21.1549H2146.47C2148.35 21.1549 2149.79 20.7065 2150.79 19.8098C2151.79 18.8723 2152.49 17.6495 2152.89 16.1413C2153.29 14.5924 2153.49 12.9416 2153.49 11.1889C2153.49 8.17255 2153.03 5.91033 2152.11 4.40218C2151.19 2.85326 2149.69 2.07881 2147.61 2.07881Z" fill="#EBD8F6"/>
<path d="M2188.9 0.855982V2.07881C2187.54 2.11957 2186.5 2.28261 2185.78 2.56794C2185.1 2.8125 2184.64 3.30163 2184.4 4.03533C2184.16 4.72826 2184.04 5.82881 2184.04 7.33696V38.3967C2184.04 39.6603 2184.12 40.5978 2184.28 41.2092C2184.48 41.8207 2184.84 42.2283 2185.36 42.4321C2185.92 42.6359 2186.74 42.7378 2187.82 42.7378H2190.76C2192.12 42.7378 2193.4 42.4117 2194.6 41.7595C2195.8 41.1073 2196.88 40.1902 2197.84 39.0082C2198.8 37.7853 2199.6 36.3383 2200.24 34.6671C2200.88 32.9959 2201.36 31.1413 2201.69 29.1033H2203.07C2202.95 30.4891 2202.89 32.2826 2202.89 34.4837C2202.89 35.4212 2202.91 36.7867 2202.95 38.5802C2202.99 40.3736 2203.11 42.2283 2203.31 44.144C2201.26 44.0625 2198.96 44.0217 2196.4 44.0217C2193.84 43.981 2191.56 43.9606 2189.56 43.9606C2188.56 43.9606 2187.28 43.9606 2185.72 43.9606C2184.16 43.9606 2182.48 43.981 2180.68 44.0217C2178.88 44.0217 2177.06 44.0421 2175.21 44.0829C2173.37 44.0829 2171.63 44.1033 2169.99 44.144V42.9212C2171.27 42.8397 2172.23 42.6766 2172.87 42.4321C2173.51 42.1875 2173.93 41.6984 2174.13 40.9647C2174.37 40.231 2174.49 39.1304 2174.49 37.663V7.33696C2174.49 5.82881 2174.37 4.72826 2174.13 4.03533C2173.93 3.30163 2173.49 2.8125 2172.81 2.56794C2172.17 2.28261 2171.23 2.11957 2169.99 2.07881V0.855982C2170.99 0.896743 2172.33 0.937502 2174.01 0.978262C2175.73 1.01902 2177.56 1.0394 2179.48 1.0394C2181.24 1.0394 2182.96 1.01902 2184.64 0.978262C2186.36 0.937502 2187.78 0.896743 2188.9 0.855982Z" fill="#EBD8F6"/>
<path d="M2238.8 0.855982C2238.64 2.64946 2238.52 4.3818 2238.44 6.05299C2238.4 7.72419 2238.38 9.00815 2238.38 9.90489C2238.38 10.7201 2238.4 11.4946 2238.44 12.2283C2238.48 12.962 2238.52 13.5734 2238.56 14.0625H2237.18C2236.78 11.087 2236.16 8.74321 2235.32 7.03125C2234.48 5.27853 2233.38 4.05571 2232.02 3.36277C2230.7 2.62908 2229.14 2.26223 2227.33 2.26223H2224.87C2223.71 2.26223 2222.83 2.36413 2222.23 2.56794C2221.63 2.77174 2221.23 3.17935 2221.03 3.79076C2220.83 4.40217 2220.73 5.33967 2220.73 6.60326V38.3967C2220.73 39.6603 2220.83 40.5978 2221.03 41.2092C2221.23 41.8207 2221.63 42.2283 2222.23 42.4321C2222.83 42.6359 2223.71 42.7378 2224.87 42.7378H2227.81C2229.62 42.7378 2231.2 42.3505 2232.56 41.5761C2233.96 40.7609 2235.14 39.3954 2236.1 37.4796C2237.1 35.5639 2237.86 32.9755 2238.38 29.7147H2239.76C2239.64 31.019 2239.58 32.731 2239.58 34.8505C2239.58 35.788 2239.6 37.1128 2239.64 38.8247C2239.68 40.5367 2239.8 42.3098 2240 44.144C2237.96 44.0625 2235.66 44.0217 2233.1 44.0217C2230.54 43.981 2228.26 43.9606 2226.25 43.9606C2225.25 43.9606 2223.97 43.9606 2222.41 43.9606C2220.85 43.9606 2219.17 43.981 2217.37 44.0217C2215.57 44.0217 2213.75 44.0421 2211.91 44.0829C2210.07 44.0829 2208.33 44.1033 2206.69 44.144V42.9212C2207.97 42.8397 2208.93 42.6766 2209.57 42.4321C2210.21 42.1875 2210.63 41.6984 2210.83 40.9647C2211.07 40.231 2211.19 39.1304 2211.19 37.663V7.33696C2211.19 5.82881 2211.07 4.72826 2210.83 4.03533C2210.63 3.30163 2210.19 2.8125 2209.51 2.56794C2208.87 2.28261 2207.93 2.11957 2206.69 2.07881V0.855982C2208.33 0.896743 2210.07 0.937502 2211.91 0.978262C2213.75 0.978262 2215.57 0.998642 2217.37 1.0394C2219.17 1.0394 2220.85 1.0394 2222.41 1.0394C2223.97 1.0394 2225.25 1.0394 2226.25 1.0394C2228.1 1.0394 2230.18 1.0394 2232.5 1.0394C2234.86 0.998642 2236.96 0.937503 2238.8 0.855982ZM2229.44 21.7663C2229.44 21.7663 2229.44 21.9701 2229.44 22.3777C2229.44 22.7853 2229.44 22.9891 2229.44 22.9891H2218.93C2218.93 22.9891 2218.93 22.7853 2218.93 22.3777C2218.93 21.9701 2218.93 21.7663 2218.93 21.7663H2229.44ZM2231.18 13.6957C2231.02 16.019 2230.94 17.7921 2230.94 19.0149C2230.98 20.2378 2231 21.3587 2231 22.3777C2231 23.3967 2231.02 24.5177 2231.06 25.7405C2231.1 26.9633 2231.2 28.7364 2231.36 31.0598H2229.98C2229.78 29.6332 2229.4 28.3084 2228.84 27.0856C2228.32 25.8628 2227.55 24.8845 2226.55 24.1508C2225.55 23.3764 2224.25 22.9891 2222.65 22.9891V21.7663C2223.85 21.7663 2224.87 21.5217 2225.71 21.0326C2226.55 20.5027 2227.23 19.8302 2227.76 19.0149C2228.32 18.159 2228.76 17.2622 2229.08 16.3247C2229.4 15.3872 2229.64 14.5109 2229.8 13.6957H2231.18Z" fill="#EBD8F6"/>
</svg>
