<svg width="80" height="80" viewBox="0 0 80 80" fill="none" xmlns="http://www.w3.org/2000/svg">
<path d="M32.8333 28.0669C31.6 27.5669 30.2667 27.3669 28.9 27.4002C28.0333 27.4002 27.2667 27.4002 26.6333 27.4336C25.9667 27.4002 25.5 27.4336 25.2667 27.4669V38.6669C25.7333 38.7002 26.1667 38.7336 26.5667 38.7336H28.3333C29.6333 38.7336 30.9333 38.5336 32.1667 38.1336C33.2333 37.8336 34.1667 37.2002 34.9 36.3669C35.6 35.5336 35.9333 34.4002 35.9333 32.9336C35.9667 31.9002 35.7 30.8669 35.1667 29.9669C34.6109 29.1014 33.7935 28.4358 32.8333 28.0669ZM65.8333 1.00024H14.1667C6.33333 1.00024 0 7.33358 0 15.1669V64.8302C0 72.6636 6.33333 78.9969 14.1667 78.9969H65.8333C73.6667 78.9969 80 72.6636 80 64.8302V15.1669C80 7.33358 73.6667 1.00024 65.8333 1.00024ZM41.1967 39.8336C39.8667 41.7002 38 43.1002 35.8333 43.9002C33.5667 44.7336 31.0667 45.0336 28.3333 45.0336C27.5333 45.0336 27 45.0336 26.6667 45.0002C26.3333 44.9669 25.8667 44.9669 25.2333 44.9669V55.6636C25.2667 55.8969 25.1 56.1002 24.8667 56.1336H18.4C18.1333 56.1336 18 55.9969 18 55.6969V21.4002C18 21.1669 18.1 21.0336 18.3333 21.0336C18.9 21.0336 19.4333 21.0336 20.2 21.0002C21 20.9669 21.8333 20.9669 22.7333 20.9336C23.6333 20.9002 24.6 20.9002 25.6333 20.8669C26.6667 20.8336 27.6667 20.8336 28.6667 20.8336C31.4 20.8336 33.6667 21.1669 35.5333 21.8669C37.2 22.4336 38.7333 23.3669 40 24.6002C41.0667 25.6669 41.9 26.9669 42.4333 28.4002C42.93 29.8002 43.1967 31.2336 43.1967 32.7336C43.2 35.6002 42.5333 37.9669 41.1967 39.8336V39.8336ZM64.8333 52.8002C63.9 54.1336 62.5967 55.1636 61.1 55.7702C59.4667 56.4669 57.4667 56.8302 55.0633 56.8302C53.5333 56.8302 52.03 56.7002 50.5333 56.4002C49.3667 56.1969 48.2 55.8336 47.1333 55.3336C46.9 55.2036 46.73 54.9702 46.7633 54.7036V48.9036C46.7633 48.8069 46.8 48.6702 46.9 48.6036C46.9967 48.5369 47.1 48.5702 47.2 48.6369C48.5 49.4036 49.8667 49.9402 51.3333 50.2702C52.5967 50.6036 53.93 50.7702 55.2667 50.7702C56.5333 50.7702 57.4333 50.6002 58.0333 50.3002C58.5667 50.0669 58.9333 49.5002 58.9333 48.9002C58.9333 48.4302 58.6667 48.0002 58.1333 47.5669C57.6 47.1369 56.5033 46.6369 54.87 45.9969C53.17 45.3969 51.6067 44.5969 50.1367 43.6002C49.0936 42.8532 48.2276 41.8859 47.6 40.7669C47.0702 39.7123 46.8081 38.5435 46.8367 37.3636C46.8367 35.9302 47.2367 34.5636 47.9733 33.3302C48.8067 31.9969 50.0367 30.9302 51.47 30.2636C53.0333 29.4669 55 29.1002 57.3667 29.1002C58.7333 29.1002 60.1333 29.2002 61.5 29.4002C62.5 29.5336 63.4667 29.8002 64.3667 30.1669C64.4967 30.2002 64.6333 30.3336 64.7 30.4669C64.7333 30.6002 64.7667 30.7336 64.7667 30.8669V36.3002C64.7667 36.4336 64.7 36.5669 64.6 36.6336C64.3 36.7002 64.1333 36.7002 64 36.6336C63 36.1002 61.9333 35.7336 60.8 35.5002C59.5667 35.2336 58.3333 35.0669 57.0667 35.0669C56.4 35.0336 55.7 35.1336 55.0633 35.3002C54.6333 35.4002 54.2633 35.6336 54.03 35.9669C53.8633 36.2336 53.7633 36.5669 53.7633 36.8669C53.7633 37.1669 53.8967 37.4669 54.1 37.7336C54.4 38.1002 54.7967 38.4002 55.2333 38.6336C55.9967 39.0336 56.8 39.4002 57.5967 39.7336C59.4 40.3336 61.1333 41.1669 62.7333 42.1669C63.8333 42.8636 64.7333 43.8002 65.3633 44.9336C65.8967 45.9936 66.1633 47.1669 66.13 48.3636C66.1667 49.9336 65.7 51.4969 64.8333 52.8002V52.8002Z" fill="#281437"/>
</svg>
