<svg width="80" height="80" viewBox="0 0 80 80" fill="none" xmlns="http://www.w3.org/2000/svg">
<path d="M35.1 35.7669C34.7667 34.7336 34.4667 33.7336 34.1333 32.7002C33.8 31.6669 33.5 30.7002 33.2333 29.7336C32.9667 28.8002 32.7333 27.9336 32.5 27.1336H32.4333C32.1333 28.5669 31.7667 30.0002 31.3 31.4336C30.8 33.0336 30.3 34.7002 29.7667 36.3669C29.3 38.0669 28.8 39.6336 28.3 41.0336H36.7667C36.5667 40.3302 36.3 39.5002 36 38.6302C35.7 37.7336 35.4 36.7669 35.1 35.7669V35.7669ZM65.8333 1.00024H14.1667C6.33333 1.00024 0 7.33358 0 15.1669V64.8336C0 72.6669 6.33333 79.0003 14.1667 79.0003H65.8333C73.6667 79.0003 80 72.6669 80 64.8336V15.1669C80 7.33358 73.6667 1.00024 65.8333 1.00024ZM49 56.1002H42.03C41.8 56.1336 41.5667 55.9669 41.5 55.7336L38.7667 47.8002H26.3667L23.8333 55.6336C23.7667 55.9336 23.5 56.1336 23.2 56.1036H16.9333C16.5667 56.1036 16.4667 55.9002 16.5667 55.5036L27.3 24.6002C27.4 24.2669 27.5 23.9002 27.6333 23.5002C27.7667 22.8002 27.8333 22.0669 27.8333 21.3336C27.8 21.1669 27.9333 21.0002 28.1 20.9669H36.7333C37 20.9669 37.1333 21.0669 37.1667 21.2336L49.3333 55.5669C49.4333 55.9302 49.3333 56.1002 49 56.1002V56.1002ZM60.3333 55.6003C60.3333 55.9669 60.2033 56.1336 59.9033 56.1336H53.3667C53.0333 56.1336 52.8667 55.9303 52.8667 55.6003V29.9336C52.8667 29.6002 53.0033 29.4669 53.3033 29.4669H59.9033C60.2033 29.4669 60.3333 29.6336 60.3333 29.9336V55.6003V55.6003ZM59.6367 25.5002C58.8667 26.3002 57.7333 26.7336 56.6 26.6669C55.5 26.7002 54.4333 26.2669 53.63 25.5002C52.8633 24.6669 52.4633 23.5669 52.4967 22.4336C52.4633 21.3002 52.8967 20.2336 53.6933 19.4669C54.5 18.7002 55.5667 18.3002 56.6667 18.3002C57.97 18.3002 58.9633 18.7002 59.7 19.4669C60.4333 20.2669 60.8333 21.3336 60.8 22.4336C60.8333 23.5669 60.4333 24.6669 59.6367 25.5002V25.5002Z" fill="#281437"/>
</svg>
