<svg width="1448" height="132" viewBox="0 0 1448 132" fill="none" xmlns="http://www.w3.org/2000/svg">
<path d="M0.839844 33.2383H22.2949V88.082H32.1973V99H0.966797V88.082H10.3613V44.1562H0.839844V33.2383ZM8.13965 9.94238C8.13965 8.84212 8.35124 7.80534 8.77441 6.83203C9.23991 5.81641 9.83236 4.94889 10.5518 4.22949C11.3135 3.46777 12.2021 2.87533 13.2178 2.45215C14.2334 1.98665 15.3125 1.75391 16.4551 1.75391C17.5553 1.75391 18.5921 1.98665 19.5654 2.45215C20.5811 2.87533 21.4486 3.46777 22.168 4.22949C22.9297 4.94889 23.5221 5.81641 23.9453 6.83203C24.4108 7.80534 24.6436 8.84212 24.6436 9.94238C24.6436 11.085 24.4108 12.1641 23.9453 13.1797C23.5221 14.1953 22.9297 15.1051 22.168 15.9092C21.4486 16.6709 20.5811 17.2845 19.5654 17.75C18.5921 18.1732 17.5553 18.3848 16.4551 18.3848C15.3125 18.3848 14.2334 18.1732 13.2178 17.75C12.2021 17.2845 11.3135 16.6709 10.5518 15.9092C9.83236 15.1051 9.23991 14.1953 8.77441 13.1797C8.35124 12.1641 8.13965 11.085 8.13965 9.94238Z" fill="#222222"/>
<path d="M86.4062 88.082H95.6738V58.0576C95.6738 53.0218 94.3831 49.2132 91.8018 46.6318C89.2627 44.0081 85.6022 42.6963 80.8203 42.6963C78.0697 42.6963 75.2979 43.3522 72.5049 44.6641C69.7119 45.9759 67.0671 47.6051 64.5703 49.5518V88.082H73.8379V99H43.1152V88.082H52.2559V44.1562H43.1152V33.2383H64.0625V40.9824H64.1895C65.5859 39.7552 67.0671 38.5915 68.6328 37.4912C70.2409 36.391 71.9124 35.4388 73.6475 34.6348C75.3825 33.8307 77.181 33.196 79.043 32.7305C80.9473 32.265 82.9362 32.0322 85.0098 32.0322C88.5221 32.0322 91.696 32.5189 94.5312 33.4922C97.3665 34.4655 99.7786 35.9466 101.768 37.9355C103.757 39.9245 105.28 42.4847 106.338 45.6162C107.438 48.7054 107.988 52.3659 107.988 56.5977V88.082H117.129V99H86.4062V88.082Z" fill="#222222"/>
<path d="M130.713 0.230469H151.533V40.4746H151.914C153.099 39.2897 154.453 38.1895 155.977 37.1738C157.542 36.1159 159.172 35.2061 160.864 34.4443C162.557 33.6826 164.313 33.0902 166.133 32.667C167.952 32.2438 169.857 32.0322 171.846 32.0322C175.358 32.0322 178.532 32.5189 181.367 33.4922C184.202 34.4655 186.615 35.9466 188.604 37.9355C190.592 39.9245 192.116 42.4847 193.174 45.6162C194.274 48.7054 194.824 52.3659 194.824 56.5977V88.082H204.727V99H173.496V88.082H182.51V58.0576C182.51 53.0218 181.219 49.2132 178.638 46.6318C176.099 44.0081 172.438 42.6963 167.656 42.6963C164.948 42.6963 162.197 43.3522 159.404 44.6641C156.611 45.9336 153.988 47.5417 151.533 49.4883V88.082H161.055V99H129.824V88.082H139.727V11.1484H130.713V0.230469Z" fill="#222222"/>
<path d="M226.943 67.6426C226.943 69.5046 227.07 71.2184 227.324 72.7842C227.62 74.3076 228.022 75.7676 228.53 77.1641C230.096 81.3958 232.593 84.5908 236.021 86.749C239.491 88.8649 243.405 89.9229 247.764 89.9229C251.191 89.9229 254.513 89.4574 257.729 88.5264C260.988 87.5531 264.395 86.0508 267.949 84.0195L272.71 92.0811C268.394 95.0433 264.056 97.2438 259.697 98.6826C255.339 100.121 250.811 100.841 246.113 100.841C241.67 100.841 237.544 100.1 233.735 98.6191C229.969 97.138 226.711 94.9375 223.96 92.0176C221.252 89.0977 219.115 85.4583 217.549 81.0996C216.025 76.7409 215.264 71.6628 215.264 65.8652C215.264 61.168 215.92 56.7458 217.231 52.5986C218.543 48.4092 220.49 44.7699 223.071 41.6807C225.695 38.5492 228.932 36.0736 232.783 34.2539C236.634 32.4342 241.12 31.5244 246.24 31.5244C251.191 31.5244 255.317 32.2861 258.618 33.8096C261.961 35.2907 264.67 37.2796 266.743 39.7764C268.859 42.2308 270.446 45.0449 271.504 48.2188C272.604 51.3926 273.366 54.6299 273.789 57.9307C274.001 59.5387 274.128 61.168 274.17 62.8184C274.255 64.4688 274.297 66.0768 274.297 67.6426H226.943ZM245.415 41.4268C242.664 41.4268 240.252 41.8288 238.179 42.6328C236.147 43.3945 234.412 44.516 232.974 45.9971C231.535 47.4359 230.371 49.2132 229.482 51.3291C228.636 53.445 228.001 55.8148 227.578 58.4385H261.665C261.496 55.984 261.094 53.7201 260.459 51.6465C259.867 49.5729 258.936 47.7744 257.666 46.251C256.396 44.7275 254.767 43.5426 252.778 42.6963C250.789 41.8499 248.335 41.4268 245.415 41.4268Z" fill="#222222"/>
<path d="M301.592 67.6426C301.592 69.5046 301.719 71.2184 301.973 72.7842C302.269 74.3076 302.671 75.7676 303.179 77.1641C304.744 81.3958 307.241 84.5908 310.669 86.749C314.139 88.8649 318.053 89.9229 322.412 89.9229C325.84 89.9229 329.162 89.4574 332.378 88.5264C335.636 87.5531 339.043 86.0508 342.598 84.0195L347.358 92.0811C343.042 95.0433 338.704 97.2438 334.346 98.6826C329.987 100.121 325.459 100.841 320.762 100.841C316.318 100.841 312.192 100.1 308.384 98.6191C304.618 97.138 301.359 94.9375 298.608 92.0176C295.9 89.0977 293.763 85.4583 292.197 81.0996C290.674 76.7409 289.912 71.6628 289.912 65.8652C289.912 61.168 290.568 56.7458 291.88 52.5986C293.192 48.4092 295.138 44.7699 297.72 41.6807C300.343 38.5492 303.581 36.0736 307.432 34.2539C311.283 32.4342 315.768 31.5244 320.889 31.5244C325.84 31.5244 329.966 32.2861 333.267 33.8096C336.61 35.2907 339.318 37.2796 341.392 39.7764C343.507 42.2308 345.094 45.0449 346.152 48.2188C347.253 51.3926 348.014 54.6299 348.438 57.9307C348.649 59.5387 348.776 61.168 348.818 62.8184C348.903 64.4688 348.945 66.0768 348.945 67.6426H301.592ZM320.063 41.4268C317.313 41.4268 314.901 41.8288 312.827 42.6328C310.796 43.3945 309.061 44.516 307.622 45.9971C306.183 47.4359 305.02 49.2132 304.131 51.3291C303.285 53.445 302.65 55.8148 302.227 58.4385H336.313C336.144 55.984 335.742 53.7201 335.107 51.6465C334.515 49.5729 333.584 47.7744 332.314 46.251C331.045 44.7275 329.416 43.5426 327.427 42.6963C325.438 41.8499 322.983 41.4268 320.063 41.4268Z" fill="#222222"/>
<path d="M386.016 99L408.169 62.6914C406.053 63.5378 404.128 64.109 402.393 64.4053C400.658 64.7015 398.796 64.8496 396.807 64.8496C393.083 64.8496 389.211 64.1302 385.19 62.6914C381.213 61.2103 377.806 59.1579 374.971 56.5342C372.178 53.8682 369.85 50.6097 367.988 46.7588C366.169 42.8656 365.259 38.93 365.259 34.9521C365.259 29.5778 366.169 24.7959 367.988 20.6064C369.808 16.417 372.262 12.8835 375.352 10.0059C378.441 7.12826 382.017 4.94889 386.079 3.46777C390.184 1.94434 394.521 1.18262 399.092 1.18262C403.662 1.18262 407.915 1.94434 411.851 3.46777C415.828 4.99121 419.362 7.19173 422.451 10.0693C425.54 12.9046 427.952 16.3112 429.688 20.2891C431.465 24.2246 432.354 28.6045 432.354 33.4287C432.354 37.1527 431.634 40.8343 430.195 44.4736C428.799 48.113 427.043 51.9215 424.927 55.8994L400.806 99H386.016ZM398.774 12.2275C395.897 12.2275 393.146 12.7354 390.522 13.751C387.899 14.7666 385.592 16.2054 383.604 18.0674C381.615 19.9294 380.028 22.151 378.843 24.7324C377.658 27.3138 377.065 30.1702 377.065 33.3018C377.065 36.7718 377.7 39.8398 378.97 42.5059C380.239 45.1296 381.932 47.3301 384.048 49.1074C386.206 50.8848 388.597 52.2178 391.221 53.1064C393.887 53.9951 396.553 54.4395 399.219 54.4395C403.112 54.4395 406.117 53.974 408.232 53.043C410.391 52.0697 412.422 50.7367 414.326 49.0439C416.23 47.3089 417.733 45.1296 418.833 42.5059C419.933 39.8398 420.483 36.7718 420.483 33.3018C420.483 30.001 419.933 27.0387 418.833 24.415C417.733 21.7913 416.209 19.5908 414.263 17.8135C412.316 15.9938 410.01 14.6185 407.344 13.6875C404.72 12.7142 401.864 12.2275 398.774 12.2275Z" fill="#222222"/>
<path d="M491.069 2.76953L469.487 38.7607C472.069 37.6605 474.396 37.0257 476.47 36.8564C478.586 36.6872 480.469 36.6025 482.119 36.6025C486.012 36.6025 489.779 37.3431 493.418 38.8242C497.057 40.263 500.273 42.3154 503.066 44.9814C505.902 47.6051 508.166 50.7578 509.858 54.4395C511.551 58.0788 512.397 62.099 512.397 66.5C512.397 71.8743 511.488 76.6562 509.668 80.8457C507.848 85.0352 505.394 88.5687 502.305 91.4463C499.215 94.3239 495.618 96.5244 491.514 98.0479C487.451 99.529 483.135 100.27 478.564 100.27C474.248 100.27 470.08 99.4867 466.06 97.9209C462.082 96.3551 458.548 94.1758 455.459 91.3828C452.37 88.5475 449.894 85.1621 448.032 81.2266C446.213 77.2487 445.303 72.8477 445.303 68.0234C445.303 64.2995 446.001 60.6178 447.397 56.9785C448.836 53.3392 450.614 49.5306 452.729 45.5527L476.279 2.76953H491.069ZM477.168 47.0127C474.121 47.0127 471.519 47.4993 469.36 48.4727C467.244 49.4036 465.234 50.7367 463.33 52.4717C461.426 54.1644 459.924 56.3438 458.823 59.0098C457.723 61.6335 457.173 64.6803 457.173 68.1504C457.173 71.4512 457.723 74.4134 458.823 77.0371C459.924 79.6608 461.447 81.8825 463.394 83.7021C465.34 85.4795 467.625 86.8548 470.249 87.8281C472.915 88.7591 475.793 89.2246 478.882 89.2246C481.759 89.2246 484.51 88.7168 487.134 87.7012C489.757 86.6855 492.064 85.2467 494.053 83.3848C496.042 81.5228 497.629 79.3011 498.813 76.7197C499.998 74.1383 500.591 71.2819 500.591 68.1504C500.591 64.6803 499.956 61.6335 498.687 59.0098C497.417 56.3438 495.703 54.1221 493.545 52.3447C491.429 50.5674 488.953 49.2344 486.118 48.3457C483.283 47.457 480.299 47.0127 477.168 47.0127Z" fill="#222222"/>
<path d="M534.043 88.082H543.374V17.6865L523.887 28.2871V15.0205L550.674 0.0400391H555.752V88.082H565.21V99H534.043V88.082Z" fill="#222222"/>
<path d="M593.267 42.252C595.636 40.6439 598.07 39.4378 600.566 38.6338C603.063 37.7874 605.92 37.3643 609.136 37.3643C613.875 37.3643 618.234 38.2106 622.212 39.9033C626.19 41.596 629.596 43.8812 632.432 46.7588C635.309 49.6364 637.531 53.0007 639.097 56.8516C640.705 60.6602 641.509 64.7015 641.509 68.9756C641.509 73.292 640.726 77.3968 639.16 81.29C637.594 85.141 635.373 88.5264 632.495 91.4463C629.618 94.3662 626.147 96.6937 622.085 98.4287C618.065 100.121 613.579 100.968 608.628 100.968C604.862 100.968 601.349 100.46 598.091 99.4443C594.832 98.471 591.891 97.0957 589.268 95.3184C586.644 93.4987 584.359 91.3405 582.412 88.8438C580.508 86.347 578.984 83.6175 577.842 80.6553L588.252 75.4502C588.929 77.6084 589.924 79.6185 591.235 81.4805C592.547 83.3001 594.092 84.887 595.869 86.2412C597.646 87.5531 599.614 88.5898 601.772 89.3516C603.931 90.071 606.216 90.4307 608.628 90.4307C611.675 90.4307 614.489 89.8805 617.07 88.7803C619.694 87.6377 621.958 86.0931 623.862 84.1465C625.809 82.1999 627.332 79.9359 628.433 77.3545C629.533 74.7308 630.083 71.9378 630.083 68.9756C630.083 65.971 629.533 63.1992 628.433 60.6602C627.332 58.0788 625.809 55.8571 623.862 53.9951C621.916 52.0908 619.631 50.6097 617.007 49.5518C614.425 48.4515 611.632 47.9014 608.628 47.9014C605.243 47.9014 602.111 48.515 599.233 49.7422C596.398 50.9271 594.028 52.5352 592.124 54.5664L582.793 53.1064V2.76953H637.002V13.3066H593.267V42.252Z" fill="#222222"/>
<path d="M746.372 38.3164V80.4014C746.372 82.9827 746.732 84.9294 747.451 86.2412C748.213 87.5531 749.102 88.5264 750.117 89.1611C751.133 89.7536 752.424 90.0498 753.989 90.0498C757.121 90.0498 759.723 89.2035 761.797 87.5107C763.87 85.7757 765.521 83.7021 766.748 81.29C767.975 78.8779 768.822 76.4023 769.287 73.8633C769.795 71.2819 770.049 68.0869 770.049 64.2783C770.049 59.9619 769.435 55.7936 768.208 51.7734C766.981 47.7109 765.246 43.9023 763.003 40.3477C760.802 36.7507 758.136 33.471 755.005 30.5088C751.873 27.5042 748.382 24.944 744.531 22.8281C740.68 20.6699 736.533 18.9984 732.09 17.8135C727.646 16.6286 723.013 16.0361 718.188 16.0361C713.407 16.0361 708.794 16.6497 704.351 17.877C699.95 19.1042 695.824 20.8392 691.973 23.082C688.164 25.3249 684.673 28.012 681.499 31.1436C678.368 34.2751 675.68 37.7663 673.438 41.6172C671.237 45.4258 669.523 49.5306 668.296 53.9316C667.069 58.3327 666.455 62.903 666.455 67.6426C666.455 72.4245 667.069 77.0371 668.296 81.4805C669.523 85.8815 671.237 90.0075 673.438 93.8584C675.68 97.7093 678.368 101.201 681.499 104.332C684.673 107.464 688.164 110.151 691.973 112.394C695.824 114.636 699.95 116.371 704.351 117.599C708.794 118.826 713.407 119.439 718.188 119.439C723.055 119.439 727.752 118.784 732.28 117.472C736.808 116.202 741.04 114.382 744.976 112.013L750.942 121.979C746.16 124.898 740.998 127.141 735.454 128.707C729.953 130.315 724.198 131.119 718.188 131.119C712.349 131.119 706.72 130.357 701.304 128.834C695.887 127.353 690.83 125.237 686.133 122.486C681.436 119.736 677.14 116.414 673.247 112.521C669.396 108.67 666.095 104.396 663.345 99.6982C660.594 95.001 658.457 89.944 656.934 84.5273C655.452 79.1107 654.712 73.4824 654.712 67.6426C654.712 61.8451 655.452 56.2591 656.934 50.8848C658.457 45.4681 660.594 40.4111 663.345 35.7139C666.095 31.0166 669.396 26.7425 673.247 22.8916C677.14 19.0407 681.436 15.7399 686.133 12.9893C690.83 10.2386 695.887 8.12272 701.304 6.6416C706.72 5.11816 712.349 4.35645 718.188 4.35645C724.113 4.35645 729.784 5.09701 735.2 6.57812C740.659 8.01693 745.737 10.0482 750.435 12.6719C755.132 15.2956 759.406 18.4482 763.257 22.1299C767.108 25.8115 770.387 29.874 773.096 34.3174C775.846 38.7607 777.962 43.5215 779.443 48.5996C780.967 53.6354 781.729 58.8617 781.729 64.2783C781.729 67.1559 781.453 70.0547 780.903 72.9746C780.353 75.8945 779.528 78.6875 778.428 81.3535C777.327 84.0195 775.973 86.5163 774.365 88.8438C772.799 91.1712 770.959 93.2025 768.843 94.9375C766.769 96.6302 764.463 97.9844 761.924 99C759.385 99.9733 756.634 100.46 753.672 100.46C749.779 100.46 746.52 99.6136 743.896 97.9209C741.273 96.2282 739.22 94.0488 737.739 91.3828C735.073 93.5833 732.069 95.2972 728.726 96.5244C725.382 97.7516 721.785 98.3652 717.935 98.3652C713.491 98.3652 709.408 97.6035 705.684 96.0801C702.002 94.5143 698.807 92.3773 696.099 89.6689C693.39 86.9606 691.274 83.8079 689.751 80.2109C688.27 76.6139 687.529 72.7419 687.529 68.5947C687.529 64.4899 688.312 60.639 689.878 57.042C691.444 53.4027 693.581 50.2288 696.289 47.5205C699.04 44.8122 702.256 42.6751 705.938 41.1094C709.661 39.5013 713.66 38.6973 717.935 38.6973C721.024 38.6973 723.986 39.1204 726.821 39.9668C729.657 40.8132 732.28 42.0192 734.692 43.585V38.3164H746.372ZM717.935 86.6221C721.912 86.6221 725.34 85.7122 728.218 83.8926C731.095 82.0306 733.254 79.6396 734.692 76.7197V60.6602C733.973 59.179 733.042 57.8037 731.899 56.5342C730.799 55.2646 729.53 54.1855 728.091 53.2969C726.652 52.3659 725.065 51.6465 723.33 51.1387C721.637 50.6309 719.839 50.377 717.935 50.377C715.226 50.377 712.729 50.8636 710.444 51.8369C708.159 52.8102 706.17 54.1221 704.478 55.7725C702.827 57.4229 701.536 59.3695 700.605 61.6123C699.674 63.8128 699.209 66.1403 699.209 68.5947C699.209 71.0915 699.653 73.4401 700.542 75.6406C701.431 77.7988 702.679 79.7031 704.287 81.3535C705.938 82.9616 707.905 84.2523 710.19 85.2256C712.518 86.1566 715.099 86.6221 717.935 86.6221Z" fill="#222222"/>
<path d="M841.777 88.082H851.045V58.0576C851.045 53.0218 849.754 49.2132 847.173 46.6318C844.634 44.0081 840.973 42.6963 836.191 42.6963C833.441 42.6963 830.669 43.3522 827.876 44.6641C825.083 45.9759 822.438 47.6051 819.941 49.5518V88.082H829.209V99H798.486V88.082H807.627V44.1562H798.486V33.2383H819.434V40.9824H819.561C820.957 39.7552 822.438 38.5915 824.004 37.4912C825.612 36.391 827.284 35.4388 829.019 34.6348C830.754 33.8307 832.552 33.196 834.414 32.7305C836.318 32.265 838.307 32.0322 840.381 32.0322C843.893 32.0322 847.067 32.5189 849.902 33.4922C852.738 34.4655 855.15 35.9466 857.139 37.9355C859.128 39.9245 860.651 42.4847 861.709 45.6162C862.809 48.7054 863.359 52.3659 863.359 56.5977V88.082H872.5V99H841.777V88.082Z" fill="#222222"/>
<path d="M923.853 92.9062C921.356 95.2337 918.584 97.138 915.537 98.6191C912.533 100.1 909.105 100.841 905.254 100.841C902.038 100.841 899.076 100.333 896.367 99.3174C893.701 98.3018 891.395 96.9264 889.448 95.1914C887.502 93.4141 885.978 91.3617 884.878 89.0342C883.82 86.7067 883.291 84.2311 883.291 81.6074C883.291 78.8145 883.693 76.3389 884.497 74.1807C885.343 72.0225 886.444 70.1605 887.798 68.5947C889.194 66.9867 890.802 65.6536 892.622 64.5957C894.484 63.4954 896.41 62.6279 898.398 61.9932C900.43 61.3161 902.482 60.8506 904.556 60.5967C906.672 60.3005 908.682 60.1523 910.586 60.1523C913.633 60.1523 916.193 60.2581 918.267 60.4697C920.34 60.639 922.223 60.8929 923.916 61.2314L923.979 55.8359C923.979 53.5085 923.641 51.4984 922.964 49.8057C922.287 48.0706 921.335 46.653 920.107 45.5527C918.88 44.4102 917.399 43.5638 915.664 43.0137C913.971 42.4635 912.067 42.1885 909.951 42.1885C907.962 42.1885 906.058 42.3366 904.238 42.6328C902.419 42.8867 900.705 43.2464 899.097 43.7119C897.531 44.1351 896.071 44.6429 894.717 45.2354C893.405 45.7855 892.284 46.3779 891.353 47.0127L887.48 38.8242C889.046 37.8086 890.76 36.8776 892.622 36.0312C894.484 35.1426 896.431 34.402 898.462 33.8096C900.535 33.1748 902.63 32.6882 904.746 32.3496C906.904 31.9688 909.02 31.7783 911.094 31.7783C914.902 31.7783 918.33 32.2438 921.377 33.1748C924.424 34.0635 927.005 35.46 929.121 37.3643C931.237 39.2686 932.866 41.7018 934.009 44.6641C935.151 47.584 935.723 51.0964 935.723 55.2012L935.659 88.082H942.959V99H923.853V92.9062ZM907.856 90.9385C909.422 90.9385 910.988 90.748 912.554 90.3672C914.119 89.9863 915.601 89.4785 916.997 88.8438C918.394 88.1667 919.684 87.4049 920.869 86.5586C922.054 85.6699 923.049 84.7601 923.853 83.8291L923.916 68.9756H910.205C907.92 68.9756 905.825 69.2295 903.921 69.7373C902.059 70.2451 900.43 70.9857 899.033 71.959C897.679 72.9323 896.621 74.1383 895.859 75.5771C895.098 77.016 894.717 78.6663 894.717 80.5283C894.717 82.2633 895.034 83.7868 895.669 85.0986C896.304 86.3682 897.192 87.4473 898.335 88.3359C899.52 89.1823 900.916 89.8382 902.524 90.3037C904.132 90.7269 905.91 90.9385 907.856 90.9385Z" fill="#222222"/>
<path d="M951.211 33.2383H973.936V44.1562H967.778L984.028 89.4785L999.897 44.1562H995.898V33.2383H1016.72V44.1562H1011.07L989.551 100.016H977.871L956.416 44.1562H951.211V33.2383Z" fill="#222222"/>
<path d="M1037.29 67.6426C1037.29 69.5046 1037.41 71.2184 1037.67 72.7842C1037.96 74.3076 1038.36 75.7676 1038.87 77.1641C1040.44 81.3958 1042.93 84.5908 1046.36 86.749C1049.83 88.8649 1053.75 89.9229 1058.11 89.9229C1061.53 89.9229 1064.86 89.4574 1068.07 88.5264C1071.33 87.5531 1074.74 86.0508 1078.29 84.0195L1083.05 92.0811C1078.74 95.0433 1074.4 97.2438 1070.04 98.6826C1065.68 100.121 1061.15 100.841 1056.46 100.841C1052.01 100.841 1047.89 100.1 1044.08 98.6191C1040.31 97.138 1037.05 94.9375 1034.3 92.0176C1031.59 89.0977 1029.46 85.4583 1027.89 81.0996C1026.37 76.7409 1025.61 71.6628 1025.61 65.8652C1025.61 61.168 1026.26 56.7458 1027.57 52.5986C1028.89 48.4092 1030.83 44.7699 1033.41 41.6807C1036.04 38.5492 1039.27 36.0736 1043.12 34.2539C1046.98 32.4342 1051.46 31.5244 1056.58 31.5244C1061.53 31.5244 1065.66 32.2861 1068.96 33.8096C1072.3 35.2907 1075.01 37.2796 1077.08 39.7764C1079.2 42.2308 1080.79 45.0449 1081.85 48.2188C1082.95 51.3926 1083.71 54.6299 1084.13 57.9307C1084.34 59.5387 1084.47 61.168 1084.51 62.8184C1084.6 64.4688 1084.64 66.0768 1084.64 67.6426H1037.29ZM1055.76 41.4268C1053.01 41.4268 1050.59 41.8288 1048.52 42.6328C1046.49 43.3945 1044.75 44.516 1043.32 45.9971C1041.88 47.4359 1040.71 49.2132 1039.82 51.3291C1038.98 53.445 1038.34 55.8148 1037.92 58.4385H1072.01C1071.84 55.984 1071.44 53.7201 1070.8 51.6465C1070.21 49.5729 1069.28 47.7744 1068.01 46.251C1066.74 44.7275 1065.11 43.5426 1063.12 42.6963C1061.13 41.8499 1058.68 41.4268 1055.76 41.4268Z" fill="#222222"/>
<path d="M1148.05 47.1396H1135.99V43.0771C1134.59 43.0771 1133.16 43.3522 1131.67 43.9023C1130.24 44.4102 1128.88 45.2142 1127.61 46.3145C1126.34 47.3724 1125.22 48.7477 1124.25 50.4404C1123.32 52.0908 1122.64 54.0586 1122.22 56.3438V88.082H1133.39V99H1100.76V88.082H1109.84L1109.9 44.1562H1100.76V33.2383H1121.77V42.3154C1122.53 40.9613 1123.38 39.7129 1124.31 38.5703C1125.28 37.3854 1126.34 36.3698 1127.49 35.5234C1128.67 34.6348 1129.96 33.9577 1131.36 33.4922C1132.8 32.9844 1134.34 32.7305 1135.99 32.7305C1138.19 32.7305 1140.27 32.7305 1142.21 32.7305C1144.16 32.7305 1146.11 32.7728 1148.05 32.8574V47.1396Z" fill="#222222"/>
<path d="M1151.92 91.3193C1151.92 90.2191 1152.14 89.1823 1152.56 88.209C1153.02 87.1934 1153.64 86.3258 1154.4 85.6064C1155.16 84.8447 1156.03 84.2523 1157 83.8291C1158.02 83.3636 1159.1 83.1309 1160.24 83.1309C1161.34 83.1309 1162.38 83.3636 1163.35 83.8291C1164.37 84.2523 1165.23 84.8447 1165.95 85.6064C1166.71 86.3258 1167.31 87.1934 1167.73 88.209C1168.19 89.1823 1168.43 90.2191 1168.43 91.3193C1168.43 92.4619 1168.19 93.541 1167.73 94.5566C1167.31 95.5723 1166.71 96.4821 1165.95 97.2861C1165.23 98.0479 1164.37 98.6403 1163.35 99.0635C1162.38 99.529 1161.34 99.7617 1160.24 99.7617C1159.1 99.7617 1158.02 99.529 1157 99.0635C1156.03 98.6403 1155.16 98.0479 1154.4 97.2861C1153.64 96.4821 1153.02 95.5723 1152.56 94.5566C1152.14 93.541 1151.92 92.4619 1151.92 91.3193Z" fill="#222222"/>
<path d="M1228.6 50.7578C1226.83 47.584 1224.56 45.2565 1221.81 43.7754C1219.1 42.2943 1215.95 41.5537 1212.35 41.5537C1209.6 41.5537 1207.02 42.125 1204.61 43.2676C1202.2 44.4102 1200.08 46.0394 1198.26 48.1553C1196.48 50.2712 1195.07 52.8525 1194.01 55.8994C1192.99 58.904 1192.49 62.2682 1192.49 65.9922C1192.49 69.6738 1192.99 72.9958 1194.01 75.958C1195.07 78.9202 1196.51 81.4593 1198.33 83.5752C1200.14 85.6488 1202.24 87.2568 1204.61 88.3994C1207.02 89.4997 1209.6 90.0498 1212.35 90.0498C1216.42 90.0498 1219.95 89.0765 1222.95 87.1299C1225.96 85.141 1228.35 82.2422 1230.13 78.4336L1239.9 83.2578C1238.63 85.9661 1237.07 88.3994 1235.21 90.5576C1233.34 92.7158 1231.23 94.5566 1228.86 96.0801C1226.53 97.6035 1223.95 98.7673 1221.11 99.5713C1218.32 100.418 1215.36 100.841 1212.23 100.841C1207.66 100.841 1203.42 99.9945 1199.53 98.3018C1195.68 96.5667 1192.34 94.1546 1189.5 91.0654C1186.71 87.9762 1184.53 84.2946 1182.96 80.0205C1181.4 75.7464 1180.62 71.0703 1180.62 65.9922C1180.62 60.9141 1181.44 56.238 1183.09 51.9639C1184.74 47.6898 1187.01 44.0293 1189.88 40.9824C1192.76 37.8932 1196.12 35.4811 1199.98 33.7461C1203.83 32.0111 1207.95 31.1436 1212.35 31.1436C1216.5 31.1436 1220.42 31.863 1224.1 33.3018C1227.82 34.7406 1231.08 36.9199 1233.87 39.8398H1240.54V50.7578H1228.6Z" fill="#222222"/>
<path d="M1251.2 66.1191C1251.24 60.9141 1252.07 56.1745 1253.68 51.9004C1255.33 47.6263 1257.61 43.9658 1260.53 40.9189C1263.45 37.8298 1266.92 35.46 1270.94 33.8096C1274.96 32.1592 1279.38 31.334 1284.21 31.334C1289.08 31.334 1293.52 32.1592 1297.54 33.8096C1301.6 35.46 1305.07 37.8086 1307.95 40.8555C1310.83 43.86 1313.07 47.4993 1314.68 51.7734C1316.29 56.0475 1317.09 60.7871 1317.09 65.9922C1317.09 71.1126 1316.29 75.8311 1314.68 80.1475C1313.07 84.4215 1310.83 88.1032 1307.95 91.1924C1305.07 94.2816 1301.6 96.6937 1297.54 98.4287C1293.52 100.121 1289.08 100.968 1284.21 100.968C1279.26 100.968 1274.77 100.121 1270.75 98.4287C1266.73 96.736 1263.28 94.3662 1260.41 91.3193C1257.53 88.2301 1255.28 84.5485 1253.68 80.2744C1252.07 76.0003 1251.24 71.2819 1251.2 66.1191ZM1263.71 66.1191C1263.71 69.8854 1264.24 73.292 1265.29 76.3389C1266.39 79.3857 1267.87 81.9883 1269.74 84.1465C1271.64 86.2624 1273.82 87.9128 1276.27 89.0977C1278.77 90.2402 1281.42 90.8115 1284.21 90.8115C1287.13 90.8115 1289.84 90.2402 1292.33 89.0977C1294.87 87.9551 1297.07 86.3258 1298.94 84.21C1300.8 82.0518 1302.26 79.4492 1303.32 76.4023C1304.37 73.3555 1304.9 69.9277 1304.9 66.1191C1304.9 62.1413 1304.37 58.6077 1303.32 55.5186C1302.26 52.4294 1300.8 49.848 1298.94 47.7744C1297.12 45.7008 1294.94 44.1351 1292.4 43.0771C1289.86 42.0192 1287.13 41.4902 1284.21 41.4902C1281.42 41.4902 1278.77 42.0192 1276.27 43.0771C1273.82 44.1351 1271.64 45.7008 1269.74 47.7744C1267.87 49.848 1266.39 52.4294 1265.29 55.5186C1264.24 58.6077 1263.71 62.1413 1263.71 66.1191Z" fill="#222222"/>
<path d="M1329.91 33.2383H1350.86V40.9189H1350.99C1352.43 39.6917 1353.93 38.5492 1355.49 37.4912C1357.1 36.391 1358.77 35.4388 1360.51 34.6348C1362.24 33.8307 1364.04 33.196 1365.9 32.7305C1367.81 32.265 1369.78 32.0322 1371.81 32.0322C1376.55 32.0322 1380.63 32.9209 1384.06 34.6982C1387.49 36.4333 1390.13 39.1628 1391.99 42.8867C1393.6 41.4479 1395.29 40.0726 1397.07 38.7607C1398.85 37.4066 1400.69 36.2428 1402.59 35.2695C1404.54 34.2962 1406.57 33.5133 1408.69 32.9209C1410.8 32.3285 1413 32.0322 1415.29 32.0322C1418.84 32.0322 1422.04 32.5189 1424.87 33.4922C1427.71 34.4655 1430.12 35.9466 1432.11 37.9355C1434.1 39.9245 1435.6 42.4847 1436.62 45.6162C1437.67 48.7054 1438.2 52.3659 1438.2 56.5977V88.082H1447.34V99H1416.62V88.082H1425.89V58.0576C1425.89 53.0218 1424.62 49.2132 1422.08 46.6318C1419.54 44.0081 1415.88 42.6963 1411.1 42.6963C1408.26 42.6963 1405.36 43.3734 1402.4 44.7275C1399.44 46.0817 1396.9 47.7956 1394.79 49.8691V88.082H1403.86V99H1373.2V88.082H1382.47V58.0576C1382.47 53.0218 1381.18 49.2132 1378.6 46.6318C1376.06 44.0081 1372.4 42.6963 1367.62 42.6963C1364.87 42.6963 1362.09 43.3522 1359.3 44.6641C1356.51 45.9759 1353.86 47.6051 1351.37 49.5518V88.082H1360.63V99H1329.91V88.082H1339.05V44.1562H1329.91V33.2383Z" fill="#222222"/>
</svg>
