<svg width="1501" height="177" viewBox="0 0 1501 177" fill="none" xmlns="http://www.w3.org/2000/svg">
<path d="M0.320312 3.79739C4.00174 3.95724 8.72358 4.11709 14.4858 4.27694C20.4081 4.43679 26.2504 4.51672 32.0126 4.51672C39.6956 4.51672 46.9785 4.43679 53.8611 4.27694C60.9039 4.11709 65.8658 4.03716 68.7469 4.03716C89.0748 4.03716 104.281 8.43317 114.365 17.2252C124.449 26.0172 129.491 37.3669 129.491 51.2742C129.491 57.029 128.45 63.1035 126.369 69.4977C124.449 75.732 121.007 81.5667 116.045 87.0017C111.083 92.2769 104.361 96.593 95.8775 99.95C87.3942 103.307 76.59 104.985 63.4649 104.985H39.9357V100.19H61.0639C71.7881 100.19 79.9513 98.0317 85.5535 93.7156C91.3157 89.3995 95.1572 83.7247 97.0779 76.6911C99.1587 69.6575 100.199 62.0644 100.199 53.9118C100.199 38.7256 97.4781 27.3759 92.036 19.8628C86.5939 12.3496 77.1502 8.59302 63.705 8.59302C56.8223 8.59302 52.2605 9.95178 50.0196 12.6693C47.9388 15.3868 46.8984 20.9018 46.8984 29.2143V147.667C46.8984 153.581 47.5387 158.057 48.8192 161.094C50.0997 163.972 52.5006 165.89 56.022 166.849C59.5433 167.808 64.7454 168.368 71.628 168.528V173.563C67.3064 173.243 61.7042 173.083 54.8215 173.083C47.9388 172.924 40.8161 172.844 33.4532 172.844C27.0507 172.844 20.8883 172.924 14.966 173.083C9.20377 173.083 4.32187 173.243 0.320312 173.563V168.767C5.76243 168.448 9.84402 167.808 12.5651 166.849C15.2861 165.89 17.0468 163.972 17.8471 161.094C18.8075 158.217 19.2877 153.901 19.2877 148.146V29.2143C19.2877 23.2996 18.8075 18.9836 17.8471 16.266C17.0468 13.3887 15.2061 11.4704 12.325 10.5113C9.60392 9.39229 5.60237 8.75287 0.320312 8.59302V3.79739Z" fill="black"/>
<path d="M318.328 3.79739V8.59302C313.046 8.91272 309.044 9.87185 306.323 11.4704C303.602 13.069 301.761 15.7066 300.801 19.3832C299.84 22.9 299.36 27.9354 299.36 34.4895V103.786C299.36 114.657 298.64 124.328 297.199 132.8C295.759 141.272 293.198 148.546 289.516 154.62C285.515 161.334 279.593 166.769 271.75 170.925C264.067 174.922 254.863 176.92 244.139 176.92C236.456 176.92 229.013 176.041 221.81 174.282C214.607 172.524 208.285 169.167 202.843 164.212C198.041 159.895 194.279 155.18 191.558 150.064C188.837 144.949 186.997 138.795 186.036 131.601C185.076 124.248 184.596 115.216 184.596 104.506V29.2143C184.596 23.2996 184.116 18.9836 183.155 16.266C182.355 13.3887 180.594 11.4704 177.873 10.5113C175.152 9.39229 171.07 8.75287 165.628 8.59302V3.79739C169.31 3.95724 174.032 4.11709 179.794 4.27694C185.716 4.43679 192.039 4.51672 198.761 4.51672C204.844 4.51672 210.846 4.43679 216.768 4.27694C222.851 4.11709 227.812 3.95724 231.654 3.79739V8.59302C226.212 8.75287 222.05 9.39229 219.169 10.5113C216.448 11.4704 214.607 13.3887 213.647 16.266C212.687 18.9836 212.206 23.2996 212.206 29.2143V112.179C212.206 120.331 212.607 127.845 213.407 134.718C214.367 141.592 216.048 147.587 218.449 152.702C221.01 157.658 224.691 161.574 229.493 164.451C234.455 167.169 240.858 168.528 248.701 168.528C260.545 168.528 269.669 165.89 276.071 160.615C282.634 155.18 287.196 147.826 289.757 138.555C292.478 129.123 293.838 118.413 293.838 106.424V35.4486C293.838 28.5749 293.198 23.2996 291.917 19.623C290.637 15.9463 288.396 13.3087 285.195 11.7102C281.994 9.95178 277.432 8.91272 271.509 8.59302V3.79739C274.551 3.95724 278.472 4.11709 283.274 4.27694C288.076 4.43679 292.478 4.51672 296.479 4.51672C300.641 4.51672 304.642 4.43679 308.484 4.27694C312.485 4.11709 315.767 3.95724 318.328 3.79739Z" fill="black"/>
<path d="M357.365 3.79739C361.047 3.95724 365.769 4.11709 371.531 4.27694C377.453 4.43679 383.295 4.51672 389.058 4.51672C396.741 4.51672 404.023 4.43679 410.906 4.27694C417.949 4.11709 422.911 4.03716 425.792 4.03716C443.719 4.03716 457.084 7.55396 465.888 14.5876C474.851 21.6212 479.333 30.653 479.333 41.6829C479.333 47.2778 477.972 52.8728 475.251 58.4677C472.69 63.9027 468.449 68.8582 462.526 73.3342C456.604 77.6502 448.761 81.0871 438.997 83.6448V84.1243C452.442 85.563 463.006 88.4404 470.689 92.7565C478.372 97.0726 483.815 102.268 487.016 108.342C490.217 114.257 491.818 120.491 491.818 127.045C491.818 136.477 489.417 144.709 484.615 151.743C479.813 158.617 472.85 163.972 463.727 167.808C454.763 171.645 443.959 173.563 431.314 173.563C427.793 173.563 422.431 173.483 415.228 173.323C408.185 173.004 399.622 172.844 389.538 172.844C383.456 172.844 377.453 172.924 371.531 173.083C365.769 173.083 361.047 173.243 357.365 173.563V168.767C362.807 168.448 366.889 167.808 369.61 166.849C372.331 165.89 374.092 163.972 374.892 161.094C375.853 158.217 376.333 153.901 376.333 148.146V29.2143C376.333 23.2996 375.853 18.9836 374.892 16.266C374.092 13.3887 372.251 11.4704 369.37 10.5113C366.649 9.39229 362.647 8.75287 357.365 8.59302V3.79739ZM420.75 8.59302C413.867 8.59302 409.306 9.95178 407.065 12.6693C404.984 15.3868 403.943 20.9018 403.943 29.2143V148.146C403.943 153.741 404.424 157.977 405.384 160.855C406.344 163.732 408.025 165.65 410.426 166.609C412.987 167.568 416.668 168.048 421.47 168.048C435.876 168.048 446.28 164.451 452.682 157.258C459.245 149.905 462.526 139.514 462.526 126.086C462.526 113.777 459.245 104.266 452.682 97.5521C446.28 90.8382 435.636 87.4813 420.75 87.4813H397.461C397.461 87.4813 397.461 86.8419 397.461 85.563C397.461 84.1244 397.461 83.405 397.461 83.405H418.109C426.912 83.405 433.715 81.6466 438.517 78.1298C443.319 74.4531 446.6 69.6575 448.361 63.7429C450.121 57.6684 451.002 51.1943 451.002 44.3205C451.002 32.4913 448.681 23.6194 444.039 17.7047C439.397 11.6303 431.634 8.59302 420.75 8.59302Z" fill="black"/>
<path d="M599.334 3.79739V8.59302C593.892 8.75287 589.731 9.39229 586.85 10.5113C584.129 11.4704 582.288 13.3887 581.327 16.266C580.367 18.9836 579.887 23.2996 579.887 29.2143V149.105C579.887 154.54 580.287 158.617 581.087 161.334C582.048 164.052 583.808 165.89 586.369 166.849C589.091 167.648 592.932 168.048 597.894 168.048H613.5C620.383 168.048 626.145 167.089 630.787 165.171C635.589 163.252 639.59 160.375 642.791 156.539C645.993 152.702 648.474 147.746 650.234 141.672C651.995 135.598 653.356 128.484 654.316 120.331H659.838C659.358 125.447 659.118 132.161 659.118 140.473C659.118 143.67 659.198 148.386 659.358 154.62C659.678 160.695 660.158 167.009 660.798 173.563C652.635 173.243 643.432 173.083 633.188 173.083C622.944 172.924 613.82 172.844 605.817 172.844C602.136 172.844 597.414 172.844 591.651 172.844C585.889 172.844 579.647 172.924 572.924 173.083C566.362 173.083 559.639 173.163 552.756 173.323C546.034 173.323 539.551 173.403 533.309 173.563V168.767C538.751 168.448 542.833 167.808 545.554 166.849C548.275 165.89 550.035 163.972 550.836 161.094C551.796 158.217 552.276 153.901 552.276 148.146V29.2143C552.276 23.2996 551.796 18.9836 550.836 16.266C550.035 13.3887 548.195 11.4704 545.313 10.5113C542.592 9.39229 538.591 8.75287 533.309 8.59302V3.79739C536.99 3.95724 541.712 4.11709 547.474 4.27694C553.397 4.43679 559.719 4.51672 566.442 4.51672C572.524 4.51672 578.526 4.43679 584.449 4.27694C590.531 4.11709 595.493 3.95724 599.334 3.79739Z" fill="black"/>
<path d="M765.888 3.79739V8.59302C760.606 8.75287 756.604 9.39229 753.883 10.5113C751.162 11.4704 749.321 13.3887 748.361 16.266C747.401 18.9836 746.921 23.2996 746.921 29.2143V148.146C746.921 153.901 747.401 158.217 748.361 161.094C749.321 163.972 751.162 165.89 753.883 166.849C756.604 167.808 760.606 168.448 765.888 168.767V173.563C762.046 173.243 757.165 173.083 751.242 173.083C745.48 172.924 739.558 172.844 733.475 172.844C726.753 172.844 720.43 172.924 714.508 173.083C708.746 173.083 704.024 173.243 700.342 173.563V168.767C705.785 168.448 709.866 167.808 712.587 166.849C715.308 165.89 717.069 163.972 717.869 161.094C718.83 158.217 719.31 153.901 719.31 148.146V29.2143C719.31 23.2996 718.83 18.9836 717.869 16.266C717.069 13.3887 715.228 11.4704 712.347 10.5113C709.626 9.39229 705.624 8.75287 700.342 8.59302V3.79739C704.024 3.95724 708.746 4.11709 714.508 4.27694C720.43 4.43679 726.753 4.51672 733.475 4.51672C739.558 4.51672 745.48 4.43679 751.242 4.27694C757.165 4.11709 762.046 3.95724 765.888 3.79739Z" fill="black"/>
<path d="M862.786 0.919991C871.27 0.919991 877.752 1.87913 882.234 3.79739C886.716 5.71564 890.637 7.79374 893.998 10.0317C895.919 11.1507 897.44 12.0299 898.56 12.6693C899.841 13.1489 901.041 13.3887 902.162 13.3887C903.762 13.3887 904.883 12.5095 905.523 10.7511C906.323 8.99265 906.963 6.35505 907.444 2.83826H912.966C912.806 5.71564 912.566 9.15251 912.246 13.1489C912.085 16.9854 911.925 22.1007 911.765 28.4949C911.765 34.8891 911.765 43.2815 911.765 53.672H906.243C905.763 45.8392 904.002 38.2461 900.961 30.8927C898.08 23.5394 893.758 17.5449 887.996 12.9091C882.394 8.2733 875.191 5.95541 866.388 5.95541C858.224 5.95541 851.422 8.43316 845.98 13.3887C840.698 18.1843 838.057 24.5785 838.057 32.5712C838.057 39.6048 839.817 45.5195 843.339 50.3151C846.86 54.9509 851.662 59.3469 857.744 63.5031C863.987 67.4995 871.029 71.9754 878.873 76.9309C886.876 82.0462 894.078 87.1616 900.481 92.2769C906.883 97.2324 911.925 102.747 915.607 108.822C919.288 114.896 921.129 122.25 921.129 130.882C921.129 141.272 918.648 149.905 913.686 156.778C908.884 163.492 902.402 168.528 894.238 171.885C886.075 175.242 877.112 176.92 867.348 176.92C858.385 176.92 851.262 175.961 845.98 174.043C840.698 172.124 836.216 170.126 832.535 168.048C829.013 165.81 826.292 164.691 824.371 164.691C822.771 164.691 821.57 165.57 820.77 167.329C820.13 169.087 819.569 171.725 819.089 175.242H813.567C813.887 171.725 814.047 167.648 814.047 163.013C814.207 158.217 814.287 151.983 814.287 144.31C814.447 136.637 814.528 126.965 814.528 115.296H820.05C820.69 125.207 822.451 134.479 825.332 143.111C828.373 151.743 832.935 158.697 839.017 163.972C845.259 169.087 853.503 171.645 863.747 171.645C869.189 171.645 874.231 170.606 878.873 168.528C883.514 166.449 887.276 163.172 890.157 158.697C893.038 154.221 894.479 148.466 894.479 141.432C894.479 134.878 892.878 129.123 889.677 124.168C886.636 119.212 882.314 114.657 876.712 110.5C871.27 106.184 864.867 101.788 857.504 97.3124C849.981 92.5167 842.939 87.7211 836.376 82.9254C829.813 78.1298 824.531 72.5349 820.53 66.1407C816.688 59.7465 814.768 52.1534 814.768 43.3614C814.768 33.6103 817.008 25.6175 821.49 19.3832C826.132 13.1489 832.054 8.51309 839.257 5.47585C846.62 2.43861 854.463 0.919991 862.786 0.919991Z" fill="black"/>
<path d="M1066.55 173.563V168.767C1071.99 168.448 1076.07 167.808 1078.8 166.849C1081.52 165.89 1083.28 163.972 1084.08 161.094C1085.04 158.217 1085.52 153.901 1085.52 148.146V29.2143C1085.52 23.2996 1085.04 18.9836 1084.08 16.266C1083.28 13.3887 1081.44 11.4704 1078.56 10.5113C1075.83 9.39229 1071.83 8.75287 1066.55 8.59302V3.79739C1070.55 3.95724 1075.51 4.11709 1081.44 4.27694C1087.52 4.43679 1093.52 4.51672 1099.44 4.51672C1106.17 4.51672 1112.41 4.43679 1118.17 4.27694C1123.93 4.11709 1128.57 3.95724 1132.1 3.79739V8.59302C1126.81 8.75287 1122.81 9.39229 1120.09 10.5113C1117.37 11.4704 1115.53 13.3887 1114.57 16.266C1113.61 18.9836 1113.13 23.2996 1113.13 29.2143V148.146C1113.13 153.901 1113.61 158.217 1114.57 161.094C1115.53 163.972 1117.37 165.89 1120.09 166.849C1122.81 167.808 1126.81 168.448 1132.1 168.767V173.563C1128.57 173.243 1123.93 173.083 1118.17 173.083C1112.41 172.924 1106.17 172.844 1099.44 172.844C1093.52 172.844 1087.52 172.924 1081.44 173.083C1075.51 173.083 1070.55 173.243 1066.55 173.563ZM965.711 173.563V168.767C971.153 168.448 975.235 167.808 977.956 166.849C980.677 165.89 982.438 163.972 983.238 161.094C984.198 158.217 984.679 153.901 984.679 148.146V29.2143C984.679 23.2996 984.198 18.9836 983.238 16.266C982.438 13.3887 980.597 11.4704 977.716 10.5113C974.995 9.39229 970.993 8.75287 965.711 8.59302V3.79739C969.393 3.95724 974.115 4.11709 979.877 4.27694C985.799 4.43679 992.122 4.51672 998.844 4.51672C1004.93 4.51672 1010.85 4.43679 1016.61 4.27694C1022.53 4.11709 1027.42 3.95724 1031.26 3.79739V8.59302C1025.97 8.75287 1021.97 9.39229 1019.25 10.5113C1016.53 11.4704 1014.69 13.3887 1013.73 16.266C1012.77 18.9836 1012.29 23.2996 1012.29 29.2143V148.146C1012.29 153.901 1012.77 158.217 1013.73 161.094C1014.69 163.972 1016.53 165.89 1019.25 166.849C1021.97 167.808 1025.97 168.448 1031.26 168.767V173.563C1027.42 173.243 1022.53 173.083 1016.61 173.083C1010.85 172.924 1004.93 172.844 998.844 172.844C992.122 172.844 985.799 172.924 979.877 173.083C974.115 173.083 969.393 173.243 965.711 173.563ZM1001.49 90.5985V85.8028H1096.32V90.5985H1001.49Z" fill="black"/>
<path d="M1297.64 3.79739C1297 9.87186 1296.52 15.7865 1296.2 21.5413C1296.04 27.1362 1295.96 31.4522 1295.96 34.4895C1295.96 37.5267 1296.04 40.4041 1296.2 43.1216C1296.36 45.8392 1296.52 48.0771 1296.68 49.8355H1291.15C1290.03 39.6048 1288.27 31.5322 1285.87 25.6175C1283.63 19.7029 1280.19 15.5467 1275.55 13.1489C1271.07 10.5912 1264.74 9.31236 1256.58 9.31236H1240.01C1234.89 9.31236 1230.97 9.79192 1228.25 10.7511C1225.69 11.5503 1223.93 13.3087 1222.97 16.0263C1222.01 18.5839 1221.53 22.6602 1221.53 28.2551V149.105C1221.53 154.54 1222.01 158.617 1222.97 161.334C1223.93 164.052 1225.69 165.89 1228.25 166.849C1230.97 167.648 1234.89 168.048 1240.01 168.048H1255.62C1264.74 168.048 1271.95 166.609 1277.23 163.732C1282.67 160.855 1286.75 156.139 1289.47 149.585C1292.35 143.031 1294.52 134.079 1295.96 122.729H1301.48C1301 127.365 1300.76 133.44 1300.76 140.953C1300.76 144.15 1300.84 148.786 1301 154.86C1301.32 160.935 1301.8 167.169 1302.44 173.563C1294.28 173.243 1285.07 173.083 1274.83 173.083C1264.58 172.924 1255.46 172.844 1247.46 172.844C1243.78 172.844 1239.05 172.844 1233.29 172.844C1227.53 172.844 1221.29 172.924 1214.56 173.083C1208 173.083 1201.28 173.163 1194.4 173.323C1187.67 173.323 1181.19 173.403 1174.95 173.563V168.767C1180.39 168.448 1184.47 167.808 1187.19 166.849C1189.91 165.89 1191.68 163.972 1192.48 161.094C1193.44 158.217 1193.92 153.901 1193.92 148.146V29.2143C1193.92 23.2996 1193.44 18.9836 1192.48 16.266C1191.68 13.3887 1189.83 11.4704 1186.95 10.5113C1184.23 9.39229 1180.23 8.75287 1174.95 8.59302V3.79739C1181.19 3.95724 1187.67 4.11709 1194.4 4.27694C1201.28 4.27694 1208 4.35687 1214.56 4.51672C1221.29 4.51672 1227.53 4.51672 1233.29 4.51672C1239.05 4.51672 1243.78 4.51672 1247.46 4.51672C1254.82 4.51672 1263.14 4.51672 1272.43 4.51672C1281.87 4.35687 1290.27 4.11709 1297.64 3.79739ZM1257.78 85.8028C1257.78 85.8028 1257.78 86.6021 1257.78 88.2006C1257.78 89.7992 1257.78 90.5985 1257.78 90.5985H1214.32C1214.32 90.5985 1214.32 89.7992 1214.32 88.2006C1214.32 86.6021 1214.32 85.8028 1214.32 85.8028H1257.78ZM1264.74 54.1516C1264.1 63.2633 1263.78 70.217 1263.78 75.0126C1263.94 79.8083 1264.02 84.2043 1264.02 88.2006C1264.02 92.197 1264.1 96.593 1264.26 101.389C1264.42 106.184 1264.82 113.138 1265.46 122.25H1259.94C1259.14 116.974 1258.1 111.939 1256.82 107.143C1255.54 102.188 1253.22 98.1916 1249.86 95.1543C1246.66 92.1171 1241.61 90.5985 1234.73 90.5985V85.8028C1239.85 85.8028 1243.86 84.7638 1246.74 82.6857C1249.78 80.6075 1252.1 77.89 1253.7 74.5331C1255.3 71.1761 1256.42 67.7392 1257.06 64.2224C1257.86 60.5458 1258.58 57.1888 1259.22 54.1516H1264.74Z" fill="black"/>
<path d="M1347.14 3.79739C1350.82 3.95724 1355.54 4.11709 1361.31 4.27694C1367.23 4.43679 1373.07 4.51672 1378.83 4.51672C1386.52 4.51672 1393.8 4.43679 1400.68 4.27694C1407.72 4.11709 1412.69 4.03716 1415.57 4.03716C1429.17 4.03716 1440.46 5.79556 1449.42 9.31236C1458.54 12.8292 1465.27 17.7847 1469.59 24.1789C1474.07 30.4132 1476.31 37.6066 1476.31 45.7592C1476.31 50.7147 1475.27 55.9899 1473.19 61.5848C1471.27 67.0199 1467.83 72.1353 1462.87 76.9309C1457.9 81.5667 1451.18 85.4032 1442.7 88.4404C1434.21 91.4777 1423.41 92.9963 1410.29 92.9963H1387.24V88.2006H1407.88C1418.61 88.2006 1426.77 86.4422 1432.37 82.9254C1438.14 79.2488 1441.98 74.4531 1443.9 68.5385C1445.98 62.464 1447.02 55.7501 1447.02 48.3968C1447.02 35.7683 1444.3 26.0172 1438.86 19.1434C1433.41 12.1098 1423.97 8.59302 1410.53 8.59302C1403.64 8.59302 1399.08 9.95178 1396.84 12.6693C1394.76 15.3868 1393.72 20.9018 1393.72 29.2143V148.146C1393.72 153.901 1394.2 158.217 1395.16 161.094C1396.12 163.972 1397.96 165.89 1400.68 166.849C1403.4 167.808 1407.4 168.448 1412.69 168.767V173.563C1408.84 173.243 1403.96 173.083 1398.04 173.083C1392.28 172.924 1386.36 172.844 1380.27 172.844C1373.55 172.844 1367.23 172.924 1361.31 173.083C1355.54 173.083 1350.82 173.243 1347.14 173.563V168.767C1352.58 168.448 1356.66 167.808 1359.39 166.849C1362.11 165.89 1363.87 163.972 1364.67 161.094C1365.63 158.217 1366.11 153.901 1366.11 148.146V29.2143C1366.11 23.2996 1365.63 18.9836 1364.67 16.266C1363.87 13.3887 1362.03 11.4704 1359.15 10.5113C1356.42 9.39229 1352.42 8.75287 1347.14 8.59302V3.79739ZM1387.72 88.92C1395.88 89.2397 1402.44 89.6393 1407.4 90.1189C1412.37 90.4386 1416.53 90.7583 1419.89 91.078C1423.25 91.3977 1426.37 91.7974 1429.25 92.2769C1441.26 93.8755 1449.98 97.0726 1455.42 101.868C1461.02 106.664 1464.87 114.017 1466.95 123.928L1472.95 148.386C1474.39 155.26 1475.91 160.135 1477.51 163.013C1479.27 165.89 1481.83 167.329 1485.19 167.329C1487.76 167.169 1489.84 166.449 1491.44 165.171C1493.2 163.732 1495.04 161.814 1496.96 159.416L1500.32 162.053C1496.64 167.009 1492.8 170.766 1488.8 173.323C1484.79 175.721 1479.43 176.92 1472.71 176.92C1465.83 176.92 1459.9 175.162 1454.94 171.645C1450.14 167.968 1446.7 161.094 1444.62 151.024L1439.82 127.045C1438.38 120.172 1436.78 114.257 1435.01 109.301C1433.25 104.186 1430.77 100.19 1427.57 97.3124C1424.53 94.435 1420.05 92.9963 1414.13 92.9963H1388.2L1387.72 88.92Z" fill="black"/>
</svg>
