<svg width="562" height="171" viewBox="0 0 562 171" fill="none" xmlns="http://www.w3.org/2000/svg">
<path d="M224.68 0.787994V5.56327C221.498 6.35915 218.078 8.50802 214.419 12.0099C210.76 15.3526 207.658 21.0033 205.113 28.9621L161.206 170.788C160.569 170.788 159.853 170.788 159.058 170.788C158.422 170.788 157.785 170.788 157.149 170.788C156.354 170.788 155.638 170.788 155.001 170.788C154.365 170.788 153.729 170.788 153.092 170.788L102.504 20.1279C100.595 14.2384 98.3677 10.4181 95.8224 8.6672C93.4361 6.75709 91.1294 5.72244 88.9022 5.56327V0.787994C92.243 0.947168 96.3792 1.10634 101.311 1.26551C106.242 1.42469 111.015 1.50427 115.628 1.50427C122.151 1.50427 128.196 1.42469 133.764 1.26551C139.491 1.10634 144.025 0.947168 147.365 0.787994V5.56327C142.593 5.72244 138.775 6.27956 135.911 7.23461C133.207 8.03049 131.616 9.78143 131.139 12.4874C130.821 15.1934 131.616 19.5708 133.525 25.6194L168.603 133.541L164.546 138.794L194.613 44.0043C197.795 34.1354 199.227 26.4949 198.908 21.0829C198.749 15.5118 196.92 11.612 193.42 9.38349C190.079 6.99585 185.148 5.72244 178.625 5.56327V0.787994C183.398 0.947168 188.17 1.10634 192.943 1.26551C197.715 1.42469 202.329 1.50427 206.783 1.50427C210.76 1.50427 214.101 1.42469 216.805 1.26551C219.669 1.10634 222.294 0.947168 224.68 0.787994ZM56.6879 0.787994V5.56327C52.8699 5.88161 50.1655 6.83667 48.5746 8.42843C46.9838 9.86102 46.1884 12.0099 46.1884 14.8751C46.3475 17.5811 47.1429 21.1625 48.5746 25.6194L85.5615 136.167L79.3572 143.091L111.81 42.0942L115.39 48.0633L76.4938 170.788C75.8574 170.788 75.2211 170.788 74.5847 170.788C73.9484 170.788 73.2325 170.788 72.4371 170.788C71.8008 170.788 71.0849 170.788 70.2895 170.788C69.6532 170.788 69.0168 170.788 68.3805 170.788L16.8375 20.8442C14.7694 14.7955 12.2241 10.8161 9.20149 8.90596C6.1789 6.83667 3.39494 5.72244 0.849609 5.56327V0.787994C4.66761 0.947168 9.20149 1.10634 14.4512 1.26551C19.701 1.42469 24.7917 1.50427 29.7232 1.50427C35.4502 1.50427 40.6205 1.42469 45.2339 1.26551C50.0064 1.10634 53.8244 0.947168 56.6879 0.787994Z" fill="black"/>
<path d="M379.018 0.787994C378.382 6.83668 377.905 12.7262 377.586 18.4565C377.427 24.0277 377.348 28.3254 377.348 31.3498C377.348 34.3741 377.427 37.2393 377.586 39.9453C377.745 42.6513 377.904 44.8798 378.064 46.6307H372.575C371.462 36.4434 369.712 28.405 367.325 22.5155C365.098 16.626 361.678 12.4874 357.065 10.0998C352.61 7.55296 346.326 6.27955 338.213 6.27955H321.748C316.657 6.27955 312.76 6.75708 310.055 7.71214C307.51 8.50802 305.76 10.259 304.806 12.965C303.851 15.5118 303.374 19.5708 303.374 25.1419V145.479C303.374 150.891 303.851 154.95 304.806 157.656C305.76 160.362 307.51 162.192 310.055 163.148C312.76 163.943 316.657 164.341 321.748 164.341H337.259C346.326 164.341 353.485 162.909 358.735 160.044C364.144 157.178 368.2 152.483 370.905 145.957C373.768 139.43 375.916 130.516 377.348 119.215H382.836C382.359 123.831 382.12 129.88 382.12 137.361C382.12 140.545 382.2 145.161 382.359 151.209C382.677 157.258 383.154 163.466 383.791 169.833C375.677 169.515 366.53 169.355 356.349 169.355C346.167 169.196 337.1 169.117 329.145 169.117C325.487 169.117 320.794 169.117 315.067 169.117C309.34 169.117 303.135 169.196 296.454 169.355C289.931 169.355 283.25 169.435 276.409 169.594C269.728 169.594 263.285 169.674 257.081 169.833V165.058C262.49 164.739 266.546 164.103 269.251 163.148C271.955 162.192 273.705 160.282 274.5 157.417C275.455 154.552 275.932 150.254 275.932 144.524V26.097C275.932 20.2075 275.455 15.9097 274.5 13.2037C273.705 10.3385 271.875 8.42843 269.012 7.47338C266.308 6.35914 262.33 5.72244 257.081 5.56327V0.787994C263.285 0.947168 269.728 1.10634 276.409 1.26551C283.25 1.26551 289.931 1.3451 296.454 1.50427C303.135 1.50427 309.34 1.50427 315.067 1.50427C320.794 1.50427 325.487 1.50427 329.145 1.50427C336.463 1.50427 344.736 1.50427 353.962 1.50427C363.348 1.3451 371.7 1.10634 379.018 0.787994ZM339.406 82.4453C339.406 82.4453 339.406 83.2412 339.406 84.8329C339.406 86.4247 339.406 87.2206 339.406 87.2206H296.215C296.215 87.2206 296.215 86.4247 296.215 84.8329C296.215 83.2412 296.215 82.4453 296.215 82.4453H339.406ZM346.326 50.9284C345.69 60.0015 345.372 66.9256 345.372 71.7009C345.531 76.4762 345.611 80.8535 345.611 84.8329C345.611 88.8123 345.69 93.1897 345.849 97.965C346.008 102.74 346.406 109.664 347.042 118.737H341.554C340.759 113.485 339.724 108.471 338.452 103.695C337.179 98.7608 334.872 94.7814 331.532 91.7571C328.35 88.7328 323.339 87.2206 316.498 87.2206V82.4453C321.589 82.4453 325.566 81.4106 328.43 79.3414C331.452 77.2721 333.759 74.5661 335.35 71.2234C336.941 67.8807 338.054 64.4584 338.69 60.9565C339.486 57.2955 340.202 53.9528 340.838 50.9284H346.326Z" fill="black"/>
<path d="M428.22 0.787994C431.879 0.947168 436.571 1.10634 442.298 1.26551C448.185 1.42469 453.991 1.50427 459.718 1.50427C467.354 1.50427 474.592 1.42469 481.433 1.26551C488.433 1.10634 493.364 1.02675 496.228 1.02675C514.045 1.02675 527.328 4.52863 536.078 11.5324C544.987 18.5361 549.441 27.5296 549.441 38.5127C549.441 44.0839 548.089 49.655 545.384 55.2262C542.839 60.6382 538.623 65.5726 532.737 70.0296C526.851 74.3273 519.056 77.7496 509.352 80.2964V80.7739C522.715 82.2065 533.215 85.0717 540.851 89.3695C548.487 93.6672 553.895 98.8404 557.077 104.889C560.259 110.779 561.85 116.986 561.85 123.513C561.85 132.904 559.463 141.102 554.691 148.105C549.918 154.95 542.998 160.282 533.93 164.103C525.022 167.923 514.284 169.833 501.716 169.833C498.216 169.833 492.887 169.753 485.728 169.594C478.729 169.276 470.218 169.117 460.195 169.117C454.15 169.117 448.185 169.196 442.298 169.355C436.571 169.355 431.879 169.515 428.22 169.833V165.058C433.628 164.739 437.685 164.103 440.389 163.148C443.094 162.192 444.844 160.282 445.639 157.417C446.594 154.552 447.071 150.254 447.071 144.524V26.097C447.071 20.2075 446.594 15.9097 445.639 13.2037C444.844 10.3385 443.014 8.42843 440.151 7.47338C437.446 6.35914 433.469 5.72244 428.22 5.56327V0.787994ZM491.217 5.56327C484.376 5.56327 479.842 6.91626 477.615 9.62226C475.547 12.3282 474.513 17.8198 474.513 26.097V144.524C474.513 150.095 474.99 154.313 475.945 157.178C476.899 160.044 478.569 161.954 480.956 162.909C483.501 163.864 487.16 164.341 491.932 164.341C506.25 164.341 516.59 160.76 522.954 153.597C529.476 146.275 532.737 135.928 532.737 122.558C532.737 110.301 529.476 100.83 522.954 94.1447C516.59 87.4593 506.011 84.1166 491.217 84.1166H468.07C468.07 84.1166 468.07 83.4799 468.07 82.2065C468.07 80.774 468.07 80.0577 468.07 80.0577H488.592C497.341 80.0577 504.102 78.3067 508.875 74.8048C513.647 71.1438 516.909 66.3685 518.658 60.479C520.408 54.4303 521.283 47.9837 521.283 41.1391C521.283 29.3601 518.977 20.5258 514.363 14.6363C509.75 8.58761 502.034 5.56327 491.217 5.56327Z" fill="black"/>
</svg>
