<svg width="105" height="105" viewBox="0 0 105 105" fill="none" xmlns="http://www.w3.org/2000/svg">
<path d="M45.9375 11.7006L46.8635 10.543C47.3424 11.011 47.9106 11.3777 48.5343 11.6211C49.158 11.8645 49.8244 11.9798 50.4937 11.9599C52.1791 11.8766 53.156 10.9783 53.0912 9.71423C53.0264 8.45018 52.0726 8.02419 50.8317 7.53802L48.9286 6.82496C47.7063 6.36194 46.2385 5.53775 46.1505 3.65787C46.0486 1.6715 47.697 0.143521 50.0353 0.0231352C50.7413 -0.0164979 51.4482 0.0860278 52.1139 0.324635C52.7796 0.563242 53.3906 0.933074 53.9108 1.41221L53.1051 2.49105C52.2865 1.75411 51.2094 1.37122 50.1093 1.4261C48.6508 1.50481 47.7387 2.28732 47.7942 3.44951C47.8544 4.69505 49.0027 5.11177 50.026 5.48219L51.9151 6.18136C53.4385 6.75551 54.6424 7.57043 54.7442 9.48735C54.8461 11.5293 53.244 13.2286 50.577 13.3675C49.7305 13.4245 48.8814 13.3058 48.083 13.019C47.2846 12.7321 46.5542 12.2833 45.9375 11.7006V11.7006Z" fill="#7653A2"/>
<path d="M57.8505 6.75088C58.7488 2.67627 61.6797 0.731568 64.8746 1.4261C65.5267 1.57198 66.1407 1.85351 66.6768 2.25239C67.2129 2.65127 67.659 3.15855 67.9861 3.74123L66.9026 4.59319C66.6659 4.14978 66.3367 3.76239 65.9373 3.45724C65.5378 3.15209 65.0775 2.93629 64.5875 2.82444C62.1983 2.29659 60.1888 3.91254 59.4942 7.05648C58.7997 10.2004 59.8693 12.5618 62.2724 13.0758C62.8359 13.1934 63.4185 13.1855 63.9786 13.0527C64.5388 12.9199 65.0628 12.6653 65.5135 12.3072L66.171 13.4971C65.5797 13.9702 64.8883 14.3024 64.1494 14.4685C63.4105 14.6345 62.6435 14.6301 61.9066 14.4556C58.7765 13.7796 56.9569 10.8394 57.8505 6.75088Z" fill="#7653A2"/>
<path d="M73.8804 4.5932L77.4411 6.51012C79.7562 7.75566 80.9554 9.48274 79.6821 11.8534C78.7283 13.6175 77.1401 14.1222 75.3899 13.6592L75.6214 20.1971L73.9916 19.3405L73.8295 13.0388L71.7876 11.9368L69.19 16.7568L67.75 15.979L73.8804 4.5932ZM74.3435 11.784C76.1261 12.7424 77.4874 12.5572 78.2792 11.0848C79.0709 9.61238 78.3949 8.53354 76.6169 7.57045L74.7093 6.54716L72.4404 10.7607L74.3435 11.784Z" fill="#7653A2"/>
<path d="M81.238 16.3309C84.1782 13.4231 87.5629 13.2703 89.8364 15.5715C92.1098 17.8727 91.92 21.2574 88.9751 24.1652C86.0303 27.073 82.6039 27.2814 80.3259 24.9663C78.0478 22.6511 78.2978 19.234 81.238 16.3309ZM87.8037 22.9753C90.1188 20.7018 90.4429 18.2154 88.8224 16.5763C87.2018 14.9371 84.7153 15.2427 82.4141 17.5023C80.1129 19.7619 79.71 22.2992 81.3399 23.9522C82.9697 25.6052 85.5117 25.2394 87.8037 22.9753Z" fill="#7653A2"/>
<path d="M96.9105 24.7347L97.693 26.1655L87.5898 31.7218L90.2939 36.6576L89.0761 37.3244L85.5664 30.9393L96.9105 24.7347Z" fill="#7653A2"/>
<path d="M102.204 35.9816L102.63 37.5652L91.517 40.5517L92.9755 45.9922L91.6328 46.3487L89.7344 39.32L102.204 35.9816Z" fill="#7653A2"/>
<path d="M104.931 53.947L104.579 57.165C104.148 61.1007 101.606 62.9667 97.5316 62.5222C93.457 62.0777 91.3086 59.6931 91.7299 55.8361L92.0864 52.5486L104.931 53.947ZM93.0819 55.7713C92.7532 58.7995 94.471 60.4895 97.7122 60.8414C100.953 61.1933 102.93 59.9154 103.268 56.8825L103.426 55.4287L93.2394 54.3174L93.0819 55.7713Z" fill="#7653A2"/>
<path d="M96.6427 66.0967C100.421 67.7775 101.796 70.8751 100.477 73.8292C99.1569 76.7833 95.9389 77.839 92.1421 76.1443C88.3453 74.4497 86.9284 71.3335 88.2434 68.3794C89.5584 65.4253 92.8644 64.4113 96.6427 66.0967ZM92.8413 74.6302C95.8 75.9452 98.2401 75.3572 99.1754 73.2412C100.111 71.1252 98.9208 68.9304 95.962 67.6108C93.0033 66.2912 90.5076 66.8422 89.5631 68.9628C88.6185 71.0835 89.9011 73.3199 92.8413 74.6302V74.6302Z" fill="#7653A2"/>
<path d="M95.2906 83.3999L94.1377 84.6038L88.1184 80.719C86.9423 79.9365 85.757 79.1633 84.5809 78.4039L84.53 78.4549C85.331 79.6309 86.1135 80.8209 86.9007 82.0109L90.753 88.1598L89.7205 89.2433L83.3956 85.6734C82.1871 84.9511 80.9739 84.2056 79.7516 83.4509L79.6914 83.5111C80.5402 84.6655 81.3737 85.8061 82.1917 86.9328L86.3589 92.7762L85.2754 93.906L77.793 83.0434L79.145 81.6543L86.1135 85.6178C87.0071 86.1596 87.8174 86.6643 88.674 87.1921L88.7203 87.1412C88.1554 86.3077 87.6415 85.4974 87.0488 84.6409L82.7566 77.8761L84.0947 76.487L95.2906 83.3999Z" fill="#7653A2"/>
<path d="M79.8247 97.3878L78.0421 98.2398L72.8284 93.0632C72.1709 92.3826 71.5134 91.7019 70.842 91.0305L70.7633 91.0676C70.8791 91.9936 71.0134 92.9197 71.1291 93.8735L71.8839 101.175L70.1012 102.027L64.5449 90.3684L65.934 89.7063L69.0085 96.1562C69.4715 97.1563 70.0503 98.6241 70.4531 99.6798L70.5179 99.6474L70.1753 96.5544L69.4946 89.4516L70.4809 88.9886L75.5742 93.9846L77.7596 96.1979L77.8245 96.1701C77.2781 95.1839 76.4909 93.8226 76.014 92.8224L72.9395 86.3725L74.2731 85.7382L79.8247 97.3878Z" fill="#7653A2"/>
<path d="M58.3078 93.3781L57.3818 94.5171C56.9087 94.0381 56.3437 93.6595 55.7207 93.4041C55.0977 93.1487 54.4296 93.0217 53.7563 93.0308C52.0663 93.0864 51.0754 93.9569 51.1171 95.2302C51.1587 96.5035 52.1079 96.9387 53.3396 97.4434L55.2334 98.1889C56.4465 98.6519 57.9004 99.527 57.9652 101.43C58.03 103.416 56.3539 104.917 54.0156 104.995C53.3075 105.022 52.6013 104.905 51.9394 104.652C51.2775 104.399 50.6734 104.015 50.1632 103.523L50.9921 102.458C51.798 103.209 52.8684 103.61 53.9693 103.574C55.4278 103.523 56.3539 102.754 56.3122 101.592C56.2705 100.342 55.1315 99.9067 54.1128 99.5178L52.2607 98.7908C50.742 98.1889 49.5521 97.3508 49.4826 95.4339C49.4131 93.392 51.0476 91.7297 53.7378 91.6278C54.5787 91.5918 55.4181 91.7285 56.2041 92.0295C56.9902 92.3306 57.7061 92.7895 58.3078 93.3781V93.3781Z" fill="#7653A2"/>
<path d="M46.3206 98.1241C45.3575 102.18 42.3895 104.079 39.2085 103.324C38.5587 103.164 37.9497 102.87 37.4209 102.46C36.892 102.05 36.4552 101.533 36.1387 100.944L37.236 100.124C37.4657 100.571 37.7882 100.963 38.1819 101.274C38.5757 101.586 39.0315 101.809 39.5187 101.93C41.8987 102.495 43.9406 100.921 44.6815 97.7861C45.4223 94.6514 44.4037 92.2761 42.0052 91.7066C41.4457 91.5803 40.8653 91.5787 40.3052 91.702C39.745 91.8252 39.2188 92.0702 38.764 92.4196L38.1297 91.2158C38.7293 90.7541 39.4262 90.435 40.1674 90.2826C40.9087 90.1301 41.6749 90.1484 42.408 90.336C45.5195 91.0769 47.2883 94.0495 46.3206 98.1241Z" fill="#7653A2"/>
<path d="M30.2719 99.9762L26.7621 98.013C24.4748 96.7304 23.2987 94.9802 24.6137 92.6326C25.5953 90.8824 27.1928 90.4055 28.9337 90.9009L28.8133 84.3538L30.4247 85.2798L30.4663 91.5631L32.4898 92.6975L35.1614 87.9376L36.5875 88.734L30.2719 99.9762ZM29.9524 92.7762C28.1883 91.7853 26.827 91.952 26.0074 93.4105C25.1879 94.869 25.8454 95.9618 27.6141 96.9527L29.4986 98.0083L31.8415 93.8411L29.9524 92.7762Z" fill="#7653A2"/>
<path d="M23.109 88.1413C20.1179 90.9982 16.7286 91.0908 14.4922 88.7525C12.2557 86.4142 12.5104 83.0295 15.5015 80.1773C18.4927 77.3251 21.9283 77.1723 24.1647 79.5152C26.4011 81.8581 26.0955 85.2844 23.109 88.1413ZM16.6545 81.3858C14.3116 83.6222 13.9319 86.0994 15.5247 87.7662C17.1175 89.4331 19.6132 89.1553 21.9515 86.9328C24.2897 84.7103 24.7296 82.1775 23.1322 80.5014C21.5348 78.8253 18.9835 79.1401 16.6545 81.3858Z" fill="#7653A2"/>
<path d="M7.57967 79.4642L6.82031 78.015L17.0393 72.6578L14.4 67.6664L15.6502 67.0228L19.0349 73.4542L7.57967 79.4642Z" fill="#7653A2"/>
<path d="M2.48218 68.1201L2.08398 66.5319L13.266 63.7538L11.8769 58.2947L13.2243 57.9567L14.9885 65.004L2.48218 68.1201Z" fill="#7653A2"/>
<path d="M0.0703125 50.1131L0.477773 46.8997C0.973209 42.9733 3.54762 41.1536 7.61298 41.6675C11.6783 42.1815 13.799 44.5939 13.2989 48.4555L12.8822 51.7337L0.0703125 50.1131ZM11.9469 48.4971C12.3266 45.4736 10.6319 43.7511 7.39999 43.3437C4.16808 42.9362 2.16781 44.1864 1.7835 47.2099L1.60292 48.6592L11.7617 49.9418L11.9469 48.4971Z" fill="#7653A2"/>
<path d="M8.5667 38.1069C4.82084 36.3566 3.50122 33.2358 4.86251 30.3003C6.2238 27.3647 9.49275 26.3738 13.1969 28.1241C16.9011 29.8743 18.355 33.0229 16.9891 35.9584C15.6232 38.894 12.3126 39.8525 8.5667 38.1069ZM12.5163 29.6381C9.58535 28.2491 7.13596 28.814 6.15898 30.9068C5.18199 32.9997 6.33955 35.2222 9.27513 36.5928C12.2107 37.9633 14.7249 37.4679 15.6973 35.3519C16.6696 33.2358 15.438 30.9855 12.5163 29.6381V29.6381Z" fill="#7653A2"/>
<path d="M10.2383 20.8222L11.419 19.6368L17.3689 23.6281C18.5264 24.4338 19.684 25.2255 20.8601 26.0312L20.911 25.9803C20.1331 24.7903 19.3691 23.5864 18.5959 22.3826L14.8639 16.1688L15.915 15.1038L22.175 18.808C23.3743 19.5489 24.5689 20.3129 25.782 21.0954L25.8422 21.0305L23.4021 17.5579L19.3552 11.6265L20.4572 10.5153L27.7499 21.5121L26.3608 22.9012L19.4756 18.808C18.5912 18.2478 17.7902 17.7292 16.9429 17.1874L16.8966 17.2384C17.4476 18.0811 17.9476 18.9006 18.5218 19.7665L22.689 26.6054L21.3231 27.9944L10.2383 20.8222Z" fill="#7653A2"/>
<path d="M25.7852 7.28337L27.3085 6.55179L35.0642 11.8719L37.4487 13.6777L37.5275 13.6361C36.8885 12.5017 36.1384 11.2561 35.5735 10.0476L32.675 3.98664L34.064 3.31989L39.6203 14.9649L38.1386 15.7058L30.383 10.3671L27.9845 8.57058L27.9197 8.60299C28.5448 9.74666 29.2486 10.9181 29.832 12.1544L32.7815 18.2617L31.3924 18.9284L25.7852 7.28337Z" fill="#7653A2"/>
</svg>
