<svg width="826" height="101" viewBox="0 0 826 101" fill="none" xmlns="http://www.w3.org/2000/svg">
<path d="M36.5771 100.143C29.7217 100.143 23.9876 98.873 19.375 96.334C14.7624 93.7949 11.0596 90.3037 8.2666 85.8604C5.51595 81.417 3.54818 76.2119 2.36328 70.2451C1.17839 64.2783 0.585938 57.8672 0.585938 51.0117C0.585938 43.6908 1.38997 36.8564 2.99805 30.5088C4.60612 24.1188 6.76432 18.9984 9.47266 15.1475C12.181 11.2965 15.5876 8.01693 19.6924 5.30859C23.8395 2.60026 29.5101 1.24609 36.7041 1.24609C43.5173 1.24609 49.1878 2.3252 53.7158 4.4834C58.2438 6.6416 61.9678 9.96354 64.8877 14.4492C67.8499 18.8926 69.9235 24.2669 71.1084 30.5723C72.2933 36.8776 72.8857 43.5638 72.8857 50.6309C72.8857 57.5286 72.2933 63.9821 71.1084 69.9912C69.9235 76.0003 67.9134 81.2477 65.0781 85.7334C62.2852 90.1768 58.5612 93.6891 53.9062 96.2705C49.2513 98.8519 43.4749 100.143 36.5771 100.143ZM36.5771 88.8438C41.5283 88.8438 45.5062 87.8493 48.5107 85.8604C51.5576 83.8291 53.8428 81.0785 55.3662 77.6084C56.932 74.1383 58.0957 70.097 58.8574 65.4844C59.6191 60.8294 60 55.8783 60 50.6309C60 45.5951 59.7038 40.7708 59.1113 36.1582C58.5189 31.5033 57.3763 27.3984 55.6836 23.8438C53.9909 20.2891 51.6211 17.4538 48.5742 15.3379C45.5273 13.222 41.5706 12.1641 36.7041 12.1641C31.6683 12.1641 27.6904 13.222 24.7705 15.3379C21.8506 17.4538 19.6712 20.014 18.2324 23.0186C16.7936 25.9808 15.651 30.0645 14.8047 35.2695C14.0007 40.4746 13.5986 45.5951 13.5986 50.6309C13.5986 55.8783 13.8525 60.8294 14.3604 65.4844C14.9105 70.097 15.9896 74.1383 17.5977 77.6084C19.248 81.0785 21.5755 83.8291 24.5801 85.8604C27.627 87.8493 31.626 88.8438 36.5771 88.8438Z" fill="#222222"/>
<path d="M94.7852 88.082H104.116V17.6865L84.6289 28.2871V15.0205L111.416 0.0400391H116.494V88.082H125.952V99H94.7852V88.082Z" fill="#222222"/>
<path d="M175.464 100.143C168.608 100.143 162.874 98.873 158.262 96.334C153.649 93.7949 149.946 90.3037 147.153 85.8604C144.403 81.417 142.435 76.2119 141.25 70.2451C140.065 64.2783 139.473 57.8672 139.473 51.0117C139.473 43.6908 140.277 36.8564 141.885 30.5088C143.493 24.1188 145.651 18.9984 148.359 15.1475C151.068 11.2965 154.474 8.01693 158.579 5.30859C162.726 2.60026 168.397 1.24609 175.591 1.24609C182.404 1.24609 188.075 2.3252 192.603 4.4834C197.131 6.6416 200.854 9.96354 203.774 14.4492C206.737 18.8926 208.81 24.2669 209.995 30.5723C211.18 36.8776 211.772 43.5638 211.772 50.6309C211.772 57.5286 211.18 63.9821 209.995 69.9912C208.81 76.0003 206.8 81.2477 203.965 85.7334C201.172 90.1768 197.448 93.6891 192.793 96.2705C188.138 98.8519 182.362 100.143 175.464 100.143ZM175.464 88.8438C180.415 88.8438 184.393 87.8493 187.397 85.8604C190.444 83.8291 192.729 81.0785 194.253 77.6084C195.819 74.1383 196.982 70.097 197.744 65.4844C198.506 60.8294 198.887 55.8783 198.887 50.6309C198.887 45.5951 198.59 40.7708 197.998 36.1582C197.406 31.5033 196.263 27.3984 194.57 23.8438C192.878 20.2891 190.508 17.4538 187.461 15.3379C184.414 13.222 180.457 12.1641 175.591 12.1641C170.555 12.1641 166.577 13.222 163.657 15.3379C160.737 17.4538 158.558 20.014 157.119 23.0186C155.68 25.9808 154.538 30.0645 153.691 35.2695C152.887 40.4746 152.485 45.5951 152.485 50.6309C152.485 55.8783 152.739 60.8294 153.247 65.4844C153.797 70.097 154.876 74.1383 156.484 77.6084C158.135 81.0785 160.462 83.8291 163.467 85.8604C166.514 87.8493 170.513 88.8438 175.464 88.8438Z" fill="#222222"/>
<path d="M224.404 91.3193C224.404 90.2191 224.616 89.1823 225.039 88.209C225.505 87.1934 226.118 86.3258 226.88 85.6064C227.642 84.8447 228.509 84.2523 229.482 83.8291C230.498 83.3636 231.577 83.1309 232.72 83.1309C233.82 83.1309 234.857 83.3636 235.83 83.8291C236.846 84.2523 237.713 84.8447 238.433 85.6064C239.194 86.3258 239.787 87.1934 240.21 88.209C240.675 89.1823 240.908 90.2191 240.908 91.3193C240.908 92.4619 240.675 93.541 240.21 94.5566C239.787 95.5723 239.194 96.4821 238.433 97.2861C237.713 98.0479 236.846 98.6403 235.83 99.0635C234.857 99.529 233.82 99.7617 232.72 99.7617C231.577 99.7617 230.498 99.529 229.482 99.0635C228.509 98.6403 227.642 98.0479 226.88 97.2861C226.118 96.4821 225.505 95.5723 225.039 94.5566C224.616 93.541 224.404 92.4619 224.404 91.3193Z" fill="#222222"/>
<path d="M267.378 42.252C269.748 40.6439 272.181 39.4378 274.678 38.6338C277.174 37.7874 280.031 37.3643 283.247 37.3643C287.987 37.3643 292.345 38.2106 296.323 39.9033C300.301 41.596 303.708 43.8812 306.543 46.7588C309.421 49.6364 311.642 53.0007 313.208 56.8516C314.816 60.6602 315.62 64.7015 315.62 68.9756C315.62 73.292 314.837 77.3968 313.271 81.29C311.706 85.141 309.484 88.5264 306.606 91.4463C303.729 94.3662 300.259 96.6937 296.196 98.4287C292.176 100.121 287.69 100.968 282.739 100.968C278.973 100.968 275.461 100.46 272.202 99.4443C268.944 98.471 266.003 97.0957 263.379 95.3184C260.755 93.4987 258.47 91.3405 256.523 88.8438C254.619 86.347 253.096 83.6175 251.953 80.6553L262.363 75.4502C263.04 77.6084 264.035 79.6185 265.347 81.4805C266.659 83.3001 268.203 84.887 269.98 86.2412C271.758 87.5531 273.726 88.5898 275.884 89.3516C278.042 90.071 280.327 90.4307 282.739 90.4307C285.786 90.4307 288.6 89.8805 291.182 88.7803C293.805 87.6377 296.069 86.0931 297.974 84.1465C299.92 82.1999 301.444 79.9359 302.544 77.3545C303.644 74.7308 304.194 71.9378 304.194 68.9756C304.194 65.971 303.644 63.1992 302.544 60.6602C301.444 58.0788 299.92 55.8571 297.974 53.9951C296.027 52.0908 293.742 50.6097 291.118 49.5518C288.537 48.4515 285.744 47.9014 282.739 47.9014C279.354 47.9014 276.222 48.515 273.345 49.7422C270.509 50.9271 268.14 52.5352 266.235 54.5664L256.904 53.1064V2.76953H311.113V13.3066H267.378V42.252Z" fill="#222222"/>
<path d="M331.172 88.082H338.599C340.884 81.5651 343.402 74.9635 346.152 68.2773C348.903 61.5488 351.696 55.0107 354.531 48.6631C357.367 42.3154 360.16 36.2852 362.91 30.5723C365.661 24.8171 368.179 19.6331 370.464 15.0205H334.409V22.4473H322.222V2.76953H385.381V12.291C382.588 17.7923 379.668 23.6322 376.621 29.8105C373.574 35.9466 370.549 42.252 367.544 48.7266C364.582 55.2012 361.704 61.7604 358.911 68.4043C356.118 75.0482 353.579 81.6074 351.294 88.082H359.292V99H331.172V88.082Z" fill="#222222"/>
<path d="M408.169 42.252C410.539 40.6439 412.972 39.4378 415.469 38.6338C417.965 37.7874 420.822 37.3643 424.038 37.3643C428.778 37.3643 433.136 38.2106 437.114 39.9033C441.092 41.596 444.499 43.8812 447.334 46.7588C450.212 49.6364 452.433 53.0007 453.999 56.8516C455.607 60.6602 456.411 64.7015 456.411 68.9756C456.411 73.292 455.628 77.3968 454.062 81.29C452.497 85.141 450.275 88.5264 447.397 91.4463C444.52 94.3662 441.05 96.6937 436.987 98.4287C432.967 100.121 428.481 100.968 423.53 100.968C419.764 100.968 416.252 100.46 412.993 99.4443C409.735 98.471 406.794 97.0957 404.17 95.3184C401.546 93.4987 399.261 91.3405 397.314 88.8438C395.41 86.347 393.887 83.6175 392.744 80.6553L403.154 75.4502C403.831 77.6084 404.826 79.6185 406.138 81.4805C407.45 83.3001 408.994 84.887 410.771 86.2412C412.549 87.5531 414.517 88.5898 416.675 89.3516C418.833 90.071 421.118 90.4307 423.53 90.4307C426.577 90.4307 429.391 89.8805 431.973 88.7803C434.596 87.6377 436.86 86.0931 438.765 84.1465C440.711 82.1999 442.235 79.9359 443.335 77.3545C444.435 74.7308 444.985 71.9378 444.985 68.9756C444.985 65.971 444.435 63.1992 443.335 60.6602C442.235 58.0788 440.711 55.8571 438.765 53.9951C436.818 52.0908 434.533 50.6097 431.909 49.5518C429.328 48.4515 426.535 47.9014 423.53 47.9014C420.145 47.9014 417.013 48.515 414.136 49.7422C411.3 50.9271 408.931 52.5352 407.026 54.5664L397.695 53.1064V2.76953H451.904V13.3066H408.169V42.252Z" fill="#222222"/>
<path d="M475.771 88.082H485.103V17.6865L465.615 28.2871V15.0205L492.402 0.0400391H497.48V88.082H506.938V99H475.771V88.082Z" fill="#222222"/>
<path d="M520.967 91.3193C520.967 90.2191 521.178 89.1823 521.602 88.209C522.067 87.1934 522.681 86.3258 523.442 85.6064C524.204 84.8447 525.072 84.2523 526.045 83.8291C527.061 83.3636 528.14 83.1309 529.282 83.1309C530.382 83.1309 531.419 83.3636 532.393 83.8291C533.408 84.2523 534.276 84.8447 534.995 85.6064C535.757 86.3258 536.349 87.1934 536.772 88.209C537.238 89.1823 537.471 90.2191 537.471 91.3193C537.471 92.4619 537.238 93.541 536.772 94.5566C536.349 95.5723 535.757 96.4821 534.995 97.2861C534.276 98.0479 533.408 98.6403 532.393 99.0635C531.419 99.529 530.382 99.7617 529.282 99.7617C528.14 99.7617 527.061 99.529 526.045 99.0635C525.072 98.6403 524.204 98.0479 523.442 97.2861C522.681 96.4821 522.067 95.5723 521.602 94.5566C521.178 93.541 520.967 92.4619 520.967 91.3193Z" fill="#222222"/>
<path d="M583.872 0.992188C587.511 0.992188 590.939 1.64811 594.155 2.95996C597.414 4.27181 600.27 6.07031 602.725 8.35547C605.179 10.6406 607.104 13.3278 608.501 16.417C609.94 19.4639 610.659 22.7223 610.659 26.1924C610.659 30.3395 609.686 34.1693 607.739 37.6816C605.793 41.194 603.19 44.0928 599.932 46.3779C602.09 47.6475 604.058 49.1709 605.835 50.9482C607.612 52.6833 609.136 54.6087 610.405 56.7246C611.675 58.7982 612.648 61.041 613.325 63.4531C614.045 65.8652 614.404 68.362 614.404 70.9434C614.404 74.9635 613.579 78.7298 611.929 82.2422C610.321 85.7546 608.12 88.8438 605.327 91.5098C602.534 94.1335 599.276 96.207 595.552 97.7305C591.828 99.2539 587.85 100.016 583.618 100.016C579.344 100.016 575.324 99.2539 571.558 97.7305C567.791 96.207 564.512 94.1335 561.719 91.5098C558.926 88.8438 556.704 85.7546 555.054 82.2422C553.446 78.7298 552.642 74.9635 552.642 70.9434C552.642 68.362 552.98 65.8652 553.657 63.4531C554.377 60.9987 555.371 58.7347 556.641 56.6611C557.952 54.5452 559.497 52.6198 561.274 50.8848C563.094 49.1074 565.104 47.584 567.305 46.3145C564.089 43.987 561.528 41.0882 559.624 37.6182C557.762 34.1058 556.831 30.2972 556.831 26.1924C556.831 22.7223 557.529 19.4639 558.926 16.417C560.322 13.3278 562.227 10.6406 564.639 8.35547C567.093 6.07031 569.971 4.27181 573.271 2.95996C576.572 1.64811 580.106 0.992188 583.872 0.992188ZM564.258 70.6895C564.258 73.1862 564.766 75.556 565.781 77.7988C566.797 79.9993 568.172 81.9248 569.907 83.5752C571.685 85.2256 573.737 86.5374 576.064 87.5107C578.434 88.484 580.952 88.9707 583.618 88.9707C586.242 88.9707 588.717 88.484 591.045 87.5107C593.372 86.5374 595.404 85.2256 597.139 83.5752C598.916 81.9248 600.312 79.9993 601.328 77.7988C602.344 75.556 602.852 73.1862 602.852 70.6895C602.852 68.235 602.344 65.9076 601.328 63.707C600.312 61.5065 598.916 59.5811 597.139 57.9307C595.404 56.2803 593.372 54.9896 591.045 54.0586C588.717 53.0853 586.242 52.5986 583.618 52.5986C580.952 52.5986 578.434 53.0853 576.064 54.0586C573.737 54.9896 571.685 56.2803 569.907 57.9307C568.172 59.5811 566.797 61.5065 565.781 63.707C564.766 65.9076 564.258 68.235 564.258 70.6895ZM567.749 26.4463C567.749 28.5622 568.151 30.5511 568.955 32.4131C569.759 34.2327 570.881 35.8408 572.319 37.2373C573.758 38.5915 575.451 39.6706 577.397 40.4746C579.386 41.2786 581.545 41.6807 583.872 41.6807C586.03 41.6807 588.062 41.2786 589.966 40.4746C591.87 39.6706 593.542 38.5915 594.98 37.2373C596.462 35.8408 597.625 34.2327 598.472 32.4131C599.318 30.5511 599.741 28.5622 599.741 26.4463C599.741 24.3727 599.318 22.4261 598.472 20.6064C597.625 18.7445 596.462 17.1364 594.98 15.7822C593.542 14.3857 591.87 13.2855 589.966 12.4814C588.062 11.6774 586.03 11.2754 583.872 11.2754C581.545 11.2754 579.386 11.6774 577.397 12.4814C575.451 13.2855 573.758 14.3857 572.319 15.7822C570.881 17.1364 569.759 18.7445 568.955 20.6064C568.151 22.4261 567.749 24.3727 567.749 26.4463Z" fill="#222222"/>
<path d="M636.367 88.082H643.794C646.079 81.5651 648.597 74.9635 651.348 68.2773C654.098 61.5488 656.891 55.0107 659.727 48.6631C662.562 42.3154 665.355 36.2852 668.105 30.5723C670.856 24.8171 673.374 19.6331 675.659 15.0205H639.604V22.4473H627.417V2.76953H690.576V12.291C687.783 17.7923 684.863 23.6322 681.816 29.8105C678.77 35.9466 675.744 42.252 672.739 48.7266C669.777 55.2012 666.899 61.7604 664.106 68.4043C661.313 75.0482 658.774 81.6074 656.489 88.082H664.487V99H636.367V88.082Z" fill="#222222"/>
<path d="M698.828 89.6689L732.661 48.79C733.804 47.4359 734.989 45.9759 736.216 44.4102C737.485 42.8444 738.649 41.194 739.707 39.459C740.807 37.724 741.696 35.9255 742.373 34.0635C743.092 32.1592 743.452 30.1914 743.452 28.1602C743.452 26.0443 743.029 24.0553 742.183 22.1934C741.336 20.3314 740.173 18.7021 738.691 17.3057C737.21 15.9092 735.433 14.8089 733.359 14.0049C731.328 13.2008 729.085 12.7988 726.631 12.7988C724.43 12.7988 722.336 13.1585 720.347 13.8779C718.4 14.555 716.686 15.5706 715.205 16.9248C713.724 18.279 712.518 19.9717 711.587 22.0029C710.698 23.9919 710.212 26.2982 710.127 28.9219H698.701C698.743 24.9017 699.526 21.1989 701.05 17.8135C702.573 14.3857 704.604 11.4447 707.144 8.99023C709.725 6.49349 712.708 4.56803 716.094 3.21387C719.479 1.81738 723.034 1.11914 726.758 1.11914C731.074 1.11914 734.989 1.81738 738.501 3.21387C742.013 4.56803 745.018 6.45117 747.515 8.86328C750.011 11.2754 751.937 14.1318 753.291 17.4326C754.688 20.7334 755.386 24.3092 755.386 28.1602C755.386 29.6836 755.195 31.3128 754.814 33.0479C754.476 34.7406 753.862 36.5814 752.974 38.5703C752.127 40.5169 750.985 42.6117 749.546 44.8545C748.149 47.0973 746.372 49.5094 744.214 52.0908L714.189 87.8281H755.259V99H698.828V89.6689Z" fill="#222222"/>
<path d="M768.652 89.6689L802.485 48.79C803.628 47.4359 804.813 45.9759 806.04 44.4102C807.31 42.8444 808.473 41.194 809.531 39.459C810.632 37.724 811.52 35.9255 812.197 34.0635C812.917 32.1592 813.276 30.1914 813.276 28.1602C813.276 26.0443 812.853 24.0553 812.007 22.1934C811.16 20.3314 809.997 18.7021 808.516 17.3057C807.035 15.9092 805.257 14.8089 803.184 14.0049C801.152 13.2008 798.91 12.7988 796.455 12.7988C794.255 12.7988 792.16 13.1585 790.171 13.8779C788.224 14.555 786.51 15.5706 785.029 16.9248C783.548 18.279 782.342 19.9717 781.411 22.0029C780.522 23.9919 780.036 26.2982 779.951 28.9219H768.525C768.568 24.9017 769.351 21.1989 770.874 17.8135C772.397 14.3857 774.429 11.4447 776.968 8.99023C779.549 6.49349 782.533 4.56803 785.918 3.21387C789.303 1.81738 792.858 1.11914 796.582 1.11914C800.898 1.11914 804.813 1.81738 808.325 3.21387C811.838 4.56803 814.842 6.45117 817.339 8.86328C819.836 11.2754 821.761 14.1318 823.115 17.4326C824.512 20.7334 825.21 24.3092 825.21 28.1602C825.21 29.6836 825.02 31.3128 824.639 33.0479C824.3 34.7406 823.687 36.5814 822.798 38.5703C821.951 40.5169 820.809 42.6117 819.37 44.8545C817.974 47.0973 816.196 49.5094 814.038 52.0908L784.014 87.8281H825.083V99H768.652V89.6689Z" fill="#222222"/>
</svg>
