<svg width="290" height="75" viewBox="0 0 290 75" fill="none" xmlns="http://www.w3.org/2000/svg">
<path d="M54.7927 0.0400391V74.12H64.9527V0.0400391H54.7927ZM45.4327 27.96V36.44H57.6727V27.96H45.4327ZM23.3527 9.08004V11.32C23.3527 29.08 17.4327 41.56 0.552734 51.56L6.71274 58.92C27.4327 46.84 33.5127 29.96 33.5127 9.08004H23.3527ZM4.31273 9.08004V17.64H26.4727V9.08004H4.31273ZM38.3927 1.96004V70.92H48.3127V1.96004H38.3927Z" fill="#222222"/>
<path d="M125.986 0.120039V53.32H136.706V0.120039H125.986ZM87.3465 64.36V72.84H138.546V64.36H87.3465ZM87.3465 47.96V67.8H97.9865V47.96H87.3465ZM96.3865 4.76003C85.0265 4.76003 76.2265 12.6 76.2265 23.56C76.2265 34.44 85.0265 42.36 96.3865 42.36C107.746 42.36 116.466 34.44 116.466 23.56C116.466 12.6 107.746 4.76003 96.3865 4.76003ZM96.3865 13.96C101.826 13.96 106.066 17.48 106.066 23.56C106.066 29.56 101.826 33.08 96.3865 33.08C90.8665 33.08 86.6265 29.56 86.6265 23.56C86.6265 17.48 90.8665 13.96 96.3865 13.96Z" fill="#222222"/>
<path d="M148.78 57.16V65.88H215.82V57.16H148.78ZM176.78 40.44V61.08H187.42V40.44H176.78ZM153.9 6.12004V14.6H210.3V6.12004H153.9ZM154.22 35.64V43.96H210.06V35.64H154.22ZM163.98 13.16V36.6H174.62V13.16H163.98ZM189.66 13.16V36.6H200.22V13.16H189.66Z" fill="#222222"/>
<path d="M228.134 1.72004V9.64004H283.334V1.72004H228.134ZM228.694 19.08V27H282.774V19.08H228.694ZM237.574 4.84004V24.2H248.214V4.84004H237.574ZM263.254 4.84004V24.2H273.894V4.84004H263.254ZM222.294 31.48V39.72H289.254V31.48H222.294ZM250.374 24.84V35.24H261.014V24.84H250.374ZM229.974 43.48V51.08H270.694V54.76H230.054V68.84H240.534V61.88H281.174V43.48H229.974ZM230.054 65.88V73.64H283.094V65.88H230.054Z" fill="#222222"/>
</svg>
