<svg width="362" height="75" viewBox="0 0 362 75" fill="none" xmlns="http://www.w3.org/2000/svg">
<path d="M43.8795 7.96012H27.3995V0.120117H16.7595V7.96012H0.439453V16.2001H43.7995L43.8795 7.96012ZM14.1195 33.0001C14.1195 29.0001 17.3995 26.8401 22.1195 26.8401C26.7595 26.8401 30.1195 29.0001 30.1195 33.0001C30.1195 37.0801 26.7595 39.2401 22.1195 39.2401C17.3995 39.2401 14.1195 37.0801 14.1195 33.0001ZM40.1995 33.0001C40.1995 24.6801 32.6795 18.8401 22.1195 18.8401C11.5595 18.8401 4.03945 24.6801 4.03945 33.0001C4.03945 41.4801 11.5595 47.2401 22.1195 47.2401C32.6795 47.2401 40.1995 41.4801 40.1995 33.0001ZM21.4795 51.2401H10.9195V72.6001H61.0795V64.2001H21.4795V51.2401ZM58.4395 22.6801V0.200115H47.8795V55.3201H58.4395V31.4001H68.1995V22.6801H58.4395Z" fill="#222222"/>
<path d="M117.953 8.28012H101.633V0.520115H91.0732V8.28012H74.5932V16.6001H117.953V8.28012ZM88.3532 33.3201C88.3532 29.5601 91.5532 27.4801 96.3532 27.4801C101.153 27.4801 104.353 29.5601 104.353 33.3201C104.353 37.2401 101.153 39.3201 96.3532 39.3201C91.5532 39.3201 88.3532 37.2401 88.3532 33.3201ZM101.633 46.6801C109.313 45.0801 114.353 40.1201 114.353 33.3201C114.353 25.0801 106.913 19.4801 96.3532 19.4801C85.7932 19.4801 78.3532 25.0801 78.3532 33.3201C78.3532 40.1201 83.3932 45.0801 91.0732 46.6801V52.9201C84.5932 53.0801 78.5132 53.0801 73.2332 53.0801L74.5132 61.6401C86.9932 61.6401 103.553 61.6401 119.073 58.6001L118.273 51.0001C112.993 51.8001 107.313 52.2001 101.633 52.5201V46.6801ZM141.793 30.2001H132.593V0.200115H122.033V73.8801H132.593V38.9201H141.793V30.2001Z" fill="#222222"/>
<path d="M162.347 34.9201H186.267V6.44012H151.467V14.8401H175.467V26.6001H151.547V56.9201H158.187C171.547 56.9201 182.347 56.4401 194.347 54.3601L193.227 45.8001C182.827 47.5601 173.547 48.1201 162.347 48.2001V34.9201ZM198.347 0.120117V74.0401H208.907V0.120117H198.347Z" fill="#222222"/>
<path d="M227.941 43.7201C240.741 41.4001 250.021 35.0001 254.581 26.2001C259.221 34.8401 268.581 41.0001 281.541 43.3201L285.541 35.0001C269.701 32.6801 261.141 23.8001 260.181 14.2001H282.261V5.80011H226.741V14.2001H248.821C247.861 23.8001 239.301 33.0001 223.861 35.4001L227.941 43.7201ZM259.861 56.7601V40.5201H249.301V56.7601H221.221V65.3201H287.941V56.7601H259.861Z" fill="#222222"/>
<path d="M354.414 38.2001H313.374V29.9601H352.174V21.8001H313.374V14.0401H353.854V5.56012H302.654V46.5201H354.414V38.2001ZM294.814 56.8401V65.4001H361.534V56.8401H294.814Z" fill="#222222"/>
</svg>
