<svg width="289" height="76" viewBox="0 0 289 76" fill="none" xmlns="http://www.w3.org/2000/svg">
<path d="M48.0334 1.03996V75.12H58.5934V1.03996H48.0334ZM56.1934 29.92V38.8H69.3134V29.92H56.1934ZM0.193359 12V20.48H43.3134V12H0.193359ZM21.8734 24.64C11.0734 24.64 3.07336 32 3.07336 42.32C3.07336 52.64 11.0734 60 21.8734 60C32.6734 60 40.6734 52.64 40.6734 42.32C40.6734 32 32.6734 24.64 21.8734 24.64ZM21.8734 33.28C26.9134 33.28 30.5134 36.64 30.5134 42.32C30.5134 48 26.9134 51.36 21.8734 51.36C16.8334 51.36 13.2334 48 13.2334 42.32C13.2334 36.64 16.8334 33.28 21.8734 33.28ZM16.5134 2.23996V15.2H27.1534V2.23996H16.5134Z" fill="#222222"/>
<path d="M127.147 1.03996V56.16H137.227V1.03996H127.147ZM97.7071 23.52V32H115.067V23.52H97.7071ZM112.107 2.39996V54.16H122.027V2.39996H112.107ZM95.5471 7.91996V11.6C95.5471 24.4 89.2271 33.52 73.6271 39.76L78.8271 47.6C97.9471 39.6 106.267 26.72 106.267 7.91996H95.5471ZM77.9471 7.91996V16.32H99.9471V7.91996H77.9471ZM88.0271 65.36V73.84H140.107V65.36H88.0271ZM88.0271 49.36V69.92H98.7471V49.36H88.0271Z" fill="#222222"/>
<path d="M195.061 0.959961V75.28H205.781V0.959961H195.061ZM203.381 28.4V37.12H216.501V28.4H203.381ZM150.581 48.64V57.44H156.821C169.701 57.44 179.861 57.12 191.061 55.12L190.021 46.32C179.141 48.24 169.301 48.64 156.821 48.64H150.581ZM150.581 7.83996V52.88H161.141V16.4H185.141V7.83996H150.581Z" fill="#222222"/>
<path d="M221.375 57.6V66.24H288.415V57.6H221.375ZM249.215 11.28V15.52C249.215 25.76 240.415 35.92 223.935 38.48L228.095 46.96C246.975 43.52 258.175 31.04 258.175 15.52V11.28H249.215ZM251.375 11.28V15.52C251.375 31.04 262.735 43.2 281.935 46.56L286.015 38.08C269.135 35.6 260.335 25.76 260.335 15.52V11.28H251.375ZM226.895 7.19996V15.68H282.655V7.19996H226.895Z" fill="#222222"/>
</svg>
