<svg width="130" height="130" viewBox="0 0 130 130" fill="none" xmlns="http://www.w3.org/2000/svg">
<path d="M20 20V110H110V20H20ZM106.04 106.041H23.9595V23.9602H106.04V106.041H106.04Z" fill="#281437"/>
<path d="M52.6258 74.5991L49.3768 85.3729C49.3236 85.7447 49.1634 85.8688 48.8442 85.8688H43.4115C43.0389 85.8688 42.933 85.6823 43.0389 85.2497C45.9152 75.7756 50.7613 59.9866 54.1693 49.2743C54.3295 48.6554 54.4894 48.0359 54.5952 45.8687C54.5952 45.6212 54.7554 45.4973 54.9153 45.4973H62.2651C62.5309 45.4973 62.5843 45.5592 62.6908 45.8069C66.631 58.5002 70.9452 72.4943 74.9927 85.3114C75.0992 85.6825 74.9927 85.869 74.6735 85.869H68.708C68.4422 85.869 68.3355 85.7449 68.2295 85.4969L64.8204 74.5993H52.6258V74.5991ZM63.3829 68.5312C62.3177 64.3824 59.708 56.0236 58.6437 51.689H58.5902C57.7909 55.7756 55.6079 62.7727 54.0101 68.5312H63.3829Z" fill="#281437"/>
<path d="M80.3887 47.8387C80.3887 45.5479 81.9062 44 83.9463 44C86.0917 44 87.4002 45.5479 87.4002 47.8387C87.4002 50.1919 85.9873 51.6776 83.8943 51.6776C81.8007 51.6776 80.3887 50.1919 80.3887 47.8387ZM80.7545 56.2597C80.7545 55.8881 80.8589 55.7645 81.121 55.7645H86.6672C86.981 55.7645 87.0863 55.8266 87.0863 56.2597V85.3615C87.0863 85.6719 86.981 85.8567 86.6672 85.8567H81.2254C80.9113 85.8567 80.7543 85.7333 80.7543 85.2998V56.2597H80.7545Z" fill="#281437"/>
</svg>
