<svg width="130" height="130" viewBox="0 0 130 130" fill="none" xmlns="http://www.w3.org/2000/svg">
<path d="M23.0909 40.4181C14.6124 52.603 15.6687 68.4563 22.1443 81.4046C22.2985 81.7151 22.4599 82.0203 22.6191 82.3265C22.7206 82.5192 22.8164 82.718 22.922 82.9084C22.9813 83.0231 23.0484 83.1349 23.1105 83.2445C23.2212 83.4514 23.3338 83.6471 23.4487 83.8489C23.6499 84.2033 23.8564 84.5556 24.0669 84.908C24.1836 85.1016 24.2989 85.2953 24.4192 85.4887C24.6527 85.8658 24.8919 86.2399 25.1369 86.6115C25.2389 86.7704 25.3381 86.9293 25.4428 87.0827C25.7804 87.5868 26.1256 88.0899 26.4815 88.5835C26.4908 88.5958 26.501 88.6092 26.5114 88.6215C26.5677 88.7014 26.6302 88.7793 26.6871 88.8582C26.9948 89.2833 27.313 89.7024 27.6336 90.1182C27.7519 90.269 27.8718 90.4205 27.9907 90.572C28.2771 90.9326 28.569 91.2903 28.8656 91.6475C28.9767 91.7807 29.0879 91.9149 29.2002 92.046C29.598 92.5143 30.0042 92.9814 30.4199 93.4393C30.427 93.4476 30.4367 93.4569 30.4444 93.465C30.4612 93.4845 30.4762 93.4967 30.4911 93.5153C30.8963 93.9579 31.3106 94.3913 31.7308 94.8236C31.8608 94.9566 31.9942 95.0909 32.1277 95.2241C32.4531 95.5508 32.7835 95.8715 33.1173 96.1942C33.253 96.3223 33.3873 96.4544 33.522 96.5783C33.9681 96.9985 34.4185 97.4101 34.8779 97.8118C34.8861 97.8199 34.8917 97.8262 34.8995 97.8292C34.9773 97.8989 35.0582 97.9656 35.1351 98.03C35.5403 98.3812 35.9522 98.7296 36.3671 99.0719C36.5361 99.2082 36.7071 99.3434 36.8773 99.4785C37.2165 99.7502 37.559 100.018 37.9043 100.281C38.0867 100.42 38.2695 100.559 38.4534 100.699C38.834 100.977 39.2176 101.255 39.6054 101.524C39.7469 101.627 39.8835 101.725 40.0256 101.823C40.0645 101.85 40.1004 101.879 40.1403 101.905C40.5081 102.157 40.8835 102.402 41.2589 102.645C41.4202 102.752 41.5806 102.863 41.7435 102.968C42.3197 103.331 42.9043 103.692 43.4952 104.041C43.6562 104.133 43.8179 104.223 43.9792 104.314C44.4136 104.565 44.8506 104.811 45.2942 105.051C45.5333 105.18 45.7797 105.302 46.021 105.425C46.3344 105.59 46.6448 105.756 46.9624 105.914C47.0346 105.951 47.1094 105.986 47.1806 106.02C47.3076 106.081 47.4366 106.142 47.5652 106.206C48.058 106.442 48.5548 106.672 49.0559 106.896C49.163 106.943 49.266 106.991 49.3719 107.037C49.9463 107.288 50.5255 107.53 51.1116 107.761C51.2519 107.817 51.3938 107.872 51.5353 107.928C52.0768 108.136 52.6254 108.342 53.176 108.536C53.2461 108.56 53.3133 108.583 53.3823 108.606C53.9872 108.818 54.5978 109.014 55.213 109.206C55.3594 109.249 55.5069 109.296 55.6545 109.339C56.2804 109.527 56.8982 109.752 57.5447 109.871C98.5455 117.348 110.455 85.232 110.455 85.232C100.453 98.2633 82.6977 101.701 65.8752 97.8738C65.2374 97.7304 64.6196 97.5316 63.9976 97.3472C63.8395 97.3002 63.6848 97.2532 63.5291 97.205C62.9221 97.0185 62.3202 96.823 61.7215 96.617C61.6395 96.5883 61.5565 96.5577 61.473 96.5277C60.9368 96.3393 60.4071 96.1406 59.8789 95.9365C59.7298 95.8772 59.5807 95.8209 59.4322 95.7614C58.8536 95.533 58.2783 95.2942 57.7111 95.0454C57.5938 94.9961 57.4821 94.9439 57.3675 94.8925C56.8795 94.6722 56.3968 94.4501 55.9148 94.2184C55.7765 94.151 55.6371 94.0854 55.4958 94.0169C55.1187 93.8334 54.7448 93.6377 54.373 93.4461C54.1236 93.315 53.8701 93.1901 53.6237 93.0537C53.1688 92.81 52.7222 92.5568 52.278 92.2988C52.1269 92.2138 51.9748 92.1327 51.8231 92.0456C51.2319 91.6974 50.6479 91.3368 50.0702 90.971C49.9109 90.8697 49.7547 90.7611 49.5975 90.6566C49.1785 90.3861 48.761 90.1116 48.3506 89.8267C48.2144 89.7366 48.0823 89.6362 47.9486 89.545C47.5515 89.2654 47.1592 88.9807 46.7693 88.6927C46.593 88.5626 46.4185 88.4273 46.2469 88.2971C45.8899 88.0238 45.5345 87.7493 45.1831 87.4653C45.0248 87.3393 44.8655 87.2123 44.7087 87.0852C44.2615 86.7175 43.82 86.3487 43.3836 85.9696C43.338 85.9286 43.2883 85.8897 43.2387 85.8477C42.7673 85.4328 42.3033 85.0076 41.8459 84.5804C41.7127 84.4534 41.5837 84.3305 41.4535 84.2024C41.114 83.8808 40.7805 83.5549 40.4528 83.222C40.3216 83.0909 40.1894 82.9607 40.0604 82.8308C39.643 82.4025 39.2336 81.9702 38.8322 81.5308C38.8121 81.5092 38.7912 81.4898 38.7717 81.4661C38.347 81.002 37.9321 80.5278 37.5259 80.0483C37.4158 79.9171 37.3088 79.7902 37.1996 79.661C36.897 79.2961 36.5968 78.9262 36.3038 78.5525C36.1931 78.4193 36.0831 78.2809 35.9743 78.1437C35.6219 77.6857 35.2768 77.2301 34.9386 76.7647C25.5983 64.0268 22.2428 46.4552 29.7074 32.0247" fill="#281437"/>
<path d="M49.4073 30.1516C43.276 38.9754 43.609 50.7852 48.3917 60.1172C49.1939 61.6815 50.0954 63.1987 51.1039 64.6442C52.0223 65.9606 53.0402 67.527 54.2591 68.584C54.7018 69.0707 55.1633 69.5461 55.6351 70.0123C55.7545 70.1353 55.8764 70.2511 55.9982 70.3718C56.4556 70.8145 56.9217 71.2519 57.4032 71.676C57.4231 71.6924 57.4407 71.7117 57.4607 71.7251C57.4658 71.7312 57.4709 71.7334 57.4739 71.7395C58.0067 72.2058 58.5566 72.6554 59.1155 73.0969C59.2394 73.1912 59.3624 73.2906 59.4879 73.3879C60.0476 73.8171 60.619 74.2403 61.2048 74.6419C61.2222 74.654 61.2371 74.6665 61.2545 74.6809C61.5128 74.8581 61.7765 75.0249 62.0378 75.1963C62.1638 75.2783 62.2832 75.3653 62.4098 75.4421C62.8277 75.7096 63.2514 75.9709 63.6822 76.2217C63.743 76.2597 63.8031 76.2903 63.8621 76.3253C64.2333 76.5393 64.6098 76.7504 64.9875 76.9542C65.1192 77.029 65.2533 77.0934 65.3876 77.1632C65.6483 77.2996 65.9091 77.4377 66.1749 77.5709C66.2132 77.5894 66.2548 77.6077 66.2931 77.6241C66.8335 77.8903 67.3791 78.1467 67.9353 78.3883C68.0538 78.4405 68.1765 78.4875 68.298 78.5378C68.7422 78.7263 69.1918 78.9109 69.6426 79.084C69.8342 79.1567 70.0278 79.2253 70.2194 79.2961C70.6286 79.4478 71.0407 79.5869 71.455 79.7263C71.6424 79.7856 71.8262 79.8472 72.0138 79.9045C72.6033 80.0868 73.1857 80.3182 73.8003 80.4206C105.457 85.666 112.766 61.2919 112.766 61.2919C106.177 70.7782 93.4187 75.3075 79.8042 71.7731C79.1998 71.6144 78.6039 71.4412 78.012 71.2547C77.8307 71.1995 77.6525 71.14 77.473 71.0805C77.0519 70.9443 76.6334 70.799 76.2186 70.6484C76.0285 70.5797 75.8388 70.5101 75.6525 70.4384C75.1976 70.2632 74.7483 70.0828 74.3027 69.8933C74.1812 69.8412 74.0578 69.7949 73.939 69.7397C73.3801 69.4969 72.83 69.2398 72.287 68.9734C72.0078 68.8359 71.7338 68.6917 71.4593 68.5514C71.3004 68.4684 71.1406 68.3864 70.9813 68.3044C70.6284 68.1127 70.2785 67.9151 69.9328 67.7133C69.8514 67.6662 69.7658 67.6222 69.6829 67.5718C69.2538 67.3209 68.8316 67.0628 68.4135 66.7974C68.2844 66.7144 68.1605 66.6253 68.0315 66.5412C67.7554 66.3621 67.4798 66.1807 67.2092 65.9973C66.6258 65.5958 66.0577 65.1738 65.4983 64.7455C65.3693 64.644 65.2397 64.5446 65.1131 64.4432C59.1533 59.7378 54.4307 53.3073 52.1849 46.0173C49.8313 38.4547 50.338 29.968 54.4158 23.0796" fill="#281437"/>
<path d="M71.5421 22.4818C67.9277 27.8008 67.5727 34.4066 70.0807 40.2818C72.7253 46.5177 78.1448 51.4095 84.4708 53.7279C84.7315 53.8251 84.9917 53.9122 85.2566 54.0014C85.3716 54.0373 85.4859 54.0762 85.6027 54.11C85.9752 54.2277 86.3455 54.3642 86.7308 54.4367C104.21 57.8143 108.951 45.4665 110.213 43.649C106.06 49.6287 99.081 51.0642 90.5172 48.9866C89.8405 48.8205 89.0967 48.5768 88.4451 48.3452C87.6091 48.048 86.7855 47.7079 85.9845 47.3238C84.4642 46.5933 83.015 45.7063 81.6704 44.6919C74.0079 38.8772 69.2468 27.7853 74.2473 18.7515" fill="#281437"/>
</svg>
