<svg width="650" height="650" viewBox="0 0 650 650" fill="none" xmlns="http://www.w3.org/2000/svg">
<path d="M289.007 2.12573L289.175 3.31579C288.195 3.44017 287.243 3.72383 286.354 4.15555C286.055 4.32084 285.797 4.55174 285.599 4.83094C285.402 5.11015 285.27 5.43049 285.213 5.76794C285.079 6.86201 285.109 7.97013 285.304 9.05506L289.366 38.5283C289.472 39.6148 289.74 40.6792 290.162 41.6858C290.302 41.9998 290.513 42.2761 290.78 42.4922C291.047 42.7083 291.361 42.8578 291.697 42.9286C292.671 43.087 293.661 43.1129 294.642 43.0055L294.805 44.1955C293.807 44.2531 292.532 44.3779 290.968 44.5698C289.405 44.7618 287.856 44.968 286.273 45.1888C284.489 45.4335 282.83 45.6686 281.285 45.9086C279.741 46.1485 278.485 46.3645 277.506 46.5804L277.343 45.3904C278.337 45.2278 279.305 44.9324 280.221 44.5122C280.523 44.3548 280.782 44.1263 280.976 43.8462C281.17 43.5661 281.292 43.2428 281.333 42.9046C281.44 41.8197 281.4 40.7253 281.213 39.6512L277.156 10.1779C277.046 9.08174 276.785 8.00622 276.379 6.98202C276.245 6.67116 276.039 6.39655 275.778 6.18056C275.517 5.96458 275.209 5.81328 274.878 5.73912C273.886 5.56295 272.872 5.54844 271.876 5.69601L271.713 4.51064C272.71 4.41467 273.989 4.27878 275.55 4.10283C277.11 3.92688 278.779 3.72212 280.556 3.48859C282.139 3.27265 283.702 3.03753 285.237 2.7832C286.772 2.52887 288.024 2.30328 289.007 2.12573Z" fill="#EBD8F6"/>
<path d="M348.179 0.609437V1.8091C347.143 1.83716 346.13 2.12065 345.23 2.63445C344.506 3.13668 344.008 3.90361 343.844 4.76982C343.57 6.14108 343.436 7.53679 343.446 8.93513L342.894 43.1782C342.506 43.1314 342.115 43.1058 341.724 43.1014C341.307 43.1014 340.856 43.1014 340.376 43.1398L315.227 7.75456L314.81 33.6672C314.747 35.1638 314.842 36.6628 315.093 38.1396C315.168 38.6137 315.346 39.0656 315.615 39.4635C315.883 39.8613 316.235 40.1956 316.647 40.443C317.811 41.0028 319.074 41.3273 320.363 41.3979V42.5976C319.606 42.5016 318.627 42.4392 317.428 42.3961C316.229 42.3529 315.093 42.3288 314.013 42.3144C313.054 42.2952 312.084 42.2952 311.103 42.3144C310.143 42.3144 309.314 42.3576 308.676 42.4248V41.2251C309.72 41.1694 310.738 40.8792 311.654 40.3758C312.372 39.8704 312.86 39.1006 313.011 38.2356C313.285 36.8756 313.418 35.4912 313.409 34.104L313.855 6.39663C313.917 5.29649 313.823 4.1931 313.577 3.11912C313.489 2.79453 313.326 2.49518 313.101 2.24515C312.876 1.99512 312.596 1.80139 312.282 1.67953C311.328 1.36198 310.329 1.19996 309.323 1.19966V0C309.961 0.0527851 310.762 0.105608 311.75 0.158393C312.738 0.211178 313.697 0.249558 314.656 0.268752C315.615 0.287947 316.474 0.268752 317.356 0.268752C318.239 0.268752 319.011 0.216005 319.692 0.187213L341.686 30.481L342.026 9.42929C342.091 7.92153 341.996 6.41123 341.743 4.92341C341.663 4.45458 341.485 4.00761 341.223 3.61105C340.96 3.21449 340.618 2.87701 340.218 2.62004C339.427 2.14018 338.175 1.80907 336.458 1.66031V0.460651C337.216 0.511837 338.204 0.567868 339.422 0.62865C340.64 0.689433 341.769 0.727818 342.808 0.743813C343.805 0.743813 344.798 0.743813 345.777 0.743813C346.755 0.743813 347.58 0.609437 348.179 0.609437Z" fill="#EBD8F6"/>
<path d="M403.442 9.28054C402.944 11.056 402.503 12.7931 402.119 14.4918C401.735 16.1905 401.459 17.491 401.289 18.3932C401.121 19.3001 400.977 20.1447 400.872 20.9413C400.766 21.7378 400.67 22.4288 400.598 23.0238L399.241 22.7695C399.342 20.1621 399.141 17.5519 398.642 14.9909C398.326 13.3028 397.501 11.7521 396.277 10.5473C395.149 9.52042 393.55 8.80864 391.482 8.41195L389.597 8.05686L383.238 41.6474C382.954 42.8508 382.875 44.0933 383.003 45.3231C383.072 45.7425 383.246 46.1379 383.507 46.4732C383.768 46.8084 384.109 47.0729 384.499 47.2425C385.736 47.7892 387.034 48.187 388.364 48.4278L388.139 49.6084C386.978 49.306 385.453 48.9701 383.573 48.591C381.693 48.2119 379.77 47.8424 377.818 47.4681C375.775 47.0778 373.857 46.7243 372.063 46.4076C370.27 46.0909 368.818 45.867 367.709 45.7358L367.929 44.5602C369.237 44.8147 370.57 44.9129 371.9 44.8528C372.325 44.836 372.74 44.7169 373.109 44.5056C373.478 44.2942 373.79 43.9968 374.02 43.6388C374.61 42.5473 375.001 41.3596 375.176 40.131L381.53 6.54053L379.588 6.17583C377.856 5.77048 376.046 5.85016 374.356 6.40615C372.768 7.06896 371.427 8.21136 370.519 9.67394C369.119 11.8707 367.992 14.2298 367.162 16.6992L365.805 16.4449C366.02 15.7769 366.2 15.0977 366.342 14.4103C366.511 13.6265 366.682 12.7835 366.855 11.8814C367.023 10.9792 367.243 9.66441 367.507 7.9465C367.771 6.22859 367.987 4.44823 368.179 2.61035C369.902 2.97505 371.799 3.37494 373.871 3.81001C375.943 4.24509 378.021 4.65941 380.106 5.0529L385.818 6.1326L391.472 7.20269C393.553 7.59937 395.632 7.97531 397.707 8.33041L403.442 9.28054Z" fill="#EBD8F6"/>
<path d="M423.143 14.8181C424.063 15.2116 425.245 15.7026 426.687 16.2912C428.129 16.8798 429.58 17.4509 431.041 18.0044C432.87 18.6986 434.614 19.3384 436.274 19.9238C437.933 20.5093 439.098 20.9299 439.77 21.1858C443.133 22.4654 445.757 23.9195 447.64 25.5478C449.523 27.1762 450.728 28.9276 451.256 30.8023C451.781 32.7056 451.667 34.729 450.93 36.5607C450.426 37.8509 449.693 39.0393 448.767 40.0685C447.7 41.2328 446.372 42.126 444.892 42.6741C442.997 43.3451 440.984 43.618 438.978 43.4756C436.641 43.386 433.866 42.7302 430.653 41.5081L425.272 39.4639L425.699 38.3458L430.495 40.1741C432.851 41.0666 434.813 41.329 436.379 40.9611C437.89 40.6381 439.236 39.7876 440.177 38.5618C441.202 37.212 442.019 35.7157 442.599 34.123C443.715 31.1703 444.003 28.6605 443.463 26.5939C442.922 24.5273 441.231 22.9566 438.389 21.8817C436.859 21.2963 435.737 21.2386 435.032 21.6945C434.327 22.1504 433.593 23.3548 432.864 25.2983L422.313 53.1304C421.905 54.1345 421.65 55.1939 421.555 56.2735C421.528 56.6154 421.582 56.9588 421.713 57.2757C421.844 57.5926 422.048 57.8741 422.308 58.097C423.086 58.7027 423.943 59.1998 424.855 59.575L424.428 60.6979C423.522 60.266 422.347 59.767 420.893 59.196C419.44 58.6249 417.973 58.0539 416.476 57.4876C414.798 56.8478 413.225 56.2624 411.757 55.7314C410.29 55.2003 409.076 54.794 408.117 54.5125L408.544 53.3896C409.494 53.7228 410.484 53.9262 411.489 53.9942C411.828 54.0016 412.165 53.9254 412.469 53.7723C412.772 53.6192 413.033 53.3938 413.23 53.116C413.838 52.2141 414.322 51.2344 414.668 50.2033L425.219 22.3712C425.648 21.3584 425.934 20.2908 426.068 19.1992C426.097 18.8613 426.047 18.5213 425.921 18.2063C425.795 17.8914 425.598 17.6102 425.344 17.3853C424.557 16.7554 423.672 16.2578 422.725 15.9121L423.143 14.8181ZM425.632 38.5378C427.361 39.2768 428.8 39.9166 429.948 40.4572C431.096 40.9979 432.072 41.4649 432.878 41.8584C433.693 42.2519 434.414 42.6326 435.041 43.0005C438.027 44.4721 440.045 46.0604 441.094 47.7656C442.142 49.4707 442.462 51.5708 442.053 54.0661L441.156 60.3332C440.922 61.5504 440.872 62.796 441.007 64.0281C441.054 64.3949 441.207 64.7399 441.449 65.0198C441.69 65.2998 442.009 65.5022 442.364 65.6021C442.842 65.8001 443.372 65.8322 443.87 65.6932C444.418 65.5232 444.941 65.2795 445.424 64.9687L445.956 65.9285C444.758 66.6773 443.417 67.1676 442.019 67.3681C440.555 67.4806 439.085 67.242 437.732 66.6722C436.104 66.1166 434.686 65.0748 433.669 63.6874C432.752 62.379 432.515 60.4595 432.96 57.9291L434.02 51.9163C434.295 50.4145 434.474 48.8967 434.557 47.372C434.649 46.2087 434.467 45.04 434.024 43.9603C433.602 43.0341 432.739 42.319 431.435 41.8248L425.378 39.5263L425.632 38.5378Z" fill="#EBD8F6"/>
<path d="M494.864 47.2042C498.095 49.0891 500.783 51.7789 502.667 55.0116C504.392 58.0754 505.173 61.5817 504.911 65.0888C504.674 68.7198 503.357 72.4962 500.959 76.4183C498.622 80.238 495.836 83.1252 492.6 85.0799C489.511 86.995 485.947 88.0043 482.313 87.9927C478.571 87.9413 474.918 86.8479 471.762 84.8352C468.287 82.7046 465.686 80.1021 463.959 77.0278C462.234 73.9644 461.459 70.4562 461.734 66.9506C461.974 63.3004 463.285 59.5319 465.667 55.645C468.004 51.8253 470.8 48.9461 474.055 47.0074C477.149 45.1045 480.71 44.0964 484.342 44.0947C488.07 44.1295 491.715 45.2065 494.864 47.2042ZM494.096 48.0008C493.113 47.3927 492.014 46.9974 490.869 46.8404C489.725 46.6833 488.559 46.7681 487.449 47.0891C485.029 47.7289 482.585 49.138 480.116 51.3166C477.386 53.8279 475.041 56.7288 473.158 59.9254C471.135 63.0871 469.649 66.5618 468.76 70.2089C468.041 73.4528 468.021 76.2792 468.702 78.6881C469.239 80.8984 470.615 82.8126 472.539 84.0242C473.522 84.6323 474.621 85.0275 475.766 85.1845C476.911 85.3415 478.076 85.2569 479.186 84.9359C481.61 84.2961 484.06 82.8774 486.538 80.6796C489.262 78.1779 491.605 75.2904 493.492 72.1091C495.73 68.4622 497.201 65.0264 497.904 61.8017C498.608 58.577 498.63 55.7649 497.971 53.3656C497.436 51.1367 496.043 49.2091 494.096 48.0008Z" fill="#EBD8F6"/>
<path d="M542.357 83.7509C548.013 88.9398 550.994 94.1031 551.301 99.2409C551.608 104.379 549.504 109.411 544.99 114.337C542.048 117.536 538.807 119.728 535.264 120.912C531.726 122.082 527.919 122.173 524.329 121.171C520.579 120.173 516.893 118.012 513.27 114.688C512.829 114.285 512.244 113.728 511.52 113.003C510.796 112.279 510.038 111.564 509.242 110.786C508.446 110.009 507.707 109.347 507.031 108.718C505.822 107.608 504.638 106.533 503.477 105.494C502.312 104.457 501.338 103.627 500.547 103.013L501.357 102.125C502.116 102.788 502.961 103.345 503.87 103.78C504.18 103.909 504.516 103.96 504.85 103.931C505.184 103.902 505.506 103.793 505.789 103.612C506.694 103.005 507.512 102.277 508.22 101.448L528.32 79.5232C529.093 78.7405 529.753 77.8538 530.281 76.8888C530.434 76.5859 530.513 76.2515 530.513 75.9123C530.513 75.5731 530.434 75.2386 530.281 74.9357C529.782 74.0604 529.146 73.2714 528.396 72.5988L529.207 71.7158L531.931 74.4175C533.04 75.5148 534.183 76.5769 535.36 77.6038L539.019 80.7997C540.391 81.9834 541.503 82.9671 542.357 83.7509ZM541.23 84.1827C539.873 82.935 538.76 82.3784 537.873 82.4984C536.986 82.6183 535.859 83.4582 534.458 84.9841L514.196 107.087C512.789 108.619 512.071 109.831 512.043 110.724C512.009 111.617 512.671 112.682 514.023 113.929C516.766 116.438 519.442 117.821 522.051 118.08C524.66 118.339 527.311 117.637 530.003 115.974C532.689 114.32 535.504 111.885 538.449 108.67C541.476 105.369 543.636 102.317 544.928 99.5144C546.219 96.712 546.579 94.0583 546.007 91.5535C545.444 89.0454 543.852 86.5884 541.23 84.1827Z" fill="#EBD8F6"/>
<path d="M596.125 145.293L595.165 146.013C594.514 145.218 593.673 144.599 592.72 144.214C591.877 143.969 590.975 144.048 590.187 144.434C588.925 145.038 587.734 145.781 586.639 146.652L573.373 156.647C571.461 158.11 569.437 159.42 567.321 160.568C565.595 161.515 563.7 162.114 561.743 162.329C559.701 162.522 557.646 162.127 555.82 161.191C553.605 160.04 551.697 158.375 550.257 156.335C549.109 154.812 548.143 153.16 547.38 151.412C546.63 149.721 546.301 147.874 546.42 146.028C546.488 144.487 546.855 142.975 547.5 141.575C548.239 140.076 549.241 138.722 550.459 137.577C552.077 136.033 553.789 134.591 555.585 133.258L570.625 121.934C571.524 121.305 572.331 120.554 573.023 119.702C573.227 119.432 573.366 119.118 573.427 118.785C573.489 118.451 573.472 118.108 573.378 117.783C573.042 116.832 572.556 115.941 571.939 115.144L572.898 114.419C573.467 115.244 574.206 116.29 575.114 117.557C576.016 118.829 577.032 120.182 578.092 121.622C579.077 122.933 580.066 124.213 581.061 125.461C582.054 126.718 582.879 127.745 583.536 128.551L582.576 129.276C581.956 128.433 581.208 127.692 580.361 127.078C580.072 126.882 579.74 126.756 579.394 126.711C579.048 126.666 578.695 126.703 578.366 126.819C577.343 127.229 576.388 127.794 575.536 128.493L558.199 141.55C556.739 142.633 555.368 143.83 554.099 145.13C553.062 146.169 552.205 147.372 551.562 148.691C551.016 149.841 550.836 151.13 551.044 152.386C551.34 153.859 551.991 155.237 552.938 156.402C554.693 158.734 556.578 160.142 558.592 160.625C560.748 161.097 562.997 160.875 565.019 159.992C567.518 158.95 569.869 157.584 572.011 155.927L585.44 145.85C586.68 144.978 587.807 143.956 588.797 142.808C589.109 142.439 589.343 142.011 589.486 141.549C589.628 141.087 589.676 140.601 589.626 140.121C589.403 138.882 588.912 137.708 588.188 136.68L589.147 135.955C589.569 136.595 590.132 137.411 590.835 138.403C591.535 139.401 592.197 140.322 592.82 141.147C593.444 141.973 594.034 142.721 594.652 143.48C595.271 144.238 595.736 144.838 596.125 145.293Z" fill="#EBD8F6"/>
<path d="M616.841 180.712C618.03 183.067 618.659 185.178 618.726 187.046C618.801 188.816 618.666 190.588 618.323 192.325C618.15 193.307 618.363 193.883 618.961 194.052C619.559 194.222 620.662 193.992 622.27 193.361L622.889 194.59C621.498 195.204 619.811 195.988 617.829 196.941C615.847 197.894 613.251 199.174 610.041 200.78L609.417 199.547C610.92 198.523 612.151 197.613 613.11 196.816C613.986 196.11 614.757 195.281 615.397 194.355C615.989 193.435 616.433 192.428 616.712 191.37C617.297 189.893 617.517 188.296 617.354 186.715C617.2 185.113 616.746 183.553 616.016 182.118C615.183 180.367 613.811 178.93 612.103 178.015C610.32 177.105 608.349 176.624 606.348 176.609C604 176.583 601.661 176.906 599.408 177.569C596.813 178.303 594.296 179.29 591.893 180.515C589.449 181.727 587.14 183.196 585.006 184.897C583.169 186.338 581.564 188.053 580.249 189.983C579.12 191.619 578.398 193.501 578.143 195.473C577.937 197.407 578.313 199.358 579.222 201.078C579.933 202.462 580.881 203.711 582.023 204.768C583.143 205.866 584.532 206.649 586.052 207.037C587.653 207.671 589.4 207.837 591.092 207.517C593.287 207.052 595.438 206.395 597.519 205.555L598.142 206.788C594.785 208.477 592.09 209.858 590.056 210.929C588.023 212.001 586.328 212.922 584.973 213.693L584.349 212.46C585.814 211.545 586.656 210.819 586.877 210.281C587.097 209.744 586.76 209.208 585.865 208.674C584.265 207.814 582.743 206.818 581.313 205.699C579.872 204.566 578.565 202.839 577.395 200.516C575.563 196.872 574.722 193.289 574.873 189.767C575.018 186.251 576.207 182.858 578.287 180.021C580.413 177.046 583.511 174.533 587.582 172.482C591.575 170.467 595.468 169.49 599.259 169.551C602.892 169.564 606.449 170.584 609.537 172.497C612.693 174.496 615.224 177.343 616.841 180.712Z" fill="#EBD8F6"/>
<path d="M640.173 245.532C638.555 245.852 637.001 246.204 635.511 246.588C634.021 246.972 632.893 247.281 632.125 247.514C631.401 247.73 630.687 247.96 630.049 248.2C629.411 248.44 628.835 248.647 628.389 248.824L627.992 247.504C630.549 246.401 632.477 245.281 633.775 244.145C634.961 243.193 635.796 241.873 636.149 240.393C636.41 238.766 636.265 237.099 635.727 235.542L634.768 232.384C634.531 231.484 634.168 230.623 633.689 229.826C633.518 229.562 633.284 229.345 633.009 229.193C632.734 229.04 632.425 228.958 632.111 228.953C631.121 228.982 630.141 229.162 629.205 229.486L599.806 238.325C598.859 238.572 597.953 238.96 597.121 239.476C596.853 239.65 596.633 239.888 596.482 240.169C596.331 240.45 596.254 240.765 596.257 241.084C596.293 242.014 596.462 242.933 596.761 243.814L597.72 247.087C598.176 248.806 599.058 250.383 600.286 251.67C601.541 252.835 603.132 253.574 604.832 253.781C606.751 254.082 609.216 253.987 612.228 253.498L612.626 254.818C611.407 255.061 609.86 255.464 607.983 256.027C607.177 256.273 606.018 256.654 604.506 257.169C602.994 257.684 601.437 258.266 599.835 258.916C599.327 256.939 598.713 254.723 597.993 252.27C597.274 249.816 596.635 247.629 596.075 245.71C595.81 244.827 595.461 243.669 595.03 242.236C594.598 240.802 594.119 239.254 593.591 237.591C593.067 235.93 592.541 234.251 592.013 232.552C591.486 230.853 590.971 229.244 590.469 227.724L591.62 227.379C591.933 228.336 592.376 229.247 592.934 230.085C593.135 230.36 593.4 230.58 593.706 230.728C594.012 230.877 594.349 230.947 594.689 230.935C595.777 230.876 596.852 230.668 597.883 230.316L626.361 221.755C627.424 221.477 628.444 221.054 629.392 220.498C629.679 220.316 629.918 220.069 630.092 219.778C630.265 219.486 630.367 219.157 630.389 218.818C630.411 217.81 630.269 216.805 629.967 215.843L631.118 215.498C631.534 217.043 631.991 218.669 632.49 220.378C632.989 222.086 633.468 223.777 633.929 225.45C634.408 227.125 634.888 228.675 635.3 230.114C635.713 231.554 636.077 232.705 636.346 233.588C636.873 235.351 637.484 237.349 638.178 239.582C638.872 241.815 639.537 243.798 640.173 245.532ZM625.838 241.578C623.6 242.077 621.915 242.511 620.783 242.879C619.651 243.247 618.601 243.566 617.632 243.838C616.673 244.126 615.626 244.461 614.491 244.841C613.356 245.222 611.721 245.819 609.585 246.631L609.187 245.311C610.393 244.753 611.542 244.082 612.621 243.306C613.612 242.622 614.39 241.672 614.865 240.566C615.316 239.491 615.297 238.166 614.813 236.54L615.964 236.194C616.224 237.228 616.786 238.16 617.58 238.872C618.297 239.467 619.142 239.889 620.05 240.105C620.962 240.325 621.898 240.431 622.836 240.422C623.707 240.417 624.577 240.354 625.44 240.235L625.838 241.578ZM617.757 242.188L616.611 242.533L613.537 232.312L614.688 231.966L617.757 242.188Z" fill="#EBD8F6"/>
<path d="M650.001 346.246H648.802C648.796 345.25 648.634 344.26 648.322 343.314C648.201 342.993 648.005 342.705 647.751 342.475C647.496 342.245 647.191 342.078 646.86 341.989C645.787 341.746 644.687 341.652 643.589 341.711L613.855 342.191C612.763 342.165 611.673 342.304 610.622 342.604C610.295 342.704 609.995 342.881 609.749 343.119C609.503 343.358 609.318 343.652 609.207 343.976C608.932 344.925 608.787 345.906 608.776 346.894H607.577C607.637 345.854 607.666 344.533 607.663 342.93C607.663 341.332 607.639 339.71 607.61 338.074C607.582 336.274 607.548 334.585 607.5 333.006C607.452 331.428 607.385 330.161 607.289 329.201H608.488C608.533 330.246 608.71 331.281 609.015 332.282C609.127 332.611 609.316 332.909 609.566 333.151C609.817 333.392 610.121 333.57 610.454 333.669C611.514 333.932 612.606 334.035 613.696 333.976L646.308 333.443L646.255 333.865L606.929 319.628V318.668L645.454 302.204L615.72 302.684C614.222 302.669 612.727 302.813 611.26 303.116C610.788 303.205 610.341 303.397 609.952 303.678C609.562 303.959 609.239 304.323 609.006 304.742C608.472 305.927 608.177 307.206 608.138 308.505H606.939C607.006 307.74 607.04 306.759 607.04 305.563C607.04 304.363 607.04 303.221 607.016 302.142C607.016 301.182 606.972 300.222 606.939 299.234C606.905 298.245 606.838 297.449 606.752 296.834H607.951C608.042 297.878 608.37 298.887 608.91 299.785C609.437 300.485 610.22 300.948 611.087 301.071C612.456 301.3 613.844 301.389 615.231 301.335L642.922 300.884C644.022 300.909 645.119 300.779 646.183 300.5C646.512 300.407 646.813 300.237 647.063 300.004C647.313 299.771 647.505 299.483 647.622 299.162C647.916 298.197 648.05 297.19 648.02 296.182H649.219C649.19 296.825 649.166 297.621 649.142 298.615C649.118 299.608 649.113 300.563 649.142 301.523C649.165 303.001 649.208 304.44 649.272 305.841C649.336 307.243 649.397 308.481 649.454 309.556L617.475 322.992L616.372 321.691L649.665 333.688C649.665 334.288 649.665 334.921 649.694 335.579C649.723 336.236 649.694 336.869 649.723 337.469C649.751 339.106 649.794 340.728 649.862 342.325C649.929 343.923 649.943 345.209 650.001 346.246Z" fill="#EBD8F6"/>
<path d="M621.699 384.698L607.902 382.159C606.837 381.921 605.743 381.843 604.655 381.929C604.314 381.962 603.985 382.076 603.697 382.261C603.408 382.446 603.168 382.697 602.996 382.994C602.539 383.869 602.203 384.802 601.998 385.768L600.818 385.552C601.077 384.592 601.362 383.324 601.672 381.746C601.979 380.173 602.276 378.604 602.569 377.03C602.876 375.34 603.164 373.714 603.432 372.159C603.701 370.604 603.878 369.342 603.974 368.387L605.154 368.603C604.996 369.597 604.974 370.607 605.087 371.607C605.139 371.944 605.274 372.262 605.479 372.534C605.684 372.806 605.953 373.023 606.262 373.167C607.257 373.612 608.309 373.919 609.389 374.078L621.474 376.3L616.995 380.11L621.699 384.698ZM640.988 401.786L639.808 401.57C639.622 400.53 639.158 399.56 638.466 398.763C637.313 397.387 635.993 396.161 634.538 395.111L614.045 379.568L614.448 377.385L642.456 368.267C643.966 367.787 644.983 367.307 645.497 366.828C645.93 366.479 646.242 366.002 646.388 365.465L647.626 365.69C647.408 366.631 647.177 367.616 646.93 368.646C646.681 369.673 646.451 370.801 646.216 372.005C645.928 373.579 645.637 375.275 645.343 377.092C645.049 378.909 644.798 380.611 644.59 382.198L643.353 381.967C643.523 381.079 643.607 380.175 643.602 379.271C643.626 378.94 643.575 378.609 643.452 378.301C643.329 377.993 643.137 377.718 642.892 377.495C642.413 377.121 641.665 377.082 640.6 377.375L620.582 383.575L619.191 381.857L631.282 391.032C633.635 392.807 635.534 393.858 636.979 394.185C638.424 394.511 639.532 394.289 640.303 393.518C641.075 392.74 641.631 391.555 641.967 389.948L643.142 390.163L642.35 393.83C642.095 394.981 641.863 396.128 641.655 397.27C641.482 398.23 641.348 399.07 641.252 399.789C641.137 400.524 641.055 401.191 640.988 401.776V401.786Z" fill="#EBD8F6"/>
<path d="M621.773 458.506C620.852 460.547 619.925 462.013 618.992 462.906C618.155 463.727 617.243 464.468 616.267 465.118C615.812 465.44 615.462 465.708 615.212 465.924C614.978 466.115 614.79 466.356 614.661 466.63C614.58 466.81 614.561 467.011 614.605 467.203C614.649 467.396 614.755 467.568 614.906 467.695C615.394 468.166 615.937 468.579 616.522 468.923L615.951 470.181C615.276 469.829 614.496 469.419 613.611 468.952C612.725 468.485 611.531 467.901 610.028 467.201C608.525 466.494 606.537 465.582 604.062 464.465L604.628 463.208C606.517 463.934 608.514 464.338 610.536 464.403C612.46 464.486 614.376 464.113 616.128 463.314C617.9 462.444 619.289 460.953 620.032 459.124C620.828 457.518 620.983 455.668 620.464 453.952C620.196 453.117 619.747 452.353 619.149 451.713C618.551 451.072 617.819 450.572 617.006 450.247C615.654 449.576 614.12 449.365 612.637 449.647C611.052 450.028 609.541 450.667 608.163 451.538C606.564 452.498 604.709 453.665 602.599 455.041C600.623 456.298 598.742 457.378 596.955 458.28C595.295 459.142 593.493 459.698 591.636 459.921C589.696 460.08 587.748 459.71 586.001 458.851C583.635 457.776 581.934 456.303 580.898 454.431C579.848 452.511 579.372 450.329 579.527 448.145C579.676 445.732 580.276 443.369 581.296 441.178C582.02 439.428 583.022 437.807 584.265 436.379C585.147 435.433 586.095 434.553 587.104 433.745C587.759 433.386 588.31 432.866 588.706 432.233C588.787 432.053 588.807 431.852 588.764 431.66C588.721 431.468 588.616 431.295 588.466 431.168C587.977 430.698 587.435 430.287 586.85 429.944L587.416 428.687C588.221 429.138 589.18 429.629 590.293 430.16L594.667 432.204C596.461 433.039 598.74 434.084 601.506 435.338L600.94 436.595C598.664 435.713 596.283 435.132 593.857 434.867C591.715 434.597 589.54 434.907 587.56 435.765C585.686 436.609 584.222 438.196 583.167 440.525C582.611 441.71 582.309 442.998 582.279 444.306C582.259 445.532 582.611 446.734 583.286 447.756C584.101 448.921 585.235 449.825 586.552 450.358C587.922 451.011 589.447 451.267 590.955 451.096C592.52 450.883 594.034 450.396 595.429 449.657C597.15 448.756 598.814 447.751 600.412 446.648C602.28 445.429 604.115 444.329 605.918 443.347C607.613 442.401 609.468 441.78 611.39 441.514C613.388 441.295 615.408 441.65 617.212 442.536C619.466 443.556 621.065 444.94 622.008 446.686C622.954 448.443 623.387 450.43 623.26 452.421C623.149 454.524 622.645 456.588 621.773 458.506Z" fill="#EBD8F6"/>
<path d="M583.79 521.977L582.792 521.305C583.356 519.981 583.694 518.571 583.794 517.135C583.884 515.252 583.634 513.368 583.056 511.574L577.852 494.39L579.924 499.045L554.027 498.872C553.032 498.869 552.041 499.003 551.082 499.27C550.122 499.583 549.219 500.051 548.411 500.657L547.418 499.985C548.176 499 549.01 497.851 549.922 496.54C550.833 495.228 551.656 494.022 552.391 492.921C552.813 492.282 553.334 491.482 553.955 490.522C554.575 489.562 555.333 488.35 556.228 486.885L557.221 487.552C556.396 488.924 556.051 489.849 556.185 490.325C556.319 490.802 556.959 491.061 558.103 491.103L574.409 491.544C575.37 491.604 576.334 491.567 577.287 491.434C577.906 491.347 578.497 491.113 579.008 490.752C579.52 490.346 579.974 489.872 580.356 489.342L581.349 490.013C580.5 491.357 580.005 492.894 579.91 494.481C579.867 496.268 580.112 498.05 580.634 499.76L582.682 506.271C583.321 508.485 584.061 510.069 584.902 511.022C585.743 511.975 586.64 512.362 587.593 512.183C588.552 512.001 589.468 511.257 590.398 509.952L591.391 510.624C590.868 511.329 590.35 512.063 589.842 512.759L588.303 514.942C587.785 515.678 587.246 516.461 586.686 517.289C586.039 518.249 585.478 519.122 584.993 519.909C584.509 520.696 584.135 521.387 583.79 521.977ZM595.108 505.158L594.115 504.491C594.674 503.675 595.097 502.774 595.367 501.823C595.443 501.491 595.443 501.145 595.367 500.812C595.29 500.48 595.139 500.169 594.926 499.904C594.202 499.072 593.356 498.355 592.417 497.778L567.752 481.155C566.873 480.512 565.903 480.003 564.875 479.644C564.548 479.539 564.202 479.512 563.863 479.567C563.525 479.623 563.204 479.757 562.928 479.96C562.159 480.58 561.478 481.302 560.904 482.105L559.911 481.434C560.535 480.651 561.292 479.615 562.18 478.334C563.067 477.052 563.954 475.747 564.846 474.423C565.853 472.929 566.784 471.529 567.637 470.224C568.491 468.919 569.164 467.829 569.656 466.956L570.649 467.628C570.108 468.476 569.685 469.395 569.392 470.358C569.303 470.691 569.298 471.04 569.377 471.376C569.457 471.711 569.619 472.021 569.848 472.278C570.583 473.082 571.423 473.783 572.347 474.36L597.007 490.978C597.889 491.628 598.858 492.151 599.884 492.533C600.205 492.637 600.545 492.665 600.878 492.614C601.211 492.563 601.528 492.435 601.803 492.24C602.596 491.619 603.283 490.874 603.836 490.033L604.829 490.7C604.241 491.506 603.493 492.546 602.585 493.819C601.677 495.092 600.718 496.474 599.707 497.965C598.809 499.289 597.942 500.61 597.108 501.929C596.312 503.224 595.645 504.309 595.108 505.158Z" fill="#EBD8F6"/>
<path d="M559.283 549.929L558.396 549.123C559.069 548.4 559.618 547.572 560.022 546.671C560.148 546.353 560.199 546.01 560.173 545.669C560.146 545.328 560.042 544.998 559.868 544.703C559.274 543.774 558.539 542.942 557.691 542.237L535.697 522.222C534.921 521.453 534.033 520.806 533.064 520.302C532.757 520.15 532.418 520.073 532.075 520.078C531.733 520.083 531.396 520.17 531.093 520.331C530.243 520.832 529.466 521.447 528.782 522.159L527.895 521.353C528.623 520.665 529.52 519.752 530.585 518.613C531.65 517.474 532.721 516.313 533.798 515.129C535.007 513.802 536.126 512.554 537.155 511.386C538.185 510.219 539.008 509.238 539.625 508.445L540.512 509.251C539.854 510.013 539.303 510.86 538.872 511.77C538.739 512.084 538.686 512.425 538.716 512.764C538.746 513.103 538.859 513.429 539.045 513.714C539.655 514.618 540.386 515.435 541.217 516.142L563.206 536.167C563.991 536.938 564.879 537.597 565.844 538.124C566.146 538.278 566.481 538.358 566.82 538.358C567.159 538.358 567.494 538.278 567.796 538.124C568.671 537.626 569.458 536.987 570.127 536.234L571.014 537.04C570.314 537.755 569.422 538.671 568.343 539.799C567.264 540.927 566.117 542.155 564.909 543.485C563.835 544.668 562.786 545.85 561.763 547.031C560.761 548.192 559.926 549.161 559.283 549.929Z" fill="#EBD8F6"/>
<path d="M531.754 575.353L530.987 574.431C531.796 573.767 532.498 572.982 533.069 572.104C533.249 571.804 533.357 571.466 533.385 571.117C533.412 570.768 533.358 570.417 533.227 570.093C532.763 569.094 532.148 568.171 531.404 567.358L512.029 544.161C511.43 543.383 510.715 542.702 509.909 542.141C509.653 541.967 509.358 541.857 509.049 541.822C508.741 541.787 508.429 541.827 508.14 541.939C507.348 542.306 506.617 542.791 505.972 543.379L503.349 545.572C502.244 546.455 501.353 547.575 500.74 548.85C500.188 550.063 499.916 551.385 499.944 552.717C499.99 554.24 500.295 555.745 500.845 557.166C501.504 558.882 502.35 560.52 503.368 562.051L502.308 562.938C501.557 561.851 500.502 560.493 499.143 558.864C498.577 558.189 497.746 557.242 496.649 556.024C495.552 554.805 494.379 553.571 493.129 552.324C494.747 551.076 496.542 549.637 498.515 548.005C500.487 546.373 502.246 544.92 503.79 543.643L506.595 541.297C507.73 540.337 508.958 539.296 510.279 538.173C511.599 537.05 512.936 535.906 514.288 534.741C515.64 533.587 516.919 532.481 518.125 531.426L518.892 532.342C518.137 533.009 517.474 533.774 516.921 534.617C516.749 534.91 516.651 535.24 516.636 535.58C516.621 535.92 516.689 536.258 516.835 536.565C517.315 537.544 517.928 538.451 518.657 539.262L537.725 562.089C538.398 562.961 539.189 563.735 540.075 564.388C540.353 564.576 540.671 564.698 541.004 564.743C541.337 564.788 541.676 564.755 541.994 564.647C542.928 564.269 543.794 563.743 544.559 563.087L545.331 564.009C544.54 564.618 543.528 565.405 542.31 566.379C541.092 567.353 539.788 568.409 538.406 569.56C537.15 570.61 535.92 571.664 534.718 572.723C533.516 573.782 532.528 574.658 531.754 575.353Z" fill="#EBD8F6"/>
<path d="M488.899 605.349L488.29 604.317C489.193 603.791 490.01 603.13 490.712 602.355C490.938 602.088 491.1 601.772 491.183 601.433C491.266 601.093 491.269 600.738 491.191 600.397C490.894 599.335 490.436 598.326 489.834 597.402L474.42 571.399C473.953 570.536 473.358 569.75 472.655 569.067C472.431 568.852 472.158 568.696 471.859 568.612C471.561 568.529 471.246 568.52 470.943 568.587C470.103 568.818 469.303 569.176 468.569 569.647L465.634 571.389C464.402 572.085 463.34 573.047 462.527 574.206C461.791 575.318 461.312 576.58 461.126 577.901C460.926 579.41 460.986 580.942 461.304 582.431C461.679 584.232 462.251 585.986 463.011 587.661L461.822 588.367C461.256 587.167 460.431 585.657 459.347 583.837C458.901 583.078 458.23 582.008 457.342 580.631C456.455 579.254 455.496 577.848 454.465 576.413C456.258 575.454 458.261 574.324 460.474 573.025C462.686 571.727 464.651 570.572 466.368 569.561L469.509 567.694C470.788 566.942 472.168 566.114 473.648 565.208L478.151 562.463C479.673 561.536 481.112 560.648 482.468 559.8L483.082 560.832C482.229 561.364 481.453 562.009 480.775 562.751C480.554 563.013 480.402 563.326 480.332 563.661C480.262 563.995 480.276 564.343 480.372 564.671C480.69 565.714 481.15 566.709 481.739 567.627L496.908 593.213C497.432 594.182 498.089 595.072 498.86 595.857C499.105 596.091 499.401 596.264 499.725 596.363C500.049 596.461 500.392 596.482 500.726 596.423C501.707 596.199 502.646 595.818 503.507 595.296L504.121 596.328C503.239 596.807 502.121 597.422 500.764 598.185C499.407 598.948 497.949 599.783 496.4 600.699C494.994 601.539 493.608 602.379 492.256 603.233C490.904 604.087 489.772 604.783 488.899 605.349Z" fill="#EBD8F6"/>
<path d="M445.298 627.452C443.216 628.277 441.53 628.687 440.238 628.68C439.074 628.687 437.912 628.586 436.766 628.378C436.219 628.296 435.778 628.243 435.447 628.224C435.146 628.199 434.843 628.242 434.56 628.349C434.378 628.423 434.225 628.553 434.123 628.721C434.021 628.888 433.975 629.085 433.994 629.28C434.019 629.958 434.124 630.632 434.305 631.286L433.025 631.794C432.78 631.075 432.502 630.235 432.191 629.285C431.879 628.335 431.428 627.082 430.838 625.532C430.248 623.982 429.447 621.943 428.44 619.414L429.721 618.905C430.573 620.743 431.729 622.424 433.14 623.877C434.463 625.275 436.098 626.341 437.912 626.986C439.789 627.593 441.824 627.487 443.629 626.689C445.316 626.088 446.712 624.866 447.532 623.272C447.92 622.486 448.13 621.625 448.145 620.749C448.161 619.873 447.983 619.004 447.624 618.205C447.117 616.782 446.161 615.564 444.9 614.735C443.496 613.905 441.964 613.314 440.368 612.984C438.551 612.562 436.408 612.109 433.936 611.626C431.644 611.156 429.542 610.623 427.63 610.028C425.838 609.49 424.157 608.637 422.666 607.509C421.162 606.273 420.02 604.653 419.362 602.82C418.403 600.402 418.203 598.162 418.762 596.102C419.345 593.995 420.518 592.098 422.143 590.636C423.928 589.007 426.002 587.726 428.258 586.86C429.997 586.103 431.846 585.632 433.735 585.464C435.025 585.398 436.319 585.425 437.605 585.545C438.326 585.744 439.085 585.755 439.811 585.579C439.993 585.504 440.146 585.373 440.247 585.204C440.348 585.036 440.392 584.839 440.372 584.643C440.351 583.964 440.248 583.291 440.065 582.637L441.346 582.128C441.608 583.011 441.96 584.034 442.401 585.195C442.842 586.356 443.414 587.86 444.118 589.705C444.828 591.558 445.742 593.895 446.861 596.716L445.576 597.225C444.553 595.009 443.246 592.936 441.686 591.059C440.337 589.373 438.557 588.083 436.536 587.325C434.617 586.625 432.462 586.746 430.071 587.69C428.849 588.153 427.738 588.868 426.81 589.787C425.943 590.655 425.358 591.763 425.131 592.969C424.91 594.373 425.098 595.81 425.673 597.11C426.203 598.532 427.12 599.777 428.32 600.704C429.6 601.635 431.034 602.333 432.555 602.768C434.417 603.319 436.312 603.755 438.229 604.073C440.415 604.495 442.494 604.975 444.463 605.512C446.339 606.009 448.105 606.853 449.671 607.998C451.259 609.237 452.463 610.901 453.144 612.797C454.055 615.1 454.243 617.207 453.709 619.116C453.167 621.038 452.097 622.768 450.621 624.112C449.072 625.549 447.266 626.682 445.298 627.452Z" fill="#EBD8F6"/>
<path d="M367.03 647.121L366.843 645.936C367.82 645.788 368.767 645.487 369.649 645.043C369.944 644.872 370.198 644.637 370.39 644.354C370.581 644.072 370.707 643.749 370.757 643.411C370.875 642.315 370.825 641.206 370.608 640.125L366.009 610.733C365.882 609.647 365.595 608.586 365.155 607.585C365.01 607.274 364.793 607.001 364.522 606.79C364.251 606.579 363.934 606.436 363.596 606.371C362.619 606.238 361.629 606.238 360.652 606.371L360.465 605.186C361.467 605.109 362.738 604.965 364.302 604.744C365.865 604.523 367.404 604.264 368.982 604.039C370.763 603.76 372.421 603.49 373.955 603.228C375.49 602.969 376.747 602.719 377.72 602.489L377.907 603.674C376.911 603.855 375.943 604.168 375.03 604.605C374.731 604.768 374.477 605.001 374.288 605.284C374.1 605.568 373.985 605.893 373.951 606.232C373.86 607.319 373.918 608.414 374.123 609.485L378.723 638.877C378.851 639.971 379.13 641.041 379.552 642.058C379.694 642.366 379.906 642.636 380.171 642.847C380.435 643.057 380.746 643.203 381.077 643.272C382.071 643.438 383.086 643.438 384.079 643.272L384.267 644.458C383.275 644.573 382.004 644.733 380.454 644.938C378.903 645.142 377.242 645.382 375.471 645.657C373.895 645.907 372.338 646.171 370.8 646.449C369.28 646.689 368.009 646.924 367.03 647.121Z" fill="#EBD8F6"/>
<path d="M308.339 650L308.314 648.801C309.35 648.738 310.354 648.424 311.24 647.884C311.945 647.355 312.417 646.572 312.554 645.701C312.785 644.322 312.873 642.923 312.818 641.526L312.261 607.283C312.65 607.318 313.041 607.331 313.432 607.321C313.849 607.321 314.3 607.288 314.779 607.24L341.061 641.79L340.638 615.877C340.653 614.378 340.509 612.882 340.207 611.414C340.117 610.943 339.924 610.496 339.644 610.107C339.363 609.717 339 609.393 338.581 609.159C337.397 608.625 336.119 608.33 334.821 608.29V607.091C335.579 607.158 336.562 607.192 337.761 607.192C338.96 607.192 340.097 607.192 341.176 607.168C342.135 607.168 343.094 607.124 344.082 607.091C345.07 607.057 345.871 606.99 346.509 606.904V608.099C345.464 608.192 344.454 608.52 343.554 609.058C343.208 609.319 342.917 609.646 342.697 610.02C342.478 610.394 342.334 610.807 342.274 611.237C342.043 612.606 341.954 613.996 342.01 615.383L342.461 643.09C342.436 644.19 342.563 645.289 342.84 646.353C342.935 646.682 343.106 646.984 343.339 647.234C343.573 647.484 343.862 647.675 344.183 647.793C345.146 648.085 346.15 648.219 347.156 648.191L347.18 649.391C346.537 649.362 345.741 649.333 344.749 649.314C343.756 649.295 342.801 649.285 341.842 649.314C340.883 649.343 340.025 649.362 339.142 649.42C338.26 649.477 337.488 649.525 336.807 649.573L313.844 620.014L314.185 641.065C314.17 642.574 314.316 644.079 314.621 645.557C314.714 646.023 314.904 646.464 315.178 646.852C315.452 647.239 315.805 647.565 316.213 647.807C317.024 648.287 318.285 648.556 320.007 648.647V649.847C319.243 649.818 318.253 649.794 317.038 649.775C315.815 649.775 314.688 649.775 313.647 649.775C312.607 649.775 311.662 649.828 310.684 649.885C309.705 649.943 308.933 649.947 308.339 650Z" fill="#EBD8F6"/>
<path d="M252.492 642.044C252.956 640.259 253.363 638.514 253.715 636.809C254.07 635.101 254.319 633.795 254.478 632.888C254.636 631.982 254.756 631.132 254.852 630.335C254.948 629.539 255.024 628.848 255.082 628.248L256.444 628.479C256.394 631.087 256.643 633.692 257.187 636.243C257.532 637.926 258.386 639.462 259.633 640.643C260.781 641.651 262.397 642.332 264.482 642.687L266.371 643.014L272.126 609.308C272.387 608.099 272.444 606.855 272.294 605.627C272.215 605.212 272.033 604.822 271.765 604.494C271.497 604.167 271.151 603.911 270.759 603.751C269.513 603.226 268.21 602.851 266.875 602.633L267.076 601.448C268.247 601.729 269.775 602.041 271.661 602.383C273.548 602.726 275.477 603.065 277.45 603.401C279.499 603.749 281.418 604.069 283.205 604.36C285.003 604.644 286.456 604.84 287.574 604.951L287.372 606.136C286.061 605.902 284.726 605.826 283.397 605.91C282.971 605.936 282.559 606.064 282.193 606.283C281.827 606.502 281.52 606.805 281.296 607.168C280.729 608.27 280.362 609.464 280.212 610.695L274.457 644.396L276.404 644.731C278.144 645.103 279.952 644.99 281.632 644.405C283.214 643.708 284.539 642.534 285.421 641.046C286.776 638.823 287.857 636.443 288.639 633.959L289.996 634.189C289.799 634.861 289.638 635.543 289.516 636.233C289.363 637.02 289.204 637.865 289.037 638.771C288.869 639.678 288.687 640.993 288.456 642.721C288.226 644.448 288.029 646.224 287.881 648.067C286.154 647.731 284.25 647.366 282.169 646.973C280.087 646.579 278.009 646.203 275.934 645.845L270.179 644.885L264.506 643.925C262.418 643.57 260.327 643.234 258.233 642.918C256.139 642.601 254.225 642.31 252.492 642.044Z" fill="#EBD8F6"/>
<path d="M232.703 636.871C231.778 636.497 230.584 636.027 229.13 635.465C227.677 634.904 226.214 634.357 224.747 633.829C222.905 633.167 221.147 632.559 219.471 632.005C217.796 631.452 216.623 631.052 215.951 630.806C212.566 629.593 209.917 628.187 208.005 626.588C206.093 624.988 204.854 623.259 204.288 621.4C203.724 619.501 203.803 617.468 204.513 615.618C204.992 614.319 205.702 613.118 206.609 612.072C207.655 610.885 208.971 609.966 210.446 609.394C212.327 608.688 214.333 608.377 216.34 608.482C218.68 608.533 221.468 609.14 224.704 610.301L230.118 612.244L229.72 613.396L224.867 611.659C222.498 610.805 220.531 610.578 218.968 610.978C217.463 611.333 216.132 612.21 215.213 613.454C214.217 614.824 213.429 616.334 212.877 617.936C211.813 620.911 211.57 623.425 212.148 625.479C212.727 627.533 214.447 629.073 217.309 630.1C218.853 630.657 219.975 630.695 220.666 630.225C221.356 629.755 222.066 628.536 222.766 626.578L232.794 598.568C233.201 597.556 233.455 596.488 233.547 595.401C233.568 595.058 233.508 594.715 233.372 594.4C233.235 594.085 233.026 593.806 232.761 593.587C231.971 592.994 231.105 592.51 230.186 592.148L230.593 591.02C231.504 591.428 232.694 591.908 234.152 592.46C235.61 593.012 237.096 593.544 238.602 594.086C240.297 594.691 241.879 595.248 243.35 595.756C244.827 596.26 246.045 596.649 247.014 596.908L246.611 598.04C245.655 597.722 244.659 597.536 243.652 597.489C243.312 597.488 242.977 597.571 242.676 597.73C242.375 597.889 242.117 598.119 241.926 598.4C241.327 599.311 240.856 600.299 240.525 601.337L230.497 629.347C230.089 630.368 229.823 631.44 229.706 632.533C229.684 632.872 229.74 633.211 229.872 633.525C230.004 633.838 230.206 634.116 230.464 634.337C231.261 634.957 232.153 635.444 233.106 635.777L232.703 636.871ZM229.778 613.204C228.035 612.494 226.588 611.88 225.437 611.361C224.286 610.843 223.3 610.394 222.478 610.013C221.663 609.632 220.936 609.266 220.296 608.914C217.281 607.494 215.237 605.942 214.163 604.259C213.088 602.577 212.724 600.483 213.069 597.978L213.851 591.692C214.063 590.471 214.091 589.226 213.932 587.997C213.879 587.631 213.719 587.288 213.473 587.013C213.226 586.737 212.904 586.54 212.546 586.447C212.065 586.26 211.535 586.238 211.04 586.385C210.494 586.565 209.975 586.818 209.496 587.138L208.949 586.178C210.134 585.413 211.465 584.903 212.858 584.681C214.326 584.539 215.806 584.751 217.174 585.3C218.813 585.822 220.25 586.837 221.289 588.208C222.229 589.488 222.499 591.407 222.1 593.966L221.14 599.993C220.892 601.5 220.739 603.021 220.685 604.547C220.616 605.713 220.822 606.878 221.284 607.95C221.721 608.871 222.594 609.567 223.913 610.037L230.008 612.22L229.778 613.204Z" fill="#EBD8F6"/>
<path d="M160.393 605.8C157.125 603.972 154.387 601.326 152.447 598.122C150.669 595.094 149.826 591.608 150.024 588.103C150.188 584.465 151.435 580.665 153.765 576.701C156.035 572.843 158.769 569.906 161.966 567.891C165.021 565.92 168.567 564.846 172.201 564.791C175.94 564.776 179.61 565.803 182.799 567.756C186.067 569.586 188.805 572.231 190.746 575.434C192.523 578.472 193.358 581.969 193.144 585.482C192.971 589.133 191.729 592.923 189.418 596.855C187.151 600.716 184.409 603.65 181.193 605.656C178.131 607.61 174.59 608.681 170.959 608.751C167.23 608.775 163.57 607.753 160.393 605.8ZM161.146 604.994C162.14 605.584 163.246 605.958 164.394 606.094C165.541 606.229 166.704 606.123 167.808 605.781C170.221 605.109 172.64 603.655 175.064 601.419C177.746 598.857 180.038 595.914 181.864 592.685C183.829 589.487 185.251 585.987 186.075 582.325C186.734 579.071 186.702 576.247 185.979 573.85C185.405 571.646 183.994 569.752 182.046 568.572C181.053 567.982 179.947 567.608 178.799 567.471C177.652 567.335 176.489 567.44 175.385 567.78C172.974 568.452 170.551 569.916 168.115 572.171C165.439 574.725 163.153 577.658 161.328 580.876C159.161 584.564 157.752 588.027 157.103 591.265C156.454 594.502 156.483 597.314 157.189 599.701C157.764 601.914 159.183 603.815 161.141 604.994H161.146Z" fill="#EBD8F6"/>
<path d="M112.224 570.122C106.469 565.036 103.395 559.927 103.001 554.795C102.608 549.664 104.619 544.597 109.035 539.593C111.912 536.33 115.109 534.08 118.626 532.841C122.144 531.607 125.948 531.449 129.556 532.386C133.322 533.317 137.046 535.41 140.726 538.667C141.176 539.065 141.766 539.627 142.505 540.323C143.243 541.019 144.015 541.762 144.826 542.496C145.636 543.231 146.385 543.936 147.075 544.526C148.303 545.611 149.507 546.662 150.687 547.679C151.866 548.696 152.857 549.507 153.66 550.112L152.864 551.009C152.094 550.362 151.241 549.822 150.327 549.402C150.011 549.275 149.668 549.228 149.33 549.264C148.991 549.3 148.667 549.418 148.384 549.608C147.487 550.229 146.68 550.972 145.986 551.815L126.29 574.1C125.532 574.898 124.886 575.795 124.372 576.768C124.224 577.074 124.15 577.41 124.156 577.749C124.162 578.088 124.247 578.421 124.405 578.721C124.916 579.588 125.564 580.365 126.323 581.025L125.528 581.927C124.808 581.231 123.882 580.348 122.755 579.268C121.628 578.189 120.463 577.147 119.269 576.149L115.552 573.021C114.212 571.856 113.103 570.89 112.224 570.122ZM113.341 569.671C114.722 570.89 115.841 571.431 116.698 571.293C117.555 571.155 118.674 570.308 120.055 568.75L139.91 546.283C141.288 544.725 141.984 543.499 141.996 542.607C142.009 541.714 141.33 540.657 139.958 539.435C137.17 536.972 134.469 535.636 131.853 535.428C129.238 535.22 126.602 535.97 123.945 537.679C121.288 539.387 118.517 541.873 115.634 545.136C112.667 548.488 110.563 551.579 109.322 554.407C108.082 557.235 107.77 559.895 108.387 562.387C109.027 564.885 110.683 567.313 113.356 569.671H113.341Z" fill="#EBD8F6"/>
<path d="M57.3691 509.573L58.3283 508.834C58.9918 509.619 59.843 510.223 60.8028 510.59C61.6504 510.819 62.5529 510.725 63.3351 510.326C64.5844 509.699 65.7588 508.933 66.836 508.042L79.9239 497.807C81.8088 496.31 83.8085 494.964 85.9044 493.781C87.6111 492.798 89.4954 492.164 91.4484 491.914C93.4763 491.691 95.5257 492.051 97.3568 492.95C99.5946 494.058 101.534 495.687 103.011 497.701C104.188 499.196 105.187 500.822 105.989 502.548C106.777 504.224 107.145 506.067 107.064 507.917C107.024 509.459 106.685 510.978 106.066 512.39C105.355 513.899 104.381 515.269 103.189 516.435C101.601 518.007 99.9161 519.476 98.1434 520.835L83.3098 532.434C82.4193 533.079 81.6221 533.845 80.9407 534.708C80.7403 534.981 80.6068 535.296 80.551 535.63C80.4952 535.963 80.5187 536.305 80.6194 536.628C80.9651 537.575 81.4622 538.46 82.0916 539.248L81.1325 539.987C80.5538 539.171 79.7976 538.138 78.864 536.887C77.9304 535.636 76.9121 534.3 75.809 532.88C74.8019 531.6 73.7902 530.337 72.7734 529.089C71.7567 527.851 70.9125 526.838 70.2411 526.042L71.2003 525.303C71.8384 526.134 72.6002 526.862 73.4591 527.462C73.7522 527.652 74.0855 527.772 74.4326 527.811C74.7796 527.85 75.1309 527.808 75.4589 527.688C76.4728 527.255 77.4155 526.671 78.2549 525.955L95.3521 512.586C96.7911 511.478 98.1399 510.257 99.3855 508.935C100.405 507.878 101.242 506.658 101.86 505.326C102.387 504.167 102.544 502.873 102.311 501.622C101.986 500.156 101.312 498.791 100.345 497.643C98.5478 495.346 96.6373 493.973 94.6135 493.521C92.4507 493.09 90.2071 493.352 88.2016 494.27C85.7215 495.359 83.3947 496.769 81.2812 498.464L68.0542 508.81C66.8378 509.706 65.7347 510.747 64.769 511.91C64.4652 512.285 64.24 512.718 64.1065 513.182C63.973 513.646 63.9342 514.132 63.9922 514.612C64.2424 515.849 64.7631 517.016 65.5172 518.028L64.558 518.767C64.1232 518.127 63.5461 517.327 62.8268 516.368C62.1074 515.408 61.428 514.504 60.7885 513.657C60.1683 512.87 59.5431 512.103 58.9133 511.358C58.2834 510.613 57.7688 510.018 57.3691 509.573Z" fill="#EBD8F6"/>
<path d="M36.002 474.533C34.7742 472.196 34.1078 470.099 34.0071 468.228C33.8957 466.463 33.9971 464.69 34.3091 462.949C34.4674 461.99 34.2419 461.39 33.6424 461.236C33.043 461.083 31.9399 461.327 30.3476 461.99L29.7051 460.766C31.0863 460.126 32.7584 459.314 34.7215 458.328C36.6846 457.343 39.2569 456.009 42.4382 454.326L43.0807 455.545C41.5988 456.596 40.3904 457.532 39.4408 458.347C38.5764 459.069 37.8217 459.913 37.2009 460.852C36.6214 461.78 36.1941 462.794 35.935 463.856C35.381 465.345 35.1902 466.944 35.3786 468.52C35.5703 470.121 36.0582 471.672 36.8174 473.094C37.6843 474.83 39.082 476.243 40.8074 477.129C42.5995 478.001 44.5697 478.445 46.5624 478.425C48.9095 478.413 51.2418 478.053 53.4829 477.355C56.0635 476.572 58.5612 475.539 60.9403 474.269C63.365 473.016 65.6483 471.505 67.7505 469.763C69.5584 468.288 71.1305 466.546 72.4122 464.595C73.5111 462.937 74.1968 461.04 74.412 459.062C74.5874 457.126 74.178 455.182 73.237 453.482C72.4963 452.11 71.5226 450.877 70.3594 449.839C69.2186 448.765 67.8164 448.009 66.2926 447.646C64.6798 447.042 62.9289 446.907 61.2427 447.258C59.0553 447.765 56.9163 448.462 54.8498 449.34L54.207 448.117C57.5321 446.367 60.2019 444.938 62.2161 443.832C64.2304 442.725 65.9074 441.765 67.2471 440.952L67.8896 442.171C66.4477 443.131 65.6195 443.873 65.4053 444.398C65.1911 444.922 65.5365 445.452 66.4413 445.986C68.0578 446.811 69.5997 447.774 71.05 448.865C72.5144 449.969 73.8507 451.671 75.0593 453.971C76.8776 457.242 77.8163 460.929 77.7834 464.672C77.6997 468.19 76.5729 471.604 74.5462 474.48C72.4744 477.497 69.4227 480.068 65.391 482.192C61.4297 484.281 57.5545 485.329 53.7658 485.335C50.1338 485.388 46.5581 484.433 43.4355 482.576C40.2579 480.639 37.6835 477.854 36.002 474.533Z" fill="#EBD8F6"/>
<path d="M11.5098 410.15C13.1084 409.801 14.6559 409.42 16.1522 409.008C17.6341 408.595 18.7564 408.264 19.5093 408.048C20.2623 407.832 20.9192 407.568 21.5714 407.318C22.2237 407.069 22.7752 406.839 23.2212 406.666L23.6432 407.981C21.5727 408.843 19.644 410.013 17.9219 411.45C16.7552 412.426 15.9441 413.76 15.615 415.246C15.3844 416.879 15.5606 418.544 16.1281 420.092L17.1353 423.231C17.3882 424.126 17.7678 424.981 18.2624 425.769C18.4383 426.03 18.6755 426.243 18.9532 426.39C19.2308 426.537 19.5403 426.614 19.8545 426.614C20.8379 426.566 21.8082 426.369 22.732 426.028L51.9627 416.647C52.9067 416.384 53.8057 415.979 54.6293 415.447C54.8919 415.268 55.1056 415.025 55.2512 414.742C55.3969 414.459 55.4699 414.144 55.4636 413.825C55.4083 412.897 55.2211 411.98 54.9075 411.105L53.8619 407.851C53.3764 406.14 52.4657 404.58 51.2146 403.316C49.9379 402.175 48.3332 401.466 46.6297 401.291C44.7114 401.023 42.2478 401.162 39.2392 401.709L38.8173 400.394C40.0354 400.132 41.5765 399.7 43.4405 399.098C44.2414 398.844 45.3923 398.441 46.8934 397.899C48.3945 397.356 49.9437 396.742 51.5312 396.061C52.0779 398.028 52.7317 400.234 53.4926 402.678C54.2535 405.122 54.9408 407.296 55.5547 409.2C55.8329 410.073 56.2022 411.225 56.6626 412.655C57.123 414.085 57.6265 415.623 58.1732 417.271C58.7248 418.922 59.2763 420.592 59.8422 422.276C60.4081 423.96 60.9502 425.568 61.4729 427.075L60.3314 427.444C59.9978 426.494 59.5399 425.592 58.9694 424.762C58.762 424.492 58.4922 424.276 58.1831 424.134C57.8739 423.992 57.5346 423.928 57.1949 423.946C56.1072 424.023 55.0356 424.25 54.0106 424.622L25.7151 433.706C24.6548 434.002 23.6408 434.444 22.7032 435.021C22.4222 435.209 22.189 435.46 22.0225 435.754C21.8559 436.048 21.7605 436.377 21.744 436.715C21.7447 437.723 21.9066 438.724 22.2236 439.681L21.0823 440.045C20.6314 438.51 20.144 436.893 19.6196 435.194C19.0953 433.495 18.5772 431.814 18.0656 430.15C17.5573 428.485 17.0681 426.94 16.6269 425.51C16.1857 424.08 15.7972 422.933 15.519 422.055C14.9563 420.305 14.309 418.318 13.5768 416.095C12.8446 413.872 12.1556 411.89 11.5098 410.15ZM25.8973 413.845C28.113 413.298 29.7916 412.837 30.9282 412.448C32.0649 412.06 33.1053 411.719 34.0549 411.412C35.0045 411.105 36.0501 410.754 37.1771 410.346C38.3042 409.938 39.9347 409.32 42.0545 408.47L42.4764 409.78C41.282 410.364 40.1439 411.056 39.0763 411.849C38.098 412.551 37.3383 413.516 36.8846 414.632C36.453 415.716 36.4945 417.056 37.0092 418.653L35.8679 419.022C35.5864 417.993 35.0055 417.071 34.1989 416.373C33.4709 415.793 32.6194 415.387 31.7099 415.188C30.7941 414.985 29.8565 414.894 28.9186 414.92C28.048 414.942 27.1797 415.02 26.3193 415.155L25.8973 413.845ZM33.9638 413.082L35.1054 412.712L38.3665 422.89L37.2251 423.26L33.9638 413.082Z" fill="#EBD8F6"/>
<path d="M0 309.311L1.19896 309.277C1.22112 310.275 1.40072 311.263 1.73123 312.205C1.85551 312.524 2.05454 312.809 2.31151 313.037C2.56848 313.264 2.87597 313.426 3.20839 313.51C4.2835 313.744 5.38629 313.824 6.48399 313.75L36.2182 312.905C37.3104 312.915 38.3981 312.763 39.4458 312.454C39.7723 312.349 40.0694 312.168 40.3127 311.926C40.5561 311.684 40.7388 311.388 40.8462 311.062C41.1073 310.11 41.2397 309.127 41.2396 308.14L42.4385 308.106C42.3906 309.146 42.3777 310.467 42.4001 312.07C42.4289 313.668 42.4625 315.285 42.5104 316.926C42.5616 318.727 42.6191 320.415 42.683 321.989C42.747 323.563 42.8333 324.831 42.942 325.794L41.743 325.828C41.6837 324.783 41.4935 323.75 41.177 322.752C41.0597 322.421 40.8641 322.124 40.6068 321.886C40.3496 321.648 40.0383 321.476 39.6999 321.384C38.6367 321.135 37.5424 321.046 36.4531 321.12L3.84136 322.047L3.88936 321.624L43.3785 335.382L43.4071 336.342L5.08364 353.271L34.8179 352.427C36.3157 352.423 37.809 352.262 39.2732 351.947C39.7433 351.851 40.1866 351.653 40.5719 351.367C40.9573 351.081 41.2751 350.714 41.5032 350.291C42.0234 349.101 42.3036 347.819 42.328 346.52L43.5223 346.486C43.4647 347.251 43.444 348.231 43.46 349.427C43.46 350.627 43.4934 351.764 43.527 352.844C43.5493 353.804 43.5863 354.773 43.6375 355.752C43.6688 356.563 43.7424 357.372 43.8581 358.175L42.6591 358.209C42.5561 357.167 42.22 356.162 41.6758 355.268C41.139 354.574 40.349 354.122 39.4793 354.01C38.1092 353.796 36.7206 353.725 35.3359 353.799L7.64946 354.586C6.54969 354.575 5.45372 354.717 4.39307 355.008C4.07003 355.11 3.77516 355.285 3.53202 355.521C3.28888 355.757 3.10423 356.047 2.99272 356.366C2.71311 357.334 2.58994 358.34 2.62811 359.346L1.42915 359.385C1.45313 358.742 1.46745 357.945 1.48184 356.952C1.49623 355.959 1.48193 354.999 1.45796 354.039C1.41479 352.561 1.3573 351.126 1.27577 349.72C1.19424 348.314 1.1222 347.086 1.05026 346.006L32.8658 332.2L33.9786 333.491L0.546792 321.898C0.546792 321.298 0.513052 320.669 0.493869 320.012C0.474685 319.354 0.455568 318.721 0.44118 318.121C0.393222 316.48 0.326117 314.861 0.239792 313.265C0.124692 311.667 0.0431626 310.352 0 309.311Z" fill="#EBD8F6"/>
<path d="M7.83625 253.925L9.02092 254.121C9.22603 255.158 9.70842 256.12 10.4166 256.905C11.5964 258.257 12.938 259.46 14.4113 260.484L35.1822 275.648L34.8225 277.836L7.00658 287.467C5.50548 287.99 4.49845 288.489 3.99489 288.974C3.56645 289.329 3.26233 289.811 3.12681 290.351L1.88477 290.145C2.0798 289.204 2.29394 288.217 2.52733 287.184C2.75753 286.147 2.97808 285.015 3.1795 283.791C3.43848 282.217 3.69751 280.514 3.95649 278.695C4.21546 276.877 4.43614 275.168 4.62317 273.575L5.86522 273.781C5.70981 274.673 5.64066 275.578 5.65892 276.483C5.64224 276.814 5.70046 277.145 5.82916 277.451C5.95786 277.757 6.15385 278.029 6.40241 278.249C6.86921 278.61 7.63496 278.634 8.69964 278.321L28.6167 271.761L30.0554 273.455L17.7445 264.501C15.3562 262.77 13.4379 261.754 11.9895 261.454C10.5508 261.156 9.43818 261.396 8.68044 262.183C7.9227 262.97 7.39032 264.17 7.08338 265.782L5.89871 265.585C6.15768 264.29 6.3783 263.066 6.62769 261.905C6.87707 260.743 7.06905 259.597 7.26089 258.455C7.41435 257.495 7.53413 256.665 7.61566 255.93C7.69719 255.196 7.7787 254.524 7.83625 253.925ZM27.4369 270.662L41.2777 272.946C42.3467 273.167 43.443 273.225 44.5294 273.119C44.8703 273.079 45.1968 272.959 45.482 272.768C45.7672 272.577 46.0029 272.321 46.1695 272.02C46.6163 271.138 46.9391 270.198 47.1287 269.227L48.3134 269.424C48.0736 270.384 47.8096 271.675 47.5315 273.263C47.2533 274.851 46.98 276.416 46.721 277.99C46.438 279.689 46.1838 281.32 45.944 282.88C45.7042 284.439 45.5507 285.701 45.4644 286.661L44.28 286.464C44.4141 285.467 44.4141 284.457 44.28 283.46C44.2199 283.125 44.0788 282.809 43.869 282.541C43.6592 282.272 43.3869 282.059 43.0761 281.92C42.0722 281.496 41.0155 281.21 39.9349 281.071L27.8111 279.065L32.2185 275.173L27.4369 270.662Z" fill="#EBD8F6"/>
<path d="M26.0116 196.874C26.9004 194.82 27.8004 193.336 28.7116 192.421C29.5289 191.591 30.4216 190.839 31.3781 190.175C31.8241 189.844 32.1742 189.571 32.4187 189.35C32.6482 189.154 32.8317 188.91 32.9559 188.635C33.0332 188.453 33.0492 188.252 33.0016 188.06C32.954 187.869 32.8452 187.698 32.692 187.574C32.1968 187.112 31.6476 186.711 31.0566 186.379L31.5987 185.113C32.2829 185.432 33.0708 185.826 33.9629 186.293C34.8549 186.76 36.0603 187.323 37.579 187.982C39.0944 188.657 41.0991 189.532 43.593 190.607L43.0462 191.874C41.1451 191.182 39.1413 190.815 37.1186 190.789C35.193 190.738 33.2828 191.146 31.5457 191.979C29.7861 192.879 28.42 194.396 27.7091 196.241C26.9446 197.861 26.8229 199.712 27.3686 201.418C27.6533 202.247 28.1167 203.003 28.7258 203.632C29.335 204.261 30.0751 204.749 30.8936 205.061C32.2584 205.704 33.7956 205.884 35.2721 205.574C36.8523 205.17 38.3536 204.503 39.7132 203.602C41.3118 202.607 43.1453 201.406 45.2139 199.998C47.1642 198.718 49.0251 197.599 50.7963 196.639C52.4375 195.75 54.224 195.162 56.0718 194.902C58.0086 194.703 59.9631 195.035 61.7261 195.861C64.1144 196.888 65.844 198.328 66.9151 200.18C67.9918 202.076 68.506 204.24 68.3972 206.418C68.2928 208.834 67.7365 211.209 66.757 213.42C66.0649 215.186 65.0933 216.829 63.8795 218.286C63.0167 219.246 62.0855 220.142 61.0931 220.968C60.4428 221.336 59.8991 221.867 59.5153 222.508C59.438 222.69 59.422 222.892 59.4696 223.083C59.5172 223.274 59.6257 223.445 59.7789 223.569C60.2742 224.031 60.8233 224.433 61.4144 224.764L60.8725 226.031C60.0572 225.594 59.0884 225.124 57.9566 224.591C56.8248 224.058 55.3573 223.43 53.5493 222.628C51.7412 221.827 49.439 220.824 46.6527 219.62L47.1948 218.353C49.4871 219.194 51.8798 219.732 54.3117 219.951C56.4576 220.182 58.626 219.83 60.5894 218.933C62.4438 218.06 63.8825 216.448 64.9057 214.096C65.4421 212.903 65.7215 211.609 65.7257 210.301C65.722 209.075 65.3493 207.88 64.6563 206.87C63.8211 205.72 62.6698 204.838 61.3425 204.331C59.9628 203.701 58.4339 203.472 56.9302 203.669C55.368 203.918 53.8617 204.439 52.4798 205.209C50.7762 206.143 49.1314 207.18 47.5544 208.314C45.7064 209.568 43.8903 210.7 42.1062 211.711C40.4302 212.684 38.5876 213.335 36.6727 213.631C34.6781 213.885 32.6523 213.567 30.8313 212.714C28.5581 211.735 26.9338 210.382 25.9586 208.655C24.9789 206.915 24.5071 204.935 24.5967 202.939C24.6902 200.848 25.17 198.791 26.0116 196.874Z" fill="#EBD8F6"/>
<path d="M51.825 149.737L52.8322 150.385C52.2888 151.21 51.8822 152.117 51.6283 153.072C51.5572 153.407 51.5635 153.754 51.6466 154.087C51.7297 154.42 51.8874 154.729 52.1079 154.991C52.8464 155.811 53.7051 156.513 54.6545 157.074L79.6168 173.241C80.5095 173.864 81.491 174.349 82.528 174.68C82.8563 174.78 83.2038 174.8 83.5415 174.74C83.8793 174.679 84.1975 174.538 84.4702 174.33C85.2247 173.694 85.8908 172.959 86.4509 172.146L87.458 172.799C86.8474 173.596 86.1105 174.643 85.2472 175.942C84.384 177.241 83.5176 178.561 82.6479 179.901C81.6696 181.414 80.7664 182.83 79.9383 184.148C79.1086 185.468 78.4514 186.547 77.9767 187.454L76.9697 186.802C77.4963 185.942 77.9043 185.016 78.183 184.047C78.2621 183.717 78.2597 183.372 78.1762 183.043C78.0926 182.713 77.9304 182.409 77.7034 182.157C76.9554 181.365 76.1017 180.68 75.1664 180.122L50.228 163.95C49.3268 163.318 48.3422 162.814 47.3025 162.453C46.9798 162.354 46.6384 162.331 46.3054 162.387C45.9723 162.442 45.6568 162.575 45.3841 162.775C44.6052 163.414 43.9334 164.174 43.3939 165.025L42.3867 164.373C42.9622 163.557 43.6912 162.501 44.5737 161.215C45.4561 159.929 46.3817 158.528 47.3601 157.016C48.2297 155.679 49.0705 154.344 49.8826 153.01C50.6947 151.676 51.3422 150.585 51.825 149.737ZM62.8555 132.716L63.8626 133.369C63.3259 134.705 63.013 136.12 62.937 137.558C62.8851 139.441 63.1693 141.317 63.7762 143.1L69.2964 160.183L67.1382 155.567L93.0358 155.27C94.0317 155.247 95.0194 155.086 95.9707 154.79C96.9255 154.461 97.8187 153.974 98.6133 153.35L99.6205 154.003C98.8819 154.998 98.0681 156.161 97.1792 157.491C96.2904 158.822 95.4911 160.043 94.7813 161.153C94.3689 161.793 93.8621 162.592 93.2611 163.552C92.66 164.512 91.9246 165.739 91.0549 167.233L90.0478 166.58C90.8535 165.198 91.1796 164.267 91.0357 163.787C90.8918 163.307 90.254 163.067 89.1174 163.048L72.7876 162.904C71.8254 162.86 70.8611 162.914 69.9101 163.067C69.2908 163.166 68.704 163.412 68.1981 163.782C67.694 164.199 67.2502 164.683 66.8792 165.222L65.8721 164.569C66.6886 163.209 67.1488 161.664 67.2101 160.078C67.2175 158.296 66.9406 156.523 66.3901 154.828L64.2223 148.355C63.5509 146.157 62.7819 144.586 61.9155 143.643C61.0522 142.683 60.1459 142.333 59.2059 142.529C58.2659 142.726 57.345 143.489 56.4434 144.813L55.4362 144.161C55.9509 143.447 56.4547 142.726 56.9471 141.997L58.4481 139.789C58.9277 139.045 59.4791 138.254 60.021 137.39C60.6605 136.43 61.2089 135.546 61.6661 134.736C62.1233 133.927 62.5101 133.254 62.8267 132.716H62.8555Z" fill="#EBD8F6"/>
<path d="M86.8381 104.313L87.735 105.105C87.079 105.843 86.5462 106.682 86.1572 107.59C86.0374 107.91 85.9926 108.254 86.0258 108.594C86.0591 108.934 86.1695 109.262 86.349 109.553C86.9622 110.469 87.7091 111.287 88.5647 111.981L110.913 131.608C111.707 132.359 112.607 132.988 113.585 133.474C113.895 133.619 114.236 133.689 114.578 133.677C114.921 133.666 115.256 133.573 115.556 133.407C116.397 132.89 117.163 132.26 117.834 131.536L118.735 132.327C118.016 133.028 117.135 133.957 116.093 135.115C115.05 136.274 114.002 137.454 112.947 138.657C111.757 140.01 110.658 141.279 109.647 142.462C108.63 143.647 107.825 144.646 107.225 145.447L106.329 144.655C106.971 143.88 107.508 143.023 107.926 142.107C108.048 141.794 108.092 141.455 108.055 141.121C108.017 140.786 107.899 140.466 107.71 140.188C107.087 139.288 106.342 138.48 105.494 137.788L83.1502 118.162C82.3524 117.4 81.4515 116.754 80.4741 116.242C80.1688 116.096 79.8337 116.024 79.4955 116.032C79.1572 116.039 78.8256 116.126 78.5271 116.286C77.6635 116.798 76.8879 117.446 76.2299 118.205L75.3281 117.413C76.0187 116.69 76.8933 115.755 77.9516 114.606C79.0098 113.458 80.1289 112.208 81.3086 110.858C82.3589 109.659 83.39 108.459 84.3875 107.259C85.3851 106.06 86.2051 105.095 86.8381 104.313Z" fill="#EBD8F6"/>
<path d="M113.902 78.4004L114.683 79.3073C113.887 79.9875 113.2 80.7852 112.645 81.673C112.47 81.9758 112.369 82.3151 112.348 82.6641C112.327 83.0131 112.388 83.3623 112.525 83.6837C113.008 84.6752 113.639 85.5876 114.395 86.3901L134.188 109.227C134.8 109.994 135.526 110.662 136.341 111.209C136.601 111.379 136.898 111.484 137.207 111.514C137.516 111.544 137.828 111.499 138.116 111.381C138.9 111.004 139.622 110.511 140.259 109.918L142.84 107.677C143.928 106.774 144.8 105.637 145.391 104.351C145.923 103.129 146.171 101.802 146.115 100.469C146.045 98.9474 145.712 97.449 145.132 96.0402C144.445 94.3343 143.57 92.7102 142.523 91.1983L143.564 90.2961C144.341 91.371 145.421 92.7083 146.806 94.3078C147.386 94.9749 148.245 95.9058 149.352 97.1055C150.46 98.3052 151.664 99.5047 152.94 100.743C151.341 102.022 149.571 103.491 147.631 105.148C145.69 106.805 143.962 108.291 142.446 109.606L139.684 112.005C138.568 112.965 137.36 114.027 136.058 115.192L132.111 118.695C130.781 119.878 129.525 121.007 128.342 122.082L127.56 121.18C128.299 120.499 128.944 119.723 129.478 118.872C129.647 118.576 129.739 118.243 129.748 117.902C129.758 117.562 129.683 117.224 129.531 116.919C129.032 115.95 128.403 115.054 127.661 114.256L108.19 91.7838C107.499 90.9237 106.692 90.1646 105.792 89.5284C105.511 89.3453 105.192 89.2297 104.859 89.1905C104.526 89.1514 104.189 89.1899 103.873 89.3029C102.948 89.7011 102.092 90.2437 101.336 90.9104L100.555 90.0035C101.332 89.3637 102.323 88.5559 103.528 87.5801C104.734 86.6044 106.012 85.5183 107.365 84.3218C108.602 83.2517 109.811 82.1721 110.995 81.0972C112.18 80.0223 113.139 79.1154 113.902 78.4004Z" fill="#EBD8F6"/>
<path d="M156.206 47.6362L156.834 48.6583C155.936 49.1994 155.127 49.8761 154.436 50.6642C154.214 50.9348 154.058 51.2536 153.98 51.5951C153.903 51.9367 153.906 52.2915 153.99 52.6316C154.318 53.6883 154.803 54.6897 155.429 55.602L171.308 81.3179C171.793 82.1726 172.404 82.9492 173.12 83.6213C173.35 83.83 173.626 83.9801 173.926 84.0587C174.226 84.1373 174.54 84.1419 174.842 84.0723C175.677 83.8264 176.47 83.4541 177.192 82.9686L180.098 81.1739C181.318 80.4539 182.362 79.4702 183.153 78.2947C183.869 77.1698 184.324 75.8992 184.487 74.5758C184.657 73.0636 184.57 71.5335 184.228 70.0507C183.821 68.2568 183.216 66.5138 182.424 64.8537L183.599 64.1292C184.188 65.3161 185.04 66.81 186.156 68.6111C186.635 69.3597 187.307 70.4154 188.218 71.7782C189.129 73.141 190.136 74.5278 191.177 75.9434C189.402 76.9479 187.422 78.114 185.235 79.4417C183.048 80.7693 181.104 81.9577 179.403 83.007L176.29 84.9265C175.034 85.7038 173.672 86.558 172.204 87.489C170.737 88.4199 169.25 89.362 167.744 90.3153C166.245 91.2751 164.825 92.1884 163.486 93.0553L162.853 92.0381C163.696 91.4862 164.46 90.8227 165.126 90.0658C165.34 89.8007 165.485 89.4868 165.549 89.1519C165.612 88.817 165.592 88.4716 165.49 88.1463C165.149 87.1069 164.665 86.1202 164.051 85.2144L148.422 59.9064C147.88 58.9485 147.207 58.0713 146.422 57.3006C146.173 57.0709 145.874 56.903 145.548 56.8105C145.222 56.7179 144.879 56.7034 144.547 56.7681C143.569 57.0078 142.636 57.4049 141.785 57.9437L141.156 56.9265C142.024 56.4466 143.137 55.794 144.48 55.007C145.822 54.22 147.266 53.3562 148.796 52.4109C150.19 51.5535 151.557 50.685 152.896 49.8052C154.239 48.9415 155.342 48.2169 156.206 47.6362Z" fill="#EBD8F6"/>
<path d="M199.386 24.7419C201.454 23.8782 203.133 23.4367 204.421 23.4175C205.585 23.39 206.749 23.4703 207.898 23.6574C208.45 23.7294 208.891 23.7774 209.217 23.787C209.52 23.8053 209.822 23.7578 210.105 23.6478C210.288 23.5697 210.441 23.4336 210.54 23.2603C210.638 23.0869 210.678 22.8859 210.651 22.6881C210.614 22.0116 210.498 21.3417 210.306 20.6919L211.577 20.1592C211.831 20.8742 212.124 21.7091 212.455 22.6496C212.785 23.5902 213.26 24.8426 213.893 26.3782C214.526 27.9138 215.332 29.9437 216.392 32.4534L215.121 32.9859C214.235 31.1636 213.048 29.5039 211.611 28.0769C210.263 26.7012 208.608 25.6665 206.781 25.0586C204.893 24.4849 202.859 24.6267 201.069 25.4569C199.396 26.0933 198.025 27.3396 197.232 28.9455C196.861 29.7386 196.669 30.6035 196.669 31.4792C196.669 32.3549 196.861 33.2199 197.232 34.0129C197.765 35.4261 198.743 36.6271 200.019 37.4343C201.436 38.2398 202.978 38.8041 204.58 39.1042C206.405 39.4881 208.559 39.9008 211.04 40.3423C213.175 40.7304 215.289 41.2252 217.375 41.825C219.176 42.3276 220.872 43.15 222.382 44.2531C223.908 45.4615 225.079 47.0598 225.773 48.8791C226.77 51.2784 227.01 53.5178 226.492 55.5972C225.951 57.718 224.813 59.6386 223.212 61.1301C221.456 62.7892 219.406 64.1072 217.169 65.0169C215.444 65.8055 213.602 66.3095 211.716 66.5093C210.429 66.6013 209.137 66.6013 207.85 66.5093C206.819 66.3318 206.086 66.3318 205.644 66.5093C205.46 66.5867 205.307 66.7227 205.208 66.8963C205.109 67.0698 205.071 67.2712 205.098 67.469C205.131 68.1461 205.246 68.8165 205.443 69.4652L204.172 69.9979C203.888 69.1214 203.518 68.1056 203.064 66.9508C202.61 65.7959 202.009 64.3035 201.261 62.4736C200.519 60.6373 199.56 58.3164 198.384 55.5107L199.654 54.983C200.719 57.1799 202.065 59.2285 203.659 61.0772C205.043 62.734 206.844 63.99 208.877 64.7146C210.818 65.3768 212.969 65.2169 215.332 64.2348C216.544 63.7488 217.642 63.0149 218.555 62.0802C219.405 61.1969 219.969 60.0783 220.176 58.8698C220.371 57.4617 220.156 56.0274 219.557 54.7382C219.003 53.3246 218.062 52.0956 216.843 51.192C215.546 50.286 214.102 49.6137 212.574 49.2054C210.702 48.6879 208.799 48.2872 206.877 48.0057C204.681 47.6218 202.589 47.1739 200.604 46.6621C198.72 46.1947 196.939 45.3811 195.352 44.2628C193.742 43.0586 192.508 41.4208 191.794 39.5408C190.835 37.2503 190.606 35.1453 191.108 33.2259C191.614 31.2961 192.651 29.547 194.101 28.1777C195.63 26.7088 197.423 25.543 199.386 24.7419Z" fill="#EBD8F6"/>
</svg>
