<svg width="130" height="130" viewBox="0 0 130 130" fill="none" xmlns="http://www.w3.org/2000/svg">
<path d="M37.363 97.6852L27.8918 25.415H102.108L92.637 97.6852L65 107.381L37.363 97.6852Z" stroke="#281437" stroke-width="6.83" stroke-linecap="round" stroke-linejoin="round"/>
<path d="M42.625 43.3333H58.875V86.6666L48.0417 81.2499" stroke="#281437" stroke-width="7.83" stroke-linecap="round" stroke-linejoin="round"/>
<path d="M87.375 43.3333H73.8333C73.115 43.3333 72.4262 43.6186 71.9183 44.1265C71.4103 44.6344 71.125 45.3233 71.125 46.0416V62.2916C71.125 63.0099 71.4103 63.6988 71.9183 64.2067C72.4262 64.7146 73.115 64.9999 73.8333 64.9999H81.5413C81.9289 65 82.3121 65.0833 82.6648 65.2441C83.0175 65.405 83.3315 65.6397 83.5857 65.9324C83.8399 66.2251 84.0283 66.569 84.1382 66.9408C84.248 67.3125 84.2768 67.7036 84.2225 68.0874L81.9583 83.9583L71.125 86.6666" stroke="#281437" stroke-width="7.83" stroke-linecap="round" stroke-linejoin="round"/>
</svg>
