<svg width="130" height="130" viewBox="0 0 130 130" fill="none" xmlns="http://www.w3.org/2000/svg">
<path d="M111 21V111H21V21H111ZM107.363 24.6255H24.6372V107.375H107.363V24.6255Z" fill="#281437"/>
<path d="M43 47.7946C45.4956 47.3405 48.8785 47 53.4259 47C58.4169 47 62.0217 48.0783 64.4061 50.1214C66.6245 51.9942 68.0664 55.0021 68.0664 58.5772C68.0664 62.2093 66.9573 65.1604 64.9054 67.2033C62.1326 69.9841 57.9179 71.3464 53.093 71.3464C51.8176 71.3464 50.7085 71.2894 49.7657 71.0624V85.3917H43V47.7946ZM49.7657 65.5574C50.653 65.8413 51.7067 65.8981 53.093 65.8981C58.1952 65.8981 61.3007 63.2875 61.3007 58.8609C61.3007 54.6047 58.4169 52.3913 53.7031 52.3913C51.8174 52.3913 50.4865 52.5617 49.7656 52.7319V65.5574H49.7657Z" fill="#281437"/>
<path d="M71.4393 78.7469C72.9221 79.7269 75.8326 80.8224 78.2486 80.8224C81.2141 80.8224 82.5318 79.7855 82.5318 77.9405C82.5318 76.0377 81.4334 75.1155 78.1386 73.8469C72.9219 72.0018 70.7803 69.004 70.7803 65.66C70.7803 60.7014 74.6792 56.8962 80.8845 56.8962C83.8497 56.8962 86.4308 57.6458 88.0231 58.5682L86.6501 63.5266C85.5519 62.8348 83.3554 61.9124 80.9942 61.9124C78.578 61.9124 77.26 63.1808 77.26 64.9103C77.26 66.6977 78.523 67.5048 81.9277 68.8309C86.815 70.6183 89.0116 73.2127 89.0664 77.3639C89.0664 82.4955 85.2771 85.8962 78.1934 85.8962C74.9537 85.8962 72.043 85.089 70.0664 83.9358L71.4393 78.7469Z" fill="#281437"/>
</svg>
