<svg width="170" height="30" viewBox="0 0 170 30" fill="none" xmlns="http://www.w3.org/2000/svg">
<path d="M11.81 26.89C14.69 26.89 16.94 25.75 18.71 23.68L16.82 21.49C15.53 22.93 13.97 23.83 11.96 23.83C8.06 23.83 5.6 20.62 5.6 15.37C5.6 10.21 8.24 7.03 12.05 7.03C13.85 7.03 15.23 7.84 16.37 9.01L18.23 6.76C16.88 5.32 14.75 4 11.99 4C6.41 4 2 8.29 2 15.49C2 22.75 6.29 26.89 11.81 26.89Z" fill="#222222"/>
<path d="M22.5945 26.47H26.1045V16.45H35.5545V26.47H39.0345V4.39H35.5545V13.42H26.1045V4.39H22.5945V26.47Z" fill="#222222"/>
<path d="M53.2609 26.89C58.9309 26.89 62.8609 22.48 62.8609 15.34C62.8609 8.23 58.9309 4 53.2609 4C47.5609 4 43.6309 8.23 43.6309 15.34C43.6309 22.48 47.5609 26.89 53.2609 26.89ZM53.2609 23.83C49.5709 23.83 47.2309 20.5 47.2309 15.34C47.2309 10.18 49.5709 7.03 53.2609 7.03C56.9209 7.03 59.2909 10.18 59.2909 15.34C59.2909 20.5 56.9209 23.83 53.2609 23.83Z" fill="#222222"/>
<path d="M67.448 26.47H70.958V4.39H67.448V26.47Z" fill="#222222"/>
<path d="M83.4441 26.47H86.9541V4.39H83.4441V26.47Z" fill="#222222"/>
<path d="M92.702 26.47H96.032V16.09C96.032 13.66 95.732 11.14 95.582 8.83H95.732L98.042 13.48L105.332 26.47H108.932V4.39H105.602V14.71C105.602 17.08 105.872 19.78 106.082 22.03H105.932L103.622 17.38L96.2719 4.39H92.702V26.47Z" fill="#222222"/>
<path d="M114.733 26.47H118.243V16.45H127.693V26.47H131.173V4.39H127.693V13.42H118.243V4.39H114.733V26.47Z" fill="#222222"/>
<path d="M136.97 26.47H150.38V23.53H140.48V16.42H148.55V13.45H140.48V7.33H150.05V4.39H136.97V26.47Z" fill="#222222"/>
<path d="M154.958 26.47H168.368V23.53H158.468V16.42H166.538V13.45H158.468V7.33H168.038V4.39H154.958V26.47Z" fill="#222222"/>
</svg>
