<svg width="30" height="170" viewBox="0 0 30 170" fill="none" xmlns="http://www.w3.org/2000/svg">
<path d="M4.00063 14.81C4.00063 17.69 5.14062 19.94 7.21062 21.71L9.40062 19.82C7.96062 18.53 7.06062 16.97 7.06062 14.96C7.06062 11.06 10.2706 8.6 15.5206 8.6C20.6806 8.6 23.8606 11.24 23.8606 15.05C23.8606 16.85 23.0506 18.23 21.8806 19.37L24.1306 21.23C25.5706 19.88 26.8906 17.75 26.8906 14.99C26.8906 9.41 22.6006 5 15.4006 5C8.14063 5 4.00063 9.29 4.00063 14.81Z" fill="#222222"/>
<path d="M4.00062 32.8527C4.00062 38.5227 8.41062 42.4527 15.5506 42.4527C22.6606 42.4527 26.8906 38.5227 26.8906 32.8527C26.8906 27.1527 22.6606 23.2227 15.5506 23.2227C8.41062 23.2227 4.00062 27.1527 4.00062 32.8527ZM7.06062 32.8527C7.06062 29.1627 10.3906 26.8227 15.5506 26.8227C20.7106 26.8227 23.8606 29.1627 23.8606 32.8527C23.8606 36.5127 20.7106 38.8827 15.5506 38.8827C10.3906 38.8827 7.06062 36.5127 7.06062 32.8527Z" fill="#222222"/>
<path d="M4.42062 47.0398L4.42062 50.3698L14.8006 50.3698C17.2306 50.3698 19.7506 50.0698 22.0606 49.9198L22.0606 50.0698L17.4106 52.3798L4.42062 59.6698L4.42062 63.2698L26.5006 63.2698L26.5006 59.9398L16.1806 59.9398C13.8106 59.9398 11.1106 60.2098 8.86062 60.4198L8.86062 60.2698L13.5106 57.9598L26.5006 50.6098L26.5006 47.0398L4.42062 47.0398Z" fill="#222222"/>
<path d="M4.42062 73.5711L4.42062 77.0811L23.5606 77.0811L23.5606 83.5611L26.5006 83.5611L26.5006 67.0911L23.5606 67.0911L23.5606 73.5711L4.42062 73.5711Z" fill="#222222"/>
<path d="M4.42062 83.0661L4.42062 86.6061L16.3906 90.1761C18.7906 90.9261 21.2506 91.5861 23.7406 92.2461L23.7406 92.3661C21.2806 93.0561 18.7906 93.7161 16.3906 94.4661L4.42062 98.0061L4.42062 101.696L26.5006 94.4061L26.5006 90.3561L4.42062 83.0661ZM10.6906 87.1761L10.6906 97.4961L13.4206 97.4961L13.4206 87.1761L10.6906 87.1761Z" fill="#222222"/>
<path d="M4.00062 112.749C4.00062 115.629 5.14062 117.879 7.21062 119.649L9.40062 117.759C7.96062 116.469 7.06062 114.909 7.06062 112.899C7.06062 108.999 10.2706 106.539 15.5206 106.539C20.6806 106.539 23.8606 109.179 23.8606 112.989C23.8606 114.789 23.0506 116.169 21.8806 117.309L24.1306 119.169C25.5706 117.819 26.8906 115.689 26.8906 112.929C26.8906 107.349 22.6006 102.939 15.4006 102.939C8.14062 102.939 4.00062 107.229 4.00062 112.749Z" fill="#222222"/>
<path d="M4.42062 127.36L4.42062 130.87L23.5606 130.87L23.5606 137.35L26.5006 137.35L26.5006 120.88L23.5606 120.88L23.5606 127.36L4.42062 127.36Z" fill="#222222"/>
</svg>
