<svg width="30" height="170" viewBox="0 0 30 170" fill="none" xmlns="http://www.w3.org/2000/svg">
<path d="M4.00063 12.86C4.00063 17.69 6.91063 20.63 10.4506 20.63C13.6906 20.63 15.3106 18.74 16.4206 16.13L17.6806 13.1C18.4306 11.3 19.1506 9.53 21.0406 9.53C22.7806 9.53 23.8606 10.97 23.8606 13.22C23.8606 15.17 23.1106 16.73 21.9106 18.11L24.1006 19.91C25.8106 18.26 26.8906 15.83 26.8906 13.22C26.8906 9.02 24.2806 5.99 20.8006 5.99C17.5906 5.99 15.9106 8.33 15.0406 10.46L13.6906 13.52C12.8206 15.56 12.1906 17.06 10.1806 17.06C8.29063 17.06 7.06062 15.56 7.06062 12.92C7.06062 10.79 8.08062 8.6 9.67062 7.04L7.24062 5C5.20062 7.01 4.00063 9.8 4.00063 12.86Z" fill="#222222"/>
<path d="M4.42062 24.782L4.42062 28.292L11.0506 28.292L15.2206 31.682L4.42062 37.922L4.42062 41.762L17.9806 33.812L26.5006 40.652L26.5006 36.752L16.0606 28.352L16.0606 28.292L26.5006 28.292L26.5006 24.782L4.42062 24.782Z" fill="#222222"/>
<path d="M4.42062 44.7038L4.42062 48.2138L26.5006 48.2138L26.5006 44.7038L4.42062 44.7038Z" fill="#222222"/>
<path d="M4.42062 53.9616L4.42062 66.8316L7.36062 66.8316L7.36062 57.4716L26.5006 57.4716L26.5006 53.9616L4.42062 53.9616Z" fill="#222222"/>
<path d="M4.42062 70.6902L4.42062 83.5602L7.36062 83.5602L7.36062 74.2002L26.5006 74.2002L26.5006 70.6902L4.42062 70.6902Z" fill="#222222"/>
</svg>
