<svg width="30" height="170" viewBox="0 0 30 170" fill="none" xmlns="http://www.w3.org/2000/svg">
<path d="M4.53 5L4.53 8.54L16.5 12.11C18.9 12.86 21.36 13.52 23.85 14.18L23.85 14.3C21.39 14.99 18.9 15.65 16.5 16.4L4.53 19.94L4.53 23.63L26.61 16.34L26.61 12.29L4.53 5ZM10.8 9.11L10.8 19.43L13.53 19.43L13.53 9.11L10.8 9.11Z" fill="#222222"/>
<path d="M4.53 26.5421L4.53 33.9521C4.53 38.8421 6.63 42.3821 11.01 42.3821C13.98 42.3821 15.72 40.5821 16.26 38.0621L16.38 38.0621C17.07 40.0421 19.05 41.1821 21.18 41.1821C25.17 41.1821 26.61 37.9121 26.61 33.4121L26.61 26.5421L4.53 26.5421ZM17.4 30.0521L23.88 30.0521L23.88 33.1121C23.88 36.2021 23.01 37.7621 20.7 37.7621C18.66 37.7621 17.4 36.3821 17.4 33.0221L17.4 30.0521ZM7.26 30.0521L14.76 30.0521L14.76 33.5621C14.76 37.0721 13.65 38.9621 11.16 38.9621C8.49 38.9621 7.26 36.9821 7.26 33.5621L7.26 30.0521Z" fill="#222222"/>
<path d="M4.11 54.9819C4.11 60.6519 8.52 64.5819 15.66 64.5819C22.77 64.5819 27 60.6519 27 54.9819C27 49.2819 22.77 45.3519 15.66 45.3519C8.52 45.3519 4.11 49.2819 4.11 54.9819ZM7.17 54.9819C7.17 51.2919 10.5 48.9519 15.66 48.9519C20.82 48.9519 23.97 51.2919 23.97 54.9819C23.97 58.6419 20.82 61.0119 15.66 61.0119C10.5 61.0119 7.17 58.6419 7.17 54.9819Z" fill="#222222"/>
<path d="M4.11 77.2991C4.11 82.1891 6.81 85.4891 13.98 85.4891L26.61 85.4891L26.61 82.1291L13.77 82.1291C8.79 82.1291 7.16999 80.0591 7.17 77.2991C7.17 74.5391 8.79 72.5591 13.77 72.5591L26.61 72.5591L26.61 69.0791L13.98 69.0791C6.81 69.0791 4.11 72.3791 4.11 77.2991Z" fill="#222222"/>
<path d="M4.52999 95.671L4.52999 99.181L23.67 99.181L23.67 105.661L26.61 105.661L26.61 89.191L23.67 89.191L23.67 95.671L4.52999 95.671Z" fill="#222222"/>
<path d="M4.52999 116.249L4.52999 119.399L15.42 119.399C17.43 119.399 20.25 119.129 22.26 118.949L22.26 119.069L17.16 120.839L6.62999 124.679L6.62999 126.839L17.16 130.679L22.26 132.479L22.26 132.599C20.25 132.419 17.43 132.149 15.42 132.149L4.52999 132.149L4.52999 135.359L26.61 135.359L26.61 131.339L15.42 127.349C13.98 126.869 12.48 126.449 10.98 125.909L10.98 125.789C12.48 125.279 13.98 124.829 15.42 124.289L26.61 120.269L26.61 116.249L4.52999 116.249Z" fill="#222222"/>
<path d="M4.52999 141.151L4.52999 154.561L7.46999 154.561L7.46999 144.661L14.58 144.661L14.58 152.731L17.55 152.731L17.55 144.661L23.67 144.661L23.67 154.231L26.61 154.231L26.61 141.151L4.52999 141.151Z" fill="#222222"/>
</svg>
