<svg width="170" height="30" viewBox="0 0 170 30" fill="none" xmlns="http://www.w3.org/2000/svg">
<path d="M5 25.5794H8.51V17.2094H11.84C16.64 17.2094 20.15 15.0194 20.15 10.1894C20.15 5.17938 16.64 3.49937 11.72 3.49937H5V25.5794ZM8.51 14.4194V6.31938H11.36C14.9 6.31938 16.7 7.24938 16.7 10.1894C16.7 13.0694 15.02 14.4194 11.51 14.4194H8.51Z" fill="#222222"/>
<path d="M32.8831 25.9994C38.5531 25.9994 42.4831 21.5894 42.4831 14.4494C42.4831 7.33937 38.5531 3.10938 32.8831 3.10938C27.1831 3.10938 23.2531 7.33937 23.2531 14.4494C23.2531 21.5894 27.1831 25.9994 32.8831 25.9994ZM32.8831 22.9394C29.1931 22.9394 26.8531 19.6094 26.8531 14.4494C26.8531 9.28937 29.1931 6.13937 32.8831 6.13937C36.5431 6.13937 38.9131 9.28937 38.9131 14.4494C38.9131 19.6094 36.5431 22.9394 32.8831 22.9394Z" fill="#222222"/>
<path d="M47.0703 25.5794H50.5803V16.6694H54.3003C58.8603 16.6694 62.2803 14.5394 62.2803 9.91938C62.2803 5.11937 58.8603 3.49937 54.3003 3.49937H47.0703V25.5794ZM50.5803 13.8794V6.31938H53.9103C57.0903 6.31938 58.8303 7.24938 58.8303 9.91938C58.8303 12.5594 57.0903 13.8794 53.9103 13.8794H50.5803ZM59.1603 25.5794H63.0603L56.2203 13.7294L53.6403 15.7694L59.1603 25.5794Z" fill="#222222"/>
<path d="M70.6426 25.5794H74.1526V6.43937H80.6326V3.49937H64.1626V6.43937H70.6426V25.5794Z" fill="#222222"/>
<path d="M84.4824 25.5794H87.9924V16.0994H96.1524V13.1594H87.9924V6.43937H97.5924V3.49937H84.4824V25.5794Z" fill="#222222"/>
<path d="M109.436 25.9994C115.106 25.9994 119.036 21.5894 119.036 14.4494C119.036 7.33937 115.106 3.10938 109.436 3.10938C103.736 3.10938 99.8059 7.33937 99.8059 14.4494C99.8059 21.5894 103.736 25.9994 109.436 25.9994ZM109.436 22.9394C105.746 22.9394 103.406 19.6094 103.406 14.4494C103.406 9.28937 105.746 6.13937 109.436 6.13937C113.096 6.13937 115.466 9.28937 115.466 14.4494C115.466 19.6094 113.096 22.9394 109.436 22.9394Z" fill="#222222"/>
<path d="M123.623 25.5794H136.493V22.6394H127.133V3.49937H123.623V25.5794Z" fill="#222222"/>
<path d="M140.352 25.5794H143.862V3.49937H140.352V25.5794Z" fill="#222222"/>
<path d="M158.039 25.9994C163.709 25.9994 167.639 21.5894 167.639 14.4494C167.639 7.33937 163.709 3.10938 158.039 3.10938C152.339 3.10938 148.409 7.33937 148.409 14.4494C148.409 21.5894 152.339 25.9994 158.039 25.9994ZM158.039 22.9394C154.349 22.9394 152.009 19.6094 152.009 14.4494C152.009 9.28937 154.349 6.13937 158.039 6.13937C161.699 6.13937 164.069 9.28937 164.069 14.4494C164.069 19.6094 161.699 22.9394 158.039 22.9394Z" fill="#222222"/>
</svg>
